<svg width="87" height="100" viewBox="0 0 87 100" fill="none" xmlns="http://www.w3.org/2000/svg">
<g clip-path="url(#clip0_54_2457)">
<mask id="mask0_54_2457" style="mask-type:luminance" maskUnits="userSpaceOnUse" x="-38" y="-21" width="161" height="142">
<path d="M-37.0254 -20.2318H122.766V120.188H-37.0254V-20.2318Z" fill="white"/>
</mask>
<g mask="url(#mask0_54_2457)">
<path fill-rule="evenodd" clip-rule="evenodd" d="M78.3507 -5.66531e-05H7.82589C2.10961 -5.66531e-05 0 2.10955 0 7.8285V76.8366C0 77.4837 0.0260983 78.0849 0.0832683 78.6419C0.21341 79.8902 0.237912 81.0998 1.39889 82.477C1.51234 82.612 2.69764 83.494 2.69764 83.494C3.33521 83.8067 3.77055 84.037 4.48962 84.3264L39.217 98.8759C41.0198 99.7024 41.7737 100.024 43.0831 99.9986V99.9987C43.0848 99.9987 43.0864 99.9987 43.0882 99.9987C43.09 99.9987 43.0916 99.9987 43.0934 99.9987V99.9986C44.4028 100.024 45.1566 99.7024 46.9596 98.8759L81.6868 84.3264C82.4061 84.037 82.8412 83.8067 83.479 83.494C83.479 83.494 84.6643 82.612 84.7776 82.477C85.9385 81.0998 85.963 79.8902 86.0932 78.6419C86.1503 78.0849 86.1766 77.4837 86.1766 76.8366V7.8285C86.1766 2.10955 84.0668 -5.66531e-05 78.3507 -5.66531e-05Z" fill="#F7F8F9"/>
<path d="M73.6269 69.3786L73.6109 69.5379L73.5951 69.7127L73.5632 69.872L73.5156 70.0311L73.4847 70.1744L73.4367 70.3336L73.3732 70.4769L73.3094 70.6044L73.2468 70.7475L73.1672 70.8748L73.0877 71.0023L72.9931 71.1296L72.9133 71.2569L72.8189 71.3682L72.7074 71.4797L72.6128 71.5752L72.4856 71.6867L72.375 71.7822L72.2477 71.8777L72.1213 71.9562L71.9949 72.0517L71.8516 72.1313L71.7092 72.195L71.567 72.2746L71.4077 72.3383L71.2496 72.402L71.0914 72.4496L70.9332 72.4976L70.7899 72.5451L70.6317 72.5771L70.4893 72.6089L70.3471 72.6407L70.1878 72.6726L70.0295 72.6884L69.8872 72.7044L69.728 72.7204L69.554 72.7364L69.3956 72.7522H69.2374H69.0632H68.8882H68.73L68.5716 72.7364H68.3976L68.2393 72.7204L68.0802 72.7044L67.906 72.6884L67.7478 72.6566L67.5896 72.6407L67.4304 72.6089L67.272 72.5771L67.1138 72.5451L66.9556 72.5134L66.7965 72.4658L66.6541 72.4338L66.4959 72.3861L66.3376 72.3383L66.1945 72.2746L66.0363 72.2268L65.8939 72.1792L65.7355 72.1155L65.5924 72.0517L65.45 71.988L65.3076 71.9095L65.1645 71.8458L65.0221 71.7661L64.8957 71.6867L64.7524 71.607L64.626 71.5274L64.4987 71.4479L64.3723 71.3524L64.2459 71.2569L64.1186 71.1613L63.992 71.0658L63.8807 70.9703L63.7543 70.859L63.8498 70.7317L63.9602 70.6202L64.0557 70.4927L64.1663 70.3654L64.2619 70.2541L64.3563 70.1268L64.4678 69.9993L64.5623 69.888L64.6738 69.7607L64.7684 69.6492L64.8797 69.5219L64.9743 69.3944L65.0699 69.2831L65.1803 69.1558L65.2758 69.0283L65.3863 68.917L65.4818 68.7897L65.6082 68.8852L65.7506 68.9807L65.8779 69.0762L66.0203 69.1718L66.1476 69.2513L66.29 69.3466L66.4162 69.4264L66.5597 69.4899L66.6859 69.5696L66.8283 69.6334L66.9716 69.6969L67.1138 69.7607L67.2564 69.8084L67.3995 69.872L67.5577 69.9198L67.716 69.9675L67.8582 70.0153L68.0175 70.0472L68.1757 70.079L68.3339 70.1108L68.5081 70.1268L68.6671 70.1586H68.8255L68.9995 70.1744H69.1579H69.3479L69.522 70.1586L69.6813 70.1268L69.8235 70.0948L69.9659 70.063L70.0932 70.0153L70.2038 69.9517L70.3311 69.8562L70.4256 69.7447L70.4893 69.6172L70.5372 69.4741L70.5529 69.3149V69.2831L70.5372 69.092L70.4735 68.9328L70.3938 68.8215L70.2833 68.7259L70.1559 68.6304L70.0295 68.5669L69.8872 68.5031L69.728 68.4394L69.538 68.36L69.4274 68.3281L69.3012 68.2963L69.1579 68.2483L69.0155 68.2166L68.8573 68.1688L68.698 68.137L68.524 68.0893L68.3657 68.0575L68.1915 68.0097L68.0333 67.9779L67.874 67.9302L67.716 67.8982L67.5577 67.8505L67.4144 67.8029L67.2564 67.7709L67.1138 67.7232L66.9716 67.6754L66.8283 67.6276L66.6541 67.5639L66.4959 67.5002L66.3376 67.4366L66.1785 67.3729L66.0363 67.2933L65.8779 67.2138L65.7506 67.1342L65.6082 67.0547L65.4818 66.9592L65.3545 66.8796L65.244 66.7839L65.1327 66.6726L65.0221 66.5611L64.9266 66.4496L64.8321 66.3383L64.7524 66.227L64.6738 66.0995L64.5942 65.9564L64.5305 65.846L64.4827 65.7185L64.436 65.5752L64.3883 65.4479L64.3563 65.2886L64.3245 65.1454L64.3086 64.9863L64.2928 64.827L64.2768 64.6521V64.4769V64.4451V64.2859L64.2928 64.1268L64.3086 63.9835L64.3245 63.8242L64.3563 63.6811L64.3883 63.5378L64.436 63.3944L64.4678 63.2513L64.5305 63.108L64.5942 62.9647L64.6578 62.8216L64.7366 62.6782L64.816 62.5351L64.9106 62.4076L65.0063 62.2803L65.1167 62.153L65.2281 62.0417L65.3387 61.9142L65.466 61.8027L65.5764 61.7231L65.7037 61.6276L65.8303 61.5321L65.9565 61.4526L66.0998 61.373L66.2422 61.3093L66.3844 61.2297L66.5277 61.1662L66.6859 61.1182L66.8441 61.0547L66.9874 61.0069L67.1138 60.975L67.2564 60.9432L67.3995 60.9114L67.5577 60.8796L67.7 60.8477L67.8582 60.8319L68.0175 60.8159L68.1757 60.7999L68.3339 60.7841H68.4921H68.6671H68.8415H69.0155L69.1897 60.7999L69.3638 60.8159H69.522L69.6971 60.8319L69.8553 60.8636L70.0295 60.8796L70.1878 60.9114L70.3311 60.9432L70.4893 60.975L70.6475 61.0069L70.7899 61.0387L70.949 61.0865L71.0914 61.1342L71.2338 61.1662L71.3928 61.2297L71.5352 61.2775L71.6774 61.3411L71.8198 61.4048L71.9789 61.4685L72.1213 61.5481L72.2477 61.6118L72.391 61.6914L72.5334 61.7709L72.6598 61.8506L72.8029 61.9461L72.9295 62.0255L73.0568 62.1212L73.1832 62.2167L73.3094 62.3121L73.215 62.4395L73.1355 62.5668L73.0408 62.6941L72.9453 62.8216L72.8508 62.9647L72.7711 63.092L72.6756 63.2195L72.581 63.3468L72.5016 63.4741L72.4068 63.6016L72.3115 63.7289L72.2317 63.8562L72.1373 63.9995L72.0416 64.1268L71.9471 64.2541L71.8676 64.3814L71.773 64.5087L71.6457 64.4133L71.5034 64.3336L71.3769 64.2541L71.2496 64.1585L71.1073 64.095L70.9799 64.0153L70.8376 63.9515L70.7112 63.888L70.568 63.8242L70.4415 63.7607L70.2993 63.7129L70.172 63.6492L69.9977 63.6016L69.8395 63.5536L69.6813 63.5061L69.522 63.4741L69.3638 63.4423L69.2056 63.4104L69.0474 63.3944L68.8882 63.3786L68.746 63.3626H68.5876H68.3976L68.2235 63.3944L68.0642 63.4263L67.922 63.4581L67.7956 63.5219L67.6841 63.5854L67.5417 63.7129L67.4462 63.8562L67.3837 63.9995L67.3675 64.1585V64.1905L67.3837 64.3973L67.4621 64.5724L67.5259 64.6679L67.6363 64.7794L67.7796 64.859L67.906 64.9385L68.0642 65.0023L68.2393 65.066L68.4294 65.1296L68.5558 65.1613L68.6822 65.2091L68.8255 65.2409L68.9677 65.2886L69.1259 65.3206L69.3012 65.3684L69.4753 65.4159L69.6495 65.4639L69.8235 65.4957L69.9817 65.5434L70.1559 65.5912L70.3151 65.623L70.4735 65.6707L70.6317 65.7185L70.7739 65.7662L70.9332 65.814L71.0756 65.8618L71.2178 65.9095L71.3928 65.9722L71.551 66.0519L71.7092 66.1155L71.8676 66.195L72.0109 66.2747L72.1533 66.3543L72.2795 66.4338L72.4068 66.5293L72.5334 66.6089L72.6598 66.7204L72.7871 66.8317L72.8975 66.9592L73.0089 67.0705L73.1035 67.198L73.199 67.3411L73.2777 67.4684L73.3574 67.6118L73.4209 67.7391L73.4687 67.8822L73.5156 68.0255L73.5474 68.1688L73.5791 68.3281L73.6109 68.4873L73.6269 68.6464L73.6429 68.8215V68.9965V69.0283V69.2035L73.6269 69.3786ZM62.5136 72.5613H62.3545H62.1963H62.0381H61.8799H61.7206H61.5623H61.4042H61.2459H61.0708H60.9126H60.7544H60.5962H60.4368H60.2788H60.1204H59.9622H59.803H59.6448H59.4866H59.3284H59.17H59.0109H58.8527H58.6945H58.5362H58.3769H58.2187H58.0605H57.8863H57.7273H57.5689H57.4107H57.2525H57.0934H56.935H56.7769H56.6185H56.4594H56.3012H56.143H55.9846H55.8254H55.6674H55.509H55.3508H55.1917H55.0333H54.8592H54.701H54.5428H54.3835H54.2253H54.067H53.9089H53.7499H53.5915H53.4333V72.402V72.2428V72.0837V71.9253V71.7661V71.607V71.4479V71.2888V71.1296V70.9703V70.8112V70.652V70.4927V70.3336V70.1744V70.0153V69.8562V69.6969V69.5537V69.3944V69.2353V69.0762V68.917V68.7577V68.5986V68.4394V68.2801V68.121V67.962V67.8029V67.6436V67.4844V67.3253V67.166V67.0068V66.8477V66.6884V66.5293V66.3702V66.211V66.0519V65.8935V65.7345V65.5752V65.4159V65.2569V65.0978V64.9385V64.7794V64.6202V64.4609V64.3018V64.1426V63.9835V63.8402V63.6811V63.5219V63.3626V63.2035V63.0443V62.8852V62.7259V62.5668V62.4076V62.2485V62.0892V61.93V61.7709V61.6118V61.4526V61.2935V61.1342V60.975H53.5915H53.7499H53.9089H54.067H54.2253H54.3835H54.5428H54.701H54.8592H55.0175H55.1766H55.335H55.493H55.6514H55.7945H55.9529H56.1111H56.2694H56.4285H56.5867H56.7449H56.9033H57.0623H57.2205H57.3787H57.5371H57.6964H57.8546H58.0128H58.1709H58.3302H58.4886H58.6466H58.8048H58.9632H59.1224H59.2806H59.4388H59.597H59.7563H59.9145H60.0726H60.2308H60.3743H60.5325H60.6907H60.8491H61.0081H61.1663H61.3245H61.4827H61.642H61.8002H61.9584H62.1167H62.2758H62.4342H62.5924V61.1342V61.2775V61.4366V61.5958V61.7549V61.8982V62.0575V62.2167V62.3598V62.5191V62.6782V62.8216V62.9807V63.1398V63.299V63.4423V63.6016H62.4342H62.2758H62.1167H61.9584H61.8002H61.642H61.4987H61.3405H61.1823H61.0239H60.8649H60.7067H60.5483H60.3901H60.2308H60.0726H59.9145H59.7563H59.597H59.4548H59.2964H59.1382H58.979H58.8209H58.6626H58.5044H58.3451H58.1869H58.0287H57.8705H57.7113H57.5529H57.4107H57.2525H57.0934H56.935H56.7769H56.6185H56.4594V63.7607V63.9197V64.0788V64.2381V64.3973V64.5406V64.6997V64.859V65.0181V65.1773V65.3364V65.4957H56.6185H56.7769H56.935H57.0934H57.2525H57.4107H57.5689H57.7273H57.8705H58.0287H58.1869H58.3451H58.5044H58.6626H58.8209H58.979H59.1382H59.2964H59.4548H59.613H59.7721H59.9303H60.0886H60.247H60.4061H60.5643H60.7067H60.8649H61.0239H61.1823H61.3405H61.4987H61.6578H61.8162H61.9744V65.6547V65.798V65.9564V66.1155V66.2587V66.4178V66.5771V66.7204V66.8796V67.0387V67.198V67.3411V67.5002V67.6594V67.8029V67.962H61.8162H61.6578H61.4987H61.3405H61.1823H61.0239H60.8649H60.7067H60.5643H60.4061H60.247H60.0886H59.9303H59.7721H59.613H59.4548H59.2964H59.1382H58.979H58.8209H58.6626H58.5044H58.3451H58.1869H58.0287H57.8705H57.7273H57.5689H57.4107H57.2525H57.0934H56.935H56.7769H56.6185H56.4594V68.121V68.2963V68.4554V68.6146V68.7897V68.9489V69.108V69.2831V69.4422V69.6014V69.7765V69.9356H56.6185H56.7769H56.935H57.0934H57.2525H57.4107H57.5689H57.7273H57.8863H58.0605H58.2187H58.3769H58.5362H58.6945H58.8527H59.0109H59.17H59.3284H59.4866H59.6448H59.803H59.9622H60.1204H60.2788H60.4368H60.5962H60.7544H60.9126H61.0708H61.2459H61.4042H61.5623H61.7206H61.8799H62.0381H62.1963H62.3545H62.5136H62.6719V70.0948V70.2381V70.3974V70.5564V70.7157V70.859V71.0181V71.1771V71.3206V71.4797V71.6388V71.7822V71.9404V72.0995V72.2586V72.402V72.5613H62.5136ZM50.935 72.5613H50.7768H50.6185H50.4436H50.2854H50.127H49.9688H49.8096H49.6514H49.4772H49.319H49.1606H49.0016H48.8434H48.6852H48.511H48.3517H48.1935H48.0352V72.402V72.2428V72.0837V71.9244V71.7643V71.6052V71.4459V71.2867V71.1276V70.9685V70.8093V70.6493V70.49V70.3308V70.1717V70.0124V69.8523V69.693V69.5339V69.3749V69.2156V69.0565V68.8964V68.7373V68.578V68.4188V68.2597V68.1004V67.9403V67.781V67.6219V67.4629V67.3038V67.1445V66.9844V66.8253V66.666V66.507V66.3477V66.1876V66.0285V65.8692V65.71L47.9558 65.8373L47.8612 65.9816L47.7815 66.1089L47.687 66.2364L47.6075 66.3795L47.5118 66.507L47.4333 66.6343L47.3536 66.7784L47.2591 66.9057L47.1794 67.033L47.0841 67.1605L47.0054 67.3047L46.9099 67.432L46.8312 67.5593L46.7515 67.7026L46.656 67.8307L46.5773 67.9582L46.4818 68.1013L46.4033 68.2288L46.3078 68.3561L46.2292 68.5003L46.1495 68.6277L46.0541 68.7551L45.9755 68.8983L45.8799 69.0265L45.8013 69.1538L45.7058 69.2813L45.626 69.4244L45.5474 69.5526L45.452 69.6801L45.3734 69.8233L45.2779 69.9506L45.1983 70.0779L45.1037 70.2223L45.0242 70.3496H44.9613L44.866 70.2063L44.7863 70.0779L44.6916 69.9347L44.6121 69.8074L44.5174 69.6643L44.4379 69.5359L44.3434 69.3926L44.2637 69.2651L44.1682 69.122L44.0896 68.9947L43.994 68.8504L43.9156 68.7231L43.82 68.5798L43.7403 68.4525L43.6459 68.3083L43.5662 68.181L43.4717 68.0378L43.3762 67.9105L43.2966 67.7663L43.202 67.639L43.1225 67.4957L43.0278 67.3684L42.9483 67.2241L42.8537 67.0968L42.7741 66.9535L42.6786 66.8262L42.5999 66.6829L42.5044 66.5545L42.4258 66.4114L42.3303 66.284L42.2507 66.1407L42.1563 66.0136L42.0764 65.8692L41.9819 65.7419V65.901V66.0602V66.2195V66.3795V66.5387V66.6978V66.8571V67.0163V67.1763V67.3356V67.4788V67.6379V67.7972V67.9563V68.1164V68.2757V68.4348V68.5938V68.7531V68.9124V69.0723V69.2316V69.3908V69.5499V69.7092V69.8683V70.0284V70.1875V70.3468V70.5058V70.6651V70.8251V70.9685V71.1276V71.2867V71.4459V71.6052V71.7643V71.9244V72.0837V72.2428V72.402V72.5613H41.8237H41.6646H41.5063H41.3481H41.1899H41.0308H40.8724H40.7142H40.5559H40.3968H40.2386H40.0802H39.922H39.7629H39.6047H39.4464H39.288H39.1289H38.9707V72.402V72.2428V72.0837V71.9253V71.7661V71.607V71.4479V71.2888V71.1296V70.9703V70.8112V70.652V70.4927V70.3336V70.1744V70.0153V69.8562V69.6969V69.5537V69.3944V69.2353V69.0762V68.917V68.7577V68.5986V68.4394V68.2801V68.121V67.962V67.8029V67.6436V67.4844V67.3253V67.166V67.0068V66.8477V66.6884V66.5293V66.3702V66.211V66.0519V65.8935V65.7345V65.5752V65.4159V65.2569V65.0978V64.9385V64.7794V64.6202V64.4609V64.3018V64.1426V63.9835V63.8402V63.6811V63.5219V63.3626V63.2035V63.0443V62.8852V62.7259V62.5668V62.4076V62.2485V62.0892V61.93V61.7709V61.6118V61.4526V61.2935V61.1342V60.975H39.1289H39.288H39.4306H39.5886H39.7469H39.906H40.0484H40.2066H40.3659H40.5241H40.6665H40.8247H40.9839H41.1421H41.2843H41.4425H41.6018H41.7601H41.9024H42.0606H42.2198L42.2985 61.1024L42.378 61.2455L42.4725 61.372L42.5522 61.5152L42.6317 61.6425L42.7104 61.786L42.7899 61.9122L42.8847 62.0557L42.9641 62.183L43.0438 62.3103L43.1225 62.4525L43.202 62.58L43.2966 62.7231L43.3762 62.8506L43.4557 62.9928L43.5344 63.1201L43.6299 63.2474L43.7096 63.39L43.7881 63.5171L43.8676 63.6604L43.9465 63.7878L44.042 63.93L44.1215 64.0575L44.2 64.2006L44.2797 64.327L44.3584 64.4543L44.4539 64.5976L44.5334 64.7251L44.6121 64.8684L44.6916 64.9948L44.7703 65.1381L44.866 65.2654L44.9455 65.4076L45.0242 65.5351L45.1037 65.4076L45.1832 65.2654L45.2779 65.1381L45.3572 64.9948L45.4361 64.8684L45.5156 64.7251L45.6102 64.5976L45.6898 64.4543L45.7695 64.327L45.848 64.2006L45.9435 64.0575L46.0222 63.93L46.1019 63.7878L46.1812 63.6604L46.2759 63.5171L46.3554 63.39L46.4351 63.2474L46.5136 63.1201L46.5935 62.9928L46.688 62.8506L46.7675 62.7231L46.847 62.58L46.9259 62.4525L47.0212 62.3103L47.1 62.183L47.1794 62.0557L47.2591 61.9122L47.3536 61.786L47.4333 61.6425L47.5118 61.5152L47.5915 61.372L47.687 61.2455L47.7657 61.1024L47.8452 60.975H48.0034H48.1618H48.3049H48.4632H48.6214H48.7796H48.9229H49.0813H49.2393H49.3977H49.5409H49.6991H49.8573H50.0157H50.1588H50.3172H50.4754H50.6336H50.7768H50.935H51.0932V61.1342V61.2935V61.4526V61.6118V61.7709V61.93V62.0892V62.2485V62.4076V62.5668V62.7259V62.8852V63.0443V63.2035V63.3626V63.5219V63.6811V63.8402V63.9835V64.1426V64.3018V64.4609V64.6202V64.7794V64.9385V65.0978V65.2569V65.4159V65.5752V65.7345V65.8935V66.0519V66.211V66.3702V66.5293V66.6884V66.8477V67.0068V67.166V67.3253V67.4844V67.6436V67.8029V67.962V68.121V68.2801V68.4394V68.5986V68.7577V68.917V69.0762V69.2353V69.3944V69.5537V69.6969V69.8562V70.0153V70.1744V70.3336V70.4927V70.652V70.8112V70.9703V71.1296V71.2888V71.4479V71.607V71.7661V71.9253V72.0837V72.2428V72.402V72.5613H50.935ZM32.5485 67.7869L32.5007 67.6427L32.4381 67.4835L32.3743 67.3402L32.3266 67.196L32.2639 67.0527L32.2003 66.8935L32.1524 66.7493L32.0887 66.606L32.0262 66.4629L31.9782 66.3188L31.9145 66.1595L31.8678 66.0162L31.8041 65.8721L31.7403 65.7288L31.6927 65.5855L31.6299 65.4255L31.5663 65.2821L31.5186 65.139L31.4548 64.9948L31.3921 64.8355L31.3444 64.6914L31.2806 64.5481L31.218 64.6914L31.1704 64.8355L31.1066 64.9948L31.0429 65.139L30.996 65.2821L30.9325 65.4255L30.8687 65.5855L30.8061 65.7288L30.7581 65.8721L30.6946 66.0162L30.6308 66.1595L30.584 66.3188L30.5204 66.4629L30.4567 66.606L30.4091 66.7493L30.3462 66.8935L30.2825 67.0527L30.2189 67.196L30.1722 67.3402L30.1085 67.4835L30.0447 67.6427L29.997 67.7869L29.9343 67.9302H30.0925H30.2507H30.4091H30.5682H30.7263H30.8845H31.0429H31.2022H31.3444H31.5026H31.6618H31.82H31.9782H32.1366H32.2948H32.4539H32.6121L32.5485 67.7869ZM37.5251 72.5613H37.3661H37.2235H37.0655H36.9062H36.748H36.5896H36.4474H36.2882H36.13H35.9718H35.8134H35.6543H35.5119H35.3537H35.1954H35.0363H34.8781H34.7357H34.5775H34.4184L34.3556 72.4178L34.3078 72.2746L34.2443 72.1313L34.1805 71.9722L34.1336 71.8298L34.0701 71.6867L34.0063 71.5434L33.9595 71.4001L33.8959 71.2569L33.8322 71.1136L33.7846 70.9703L33.7217 70.8112L33.658 70.6679L33.6102 70.5247L33.5465 70.3814H33.3883H33.2301H33.0719H32.9137H32.7704H32.6121H32.4539H32.2948H32.1366H31.9782H31.82H31.6618H31.5026H31.3444H31.2022H31.0429H30.8845H30.7263H30.5682H30.4091H30.2507H30.0925H29.9343H29.7761H29.6327H29.4746H29.3163H29.157H28.9988L28.9361 70.5247L28.8884 70.6679L28.8246 70.8112L28.7611 70.9703L28.7142 71.1136L28.6506 71.2569L28.5869 71.4001L28.5391 71.5434L28.4765 71.6867L28.4127 71.8298L28.365 71.9722L28.3021 72.1313L28.2386 72.2746L28.1908 72.4178L28.1271 72.5613H27.9689H27.8107H27.6525H27.4932H27.335H27.1609H27.0027H26.8443H26.6852H26.527H26.3688H26.2104H26.0512H25.8932H25.735H25.5608H25.4015H25.2434H25.085H24.9268L24.9895 72.4178L25.0532 72.2746L25.1168 72.1313L25.1796 71.9722L25.2274 71.8298L25.2911 71.6867L25.3547 71.5434L25.4173 71.4001L25.4811 71.2569L25.5448 71.0976L25.6075 70.9543L25.6712 70.8112L25.7188 70.6679L25.7826 70.5247L25.8452 70.3814L25.909 70.2223L25.9725 70.079L26.0354 69.9356L26.0991 69.7925L26.1627 69.6492L26.2104 69.5059L26.2731 69.3466L26.3369 69.2035L26.4006 69.0603L26.4633 68.917L26.527 68.7737L26.5908 68.6304L26.6534 68.4712L26.7012 68.3281L26.7649 68.1848L26.8285 68.0415L26.8913 67.8982L26.9549 67.7549L27.0185 67.5958L27.0813 67.4526L27.1449 67.3093L27.1926 67.166L27.2564 67.0229L27.319 66.8796L27.3828 66.7204L27.4465 66.5771L27.5092 66.4338L27.5728 66.2905L27.6365 66.1474L27.6843 66.004L27.7471 65.8618L27.8107 65.7025L27.8742 65.5594L27.9371 65.4159L28.0007 65.2727L28.0644 65.1296L28.1271 64.9863L28.1748 64.827L28.2386 64.6839L28.3021 64.5406L28.365 64.3973L28.4287 64.2541L28.4923 64.1108L28.5551 63.9515L28.6187 63.8084L28.6665 63.6651L28.73 63.5219L28.7929 63.3786L28.8564 63.2353L28.9202 63.0762L28.9828 62.9329L29.0466 62.7897L29.1103 62.6464L29.157 62.5033L29.2208 62.3598L29.2845 62.2007L29.3482 62.0575L29.4109 61.9142L29.4746 61.7709L29.5382 61.6276L29.6009 61.4845L29.6488 61.3253L29.7124 61.182L29.7761 61.0387L29.8388 60.8954H29.997H30.1403H30.2985H30.4567H30.6159H30.7581H30.9163H31.0747H31.234H31.3763H31.5344H31.6927H31.8518H31.9942H32.1524H32.3106H32.4699H32.6121H32.7704L32.834 61.0387L32.8977 61.182L32.9606 61.3253L33.0242 61.4845L33.0719 61.6276L33.1346 61.7709L33.1983 61.9142L33.2619 62.0575L33.3256 62.2007L33.3883 62.3598L33.452 62.5033L33.5158 62.6464L33.5625 62.7897L33.6262 62.9329L33.6899 63.0762L33.7537 63.2353L33.8164 63.3786L33.8799 63.5219L33.9437 63.6651L34.0063 63.8084L34.0541 63.9515L34.1177 64.1108L34.1805 64.2541L34.2443 64.3973L34.3078 64.5406L34.3716 64.6839L34.4342 64.827L34.4978 64.9863L34.5457 65.1296L34.6084 65.2727L34.672 65.4159L34.7357 65.5594L34.7994 65.7025L34.8621 65.8618L34.9259 66.004L34.9894 66.1474L35.0363 66.2905L35.0998 66.4338L35.1636 66.5771L35.2264 66.7204L35.29 66.8796L35.3537 67.0229L35.4175 67.166L35.4802 67.3093L35.5279 67.4526L35.5915 67.5958L35.6543 67.7549L35.7179 67.8982L35.7816 68.0415L35.8452 68.1848L35.908 68.3281L35.9718 68.4712L36.0194 68.6304L36.0822 68.7737L36.1458 68.917L36.2095 69.0603L36.2722 69.2035L36.3359 69.3466L36.3997 69.5059L36.4634 69.6492L36.5101 69.7925L36.5738 69.9356L36.6376 70.079L36.7003 70.2223L36.7638 70.3814L36.8276 70.5247L36.8911 70.6679L36.9538 70.8112L37.0017 70.9543L37.0655 71.0976L37.1281 71.2569L37.1917 71.4001L37.2553 71.5434L37.3181 71.6867L37.3817 71.8298L37.4454 71.9722L37.4934 72.1313L37.5558 72.2746L37.6196 72.4178L37.6831 72.5613H37.5251ZM23.6422 71.0816L23.5149 71.1771L23.4043 71.2569L23.277 71.3524L23.1506 71.4319L23.0242 71.5274L22.8969 71.607L22.7705 71.6867L22.6272 71.7661L22.4848 71.8458L22.3424 71.9253L22.1993 71.988L22.0569 72.0677L21.8987 72.1313L21.7565 72.195L21.5973 72.2586L21.455 72.3223L21.3125 72.3701L21.1694 72.4178L21.027 72.4658L20.8688 72.5134L20.7266 72.5613L20.5673 72.5931L20.4249 72.6249L20.2667 72.6566L20.1076 72.6884L19.9493 72.7044L19.7751 72.7204L19.6169 72.7364L19.4427 72.7522L19.2835 72.7681L19.1095 72.7839H18.9353H18.761H18.587H18.4277L18.2695 72.7681L18.0953 72.7522L17.9371 72.7364L17.7789 72.7204L17.6197 72.7044L17.4615 72.6726L17.3031 72.6407L17.1609 72.6089L17.0018 72.5771L16.8594 72.5293L16.7012 72.4976L16.558 72.4496L16.4156 72.3861L16.2732 72.3383L16.1152 72.2746L15.9719 72.211L15.8295 72.1474L15.6873 72.0837L15.5438 72.0042L15.4176 71.9253L15.2752 71.8458L15.1479 71.7661L15.0215 71.6867L14.8942 71.591L14.7678 71.4957L14.6412 71.4001L14.5298 71.3046L14.4194 71.2091L14.3079 71.0976L14.1975 71.0023L14.086 70.8908L13.9755 70.7793L13.88 70.6679L13.7854 70.5406L13.6899 70.4291L13.6103 70.3018L13.5157 70.1744L13.4363 70.0472L13.3575 69.9198L13.278 69.7765L13.1984 69.6492L13.1357 69.5059L13.072 69.3626L13.0084 69.2193L12.9456 69.0762L12.8978 68.9489L12.8341 68.8055L12.8023 68.6622L12.7554 68.5191L12.7237 68.36L12.6759 68.2166L12.6441 68.0575L12.6281 67.9142L12.5962 67.7549L12.5806 67.6118L12.5644 67.4526L12.5495 67.2933L12.5337 67.1342V66.9592V66.7999V66.7681V66.6089L12.5495 66.4338V66.2747L12.5644 66.1155L12.5806 65.9404L12.6123 65.7822L12.6281 65.623L12.6599 65.4797L12.7077 65.3206L12.7396 65.1613L12.7863 65.0181L12.8341 64.859L12.8819 64.7157L12.9456 64.5564L13.0084 64.4133L13.072 64.27L13.1357 64.1268L13.1984 63.9835L13.278 63.8402L13.3575 63.7129L13.4363 63.5854L13.5157 63.4581L13.5954 63.3308L13.6899 63.2035L13.7854 63.0762L13.88 62.9489L13.9755 62.8372L14.086 62.7259L14.1815 62.6144L14.2921 62.5033L14.4034 62.3916L14.5139 62.2963L14.6412 62.1848L14.7518 62.0892L14.8782 61.9937L15.0055 61.9142L15.1319 61.8187L15.2594 61.7391L15.3856 61.6596L15.528 61.5799L15.6713 61.5003L15.8135 61.4208L15.9559 61.357L16.099 61.2935L16.2574 61.2138L16.3838 61.1662L16.542 61.1182L16.6854 61.0547L16.8277 61.0227L16.9699 60.975L17.1289 60.9432L17.2713 60.8954L17.4295 60.8636L17.5879 60.8477L17.747 60.8159L17.9054 60.7999L18.0634 60.7841L18.2217 60.7681L18.381 60.7521H18.5552H18.7134H18.8874H19.0615L19.2368 60.7681L19.411 60.7841H19.5691L19.7273 60.7999L19.9015 60.8319L20.0448 60.8477L20.203 60.8796L20.3614 60.9114L20.5045 60.9432L20.6467 60.975L20.7892 61.0069L20.9325 61.0547L21.0747 61.0865L21.2012 61.1342L21.3444 61.182L21.4868 61.2455L21.629 61.3093L21.7723 61.373L21.9147 61.4526L22.0569 61.5163L22.1844 61.5958L22.3266 61.6754L22.453 61.7549L22.5963 61.8346L22.7227 61.93L22.8491 62.0097L22.9764 62.1052L23.1029 62.2007L23.2302 62.3121L23.3566 62.4076L23.261 62.5351L23.1506 62.6464L23.0551 62.7737L22.9447 62.901L22.8491 63.0285L22.7545 63.1398L22.643 63.2671L22.5486 63.3944L22.453 63.5061L22.3424 63.6334L22.2471 63.7607L22.1365 63.888L22.0409 63.9995L21.9465 64.1268L21.8352 64.2541L21.7404 64.3814L21.629 64.4929L21.5344 64.6202L21.4071 64.5247L21.2807 64.4133L21.1534 64.3336L21.027 64.2381L20.9006 64.1585L20.7733 64.0788L20.6467 63.9995L20.5045 63.9197L20.3772 63.8562L20.2507 63.7924L20.1234 63.7447L19.9811 63.6969L19.8388 63.6492L19.6956 63.6174L19.5374 63.5854L19.3792 63.5536L19.2208 63.5378L19.0466 63.5219L18.8716 63.5061H18.6974H18.5392L18.381 63.5219L18.2377 63.5378L18.0795 63.5696L17.9371 63.6016L17.7939 63.6492L17.6516 63.6969L17.5093 63.7607L17.3669 63.8242L17.2396 63.9038L17.1133 63.9835L16.9858 64.0632L16.8754 64.1585L16.7639 64.2541L16.6535 64.3496L16.558 64.4609L16.4475 64.5724L16.352 64.6997L16.2732 64.8112L16.1936 64.9385L16.1152 65.0818L16.0354 65.2091L15.9719 65.3524L15.9241 65.4957L15.8613 65.6389L15.8135 65.798L15.7817 65.9564L15.7499 66.0995L15.718 66.2747L15.7022 66.4338L15.6873 66.5929V66.7681V66.7999V66.9592L15.7022 67.1182L15.718 67.2615L15.734 67.4208L15.7657 67.5639L15.7977 67.7073L15.8295 67.8505L15.8772 67.9937L15.9241 68.121L15.9879 68.2801L16.0514 68.4236L16.1301 68.5669L16.2096 68.6942L16.2892 68.8215L16.3838 68.9489L16.4793 69.0603L16.5897 69.1718L16.6854 69.2831L16.7957 69.3786L16.9232 69.4741L17.0496 69.5696L17.1758 69.6492L17.3031 69.7287L17.4457 69.7925L17.5879 69.8562L17.731 69.9198L17.8894 69.9675L18.0476 70.0153L18.2068 70.0472L18.365 70.079L18.5232 70.0948L18.6974 70.1108H18.8716H19.0615L19.2368 70.0948L19.411 70.079L19.5691 70.063L19.7273 70.0311L19.8866 69.9993L20.0448 69.9517L20.187 69.9198L20.3296 69.8562L20.4569 69.7925L20.5991 69.7287L20.7104 69.6652L20.837 69.5854V69.4264V69.2673V69.108V68.9489V68.7737V68.6146V68.4554V68.2963V68.137H20.6786H20.5355H20.3772H20.219H20.0608H19.9175H19.7591H19.6009H19.4427H19.2996H19.1413H18.9831H18.8247H18.6816H18.5232V67.9779V67.8346V67.6754V67.5163V67.357V67.2138V67.0547V66.8954V66.7363V66.5929V66.4338V66.2747V66.1155V65.9722V65.814H18.6816H18.8407H18.999H19.1571H19.3154H19.4736H19.6329H19.7911H19.9493H20.1076H20.2667H20.4249H20.5831H20.7413H20.9006H21.0589H21.2171H21.3753H21.5344H21.6928H21.851H22.0092H22.1682H22.3266H22.4848H22.643H22.8023H22.9605H23.1188H23.277H23.4361H23.5943H23.7527V65.9722V66.1313V66.2905V66.4338V66.5929V66.7521V66.9112V67.0705V67.2297V67.3729V67.5321V67.6914V67.8505V68.0097V68.1688V68.3281V68.4712V68.6304V68.7897V68.9489V69.108V69.2673V69.4264V69.5696V69.7287V69.888V70.0472V70.2063V70.3654V70.5089V70.6679V70.827V70.9863L23.6422 71.0816Z" fill="black"/>
<path d="M18.5458 34.7597H25.4139V29.4472H18.5458V18.6016H25.6873V13.289H12.7136V51.6304H25.796V46.3176H18.5458V34.7597Z" fill="black"/>
<path d="M67.7395 35.9106V44.5649C67.7395 46.0987 67.0305 46.8103 65.5596 46.8103H64.4687C62.9427 46.8103 62.2338 46.0987 62.2338 44.5649V20.3543C62.2338 18.8206 62.9427 18.109 64.4687 18.109H65.45C66.9219 18.109 67.6308 18.8206 67.6308 20.3543V27.859H73.3537V20.0256C73.3537 15.2608 71.0642 12.9602 66.3228 12.9602H63.4876C58.746 12.9602 56.4014 15.3152 56.4014 20.0809V44.8383C56.4014 49.6042 58.746 51.959 63.4876 51.959H66.377C71.1196 51.959 73.4631 49.6042 73.4631 44.8383V35.9106H67.7395Z" fill="black"/>
<path d="M47.4858 51.6304H53.319V13.2888H47.4858V51.6304Z" fill="black"/>
<path d="M39.0223 30.3234C39.0223 31.8572 38.3144 32.5697 36.8426 32.5697H34.4437V18.4377H36.8426C38.3144 18.4377 39.0223 19.1495 39.0223 20.683V30.3234ZM37.7686 13.2889H28.6113V51.6304H34.4437V37.7175H37.7686C42.5111 37.7175 44.8547 35.3627 44.8547 30.5979V20.4095C44.8547 15.6438 42.5111 13.2889 37.7686 13.2889Z" fill="black"/>
<path fill-rule="evenodd" clip-rule="evenodd" d="M26.4729 86.2986H59.8612L42.8193 91.9187L26.4729 86.2986Z" fill="black"/>
</g>
</g>
<defs>
<clipPath id="clip0_54_2457">
<rect width="86.1767" height="100" fill="white"/>
</clipPath>
</defs>
</svg>
