<svg width="32" height="32" viewBox="0 0 32 32" fill="none" xmlns="http://www.w3.org/2000/svg">
<path d="M5.5261 31.995C5.6871 31.375 5.8331 30.797 5.9841 30.209C6.9061 26.594 7.7441 22.959 8.4111 19.282C8.7391 17.48 9.0051 15.667 9.2551 13.85C9.4431 12.48 9.5411 11.1 9.5211 9.70899C9.5051 8.96899 9.4741 8.21899 9.2611 7.50599C9.1671 7.18299 9.0321 6.87099 8.8601 6.58899C8.6411 6.22399 8.2871 6.08399 7.8601 6.09899C6.6831 6.12999 5.6831 6.58299 4.8341 7.37499C3.8651 8.28599 3.2301 9.41099 2.7611 10.635C2.5421 11.218 2.3811 11.817 2.1981 12.411C2.1721 12.5 2.1621 12.572 2.0471 12.572C1.3861 12.567 0.729102 12.567 0.068102 12.567C0.047102 12.567 0.037102 12.551 0.021102 12.551C0.021102 12.296 -0.009898 12.035 0.021102 11.791C0.485102 7.98399 2.1151 4.76499 4.9121 2.15599C5.9591 1.17699 7.1981 0.494986 8.6151 0.186986C10.6881 -0.261014 12.3441 0.530986 13.3291 2.42699C13.8291 3.39099 14.1001 4.42199 14.2771 5.48399C14.5531 7.20299 14.5691 8.93199 14.5111 10.666C14.4901 11.229 14.4541 11.786 14.4281 12.348C14.4231 12.416 14.4281 12.489 14.4281 12.582C14.5011 12.582 14.5691 12.592 14.6311 12.592C15.8391 12.592 17.0421 12.587 18.2561 12.597C18.4171 12.597 18.4701 12.534 18.4961 12.383C19.2621 8.23199 20.3191 4.15399 21.6841 0.158986C21.7151 0.0649858 21.7471 -0.00201416 21.8771 -0.00201416C23.3721 0.00298584 24.8671 0.00298584 26.3611 0.00298584C26.3821 0.00298584 26.4081 0.00798584 26.4551 0.0129858L26.1951 1.01799C25.1901 4.92899 24.2841 8.86199 23.5491 12.836C23.1641 14.899 22.8411 16.966 22.6271 19.055C22.5121 20.222 22.4391 21.388 22.4761 22.56C22.4971 23.268 22.5491 23.977 22.7731 24.654C22.8561 24.925 22.9871 25.185 23.1381 25.425C23.3571 25.774 23.7061 25.915 24.1221 25.904C25.6691 25.857 26.8461 25.118 27.7831 23.94C28.7261 22.768 29.2931 21.409 29.6941 19.966C29.7301 19.836 29.7721 19.7 29.7981 19.56C29.8141 19.451 29.8661 19.419 29.9701 19.419C30.5901 19.424 31.2151 19.424 31.8351 19.419C31.9701 19.419 31.9961 19.476 31.9911 19.596C31.9751 20.669 31.7831 21.705 31.4701 22.726C30.6841 25.294 29.3971 27.57 27.4801 29.471C26.3971 30.549 25.1311 31.346 23.6411 31.747C22.7401 31.987 21.8341 32.028 20.9431 31.705C19.9271 31.346 19.2401 30.622 18.7291 29.7C18.1931 28.736 17.9111 27.684 17.7291 26.606C17.4061 24.731 17.4061 22.84 17.5001 20.95C17.5521 19.762 17.6671 18.58 17.7551 17.398C17.7761 17.143 17.7761 17.143 17.5261 17.143C16.3851 17.143 15.2451 17.143 14.1041 17.138C13.9631 17.138 13.9011 17.174 13.8751 17.32C13.5161 19.742 13.0261 22.133 12.4431 24.508C11.8391 26.961 11.1461 29.393 10.3281 31.784C10.2711 31.956 10.1871 31.998 10.0151 31.998C8.5981 31.993 7.1761 31.993 5.7551 31.993L5.5261 31.995Z" fill="#F7F8F9"/>
</svg>
