<?xml version="1.0" encoding="UTF-8" standalone="no"?>
<svg
   id="Layer_2"
   viewBox="0 0 451 230"
   version="1.1"
   xmlns="http://www.w3.org/2000/svg"
   xmlns:svg="http://www.w3.org/2000/svg">
   <path
      d="m 125.09,148.16 c -0.43,0.98 -0.65,2.17 -0.65,3.04 0,2.28 1.85,3.69 5.1,3.69 4.99,0 8.68,-2.93 10.09,-11.4 l 0.76,-6.08 h -0.65 c -3.58,3.47 -8.14,5.75 -13.78,5.75 -8.36,0 -18.45,-4.23 -18.45,-19.97 0,-20.51 12.37,-32.34 26.05,-32.34 10.53,0 14.22,5.86 15.52,8.25 h 0.65 l 3.8,-7.16 h 14 l -9.12,51.55 c -2.61,14.87 -10.64,24.42 -29.63,24.42 -16.82,0 -23.23,-5.64 -23.23,-12.92 0,-3.04 0.98,-5.64 1.95,-7.16 l 17.58,0.33 z m 17.26,-21.82 3.36,-17.26 c -0.87,-2.93 -3.26,-4.88 -6.4,-4.88 -7.49,0 -11.94,8.57 -11.94,17.47 0,6.84 3.58,8.9 7.16,8.9 2.5,0 5.64,-1.41 7.81,-4.23 z"
      id="path1"
      style="fill:#ffffff" />
   <path
      d="m 165.9,124.5 c 0,-19.97 11.4,-33.64 25.51,-33.64 9.23,0 13.02,4.34 15.3,8.14 h 0.65 l 3.8,-7.05 h 14.33 l -6.3,36.03 c -0.32,1.63 -0.98,5.1 1.95,5.1 1.3,0 2.71,-0.43 3.69,-0.87 l -1.74,12.27 c -2.82,0.87 -8.79,1.74 -12.16,1.74 -7.16,0 -9.88,-2.71 -10.53,-7.6 h -0.54 c -2.82,2.82 -8.14,7.6 -16.5,7.6 -8.36,0 -17.47,-5.54 -17.47,-21.71 z m 37.55,-16.06 c -0.76,-2.06 -2.6,-4.23 -5.75,-4.23 -5.75,0 -11.29,7.16 -11.29,19.43 0,7.05 2.82,9.33 6.3,9.33 3.04,0 5.43,-1.74 7.16,-4.02 z"
      id="path2"
      style="fill:#ffffff" />
   <path
      d="m 252.41,101.06 c 2.93,-5.97 7.92,-10.2 16.39,-10.2 8.9,0 13.35,3.91 15.3,10.42 h 0.65 c 2.93,-5.43 7.27,-10.42 15.74,-10.42 9.99,0 16.17,4.88 16.17,15.52 0,1.95 -0.22,4.23 -0.65,6.4 l -2.71,15.2 c -0.33,1.85 -0.76,4.99 2.17,4.99 1.19,0 2.61,-0.43 3.58,-0.87 l -1.74,12.37 c -2.82,0.87 -8.79,1.74 -12.05,1.74 -8.47,0 -11.94,-4.01 -11.94,-10.31 0,-1.41 0.22,-2.93 0.44,-4.34 l 3.25,-18.78 c 0.22,-1.3 0.33,-2.82 0.33,-3.8 0,-3.15 -1.3,-4.77 -4.56,-4.77 -3.69,0 -7.71,3.36 -9.66,14.43 l -4.56,26.48 h -19.1 l 5.75,-32.34 c 0.22,-1.3 0.43,-2.82 0.43,-3.8 0,-3.15 -1.3,-4.77 -4.56,-4.77 -3.69,0 -7.81,3.36 -9.77,14.43 l -4.67,26.48 h -19.21 l 6.4,-36.25 c 0.32,-2.06 0.54,-4.67 -2.39,-4.67 -1.19,0 -2.5,0.32 -3.36,0.76 l 1.52,-12.59 c 2.61,-0.76 8.03,-1.52 11.72,-1.52 7.7,0 10.53,4.45 10.53,8.03 0,0.54 0,1.41 -0.11,2.17 h 0.65 z"
      id="path3"
      style="fill:#ffffff" />
   <path
      d="m 353.89,90.86 c 14.76,0 23.66,7.27 23.66,17.69 0,3.8 -1.08,8.68 -2.61,11.83 H 341.3 c -0.33,1.74 -0.44,3.36 -0.44,4.67 0,5.86 2.61,8.47 6.84,8.47 4.67,0 8.79,-1.95 8.79,-7.05 l 17.47,0.11 c 0,13.67 -11.83,19.64 -26.7,19.64 -16.82,0 -25.18,-8.14 -25.18,-20.95 0,-18.67 8.79,-34.4 31.8,-34.4 z m 5.75,20.51 c 0.32,-0.87 0.54,-2.06 0.54,-3.36 0,-4.02 -2.71,-5.97 -6.62,-5.97 -4.99,0 -8.9,2.71 -10.63,9.33 z"
      id="path4"
      style="fill:#ffffff" />
   <path
      d="m 394.92,127.54 c -0.22,0.87 -0.43,1.74 -0.43,2.71 0,2.71 1.52,5.21 7.6,5.21 5.43,0 7.92,-2.17 7.92,-4.99 0,-2.28 -1.85,-3.58 -5.43,-4.45 l -6.73,-1.63 c -11.29,-2.71 -16.17,-6.84 -16.17,-14.33 0,-11.61 9.12,-19.21 27.78,-19.21 18.66,0 22.47,8.36 22.47,13.78 0,1.41 -0.22,3.15 -0.65,4.45 l -16.71,0.11 c 0.32,-0.87 0.43,-1.85 0.43,-2.93 0,-1.95 -1.52,-4.45 -6.73,-4.45 -5.21,0 -7.82,2.39 -7.82,4.99 0,2.93 2.82,3.8 6.08,4.56 l 7.6,1.74 c 10.96,2.5 15.41,7.38 15.41,13.89 0,10.74 -7.82,19.21 -28.44,19.21 -19.1,0 -23.99,-8.25 -23.99,-14.22 0,-1.3 0.22,-2.93 0.65,-4.34 l 17.15,-0.11 z"
      id="path5"
      style="fill:#ffffff" />
</svg>
