<?xml version="1.0" standalone="no"?>
<!DOCTYPE svg PUBLIC "-//W3C//DTD SVG 20010904//EN"
 "http://www.w3.org/TR/2001/REC-SVG-20010904/DTD/svg10.dtd">
<svg version="1.0" xmlns="http://www.w3.org/2000/svg"
 width="1276.000000pt" height="1280.000000pt" viewBox="0 0 1276.000000 1280.000000"
 preserveAspectRatio="xMidYMid meet">
<metadata>
Created by potrace 1.15, written by Peter Selinger 2001-2017
</metadata>
<g transform="translate(0.000000,1280.000000) scale(0.100000,-0.100000)"
fill="#000000" stroke="none">
<path d="M11713 12768 c2 -18 21 -70 42 -116 21 -48 58 -166 85 -273 26 -105
53 -195 60 -202 34 -32 -22 349 -72 490 -25 73 -71 133 -100 133 -17 0 -19 -5
-15 -32z"/>
<path d="M4980 12735 c-8 -9 -11 -30 -7 -55 5 -42 -1 -47 -35 -29 -49 26 -76
28 -103 7 -15 -11 -52 -26 -83 -32 -44 -8 -58 -16 -60 -31 -6 -31 -20 -43
-101 -85 -146 -77 -396 -290 -487 -417 -60 -84 -70 -88 -154 -67 -65 17 -71
17 -104 1 -38 -18 -68 -65 -87 -139 -6 -23 -14 -155 -17 -293 -8 -287 -7 -286
-106 -364 -56 -44 -92 -88 -82 -98 9 -9 54 13 129 64 137 94 91 6 -94 -177
-75 -74 -144 -148 -154 -163 -17 -26 -17 -29 0 -66 16 -37 16 -40 -3 -83 -24
-55 -107 -141 -192 -198 -36 -24 -136 -81 -222 -126 -86 -46 -185 -102 -220
-125 -76 -50 -158 -127 -158 -149 -1 -36 -44 -105 -108 -173 -198 -209 -351
-491 -373 -687 -13 -113 -37 -161 -155 -300 -134 -158 -301 -384 -444 -601
-143 -217 -202 -328 -194 -367 6 -29 -16 -76 -134 -290 -121 -218 -230 -526
-181 -510 19 6 42 56 78 170 47 151 135 317 157 295 15 -14 -23 -158 -112
-426 -52 -156 -106 -330 -120 -388 -37 -154 -25 -215 31 -159 l25 25 0 -33 c0
-18 -9 -97 -20 -176 -58 -415 -73 -789 -46 -1105 58 -681 175 -1199 366 -1634
59 -135 101 -191 144 -191 23 0 20 14 -19 75 -148 230 -334 921 -395 1460 -19
166 -32 246 -70 420 -13 55 -13 198 0 190 16 -10 57 -153 84 -291 14 -71 43
-259 66 -419 97 -678 159 -877 470 -1495 158 -312 230 -415 309 -441 52 -17
91 -53 192 -175 50 -60 124 -138 165 -174 121 -106 164 -180 314 -545 45 -110
91 -218 102 -240 29 -57 68 -106 79 -100 17 11 9 47 -23 106 -18 32 -29 61
-25 65 13 13 61 -32 94 -87 133 -230 217 -329 301 -359 30 -10 100 -46 155
-79 134 -79 210 -113 266 -119 57 -6 119 -34 235 -107 85 -53 137 -68 151 -45
12 20 48 9 170 -55 126 -66 168 -78 179 -49 11 28 -13 52 -78 77 -94 36 -167
96 -396 328 -215 217 -246 242 -257 213 -11 -30 40 -106 143 -210 110 -109
139 -147 129 -164 -10 -16 -27 -12 -93 21 -40 20 -68 42 -82 65 -12 19 -82
110 -156 202 -175 219 -190 260 -71 192 102 -57 118 -26 31 58 -46 44 -60 53
-80 48 -19 -5 -32 0 -53 21 -59 60 -210 356 -252 493 -19 66 -29 82 -83 135
-102 100 -324 295 -335 295 -21 0 -11 -37 22 -83 18 -26 75 -92 126 -147 l92
-100 -83 35 c-125 53 -208 115 -374 280 -158 157 -230 250 -294 376 -21 41
-46 81 -55 89 -25 21 -36 55 -46 155 -11 110 -32 196 -70 288 -55 134 -140
453 -139 524 l1 28 13 -25 c8 -14 58 -133 111 -265 103 -255 162 -385 176
-385 29 0 22 267 -11 400 -11 47 -47 168 -79 270 -64 202 -79 260 -64 260 31
0 98 -138 168 -340 71 -208 95 -317 96 -445 1 -110 9 -169 21 -150 7 12 21
138 43 385 9 96 25 234 36 305 21 141 126 546 191 740 44 130 120 311 144 341
13 18 14 17 8 -11 -4 -16 -34 -115 -66 -220 -60 -192 -90 -306 -83 -313 18
-18 240 609 252 713 5 38 14 59 39 87 41 46 106 174 214 423 98 226 142 314
147 298 2 -6 -14 -69 -37 -140 -42 -132 -64 -258 -40 -237 6 7 32 67 56 135
88 244 256 537 387 674 52 55 68 65 96 65 27 0 46 12 102 64 92 85 212 146
289 146 38 0 71 8 105 25 61 30 65 30 108 5 23 -14 67 -24 128 -31 136 -14
201 -33 315 -89 109 -54 212 -138 234 -190 16 -39 9 -45 -30 -25 -68 35 -50 1
68 -127 158 -170 210 -253 117 -187 -25 18 -48 29 -52 25 -11 -11 30 -86 109
-197 100 -140 153 -229 238 -400 40 -79 101 -196 135 -259 88 -160 135 -274
286 -697 72 -202 174 -480 226 -618 96 -251 143 -391 143 -426 0 -32 -27 -21
-66 26 -39 49 -54 56 -54 27 0 -37 70 -119 125 -147 11 -6 28 -28 39 -50 20
-44 34 -155 19 -155 -5 0 -24 32 -42 70 -38 81 -80 130 -110 130 -30 0 -27
-33 13 -133 50 -123 104 -378 80 -376 -5 0 -26 21 -46 45 -27 32 -38 40 -38
27 0 -29 48 -200 65 -234 26 -49 40 -31 37 46 l-4 68 24 -16 c40 -30 66 -40
83 -33 15 5 16 15 11 60 -7 49 -5 54 15 59 20 5 21 10 16 51 -4 25 -4 46 -2
46 3 0 42 -29 88 -65 84 -67 215 -141 238 -133 7 2 -35 38 -92 80 -58 42 -113
87 -124 99 l-20 22 30 -7 c17 -4 37 -9 46 -12 9 -2 27 5 40 16 24 20 24 20 5
35 -13 10 -42 15 -86 15 -68 0 -109 17 -96 39 4 6 49 32 100 56 51 24 114 62
141 84 101 83 300 333 457 571 75 114 166 214 242 264 47 31 66 33 66 5 0 -35
19 -59 76 -95 30 -19 54 -38 54 -43 0 -13 -42 -46 -101 -79 -63 -36 -92 -73
-142 -182 -43 -95 -68 -118 -148 -136 -78 -17 -109 -30 -109 -44 0 -21 89 -51
172 -57 107 -8 120 -14 116 -61 -3 -35 -1 -37 30 -40 19 -2 91 10 160 27 298
72 706 101 932 66 118 -18 162 -30 190 -53 21 -17 22 -20 7 -49 -27 -51 -56
-57 -258 -49 -115 5 -179 4 -179 -3 0 -13 117 -39 218 -47 45 -4 86 -12 91
-18 11 -13 -27 -115 -57 -155 -47 -63 -108 -80 -307 -82 l-110 -1 105 -25
c187 -44 215 -55 215 -83 0 -48 -118 -99 -320 -136 l-100 -19 186 -6 c185 -6
229 -15 229 -44 0 -30 -41 -123 -65 -145 -20 -19 -32 -22 -65 -17 -22 3 -52
13 -66 22 l-25 16 36 43 c34 42 46 86 24 86 -6 0 -29 -16 -50 -35 -91 -82
-210 -117 -401 -116 -75 1 -148 -3 -161 -8 -13 -5 -53 -34 -88 -64 -192 -163
-340 -196 -964 -217 -170 -6 -337 -15 -371 -21 -55 -10 -68 -8 -140 16 -90 30
-169 72 -203 109 -21 22 -22 26 -8 32 10 3 28 -3 44 -16 48 -37 95 -52 183
-57 111 -6 144 10 182 87 48 99 52 95 -92 95 -144 0 -204 -9 -196 -30 8 -22
-10 -27 -39 -13 -49 26 -134 158 -202 313 l-17 40 -4 -37 c-2 -25 9 -73 32
-141 48 -137 47 -155 -4 -98 -86 95 -199 292 -273 477 -67 166 -96 218 -114
200 -9 -9 14 -89 73 -255 30 -84 54 -156 54 -158 0 -12 -83 96 -110 142 -48
84 -105 233 -186 482 -42 131 -80 248 -85 262 -32 83 -11 -93 30 -256 17 -65
53 -192 81 -283 28 -90 50 -178 48 -195 l-3 -30 -30 50 c-79 133 -253 609
-294 810 -12 55 -35 190 -51 300 -16 110 -34 218 -41 239 -6 23 -32 62 -63 95
-59 63 -119 141 -193 251 -58 86 -93 123 -93 97 0 -8 38 -89 84 -179 88 -171
113 -235 102 -264 -6 -15 -10 -14 -37 12 -17 16 -71 88 -120 161 -48 72 -93
134 -99 138 -24 15 -4 -58 111 -398 119 -354 121 -361 120 -446 -1 -105 -10
-194 -22 -212 -20 -33 -82 43 -176 213 -68 123 -98 166 -108 156 -14 -14 137
-336 220 -471 25 -39 45 -77 45 -84 0 -21 -18 -24 -53 -9 -51 21 -113 81 -167
161 -26 39 -56 77 -66 85 -16 14 -17 13 -11 -20 13 -62 75 -178 124 -231 26
-28 72 -67 101 -85 62 -40 72 -62 72 -152 0 -89 -7 -109 -40 -120 -25 -9 -28
-16 -32 -66 -6 -75 -28 -100 -84 -93 -59 6 -121 53 -261 195 -67 68 -127 121
-133 117 -32 -20 14 -87 155 -225 193 -187 210 -209 222 -283 7 -44 -20 -107
-45 -107 -43 0 -227 162 -263 232 -22 43 -37 54 -51 40 -24 -24 44 -141 149
-256 71 -77 81 -112 36 -122 -16 -3 -34 -7 -41 -10 -15 -4 -32 -46 -32 -79 0
-82 -105 1 -228 182 -65 95 -88 120 -99 110 -19 -19 100 -227 185 -325 76 -87
95 -112 89 -118 -10 -11 -93 43 -192 126 -93 77 -142 110 -165 110 -22 0 24
-64 126 -177 57 -63 104 -119 104 -124 0 -16 -35 -9 -88 17 -29 14 -96 67
-150 118 -94 88 -97 90 -100 63 -4 -31 21 -75 88 -156 54 -66 80 -102 80 -113
0 -17 -24 -6 -60 26 -21 19 -96 64 -167 100 -86 44 -149 84 -190 121 -34 30
-66 55 -71 55 -26 0 -20 -26 23 -106 34 -61 44 -89 36 -97 -21 -21 -91 14
-217 108 -125 95 -177 119 -153 72 31 -59 204 -222 294 -276 41 -25 75 -37
121 -43 35 -4 95 -21 133 -38 38 -16 76 -30 85 -30 30 0 16 38 -26 76 -42 36
-43 36 -13 30 50 -12 138 -56 167 -83 20 -19 44 -28 83 -34 31 -4 72 -17 93
-28 144 -82 389 -164 525 -177 83 -8 85 0 16 66 -64 62 -80 67 -118 39 -22
-16 -37 -20 -63 -15 -58 11 -66 21 -40 49 l23 25 -45 -5 c-64 -8 -107 3 -145
35 -26 21 -32 33 -27 49 4 11 47 67 97 124 126 144 173 213 278 412 119 222
131 237 199 242 30 2 67 13 86 24 45 28 71 26 162 -10 66 -27 92 -31 164 -32
57 0 98 6 124 17 50 21 69 20 114 -3 55 -29 110 -91 131 -148 28 -77 73 -137
190 -254 113 -112 172 -153 236 -164 22 -4 54 -15 70 -24 49 -28 72 -32 255
-41 203 -9 492 2 635 25 231 37 496 107 661 175 54 23 119 48 144 57 65 21
455 34 855 26 390 -7 397 -6 467 70 l48 51 39 -22 c80 -45 140 -20 160 68 7
34 20 54 53 82 l43 38 -3 76 -2 76 40 37 c27 24 40 45 40 62 0 39 -70 139
-157 228 -190 191 -353 269 -688 331 -207 38 -230 49 -191 89 35 37 64 106 76
187 12 76 5 122 -29 218 -12 32 -26 81 -32 109 -11 61 -41 108 -84 132 -46 27
-84 65 -121 122 -18 29 -43 58 -56 66 -13 8 -70 20 -128 27 -57 6 -138 23
-180 36 -119 38 -201 29 -359 -40 -88 -38 -267 -143 -329 -194 -65 -53 -67
-60 -37 -153 26 -84 32 -134 15 -144 -16 -10 -38 37 -54 114 -18 85 -47 130
-114 172 -61 39 -102 49 -192 49 -121 0 -163 -26 -423 -258 -71 -63 -132 -111
-136 -106 -4 5 -29 77 -55 159 -27 83 -89 263 -138 400 -113 314 -139 392
-177 541 -17 65 -38 137 -45 159 -27 76 8 66 48 -14 13 -25 47 -135 75 -244
61 -232 79 -283 95 -267 14 14 12 314 -4 520 -50 658 -183 1148 -372 1369
l-63 75 -5 -66 c-3 -37 -8 -70 -12 -74 -10 -10 -48 75 -48 109 0 15 9 65 19
110 17 72 44 206 59 291 3 21 1 27 -9 24 -20 -6 -55 -72 -80 -148 -46 -140
-138 -310 -167 -310 -15 0 -12 12 34 168 34 115 43 168 24 157 -16 -10 -36
-61 -110 -280 -37 -110 -71 -208 -75 -218 -17 -41 -23 10 -17 149 3 96 1 144
-5 144 -17 0 -33 -82 -33 -164 0 -42 -3 -76 -6 -76 -4 0 -47 33 -98 74 -154
124 -225 164 -350 197 -38 10 -83 28 -99 40 -27 19 -37 21 -107 15 -72 -7 -79
-5 -106 17 -42 34 -59 38 -103 22 -21 -7 -78 -21 -126 -30 -110 -20 -159 -43
-249 -117 -44 -36 -80 -58 -96 -58 -63 0 -230 -181 -375 -405 -43 -67 -104
-146 -139 -180 -55 -53 -74 -84 -173 -280 -62 -121 -135 -254 -163 -297 -66
-101 -276 -522 -335 -673 -46 -117 -64 -148 -95 -165 -37 -20 -44 4 -56 173
-12 160 -25 220 -45 200 -16 -16 -28 -127 -30 -258 -1 -66 -4 -133 -8 -149 -5
-26 -9 -19 -34 58 -17 50 -41 101 -57 119 -19 22 -29 46 -31 72 -4 66 0 95 15
95 23 0 63 109 114 310 37 145 47 213 29 208 -16 -6 -72 -155 -92 -248 -29
-136 -54 -209 -75 -220 -12 -6 -26 -33 -35 -65 -9 -30 -21 -55 -26 -55 -5 0
-9 2 -9 5 0 2 -7 30 -15 62 -31 119 -56 354 -80 753 -18 296 -30 387 -56 401
-16 8 -19 22 -19 97 0 194 49 439 128 644 41 103 52 158 33 158 -16 0 -46 -59
-111 -213 -35 -81 -65 -145 -68 -143 -6 7 14 114 39 201 41 141 93 268 185
450 52 102 94 196 94 208 0 22 -1 22 -21 -3 -11 -14 -52 -79 -91 -145 -39 -66
-79 -131 -90 -144 -18 -24 -18 -24 -18 -2 0 51 146 358 246 516 64 101 99 173
89 183 -4 4 -31 -21 -62 -56 -30 -34 -59 -62 -64 -62 -18 0 30 77 177 280 81
113 155 224 165 247 11 22 48 81 84 129 69 93 79 129 50 168 -21 28 -19 49 12
105 16 27 25 53 20 57 -26 27 -208 -244 -237 -354 -9 -36 -15 -43 -33 -40 -50
7 -28 88 65 247 73 125 95 155 248 326 120 134 184 215 176 223 -6 5 -19 -5
-155 -115 -109 -89 -149 -107 -110 -50 12 17 116 127 231 242 114 116 215 220
223 233 33 47 -13 21 -131 -74 -121 -97 -174 -132 -174 -115 0 18 102 114 215
205 153 122 235 203 235 234 0 17 19 42 60 82 33 32 60 66 60 77 0 36 61 114
195 252 74 76 135 141 135 144 0 17 -25 3 -87 -51 -93 -79 -127 -102 -153
-102 -20 0 -22 4 -16 32 6 33 46 87 143 197 32 37 51 67 44 69 -16 5 -42 -13
-141 -102 -47 -41 -88 -76 -92 -76 -58 -2 320 376 428 427 62 30 50 74 -13 48
-48 -20 -117 -70 -204 -146 -121 -107 -179 -141 -179 -105 0 27 86 116 229
237 79 67 171 149 205 181 l61 59 -66 -35 c-77 -42 -99 -45 -99 -14 0 34 45
84 125 138 116 78 154 130 84 115 -38 -8 -38 7 -1 66 75 117 381 339 469 339
20 0 21 -3 12 -27 -12 -33 1 -49 29 -34 11 6 38 33 61 59 41 49 58 60 137 81
59 16 73 61 20 61 -35 0 -51 24 -31 44 12 11 27 14 53 11 23 -4 64 2 107 14
46 14 73 17 79 11 18 -18 -102 -121 -201 -174 -114 -60 -161 -98 -184 -150
-22 -48 -25 -106 -6 -106 7 0 62 50 122 111 69 70 126 119 153 131 24 11 73
46 109 79 71 65 118 92 172 103 75 14 84 53 14 58 -37 2 -49 7 -51 21 -8 43 4
47 66 24 51 -18 62 -19 76 -8 22 19 20 30 -9 41 -14 5 -25 14 -25 20 0 16 59
12 122 -8 l58 -18 -71 -30 c-39 -16 -70 -33 -68 -39 6 -15 119 -9 162 8 23 10
41 26 47 42 8 22 15 26 38 21 59 -13 180 -27 402 -47 244 -22 304 -32 240 -42
-19 -3 -132 -10 -250 -16 -202 -10 -300 -24 -300 -41 0 -12 114 -20 212 -14
111 8 350 -10 433 -31 112 -29 183 -71 275 -164 98 -99 125 -147 133 -246 4
-39 16 -104 27 -145 42 -152 50 -206 50 -330 0 -177 -11 -206 -46 -128 -10 24
-45 78 -77 121 -43 59 -65 79 -87 84 -17 3 -30 6 -30 7 0 1 4 16 9 33 13 44 5
47 -104 49 -112 1 -171 23 -274 99 -65 49 -101 66 -101 50 0 -39 113 -150 187
-185 58 -28 93 -58 93 -81 0 -27 -23 -39 -64 -32 -34 5 -38 4 -35 -13 3 -13
45 -39 136 -84 73 -36 144 -76 157 -89 55 -51 85 -156 106 -363 17 -167 11
-270 -17 -300 -15 -16 -28 -50 -38 -105 -9 -45 -22 -97 -30 -116 -21 -51 -62
-96 -83 -91 -13 4 -24 -10 -45 -55 -16 -32 -39 -69 -53 -82 -26 -25 -27 -23
-15 39 5 23 5 42 2 42 -4 0 -24 -30 -46 -66 -94 -161 -135 -164 -80 -6 28 79
34 135 13 114 -7 -7 -38 -63 -68 -124 -60 -124 -87 -150 -77 -77 4 24 9 66 13
93 6 38 4 47 -5 41 -18 -10 -51 -85 -51 -113 0 -35 -30 -91 -57 -109 -13 -9
-26 -13 -29 -10 -3 3 6 48 20 100 14 52 26 106 26 121 0 23 -3 25 -31 19 -25
-5 -31 -2 -36 16 -11 41 -46 20 -63 -38 -13 -46 1 -86 31 -86 20 0 24 -5 24
-30 0 -23 -5 -31 -22 -33 -31 -5 -95 31 -132 73 -18 21 -35 35 -38 32 -3 -3 0
-29 7 -57 7 -28 10 -53 8 -56 -3 -2 -44 36 -92 86 -112 116 -126 119 -81 16
14 -31 25 -59 25 -63 0 -3 -33 26 -74 65 -41 39 -85 72 -98 74 -22 3 -35 22
-128 178 -5 8 -12 12 -15 8 -9 -8 20 -97 51 -162 14 -27 23 -51 20 -53 -8 -8
-77 82 -101 132 -52 107 -80 305 -73 508 3 90 8 120 25 153 32 61 215 218 369
317 106 69 125 102 44 78 -67 -20 -237 -142 -384 -275 -76 -69 -141 -126 -145
-126 -33 0 -8 53 58 123 47 51 241 210 344 282 61 43 61 43 48 64 -11 17 -94
-23 -208 -100 -41 -28 -103 -64 -138 -80 -64 -30 -95 -59 -233 -217 -71 -81
-118 -113 -128 -87 -4 8 -3 30 0 49 13 68 -25 93 -43 29 -15 -51 -14 -353 0
-353 6 0 27 35 47 78 l37 77 5 -132 c8 -214 42 -196 55 28 8 140 26 224 54
252 23 23 27 13 11 -29 -9 -23 -7 -33 9 -55 27 -36 38 -90 57 -266 19 -180 36
-227 119 -327 36 -43 68 -89 71 -103 16 -60 -50 -54 -111 12 -22 23 -68 90
-103 148 -63 106 -92 143 -92 116 1 -16 41 -115 94 -234 34 -76 47 -145 27
-145 -14 0 -60 58 -85 109 -13 25 -40 92 -62 148 -21 56 -46 113 -56 125 l-18
23 0 -25 c0 -14 14 -72 30 -129 31 -107 41 -233 19 -246 -32 -20 -136 161
-158 275 -16 81 -28 113 -41 105 -14 -9 -12 -88 4 -154 30 -118 21 -155 -22
-91 -34 51 -71 185 -82 300 -11 115 -32 168 -55 136 -7 -10 -16 -44 -20 -77
-4 -33 -9 -59 -11 -57 -2 2 -10 38 -19 79 -21 102 -24 108 -36 87 -28 -50
-256 -171 -357 -190 -153 -28 -130 -48 56 -48 193 -1 252 -21 266 -91 8 -42
60 -117 156 -226 45 -51 77 -93 72 -93 -5 0 -15 7 -22 15 -7 8 -40 28 -74 44
-33 16 -78 43 -100 60 -39 31 -66 40 -66 21 0 -6 70 -83 155 -170 142 -146
175 -190 144 -190 -31 0 -172 104 -281 207 -71 68 -98 85 -98 65 0 -14 51 -82
119 -157 35 -39 79 -94 99 -123 60 -89 26 -83 -112 23 -89 68 -145 105 -158
105 -20 0 -4 -32 42 -84 31 -36 50 -66 50 -82 0 -14 11 -36 26 -49 l27 -25
-34 -14 c-19 -7 -41 -16 -49 -19 -8 -3 28 -3 80 0 86 5 97 4 113 -14 20 -23
67 -198 67 -250 0 -48 -15 -34 -56 53 -42 87 -75 118 -119 110 -16 -4 -37 -13
-45 -22 -13 -13 -11 -19 27 -50 81 -67 223 -271 244 -349 13 -47 35 -85 51
-85 11 0 6 121 -8 210 -5 30 0 25 39 -41 45 -75 72 -107 83 -96 14 13 -33 134
-113 295 -47 95 -82 176 -78 180 11 11 72 -64 130 -163 56 -96 89 -132 144
-160 48 -24 261 -235 425 -420 153 -174 202 -225 217 -225 22 0 21 2 -161 264
-37 54 -158 198 -268 320 -251 278 -266 296 -260 302 5 5 465 -422 590 -548
69 -69 108 -130 108 -170 0 -29 16 -53 92 -139 32 -37 58 -74 58 -83 0 -20
-76 -76 -105 -76 -12 0 -53 28 -96 65 -73 64 -115 84 -102 48 4 -10 28 -51 54
-91 27 -40 46 -79 43 -85 -8 -22 -185 -127 -213 -127 -5 0 -35 48 -67 108
-139 261 -184 335 -198 321 -9 -9 40 -116 129 -278 52 -96 94 -176 92 -177 -1
-1 -82 -44 -181 -94 -128 -67 -180 -89 -186 -81 -4 7 -12 50 -19 96 -16 115
-35 175 -77 235 -26 38 -34 58 -30 76 4 14 -3 48 -15 81 -50 137 -70 210 -94
345 -29 169 -53 266 -68 275 -12 7 -5 -91 24 -322 30 -247 107 -500 169 -556
36 -33 50 -83 50 -181 0 -65 -3 -81 -20 -98 -24 -24 -53 -26 -70 -5 -19 23
-39 102 -60 240 -26 167 -34 205 -77 345 -20 63 -38 147 -42 185 -5 61 -9 70
-26 70 -15 0 -24 -12 -35 -46 l-14 -46 -78 198 c-88 223 -99 275 -42 191 45
-67 94 -170 94 -198 0 -30 23 -57 46 -52 39 8 22 72 -66 241 -45 88 -79 162
-75 165 3 3 32 -22 63 -56 83 -89 122 -81 66 13 -27 48 -87 105 -108 105 -38
0 -78 -99 -78 -195 -1 -78 11 -129 78 -336 52 -162 74 -255 74 -319 0 -46 -31
-130 -48 -130 -12 0 -22 74 -22 154 0 76 -13 123 -41 149 -12 11 -35 50 -51
86 -43 97 -50 111 -61 111 -15 0 -2 -334 23 -593 24 -251 24 -340 -2 -345 -24
-5 -35 70 -42 265 -5 176 -15 213 -56 223 -34 8 -49 54 -50 155 -1 44 -5 89
-10 100 -7 19 -9 18 -19 -8 -24 -61 -6 -286 30 -363 20 -46 39 -208 39 -344 0
-101 13 -156 39 -163 23 -6 34 -59 25 -119 -14 -90 -47 -86 -42 6 3 60 3 61
-22 57 -69 -10 -65 -14 -65 79 0 47 4 147 9 223 6 95 5 137 -2 137 -27 0 -52
-195 -52 -410 0 -148 -16 -275 -40 -322 -10 -20 -16 -39 -13 -42 4 -3 26 -6
50 -6 40 0 48 5 86 46 104 115 536 392 1002 644 105 56 267 145 361 197 188
103 235 119 253 84 7 -11 15 -21 19 -21 4 0 38 23 76 50 106 77 111 60 11 -40
-49 -49 -87 -92 -84 -94 3 -3 62 33 132 79 70 47 151 96 180 109 53 23 97 65
97 93 0 9 -27 -1 -86 -32 -85 -45 -160 -61 -152 -32 10 34 186 97 343 122 196
31 742 46 739 20 -1 -5 -21 -20 -45 -32 -53 -27 -106 -30 -374 -19 -174 7
-193 6 -225 -11 -24 -12 -37 -28 -43 -51 -6 -27 -17 -38 -60 -58 -29 -13 -57
-24 -64 -24 -20 0 -82 -32 -87 -45 -2 -7 0 -18 4 -25 7 -12 25 -9 99 15 74 23
93 26 105 16 17 -14 291 -18 383 -6 76 10 143 26 143 35 0 16 -37 22 -162 29
-117 6 -150 12 -136 26 3 3 58 10 123 16 65 5 169 23 232 40 142 36 252 40
283 9 11 -11 20 -26 20 -32 0 -7 25 -53 55 -103 57 -92 78 -146 68 -171 -9
-25 -23 -15 -42 29 -38 89 -190 190 -239 159 -23 -15 -1 -42 70 -83 53 -31 73
-50 84 -76 9 -19 38 -71 66 -116 63 -101 102 -192 123 -288 27 -124 45 -155
61 -106 12 35 6 211 -11 342 -8 66 -15 126 -15 132 0 13 77 -31 195 -110 81
-54 170 -130 158 -134 -6 -2 -66 19 -135 47 -142 57 -180 64 -135 25 43 -38
204 -130 352 -201 136 -66 169 -76 159 -49 -14 35 34 7 182 -105 57 -44 118
-87 135 -95 29 -16 32 -16 53 4 l22 21 50 -35 c48 -35 74 -44 74 -26 0 17 -85
116 -218 256 -74 77 -170 182 -214 235 -89 107 -194 257 -186 265 3 3 36 -11
73 -31 56 -31 71 -35 86 -26 27 17 51 5 165 -85 56 -44 143 -106 194 -139 122
-79 190 -132 190 -148 0 -20 72 -115 178 -235 105 -118 173 -216 166 -235 -8
-22 15 -30 35 -12 10 9 23 35 30 59 6 23 21 72 33 108 20 64 20 99 -1 99 -19
0 -41 -32 -41 -61 0 -74 -52 -43 -235 142 -113 114 -126 131 -100 126 59 -11
155 -19 155 -14 0 3 -52 33 -116 67 -145 77 -268 152 -409 251 -121 84 -188
121 -253 138 -73 20 -372 278 -607 524 -129 135 -167 189 -148 208 20 20 85
-20 170 -106 82 -83 105 -117 62 -95 -26 14 -34 8 -21 -17 13 -24 118 -126
200 -193 l62 -52 0 63 c0 83 -23 121 -143 235 -52 49 -110 114 -129 144 -20
30 -88 111 -153 180 -125 133 -171 193 -161 209 14 22 67 -11 100 -63 58 -89
346 -360 466 -437 26 -17 51 -27 62 -23 39 12 181 -45 406 -165 129 -68 214
-93 344 -99 102 -4 111 -3 163 22 60 30 73 56 28 56 -16 0 -83 -5 -150 -11
-94 -10 -138 -9 -195 0 -87 14 -112 29 -136 78 -12 27 -25 39 -47 44 -16 4
-52 12 -80 19 -95 21 -423 197 -450 240 -17 27 14 20 172 -39 92 -35 184 -65
203 -68 43 -7 60 -16 117 -59 86 -66 322 -119 503 -112 77 2 103 7 116 20 16
16 16 18 -12 28 -16 7 -100 16 -186 20 -168 9 -192 12 -308 38 l-75 17 85 6
c47 4 182 8 300 9 l215 2 -175 33 c-425 82 -552 119 -693 202 -51 30 -123 71
-161 90 -37 19 -66 36 -64 39 9 8 174 -28 258 -57 113 -39 240 -53 430 -46
224 8 301 36 285 106 -6 27 -4 31 14 31 11 0 32 -11 47 -24 26 -22 27 -25 14
-56 -24 -57 -163 -128 -258 -132 -26 -1 -76 2 -111 6 -51 7 -63 6 -59 -5 17
-53 183 -65 337 -25 l91 23 43 -22 c23 -13 64 -26 90 -30 26 -4 50 -11 53 -17
3 -5 -7 -43 -22 -84 -15 -41 -25 -77 -22 -79 2 -3 20 16 38 43 52 73 169 190
234 235 68 46 136 105 136 118 0 15 -39 10 -78 -10 -20 -11 -55 -38 -77 -61
-42 -44 -142 -106 -152 -96 -17 16 125 132 399 325 122 87 156 117 144 128
-11 11 -73 -24 -231 -130 -249 -167 -284 -184 -270 -130 9 39 21 51 78 79 27
14 99 58 160 97 62 40 178 113 259 162 91 54 196 129 275 195 165 138 415 394
523 535 46 61 107 137 135 170 69 81 158 202 365 500 201 290 253 356 347 446
88 85 117 107 368 284 116 81 211 149 213 150 7 6 -20 204 -43 320 -44 217
-132 505 -156 505 -18 0 10 -138 95 -465 26 -99 47 -201 47 -226 1 -88 -36
-128 -288 -311 -163 -118 -254 -196 -339 -288 -69 -76 -86 -98 -299 -405 -103
-148 -229 -322 -280 -385 -50 -63 -131 -169 -180 -235 -118 -160 -220 -264
-463 -469 -277 -233 -268 -226 -405 -309 -227 -138 -405 -232 -492 -261 -59
-21 -173 -23 -206 -6 -29 16 -48 40 -49 61 0 9 -7 23 -16 30 -14 11 -19 10
-35 -10 -11 -13 -19 -36 -19 -52 0 -40 -22 -89 -51 -116 -42 -38 -103 -53
-217 -53 -106 0 -120 7 -55 25 20 6 35 15 35 20 -2 19 -66 24 -387 34 -308 10
-385 17 -355 36 7 4 76 12 154 17 154 9 186 14 186 27 0 14 -114 31 -279 40
-84 5 -157 13 -163 19 -6 6 1 15 16 26 15 9 26 20 26 25 0 12 -61 34 -185 66
-258 69 -439 165 -642 341 -122 107 -193 153 -193 126 0 -4 20 -32 45 -62 40
-49 55 -80 39 -80 -34 0 -124 86 -124 119 0 25 105 222 118 220 12 -1 165
-173 175 -197 22 -48 -12 -37 -88 28 -58 50 -82 63 -90 50 -13 -22 180 -201
262 -244 36 -18 54 -5 30 22 -28 32 -47 81 -47 120 0 21 3 42 6 45 4 3 25 -9
47 -28 46 -39 57 -43 57 -17 0 15 -18 40 -120 165 l-25 31 25 -7 c14 -4 45
-10 69 -14 l44 -6 -6 46 c-8 57 -79 268 -102 303 -34 52 -30 12 15 -155 11
-41 18 -77 15 -80 -3 -2 -42 33 -86 80 -80 83 -81 81 -20 -21 11 -19 21 -45
21 -57 0 -20 -5 -23 -36 -23 -32 0 -35 -2 -28 -22 3 -13 15 -40 26 -61 11 -22
17 -41 14 -45 -11 -11 -84 77 -91 110 -4 18 -18 43 -33 55 l-26 22 16 53 c24
76 38 163 38 232 1 84 14 133 43 160 30 28 39 68 76 318 15 103 29 190 32 193
3 2 32 -38 65 -91 77 -124 129 -174 184 -174 22 0 40 2 40 5 0 3 -18 16 -40
30 -79 50 -196 247 -278 470 -50 134 -70 213 -82 317 -12 103 -44 162 -140
258 -85 86 -170 135 -248 146 -54 7 -66 18 -33 29 21 6 36 38 26 55 -3 5 -25
14 -48 21 -33 9 -61 31 -137 109 -100 103 -123 120 -164 120 -17 0 -31 10 -46
36 -21 33 -25 35 -61 29 -33 -6 -55 1 -151 46 -140 65 -296 119 -367 126 -48
5 -55 4 -71 -17 l-17 -23 -34 24 c-24 17 -47 24 -80 24 -30 0 -54 6 -66 18
-24 21 -47 22 -63 2z m-172 -296 c-6 -18 -96 -62 -113 -55 -22 8 -7 36 29 52
39 17 89 18 84 3z m-127 -260 c16 -16 18 -23 8 -35 -16 -19 -42 -18 -70 5 -20
16 -21 21 -10 35 18 22 47 20 72 -5z m-726 -241 c44 -38 82 -111 97 -183 9
-46 8 -58 -6 -80 -24 -36 -33 -31 -40 24 -15 112 -84 199 -136 171 -27 -14
-25 -32 5 -68 65 -77 76 -176 29 -262 -25 -46 -78 -100 -97 -100 -4 0 -7 15
-7 33 0 32 12 53 81 139 25 30 20 58 -11 58 -12 0 -33 12 -47 26 -24 24 -25
30 -21 103 4 62 10 88 32 125 34 58 67 62 121 14z m1150 -1558 c17 -130 19
-178 6 -164 -18 20 -33 114 -37 229 -4 139 6 118 31 -65z m-1635 54 c0 -4 -16
-39 -34 -79 -31 -64 -54 -90 -222 -251 -195 -186 -274 -278 -433 -502 -89
-126 -119 -153 -104 -94 9 38 47 99 141 229 80 112 100 148 87 161 -3 4 -62
-51 -131 -122 -69 -70 -128 -125 -131 -122 -23 23 205 251 292 291 47 22 92
60 208 175 142 142 170 178 127 167 -34 -9 -32 11 5 40 36 29 174 112 188 112
4 1 7 -2 7 -5z m-200 -28 c0 -8 -125 -103 -157 -120 -39 -20 -53 -20 -53 -2 0
7 46 39 103 70 106 58 107 59 107 52z m1156 -80 c15 -63 -30 -87 -82 -43 l-27
23 28 22 c38 30 73 29 81 -2z m-1618 -141 c-26 -25 -53 -45 -60 -45 -7 1 9 21
35 45 64 59 86 58 25 0z m1720 8 c14 -28 24 -92 17 -113 -9 -27 -24 -25 -57 7
-34 32 -36 68 -6 100 26 28 34 29 46 6z m-1466 -70 c-42 -53 -91 -98 -98 -90
-7 7 104 127 118 127 5 0 -4 -17 -20 -37z m-270 -64 c-11 -18 -80 -104 -153
-192 -154 -185 -208 -255 -303 -389 -94 -134 -108 -130 -37 10 55 108 245 346
420 525 80 81 106 98 73 46z m468 23 c0 -15 -105 -122 -119 -122 -16 0 -4 15
63 88 39 40 56 51 56 34z m-590 -260 c0 -29 -349 -580 -391 -617 l-22 -20 8
25 c19 64 174 315 322 518 72 99 83 111 83 94z m2737 -51 c66 -45 100 -78 89
-88 -15 -15 -166 92 -166 118 0 16 17 10 77 -30z m1013 -1 c69 -69 41 -72 -41
-5 -37 30 -44 45 -20 45 12 0 39 -18 61 -40z m-1186 -52 c75 -45 220 -108 249
-108 8 0 26 -12 40 -27 104 -111 153 -154 317 -273 228 -167 275 -209 265
-242 -4 -13 -14 -29 -24 -36 -18 -14 -18 -14 -64 58 -19 29 -30 36 -69 41 -57
9 -70 16 -151 81 -36 29 -91 72 -122 96 -31 24 -64 57 -73 74 -33 60 -67 92
-180 165 -107 71 -213 152 -292 224 -33 29 -33 30 -5 13 17 -10 65 -40 109
-66z m-292 7 c33 -41 71 -105 66 -111 -8 -8 -138 134 -138 150 0 14 3 15 24 4
13 -7 35 -26 48 -43z m1451 -141 c58 -67 167 -191 243 -275 236 -265 376 -448
389 -509 17 -75 504 -569 914 -924 97 -84 191 -170 209 -190 34 -39 77 -116
65 -116 -12 0 -311 226 -430 325 -134 111 -423 393 -552 540 -137 155 -199
235 -294 382 -111 170 -234 334 -442 588 -182 222 -255 317 -255 329 0 16 52
-35 153 -150z m-777 60 c102 -68 335 -286 322 -300 -29 -29 -295 181 -318 251
-6 19 -23 43 -38 54 -40 30 -11 25 34 -5z m292 -13 c52 -10 71 -26 54 -43 -9
-9 -24 -9 -63 0 -29 7 -54 10 -57 8 -2 -3 10 -24 27 -47 17 -24 29 -45 26 -47
-9 -9 -173 114 -174 131 -1 10 133 8 187 -2z m847 -136 c132 -110 383 -345
451 -423 66 -75 80 -112 44 -112 -34 0 -120 80 -284 266 -88 98 -197 216 -243
261 -122 121 -108 124 32 8z m156 36 c187 -125 331 -244 238 -195 -71 36 -277
186 -294 214 -11 18 11 10 56 -19z m-832 -24 c15 -18 26 -77 14 -77 -12 0 -43
54 -43 74 0 20 14 21 29 3z m-3519 -21 c-29 -78 -146 -273 -156 -263 -7 7 73
169 117 235 36 55 55 68 39 28z m2875 -28 c22 -16 85 -70 140 -122 55 -51 156
-142 225 -203 140 -123 251 -237 297 -304 41 -60 105 -188 100 -202 -6 -18
-95 102 -128 173 -45 95 -45 95 -60 95 -9 0 -15 -14 -17 -38 l-3 -37 -32 22
c-18 12 -111 99 -207 193 -167 163 -215 204 -227 191 -3 -3 4 -22 16 -42 12
-20 20 -38 18 -41 -7 -6 -197 182 -197 195 0 17 25 15 68 -7 107 -54 110 -26
7 72 -100 95 -100 127 0 55z m-458 10 c57 -32 83 -59 83 -85 0 -13 -3 -23 -7
-23 -20 1 -144 130 -125 130 6 0 28 -10 49 -22z m1710 -45 c30 -26 125 -128
211 -227 391 -449 509 -581 648 -727 82 -86 173 -190 202 -232 54 -79 118
-204 109 -213 -9 -9 -132 117 -162 166 -37 59 -187 233 -224 259 -36 26 -45
26 -38 1 9 -34 -12 -22 -85 48 -125 119 -218 267 -218 344 0 35 -5 45 -37 72
-96 79 -310 320 -421 472 -74 101 -70 110 15 37z m-1434 -31 c24 -21 21 -32
-8 -32 -26 0 -105 67 -105 89 0 13 77 -26 113 -57z m2026 7 c87 -23 145 -59
125 -78 -15 -17 -93 10 -175 59 -69 42 -84 56 -51 46 9 -2 55 -15 101 -27z
m-4635 -11 c-3 -13 -36 -88 -73 -167 -60 -130 -66 -140 -69 -108 -4 44 41 161
91 240 37 58 64 76 51 35z m3884 -145 c158 -171 322 -375 322 -399 0 -20 -34
-17 -52 4 -9 9 -25 36 -36 58 -27 52 -96 137 -241 295 -62 68 -127 142 -145
164 l-31 39 47 -32 c25 -17 87 -76 136 -129z m-167 29 c55 -60 199 -245 199
-256 0 -41 -172 151 -249 277 -33 55 -11 45 50 -21z m-1203 -32 c39 -37 53
-60 34 -60 -8 0 -55 48 -81 83 -24 30 3 18 47 -23z m2337 -41 c95 -60 345
-187 533 -270 157 -70 195 -89 190 -95 -10 -10 -251 66 -386 122 -172 71 -391
193 -437 244 -19 21 -14 50 8 50 7 0 49 -23 92 -51z m-2133 -30 c46 -28 95
-53 111 -56 24 -5 27 -10 27 -47 0 -33 8 -51 40 -91 150 -190 25 -103 -158
110 -115 134 -116 135 -109 135 3 0 43 -23 89 -51z m901 -48 c28 -26 34 -41
17 -41 -13 0 -90 81 -90 94 0 9 18 -4 73 -53z m2651 -1 c14 -5 26 -17 26 -27
0 -25 -60 -83 -86 -83 -36 0 -47 58 -18 98 16 24 38 27 78 12z m-6642 -95
c-20 -37 -117 -125 -158 -144 -38 -18 -55 -38 -119 -136 -176 -272 -531 -725
-566 -725 -28 0 16 80 179 323 190 283 448 577 506 577 21 0 43 16 94 70 60
63 89 79 64 35z m3128 -75 c131 -88 190 -120 220 -120 32 0 72 -34 166 -142
85 -96 140 -146 151 -135 10 11 -49 104 -123 192 -84 100 -137 183 -129 203 4
10 -2 12 -24 7 -23 -5 -35 -1 -51 15 -25 25 -21 36 8 21 34 -18 41 -14 32 19
-6 20 -5 30 2 30 20 0 187 -173 231 -239 43 -64 48 -75 61 -134 6 -25 11 -28
39 -27 52 3 57 1 57 -21 0 -16 -5 -20 -27 -17 -24 3 -28 -1 -31 -25 -5 -41 13
-57 66 -57 33 0 56 7 84 26 38 27 68 27 68 0 0 -25 -39 -43 -151 -71 -123 -30
-134 -28 -235 49 -87 66 -137 134 -134 184 3 44 1 51 -19 61 -13 7 -29 7 -50
0 -44 -16 -40 -45 17 -119 156 -203 170 -228 140 -258 -22 -22 -50 -12 -89 31
-53 56 -96 125 -121 189 -25 66 -76 137 -212 297 -58 68 -106 128 -106 133 0
12 29 -4 160 -92z m-2910 61 c0 -11 -19 -43 -42 -73 -63 -80 -210 -225 -215
-211 -9 27 64 141 143 221 80 81 114 100 114 63z m3771 -128 c113 -117 240
-265 233 -272 -9 -10 -269 262 -324 339 -41 58 -2 29 91 -67z m-3565 47 c-8
-40 -63 -120 -82 -120 -11 0 -14 6 -9 23 13 42 74 127 92 127 3 0 3 -14 -1
-30z m3952 -12 c7 -7 12 -20 12 -31 0 -32 -44 -18 -48 16 -4 29 14 37 36 15z
m-241 -20 c24 -26 56 -98 44 -98 -16 0 -81 80 -81 100 0 26 12 25 37 -2z m424
-187 c25 -29 43 -41 63 -41 19 0 41 -14 76 -50 67 -66 64 -84 -4 -26 -59 50
-76 56 -76 27 0 -10 -6 -24 -14 -30 -29 -24 -105 67 -141 168 -21 60 -8 72 29
29 17 -20 47 -54 67 -77z m-539 -10 c20 -19 35 -38 31 -43 -6 -11 -55 33 -86
77 -20 28 -20 29 -2 16 11 -8 37 -31 57 -50z m-3926 -124 c-55 -112 -116 -202
-116 -172 0 34 144 284 157 271 3 -3 -15 -48 -41 -99z m-196 58 c0 -23 -49
-116 -139 -262 -195 -319 -349 -686 -387 -921 -24 -154 -51 -265 -104 -437
-61 -202 -92 -323 -126 -500 -23 -122 -27 -179 -35 -450 -9 -345 -20 -429 -49
-375 -36 67 -57 308 -42 480 25 285 66 626 87 725 39 186 81 271 99 199 4 -14
12 -24 19 -21 13 4 22 35 81 286 50 207 146 497 217 657 63 140 64 144 49 144
-19 0 -142 -270 -249 -550 -60 -157 -156 -404 -213 -550 -107 -270 -132 -346
-149 -448 -5 -31 -18 -235 -29 -452 -20 -407 -27 -483 -40 -475 -19 12 -34
183 -34 395 0 326 26 525 100 780 79 271 185 517 258 599 45 50 66 100 66 155
0 40 51 186 109 313 109 240 304 554 410 662 59 59 101 78 101 46z m4499 -30
c36 -42 39 -55 11 -55 -25 0 -70 46 -70 71 0 29 25 22 59 -16z m-4446 -102
c-159 -310 -213 -432 -335 -758 -128 -340 -202 -575 -303 -966 -30 -117 -60
-218 -65 -223 -16 -16 -12 172 4 251 8 37 53 183 100 323 48 145 94 302 105
365 46 242 95 376 227 613 136 246 279 470 292 458 3 -3 -8 -32 -25 -63z
m2011 -3 c14 -17 30 -47 36 -68 11 -41 12 -224 1 -317 -8 -68 -16 -53 -26 50
-3 33 -17 126 -31 206 -13 81 -24 149 -24 153 0 15 20 4 44 -24z m-2418 -144
c-19 -42 -64 -125 -101 -186 -118 -196 -278 -564 -442 -1013 -35 -98 -80 -216
-99 -262 -37 -87 -64 -125 -64 -88 0 36 37 167 120 420 70 216 86 256 120 297
36 44 45 65 64 149 4 15 15 36 26 47 21 21 27 50 10 50 -22 0 -8 54 36 137 75
145 347 543 361 529 2 -2 -11 -38 -31 -80z m417 -59 c-4 -62 -85 -203 -174
-301 -27 -30 -13 17 40 134 88 195 139 258 134 167z m2318 -239 c36 -71 69
-189 69 -245 0 -30 -6 -49 -21 -64 l-21 -21 -21 20 c-17 17 -21 39 -27 139 -5
76 -15 139 -29 178 -11 33 -21 66 -21 74 0 26 41 -21 71 -81z m-162 30 c8 -29
24 -84 37 -123 28 -81 30 -115 9 -115 -22 0 -48 46 -62 114 -14 68 -17 176 -5
176 5 0 14 -24 21 -52z m-2361 -230 c-16 -88 -93 -258 -118 -258 -5 0 -8 6 -6
13 2 6 10 35 17 62 7 28 25 81 41 120 50 123 82 153 66 63z m2287 -55 l-8 -38
-8 34 c-4 19 -4 51 -1 70 l6 36 9 -32 c5 -17 6 -49 2 -70z m-2475 -643 c-22
-214 -78 -480 -100 -480 -12 0 -12 47 0 172 5 54 7 105 3 113 -5 14 -8 14 -26
-2 -20 -18 -20 -18 -14 37 9 94 80 283 125 334 16 18 17 17 21 -20 1 -22 -2
-91 -9 -154z m-159 -569 c-8 -73 -16 -101 -35 -130 -16 -23 -33 -71 -45 -131
-22 -108 -29 -130 -42 -130 -23 0 -2 166 62 489 44 220 51 231 61 101 5 -64 5
-142 -1 -199z m214 210 c23 -74 37 -671 16 -671 -36 0 -71 476 -47 638 8 53
20 67 31 33z m3685 -152 c0 -10 -4 -19 -10 -19 -12 0 -40 54 -40 77 1 15 5 13
25 -10 14 -15 25 -37 25 -48z m105 -1 c43 -94 96 -253 135 -401 56 -221 50
-309 -9 -124 -47 149 -160 529 -167 565 -11 52 5 37 41 -40z m-479 -60 c63
-61 81 -88 45 -69 -20 11 -127 131 -116 131 4 0 36 -28 71 -62z m424 -98 c22
-43 26 -70 10 -70 -12 0 -36 46 -45 89 -9 43 8 34 35 -19z m-54 -112 c100
-237 239 -718 195 -672 -10 10 -244 708 -256 764 -13 61 12 22 61 -92z m-4067
-110 c5 -80 16 -151 24 -170 9 -18 18 -42 21 -53 10 -35 34 -344 40 -510 4
-88 9 -211 12 -272 4 -69 3 -113 -3 -113 -14 0 -70 190 -88 295 -24 141 -45
416 -45 580 0 129 19 414 27 389 1 -5 6 -71 12 -146z m3779 95 c26 -37 54
-105 46 -112 -16 -15 -120 131 -108 151 8 12 40 -9 62 -39z m400 -40 c33 -87
38 -124 14 -109 -12 7 -42 92 -42 118 0 27 16 22 28 -9z m-3959 -380 c1 -30
-3 -43 -13 -43 -20 0 -26 -23 -26 -103 0 -133 33 -291 216 -1040 47 -192 83
-354 81 -360 -14 -36 -162 379 -217 604 -74 307 -91 480 -96 944 l-3 380 29
-170 c16 -93 29 -189 29 -212z m46 -136 c26 -62 55 -297 37 -297 -16 0 -81
236 -82 298 0 43 26 43 45 -1z m4100 -81 c22 -53 45 -200 45 -289 0 -44 -3
-78 -6 -75 -5 6 -74 362 -74 386 0 24 21 11 35 -22z m-3875 -96 c0 -25 -10
-50 -21 -50 -10 0 -12 63 -3 73 11 10 24 -3 24 -23z m-655 -281 c42 -172 62
-330 50 -404 l-8 -50 -8 40 c-4 22 -8 65 -9 95 -1 96 -27 94 -45 -4 -19 -100
-50 56 -50 249 0 149 8 225 24 225 4 0 25 -68 46 -151z m685 67 c0 -19 -4 -38
-10 -41 -6 -4 -10 10 -10 34 0 23 5 41 10 41 6 0 10 -15 10 -34z m40 -136 c0
-25 -10 -50 -21 -50 -10 0 -12 63 -3 73 11 10 24 -3 24 -23z m-532 -152 c22
-40 52 -84 66 -97 30 -28 46 -77 46 -138 0 -56 -11 -54 -30 4 -8 26 -21 49
-29 51 -22 7 -7 -131 28 -265 48 -178 80 -341 91 -463 15 -158 1 -163 -45 -15
-100 325 -214 953 -178 988 10 10 8 12 51 -65z m632 2 c0 -22 -4 -40 -10 -40
-5 0 -10 18 -10 40 0 22 5 40 10 40 6 0 10 -18 10 -40z m-97 -250 c32 -81 47
-160 29 -160 -20 0 -52 53 -71 119 -22 72 -52 212 -50 233 1 15 48 -84 92
-192z m-670 -105 c5 -22 36 -132 70 -245 114 -384 127 -435 133 -490 5 -53 5
-54 -10 -28 -15 25 -25 56 -95 286 -18 56 -36 102 -41 102 -5 0 -15 -18 -21
-40 -7 -21 -16 -37 -20 -34 -26 16 -79 275 -79 383 0 90 7 113 34 109 16 -2
23 -13 29 -43z m6083 -1 c-10 -14 -15 -28 -12 -31 3 -3 49 11 102 31 53 20 99
35 101 32 3 -3 -6 -19 -21 -36 -48 -58 -28 -77 44 -40 22 11 48 20 58 20 21 0
60 -39 91 -90 29 -48 27 -68 -6 -76 -53 -11 -73 -23 -73 -45 0 -19 5 -20 48
-17 41 3 47 1 47 -17 0 -15 -12 -23 -48 -33 -36 -10 -47 -18 -45 -30 3 -13 14
-17 48 -15 l43 2 -49 -33 c-27 -18 -68 -56 -92 -84 -52 -63 -72 -61 -72 7 0
25 5 75 11 111 12 78 6 108 -26 120 -31 12 -338 -5 -383 -21 -35 -12 -52 -41
-52 -85 0 -29 -26 -42 -45 -23 -21 21 -39 101 -31 135 13 51 97 118 238 189
72 36 133 63 136 60 3 -2 -3 -16 -12 -31z m562 -36 c20 -20 14 -38 -29 -76
l-41 -37 58 -10 c47 -8 61 -16 71 -35 25 -50 8 -161 -28 -180 -18 -10 -19 -18
-13 -88 6 -73 5 -78 -18 -99 -31 -29 -123 -49 -159 -35 l-26 10 28 59 c15 32
35 94 44 138 19 92 22 247 6 288 -6 16 -11 39 -11 53 0 22 4 24 53 24 29 0 58
-5 65 -12z m-6249 -71 c26 -53 27 -80 4 -75 -23 4 -43 44 -43 86 0 44 14 40
39 -11z m513 -18 c15 -30 32 -78 38 -108 20 -109 7 -319 -22 -337 -22 -14 -38
27 -71 168 -35 153 -32 167 18 82 14 -24 30 -44 35 -44 22 0 4 132 -34 253
-21 65 -1 58 36 -14z m2481 -56 c9 -32 30 -150 47 -263 44 -301 66 -382 200
-743 28 -76 53 -153 56 -170 l5 -32 -22 25 c-32 36 -122 228 -164 349 -62 181
-107 379 -140 619 -16 123 -20 272 -6 272 4 0 16 -26 24 -57z m1966 18 c8 -5
14 -24 15 -43 l1 -33 69 0 c48 0 70 -4 74 -13 2 -8 -19 -36 -47 -63 l-52 -50
49 7 c53 7 82 -10 82 -47 0 -52 -40 -77 -60 -39 -18 34 -49 23 -115 -41 l-63
-60 -4 75 c-4 91 -28 126 -88 126 -64 0 -78 -34 -30 -77 35 -30 40 -49 9 -32
-21 11 -21 10 -14 -75 6 -75 5 -86 -9 -86 -24 0 -45 39 -71 136 -30 115 -42
144 -56 144 -17 0 -5 -115 22 -215 39 -144 43 -195 14 -195 -22 0 -34 24 -60
121 -34 127 -42 226 -22 265 57 110 289 237 356 195z m1483 -119 c-2 -31 4
-52 23 -81 21 -31 26 -49 23 -87 l-3 -49 -42 3 -43 2 6 -73 c5 -58 3 -81 -11
-110 -19 -40 -48 -55 -70 -37 -23 19 -18 64 19 179 19 58 37 135 41 171 9 91
23 132 43 128 13 -3 16 -13 14 -46z m-3574 -13 c24 -24 58 -127 68 -198 13
-102 -31 -45 -81 103 -36 108 -32 144 13 95z m3177 -166 c-49 -85 -75 -104
-75 -57 0 17 14 40 39 65 53 54 69 50 36 -8z m-1501 -15 c8 -18 23 -81 35
-140 12 -59 26 -119 31 -133 27 -70 -2 -101 -38 -42 -26 41 -68 168 -77 229
-15 99 20 157 49 86z m2015 -105 c-7 -92 -28 -139 -90 -201 -37 -37 -105 -82
-124 -82 -18 0 3 40 58 109 59 75 147 219 147 241 0 6 3 10 8 10 4 0 5 -35 1
-77z m-1480 53 c22 -26 -22 -88 -50 -70 -5 3 -9 18 -9 33 0 44 35 66 59 37z
m-5409 -23 c0 -42 -16 -61 -24 -30 -7 28 1 57 15 57 5 0 9 -12 9 -27z m6140
-40 c0 -15 -83 -111 -132 -154 -123 -106 -132 -74 -14 50 72 75 146 128 146
104z m110 -55 c0 -44 -275 -316 -297 -294 -13 12 24 63 112 155 116 121 185
173 185 139z m248 -35 c3 -22 -48 -73 -74 -73 -26 0 -15 47 17 75 35 29 53 28
57 -2z m-6113 -80 c55 -133 133 -365 161 -483 14 -58 41 -144 60 -191 33 -85
42 -129 26 -129 -22 0 -46 48 -112 219 -78 202 -126 357 -165 528 -41 181 -31
200 30 56z m2909 64 c28 -21 12 -59 -22 -55 -30 3 -41 30 -22 53 15 18 21 19
44 2z m1874 -42 c-26 -25 -53 -45 -60 -45 -7 0 8 21 34 45 26 25 53 45 60 45
7 0 -8 -21 -34 -45z m302 20 c0 -17 -30 -35 -59 -35 -29 0 -26 17 7 34 35 19
52 20 52 1z m815 -54 c-8 -25 -112 -121 -131 -121 -8 0 -14 6 -14 13 0 22 136
144 148 133 2 -3 1 -14 -3 -25z m280 3 c18 -18 16 -33 -7 -47 -35 -22 -66 21
-36 51 16 16 23 15 43 -4z m-1454 -97 c-119 -72 -156 -102 -159 -131 -2 -17 4
-36 15 -48 16 -17 26 -19 78 -13 l60 6 -77 -77 c-43 -43 -80 -75 -83 -72 -9 9
-95 309 -95 332 0 18 5 16 35 -17 40 -44 34 -44 164 14 104 47 135 50 62 6z
m1349 18 c0 -23 -54 -45 -111 -45 -60 0 -58 6 14 37 61 26 97 29 97 8z m-1266
-64 c10 -16 -74 -71 -109 -71 -29 0 -11 34 30 57 42 24 70 29 79 14z m-4887
-93 c12 -24 25 -56 29 -73 7 -27 6 -29 -9 -16 -20 16 -67 113 -67 137 0 25 22
3 47 -48z m7060 -15 c3 -9 2 -38 -4 -65 -11 -53 -4 -58 34 -28 35 28 111 27
147 -1 36 -28 34 -67 -3 -103 l-30 -28 -107 57 c-179 94 -193 111 -131 159 37
30 84 34 94 9z m-3951 -425 c3 -36 3 -71 0 -77 -13 -20 -45 7 -56 47 -11 42
-13 170 -3 252 l7 55 22 -105 c13 -58 26 -135 30 -172z m3866 242 c78 -30 201
-95 212 -113 13 -20 -26 -72 -83 -112 l-42 -28 -77 16 c-94 21 -106 33 -86 90
22 62 33 116 24 122 -11 7 -44 -34 -83 -105 l-37 -65 0 85 c0 109 12 130 75
130 24 0 68 -9 97 -20z m-4046 -97 c27 -113 11 -193 -37 -193 -23 0 -24 11 -4
113 8 43 15 95 15 115 0 48 10 35 26 -35z m4448 45 c23 -37 -59 -79 -92 -46
-17 17 -15 45 6 57 25 15 73 9 86 -11z m-7318 -80 c60 -65 230 -315 221 -324
-9 -9 -81 33 -119 70 -90 88 -212 316 -169 316 5 0 35 -28 67 -62z m7274 -83
l74 -75 -47 0 c-59 0 -105 -22 -113 -55 -8 -33 -32 -32 -73 3 -27 23 -33 33
-28 53 6 25 94 149 106 149 3 0 40 -34 81 -75z m169 8 c17 -21 27 -39 22 -41
-16 -5 -91 47 -91 63 0 28 38 15 69 -22z m-4249 -95 c21 -34 27 -88 10 -88
-15 0 -40 45 -47 84 -7 46 10 48 37 4z m3663 -18 c55 -16 104 -33 110 -39 15
-15 -7 -37 -58 -57 -56 -21 -87 -13 -147 37 -53 44 -64 47 -73 20 -17 -55 -83
-96 -86 -53 -8 137 35 153 254 92z m507 -59 c10 -20 4 -51 -10 -51 -15 0 -42
40 -37 55 9 21 34 19 47 -4z m-6985 -102 c48 -66 69 -123 59 -164 -9 -35 -19
-32 -55 18 -63 85 -97 207 -58 207 5 0 29 -27 54 -61z m6770 41 c17 -19 17
-21 -28 -65 -39 -40 -49 -45 -74 -39 -41 10 -124 57 -120 69 2 6 21 20 43 32
53 31 153 32 179 3z m-365 -76 c6 -6 6 -22 0 -44 -5 -18 -8 -36 -5 -38 2 -2
19 5 38 17 41 25 58 26 98 6 34 -18 30 -35 -8 -35 -31 0 -63 -26 -63 -51 0
-32 -44 -52 -101 -47 -58 6 -113 44 -144 101 l-20 36 21 28 c11 15 32 31 45
35 32 9 127 4 139 -8z m-3043 -46 c46 -49 107 -137 100 -144 -10 -10 -157 158
-157 179 0 16 18 4 57 -35z m3264 -97 c20 -16 21 -21 10 -35 -18 -22 -47 -20
-72 5 -16 16 -18 23 -8 35 16 19 42 18 70 -5z m-6412 -97 c54 -80 65 -109 29
-78 -23 21 -98 132 -98 146 0 23 24 0 69 -68z m316 -368 c17 -56 19 -76 7 -76
-11 0 -82 157 -74 164 12 13 53 -41 67 -88z m314 4 c47 -88 135 -309 126 -318
-14 -14 -180 177 -219 252 -22 42 -8 53 18 14 12 -18 26 -32 31 -31 17 4 17
52 1 100 -35 101 -17 94 43 -17z m-183 -36 c4 -14 2 -30 -4 -36 -30 -30 -80
33 -53 66 17 21 49 4 57 -30z m-160 -110 c12 -18 14 -28 6 -36 -23 -23 -61 14
-48 47 8 22 23 18 42 -11z m522 -400 c29 -17 49 -38 59 -62 20 -49 56 -94 188
-237 109 -118 165 -186 165 -198 0 -28 -130 27 -215 91 -50 38 -81 88 -220
354 -48 92 -47 93 23 52z m-168 -114 c22 -12 84 -110 75 -119 -9 -8 -105 98
-105 116 0 16 5 16 30 3z"/>
<path d="M7990 4317 c0 -7 10 -24 22 -37 l22 -23 9 21 c7 15 6 26 -3 37 -15
18 -50 20 -50 2z"/>
<path d="M12082 12230 c-38 -16 -23 -42 40 -72 63 -30 75 -52 64 -112 -8 -44
-62 -124 -99 -146 -33 -21 -72 -13 -102 20 -17 18 -16 23 19 89 34 67 46 121
27 121 -41 0 -210 -315 -211 -392 0 -23 -6 -29 -37 -37 -21 -6 -56 -11 -78
-11 -56 0 -88 -25 -145 -113 -32 -48 -87 -110 -152 -169 -198 -182 -223 -207
-216 -213 9 -9 74 33 208 135 110 83 160 116 160 106 0 -3 -58 -63 -130 -133
-118 -117 -146 -153 -121 -153 4 0 25 11 46 25 20 15 39 24 42 21 8 -8 -29
-128 -59 -194 -39 -82 -64 -110 -143 -162 -61 -40 -103 -89 -88 -104 3 -3 24
-3 46 1 l40 6 -7 -36 c-4 -21 -3 -37 1 -37 4 0 31 10 60 22 45 18 54 19 69 7
22 -18 51 -13 134 22 65 27 140 39 140 21 0 -4 -13 -28 -28 -53 -42 -65 -145
-156 -193 -171 -27 -8 -44 -20 -50 -36 -8 -19 -14 -23 -37 -17 -39 8 -54 -12
-87 -115 -44 -140 -125 -479 -125 -522 0 -25 18 0 39 55 44 116 149 322 222
432 53 81 105 143 199 236 l127 126 5 72 c5 62 9 76 34 103 32 33 128 80 156
76 16 -3 13 -11 -22 -57 -34 -44 -40 -61 -40 -100 0 -48 20 -81 48 -81 7 0 68
38 137 85 130 88 153 99 135 66 -16 -32 -13 -33 50 -26 66 8 82 -4 60 -44 -17
-33 -57 -37 -104 -13 -23 12 -45 22 -49 22 -13 0 -49 -90 -43 -106 4 -9 21
-14 50 -14 63 0 172 75 312 216 145 145 176 203 182 343 5 114 -10 228 -50
371 -68 243 -174 492 -224 526 -15 10 -48 40 -73 66 -49 50 -95 66 -139 48z
m228 -247 c14 -71 3 -157 -31 -248 -21 -57 -40 -73 -59 -49 -19 22 -27 17 -45
-28 -22 -56 -40 -75 -90 -97 -26 -12 -55 -37 -79 -69 -21 -29 -50 -61 -66 -72
-31 -22 -80 -26 -98 -8 -23 23 -12 50 47 116 32 37 97 123 145 192 160 231
250 350 257 338 4 -6 13 -40 19 -75z m-334 -148 c13 -34 -63 -102 -87 -78 -14
14 7 56 39 76 34 21 41 21 48 2z m440 -132 c28 -96 8 -157 -94 -284 -58 -73
-296 -314 -327 -331 -10 -6 -26 -3 -48 11 -52 32 -70 57 -63 86 4 14 68 89
144 168 151 157 219 240 257 316 14 28 37 64 51 81 35 41 58 27 80 -47z m10
-362 c-58 -117 -135 -228 -210 -303 -111 -110 -204 -132 -182 -44 3 13 83 104
177 203 94 98 190 204 213 236 41 59 41 59 44 28 2 -20 -11 -59 -42 -120z
m-767 4 c-74 -107 -110 -150 -95 -110 4 11 14 47 23 80 8 33 22 68 32 79 18
20 79 55 99 56 7 0 -19 -47 -59 -105z m141 -12 c0 -30 -37 -81 -70 -98 -82
-43 -79 46 4 96 39 24 66 24 66 2z m695 -182 c-44 -133 -183 -264 -259 -245
-23 5 -24 9 -14 28 6 11 61 84 122 161 62 77 123 156 136 175 l25 35 3 -53 c2
-30 -4 -74 -13 -101z m-745 -20 c-26 -46 -158 -201 -171 -201 -16 0 -10 25 21
87 34 68 118 153 150 153 l21 0 -21 -39z m-215 -106 c-19 -109 -61 -204 -101
-232 -62 -42 -86 -36 -59 16 9 18 15 56 15 96 0 36 5 85 11 108 10 42 35 85
43 76 3 -2 0 -39 -6 -82 -6 -42 -8 -81 -4 -85 15 -14 56 55 83 141 34 105 41
89 18 -38z m330 46 c10 -17 -56 -80 -96 -93 -53 -15 -67 -1 -38 36 41 52 117
84 134 57z m110 -201 c0 -33 -47 -52 -71 -28 -15 14 -14 18 6 38 29 29 65 24
65 -10z"/>
<path d="M5125 12074 c-79 -40 -100 -57 -91 -73 10 -16 28 -14 91 10 56 21
120 73 109 90 -10 16 -38 9 -109 -27z"/>
<path d="M5387 12014 c-4 -4 -7 -23 -7 -41 0 -46 -33 -77 -106 -98 -165 -48
-625 -343 -599 -384 8 -13 35 0 85 41 46 38 53 35 34 -12 -9 -23 -14 -43 -11
-46 3 -3 25 7 49 24 50 34 122 72 138 72 7 0 9 -12 5 -34 -6 -28 -2 -39 26
-70 17 -20 53 -49 78 -64 40 -23 57 -27 126 -27 68 0 88 5 135 29 83 42 159
103 166 132 15 60 -60 169 -148 216 -33 17 -38 23 -24 26 83 18 286 -184 286
-284 0 -42 19 -94 35 -94 35 0 31 313 -6 402 -9 22 -8 37 6 77 18 47 16 81 -4
81 -6 0 -25 -16 -42 -35 -54 -59 -107 -43 -152 45 -21 42 -52 62 -70 44z
m-122 -233 c0 -17 -18 -28 -71 -41 -23 -5 -72 -33 -109 -60 -64 -47 -105 -63
-105 -40 0 27 107 99 208 140 52 21 77 22 77 1z m3 -144 c-4 -32 -54 -36 -63
-6 -5 16 -2 26 10 35 25 18 57 0 53 -29z"/>
<path d="M6070 11961 c-14 -5 -44 -18 -68 -31 -36 -19 -53 -22 -103 -17 -54 5
-60 3 -53 -11 14 -32 33 -157 34 -217 1 -122 18 -224 47 -276 38 -70 149 -166
169 -146 3 3 -20 36 -51 73 -64 74 -92 130 -101 196 -8 60 8 98 42 98 36 0 85
-32 107 -69 38 -64 123 -102 233 -102 75 -1 129 16 154 46 11 14 15 47 16 134
0 64 4 130 8 147 7 28 4 34 -26 57 -102 77 -331 143 -408 118z m220 -256 c0
-33 -25 -32 -46 1 -15 21 -15 27 -4 34 21 13 50 -8 50 -35z"/>
<path d="M4468 11683 c-20 -43 -23 -63 -24 -180 l0 -133 -69 -135 c-38 -74
-66 -138 -62 -142 7 -6 53 33 114 97 43 45 63 104 78 232 8 73 23 143 34 169
16 36 19 53 11 78 -21 74 -49 79 -82 14z"/>
<path d="M6504 11719 c-10 -18 16 -57 48 -70 24 -10 32 -9 44 3 19 19 9 45
-27 63 -33 18 -55 19 -65 4z"/>
<path d="M5295 11256 c-22 -12 -72 -45 -111 -73 -39 -28 -115 -78 -170 -112
l-99 -63 90 94 c50 51 99 103 109 116 19 22 19 22 -1 22 -33 0 -136 -82 -208
-167 -74 -86 -105 -139 -105 -178 0 -35 35 -34 52 2 9 19 33 34 83 55 84 33
205 114 297 198 65 59 114 117 106 125 -2 2 -22 -6 -43 -19z"/>
<path d="M4407 11127 c-24 -24 -286 -365 -326 -423 -51 -73 -6 -41 136 97 99
97 135 128 110 94 -114 -156 -154 -225 -129 -225 4 0 38 27 76 61 38 33 70 58
73 56 2 -3 -5 -23 -16 -46 -22 -42 -27 -81 -12 -81 15 0 63 61 82 105 10 24
17 63 17 95 -1 36 7 72 21 104 38 85 41 186 5 186 -8 0 -25 -10 -37 -23z"/>
<path d="M6020 11075 c-5 -14 -10 -45 -10 -68 0 -68 -17 -88 -115 -137 -107
-53 -119 -75 -49 -86 63 -9 189 1 244 21 55 19 76 15 135 -30 25 -20 50 -33
55 -30 5 3 18 25 28 48 11 23 29 51 41 61 20 18 23 18 37 4 15 -14 14 -19 -1
-53 -21 -43 -93 -101 -138 -110 -42 -10 -54 -20 -62 -56 -8 -37 -36 -49 -113
-49 -68 0 -87 10 -78 38 4 11 2 23 -3 27 -17 10 -48 -13 -55 -40 -5 -18 -13
-25 -31 -25 -22 0 -25 4 -23 33 4 43 -22 43 -43 -1 l-17 -32 -28 37 -28 36
-31 -36 c-36 -42 -48 -45 -67 -19 -7 10 -19 22 -26 26 -42 25 -236 -185 -242
-264 -6 -68 12 -82 105 -85 42 -2 97 -15 180 -45 252 -89 271 -94 390 -94 125
-1 236 24 343 75 54 27 62 34 62 59 0 15 15 49 34 77 18 26 37 59 41 73 13 40
6 152 -10 177 -14 21 -23 23 -113 24 -53 1 -108 5 -122 9 -14 4 -20 8 -13 9 6
1 37 24 68 52 30 29 57 50 58 48 2 -2 8 -16 15 -31 12 -30 31 -35 50 -16 28
28 8 92 -54 178 -22 30 -25 42 -20 81 8 57 -16 93 -73 110 -50 15 -77 1 -85
-45 -14 -72 -59 -69 -71 5 -9 53 -36 56 -96 9 l-36 -29 1 41 c1 48 -19 62 -34
23z m431 -504 c22 -18 22 -19 6 -45 -22 -33 -66 -36 -85 -5 -16 24 -7 56 16
62 32 9 40 7 63 -12z m-631 -61 c13 -8 12 -12 -7 -31 -12 -13 -28 -19 -37 -16
-20 8 -20 21 0 41 18 18 23 19 44 6z m575 -150 c11 -17 -15 -89 -38 -105 -23
-16 -87 -21 -87 -6 0 10 32 54 69 94 26 28 45 34 56 17z m-442 -90 c58 -58 55
-76 -11 -65 -66 11 -105 68 -70 103 19 19 28 15 81 -38z"/>
<path d="M4744 11048 c-66 -75 -159 -238 -135 -238 11 0 113 145 140 198 26
52 24 72 -5 40z"/>
<path d="M5745 11020 c-97 -42 -117 -59 -99 -87 33 -54 280 -2 292 60 2 10 -4
29 -12 42 -24 36 -73 32 -181 -15z"/>
<path d="M6830 10921 c0 -19 82 -129 134 -180 46 -45 56 -52 62 -38 9 23 -31
82 -110 162 -59 60 -86 78 -86 56z"/>
<path d="M11033 10837 c-103 -110 -423 -582 -423 -624 0 -18 40 29 142 167
163 222 327 474 316 486 -3 2 -18 -11 -35 -29z"/>
<path d="M5389 10753 c-36 -57 -111 -212 -129 -267 -16 -51 -8 -95 31 -163 28
-48 33 -53 40 -36 13 34 26 139 19 157 -5 16 -8 15 -35 -5 l-28 -23 6 33 c9
43 70 179 113 250 56 93 40 142 -17 54z"/>
<path d="M4360 10603 c-28 -37 -79 -93 -113 -124 -33 -31 -56 -59 -50 -62 15
-9 124 47 155 79 22 25 74 162 64 171 -2 2 -27 -27 -56 -64z"/>
<path d="M11891 10641 c-13 -4 -30 -16 -38 -28 -13 -19 -12 -24 6 -42 12 -12
34 -21 51 -21 17 0 30 -3 30 -7 -1 -5 -21 -24 -45 -43 -50 -39 -55 -50 -22
-50 36 0 65 -11 71 -26 7 -18 -62 -95 -111 -125 -19 -12 -32 -23 -30 -25 2 -2
29 1 61 8 48 9 60 9 72 -4 13 -13 13 -16 -2 -29 -9 -8 -40 -25 -68 -39 -37
-18 -52 -32 -54 -49 -4 -23 -2 -24 41 -18 37 5 50 2 73 -16 38 -30 94 -26 177
11 124 57 393 257 360 269 -15 6 -56 -16 -185 -98 -101 -64 -180 -109 -193
-109 -14 0 0 59 51 207 31 92 54 174 52 190 l-3 28 -23 -35 c-24 -39 -66 -134
-122 -283 -20 -53 -39 -99 -41 -102 -3 -2 -3 79 -1 180 3 133 1 193 -8 215 -7
16 -13 30 -14 30 -1 0 -15 4 -31 8 -17 5 -41 6 -54 3z"/>
<path d="M11729 10619 c-6 -11 -14 -60 -19 -107 -18 -190 -112 -445 -273 -737
-135 -246 -248 -408 -416 -598 -105 -119 -154 -185 -145 -198 10 -16 33 -9 66
20 l32 29 48 -25 c43 -22 52 -24 78 -13 34 14 37 22 15 40 -36 30 -13 85 131
312 323 508 523 966 524 1200 0 95 -15 124 -41 77z"/>
<path d="M6860 10593 c0 -26 74 -154 105 -183 l27 -25 -7 25 c-4 14 -14 39
-23 55 -16 32 -93 145 -98 145 -2 0 -4 -8 -4 -17z"/>
<path d="M4140 10531 c-19 -11 -48 -32 -65 -47 -26 -24 -27 -29 -12 -32 23 -5
116 48 135 76 13 20 13 22 -4 22 -11 -1 -35 -9 -54 -19z"/>
<path d="M3707 10405 c-50 -39 -117 -119 -117 -142 0 -11 6 -11 31 4 35 20
159 148 159 163 0 19 -28 10 -73 -25z"/>
<path d="M12705 10393 c-16 -9 -148 -92 -293 -185 -331 -213 -392 -243 -392
-189 0 10 -7 24 -15 31 -24 20 -35 -28 -35 -154 0 -81 4 -118 14 -131 13 -19
15 -18 30 15 8 19 22 60 30 91 17 61 37 85 62 75 14 -5 16 -18 12 -76 -5 -69
-7 -73 -100 -212 -52 -79 -123 -188 -159 -243 -35 -55 -95 -145 -134 -200
-114 -162 -265 -306 -265 -254 0 6 14 27 30 46 17 18 30 42 30 53 0 33 -31
100 -51 111 -32 17 -42 1 -36 -57 5 -51 5 -53 -21 -56 -21 -2 -28 -9 -30 -32
-5 -43 4 -68 44 -120 31 -40 36 -54 31 -84 -5 -41 -121 -292 -139 -303 -7 -5
-28 9 -50 32 -44 46 -77 50 -139 19 -39 -20 -92 -82 -111 -130 -5 -14 -14 -61
-19 -105 -7 -65 -14 -87 -39 -120 -17 -22 -55 -87 -84 -145 -30 -58 -80 -136
-111 -175 -72 -88 -71 -88 -78 -161 -7 -82 -37 -148 -77 -169 -25 -13 -31 -22
-28 -42 9 -77 66 -12 170 192 123 244 163 291 208 250 11 -10 20 -26 20 -35 0
-9 -27 -59 -60 -110 -80 -125 -108 -217 -49 -164 50 45 242 344 290 451 16 35
67 126 114 202 47 76 107 190 134 252 89 210 217 433 305 531 28 31 84 111
125 179 152 250 350 481 437 509 57 18 143 72 274 172 136 103 200 161 200
183 0 13 -5 13 -37 -4 -21 -10 -66 -40 -100 -65 l-63 -46 0 86 c0 107 12 131
93 185 75 51 117 88 117 106 0 17 -18 16 -55 -4z m-233 -287 c6 -50 -7 -145
-21 -159 -31 -31 -66 60 -50 131 7 33 39 72 59 72 4 0 10 -20 12 -44z m-155
-93 c20 -60 -23 -164 -79 -194 -18 -10 -25 -8 -40 11 -15 19 -18 32 -12 64 18
112 107 192 131 119z m-1088 -1582 c24 -24 18 -55 -14 -69 -18 -9 -29 -6 -59
15 -32 23 -40 25 -71 16 -44 -14 -48 5 -9 36 36 29 126 29 153 2z m-169 -293
c58 -59 51 -72 -38 -76 -69 -3 -72 -2 -72 20 0 25 45 98 60 98 6 0 28 -19 50
-42z"/>
<path d="M3969 10361 c-78 -28 -163 -76 -194 -111 -17 -19 -17 -20 -1 -20 10
0 69 23 131 51 63 27 130 53 150 56 37 6 61 26 50 43 -10 17 -55 11 -136 -19z"/>
<path d="M10514 10298 c-46 -41 -203 -250 -266 -355 -35 -57 -102 -135 -254
-292 -218 -226 -336 -362 -378 -434 -28 -47 -44 -107 -29 -107 13 0 47 40 60
70 16 39 148 186 378 420 226 230 390 416 417 471 9 19 24 53 34 77 10 24 35
66 56 94 36 49 49 88 28 88 -5 0 -26 -15 -46 -32z"/>
<path d="M10977 9967 c-42 -64 -195 -496 -216 -609 -9 -53 1 -83 18 -51 28 54
226 671 217 680 -2 2 -10 -7 -19 -20z"/>
<path d="M4030 9873 c-24 -9 -50 -35 -44 -44 3 -5 18 -9 34 -9 33 0 136 36
145 51 7 10 -109 12 -135 2z"/>
<path d="M3876 9724 c-152 -79 -344 -222 -318 -238 5 -3 46 19 91 48 45 30 98
60 119 67 45 15 114 60 165 107 65 63 45 69 -57 16z"/>
<path d="M11626 9727 c-19 -14 -19 -15 7 -32 14 -9 53 -19 87 -22 71 -7 83
-18 91 -87 l5 -51 16 35 c31 68 32 104 5 136 -24 27 -31 29 -109 32 -61 3 -88
0 -102 -11z"/>
<path d="M4041 9674 c-127 -70 -379 -271 -494 -393 -64 -68 -78 -91 -57 -91
12 0 110 78 180 144 132 125 254 215 378 281 76 39 108 67 97 84 -11 19 -38
12 -104 -25z"/>
<path d="M10717 9663 c-18 -35 -41 -119 -56 -203 -15 -79 -30 -130 -45 -149
-9 -11 -12 -5 -16 30 l-5 44 -39 -69 c-91 -159 -180 -415 -174 -497 l3 -44 22
41 c12 22 39 100 61 173 42 139 67 181 108 181 47 0 95 98 133 273 22 103 38
247 28 247 -4 0 -13 -12 -20 -27z"/>
<path d="M11584 9556 c-13 -53 93 -222 126 -201 26 16 -10 135 -61 199 -26 33
-57 34 -65 2z"/>
<path d="M3964 9435 c-15 -23 -15 -30 -2 -63 19 -50 52 -54 111 -13 24 16 50
37 58 47 13 16 11 17 -21 11 -19 -4 -55 -9 -80 -13 l-45 -7 23 25 c28 31 28
38 -3 38 -15 0 -31 -9 -41 -25z"/>
<path d="M11460 9370 c0 -46 65 -125 127 -153 48 -22 55 44 11 104 -46 62
-138 94 -138 49z"/>
<path d="M10332 9303 c-70 -100 -121 -240 -132 -366 -7 -68 -17 -115 -33 -150
-37 -80 -114 -147 -168 -147 -52 0 -49 49 16 215 53 133 64 185 42 185 -31 0
-65 -70 -132 -268 -16 -45 -36 -89 -44 -97 -9 -8 -33 -28 -53 -45 -67 -56
-187 -264 -188 -325 -1 -44 -38 -128 -124 -279 -91 -161 -133 -251 -152 -331
-24 -105 -15 -101 45 21 32 66 89 171 126 234 99 170 135 246 145 308 10 60
76 204 137 295 36 56 40 58 71 53 38 -6 62 -22 62 -41 0 -7 -47 -84 -104 -171
-155 -237 -224 -368 -212 -400 11 -28 54 22 132 152 40 68 85 129 107 147 21
17 37 39 37 51 1 33 34 96 85 161 l47 60 -7 -70 c-5 -53 -4 -67 4 -59 7 6 54
92 106 192 51 99 116 216 144 260 56 87 67 131 29 111 -13 -6 -35 -23 -50 -37
-15 -14 -31 -23 -34 -19 -9 8 28 118 76 228 61 138 72 202 22 132z"/>
<path d="M3673 9222 c-115 -99 -230 -236 -221 -263 5 -15 119 91 215 201 119
135 121 161 6 62z"/>
<path d="M4058 9190 c-53 -28 -56 -40 -10 -40 38 0 92 30 92 51 0 15 -43 9
-82 -11z"/>
<path d="M9458 9163 c-78 -85 -171 -243 -153 -261 18 -18 215 247 215 289 0
29 -13 23 -62 -28z"/>
<path d="M4830 9029 c0 -27 138 -312 187 -387 143 -216 393 -499 327 -369 -30
57 -76 121 -135 182 -31 33 -72 87 -90 120 l-33 60 74 -66 c84 -74 120 -97
120 -77 0 14 -21 40 -157 203 -45 53 -115 144 -154 202 -67 97 -109 143 -130
143 -5 0 -9 -5 -9 -11z"/>
<path d="M3853 8948 c-51 -54 -123 -179 -123 -213 0 -32 20 -11 64 64 25 44
59 89 76 101 22 15 30 29 30 51 0 37 -9 37 -47 -3z"/>
<path d="M3596 8867 c-103 -183 -240 -497 -218 -497 21 0 213 392 252 513 19
61 5 54 -34 -16z"/>
<path d="M10805 8813 c-92 -303 -148 -408 -359 -672 -52 -65 -106 -137 -120
-160 -26 -41 -34 -85 -17 -96 26 -15 145 130 318 386 109 163 159 259 208 400
47 136 47 137 74 110 42 -42 121 -16 121 40 0 26 -3 29 -33 29 -32 0 -104 42
-122 69 -19 31 -36 5 -70 -106z"/>
<path d="M11324 8916 c-10 -27 2 -116 19 -133 14 -14 16 -13 27 7 17 31 6 98
-19 123 -19 19 -21 19 -27 3z"/>
<path d="M7800 8669 c0 -45 353 -320 645 -502 267 -166 370 -207 370 -147 0
21 -9 27 -62 45 -100 35 -443 233 -521 302 l-37 32 27 1 c14 0 80 -16 147 -35
121 -35 206 -44 242 -25 34 19 20 27 -57 34 -85 7 -247 57 -345 107 -35 17
-110 61 -168 96 -58 36 -125 74 -149 84 -48 21 -92 25 -92 8z"/>
<path d="M9653 8615 c-56 -107 -103 -288 -84 -323 10 -18 33 39 86 217 45 149
44 193 -2 106z"/>
<path d="M4780 8545 c0 -27 28 -72 83 -134 42 -48 56 -73 75 -138 25 -85 79
-194 99 -201 17 -5 -8 79 -59 195 -75 173 -198 345 -198 278z"/>
<path d="M7750 8531 c0 -27 484 -398 589 -451 28 -14 47 -18 53 -12 20 20 1
46 -55 76 -32 17 -158 102 -280 189 -239 170 -307 214 -307 198z"/>
<path d="M8899 8501 c-25 -25 -39 -48 -39 -65 0 -56 65 -17 89 53 21 65 6 69
-50 12z"/>
<path d="M3544 8480 c-17 -25 -67 -106 -112 -180 -45 -74 -99 -157 -121 -185
-32 -39 -37 -51 -25 -53 24 -6 79 52 149 158 81 122 148 252 143 282 -3 21 -6
19 -34 -22z"/>
<path d="M9001 8389 c-58 -63 -131 -273 -103 -301 7 -7 30 41 71 148 34 86 60
161 58 167 -2 6 -13 -1 -26 -14z"/>
<path d="M3625 8213 c-105 -147 -190 -243 -215 -243 -34 0 -165 -146 -255
-285 -58 -88 -69 -114 -56 -133 15 -25 42 1 75 72 43 92 215 320 230 305 4 -3
-16 -37 -44 -75 -48 -66 -60 -94 -41 -94 35 0 421 517 421 564 0 37 -30 8
-115 -111z"/>
<path d="M4827 8286 c-12 -72 34 -209 93 -276 l21 -25 -4 35 c-6 42 -30 96
-57 130 -12 15 -26 56 -33 100 -13 72 -13 73 -20 36z"/>
<path d="M9326 8218 c-35 -61 -79 -176 -130 -341 -60 -194 -128 -469 -124
-504 l3 -28 27 40 c15 22 44 92 64 155 46 143 103 281 159 385 24 44 46 91 50
105 7 23 4 22 -32 -12 -76 -74 -81 -47 -18 98 44 101 55 144 35 144 -5 0 -20
-19 -34 -42z"/>
<path d="M3019 8193 c-57 -63 -109 -139 -109 -160 0 -25 37 5 93 75 107 132
119 196 16 85z"/>
<path d="M9108 8203 c-55 -67 -186 -395 -211 -530 -10 -53 9 -38 36 30 34 81
151 375 182 455 25 61 22 78 -7 45z"/>
<path d="M5577 8166 c-31 -19 -104 -69 -163 -111 -143 -103 -230 -151 -248
-136 -27 23 -136 -42 -136 -80 0 -20 2 -20 46 6 35 21 54 25 79 21 25 -5 47 1
98 28 96 50 397 275 397 297 0 15 -14 10 -73 -25z"/>
<path d="M6967 8123 c-15 -14 -4 -34 80 -159 117 -175 224 -405 223 -482 l-1
-27 -20 25 c-11 13 -43 66 -71 118 -28 51 -52 91 -54 89 -2 -2 12 -50 31 -106
19 -56 35 -114 35 -130 0 -41 -66 -164 -116 -218 l-43 -46 -93 6 c-51 3 -113
12 -138 19 -37 12 -45 18 -45 38 0 19 10 30 45 48 24 12 60 22 80 22 126 0
208 89 150 163 -20 25 -27 28 -62 22 l-40 -7 7 51 c6 44 3 59 -27 123 -27 59
-33 84 -32 135 1 73 6 71 -106 47 -65 -13 -100 -14 -254 -4 -241 15 -315 4
-329 -49 -7 -27 -1 -26 48 4 22 14 49 25 61 25 11 0 76 -16 145 -36 101 -29
142 -36 223 -37 l100 -2 0 -40 c1 -34 4 -40 24 -43 30 -4 22 -28 -8 -24 -12 1
-35 11 -51 23 -38 27 -63 22 -67 -15 -3 -23 5 -38 38 -71 l42 -43 -45 5 c-37
4 -51 1 -73 -16 -23 -18 -35 -20 -76 -15 -44 6 -48 5 -48 -14 0 -31 54 -87
118 -123 105 -59 119 -83 42 -73 -47 6 -50 5 -50 -16 0 -56 62 -114 166 -152
47 -18 81 -23 164 -23 95 0 111 3 168 29 72 34 155 116 193 192 35 70 31 159
-10 284 -78 232 -244 510 -306 510 -6 0 -15 -3 -18 -7z m269 -807 c-23 -40
-56 -76 -56 -62 0 15 31 79 52 109 33 47 37 9 4 -47z"/>
<path d="M3119 7974 c-96 -109 -243 -294 -260 -327 -6 -10 -9 -26 -7 -35 3
-13 14 -6 48 31 102 111 329 421 318 433 -4 3 -48 -43 -99 -102z"/>
<path d="M3860 8008 c-22 -51 -36 -143 -23 -151 10 -7 48 94 59 156 9 51 -12
49 -36 -5z"/>
<path d="M10117 8030 c-17 -14 -22 -31 -25 -89 -5 -80 9 -126 40 -134 18 -5
19 -11 12 -49 -23 -131 30 -138 58 -7 10 49 9 59 -11 104 l-22 50 43 38 43 38
-33 29 c-43 36 -77 42 -105 20z"/>
<path d="M9049 7866 c-17 -37 -34 -87 -37 -112 -4 -40 -3 -44 16 -44 12 0 25
8 30 18 12 23 36 192 28 199 -3 3 -20 -24 -37 -61z"/>
<path d="M8209 7881 c19 -35 423 -434 489 -484 35 -26 68 -47 73 -47 50 0 -98
154 -383 400 -84 72 -161 136 -171 141 -16 9 -17 8 -8 -10z"/>
<path d="M6082 7794 c-25 -17 -30 -54 -8 -54 23 0 70 45 62 58 -10 16 -27 15
-54 -4z"/>
<path d="M5943 7758 c-25 -24 -68 -76 -95 -117 -71 -109 -140 -262 -125 -277
13 -13 38 20 76 100 21 44 70 125 110 179 114 157 127 200 34 115z"/>
<path d="M3890 7722 c-6 -26 -16 -105 -21 -177 -12 -181 -33 -271 -71 -309
l-31 -30 -19 24 c-24 30 -20 83 17 197 23 72 24 103 3 103 -15 0 -46 -80 -83
-221 -47 -176 -82 -229 -163 -245 -26 -5 -31 -4 -27 8 19 49 -132 77 -237 43
-102 -33 -213 -103 -195 -122 4 -3 53 8 110 26 107 33 187 40 232 19 26 -12
33 -32 14 -43 -6 -4 -43 -8 -82 -10 -103 -3 -224 -64 -413 -206 -150 -113
-408 -369 -390 -387 9 -9 107 72 246 203 179 168 244 217 284 213 55 -5 46
-35 -52 -164 -144 -194 -182 -256 -197 -323 -12 -55 13 -34 63 54 59 105 162
241 277 368 112 123 200 208 192 185 -10 -28 4 -28 65 3 166 84 392 236 425
285 36 56 68 226 79 425 7 126 -5 164 -26 81z"/>
<path d="M4784 7691 c-91 -64 -143 -113 -126 -119 17 -5 99 51 172 117 71 65
45 66 -46 2z"/>
<path d="M5722 7603 c-93 -183 -162 -363 -162 -425 0 -64 46 -13 69 79 10 37
46 137 80 222 57 140 82 221 68 221 -3 0 -28 -44 -55 -97z"/>
<path d="M10800 7578 c-5 -13 -13 -53 -19 -89 -14 -102 -52 -230 -74 -252 -40
-40 -211 2 -293 74 -25 21 -50 39 -55 39 -17 0 -21 -28 -9 -65 14 -43 75 -81
183 -115 40 -13 89 -34 110 -47 34 -22 38 -28 35 -61 -4 -49 -19 -51 -130 -11
-120 43 -176 81 -208 141 -14 27 -28 48 -32 48 -13 0 -9 -69 6 -104 35 -85
151 -166 236 -166 59 0 80 -14 80 -54 0 -37 -18 -84 -137 -351 -90 -200 -99
-225 -84 -225 26 0 167 267 235 446 102 272 212 727 191 793 -8 27 -23 27 -35
-1z"/>
<path d="M3625 7543 c-46 -10 -104 -35 -109 -48 -2 -7 2 -19 11 -26 12 -11 24
-8 68 15 29 15 61 36 71 47 16 18 16 19 -2 18 -10 -1 -28 -3 -39 -6z"/>
<path d="M10127 7483 c-4 -3 -7 -17 -7 -30 0 -42 -46 -163 -159 -419 -137
-311 -151 -347 -151 -386 0 -27 2 -29 17 -17 54 45 333 720 333 807 0 29 -21
58 -33 45z"/>
<path d="M10370 7466 c0 -29 45 -70 127 -118 80 -46 116 -60 149 -56 23 2 29
8 29 26 0 19 -9 27 -53 41 -30 10 -90 44 -136 75 -90 62 -116 69 -116 32z"/>
<path d="M3350 7407 c-37 -19 -39 -47 -3 -47 34 0 153 40 153 52 0 13 -122 9
-150 -5z"/>
<path d="M3495 7300 c-16 -4 -99 -22 -184 -39 -84 -18 -177 -43 -206 -56 -167
-74 -638 -377 -668 -431 -21 -36 52 1 238 122 144 93 224 138 233 130 7 -7
-49 -62 -281 -279 -123 -115 -146 -148 -111 -161 26 -10 30 -8 60 40 16 25 72
82 124 127 178 153 259 237 271 281 19 71 43 88 190 135 119 38 257 70 332 78
65 7 93 22 84 47 -7 17 -32 19 -82 6z"/>
<path d="M2981 7264 c-116 -31 -391 -161 -391 -185 0 -19 252 75 383 143 42
22 77 44 77 49 0 11 -3 11 -69 -7z"/>
<path d="M3452 7187 c-13 -16 -4 -28 30 -40 27 -10 80 12 76 32 -4 22 -90 28
-106 8z"/>
<path d="M9560 7097 c-72 -16 -155 -65 -222 -129 -42 -41 -49 -52 -35 -55 9
-3 46 12 81 31 63 35 106 46 106 26 0 -19 45 -10 125 25 132 57 142 40 26 -41
-76 -52 -104 -82 -114 -121 -8 -34 9 -28 66 21 77 65 89 69 172 61 60 -5 74
-4 85 10 12 15 11 22 -8 56 -27 47 -28 59 -2 59 34 0 25 36 -12 49 -51 18
-205 22 -268 8z"/>
<path d="M10211 6938 c-12 -36 -49 -110 -81 -164 -33 -55 -60 -102 -60 -106 0
-5 13 -8 30 -8 36 0 69 -14 138 -59 63 -41 148 -55 171 -27 27 32 2 54 -88 77
-64 16 -111 65 -111 116 0 22 6 47 13 57 13 18 18 17 94 -18 87 -39 163 -48
198 -23 22 17 16 21 -62 48 -55 19 -153 75 -153 88 -1 3 -16 24 -34 45 l-33
39 -22 -65z"/>
<path d="M9712 6847 c-35 -41 -58 -154 -30 -145 22 8 79 96 81 125 2 22 -3 29
-19 31 -11 2 -26 -3 -32 -11z"/>
<path d="M9223 6818 c-53 -57 -102 -143 -122 -220 -11 -40 -33 -105 -50 -144
-17 -39 -40 -105 -51 -146 -36 -133 -44 -345 -13 -355 17 -6 31 48 53 203 31
212 46 259 161 510 85 185 90 223 22 152z"/>
<path d="M10704 6688 c10 -49 122 -208 147 -208 35 0 -20 136 -81 199 -50 51
-75 55 -66 9z"/>
<path d="M9676 6601 c-10 -15 -10 -142 -1 -171 13 -43 30 -13 33 58 3 72 -16
139 -32 113z"/>
<path d="M10902 6557 c2 -29 11 -66 20 -82 65 -127 69 -138 75 -208 8 -96 17
-113 37 -65 20 47 20 88 1 163 -27 101 -101 245 -128 245 -5 0 -8 -22 -5 -53z"/>
<path d="M10125 6480 c-3 -5 -1 -28 5 -51 9 -34 18 -44 53 -60 46 -20 127 -25
158 -9 43 23 8 90 -46 90 -19 0 -58 9 -87 20 -60 22 -74 24 -83 10z"/>
<path d="M10572 6385 c-16 -13 -45 -59 -66 -101 l-36 -76 -61 4 c-62 3 -65 2
-86 -40 -1 -2 -20 7 -42 20 -46 26 -73 19 -79 -21 -8 -53 68 -90 183 -91 75 0
78 -1 57 -16 -32 -22 -141 -43 -265 -51 -126 -7 -142 0 -153 76 -16 112 -63
136 -78 39 -4 -32 -14 -59 -22 -62 -8 -3 -50 0 -94 6 -128 19 -120 -4 28 -74
120 -57 212 -74 328 -59 51 6 109 11 129 11 53 0 109 33 196 116 43 41 82 74
87 74 5 0 12 -18 16 -41 6 -34 10 -40 29 -37 33 5 83 96 97 178 14 84 3 115
-38 107 -34 -6 -52 1 -52 22 0 20 -19 41 -36 41 -7 0 -26 -11 -42 -25z"/>
<path d="M9780 6310 c0 -122 32 -201 86 -214 39 -10 48 5 34 51 -20 62 -99
223 -110 223 -6 0 -10 -27 -10 -60z"/>
<path d="M11110 6338 c0 -13 11 -86 24 -163 13 -77 30 -185 36 -240 7 -55 16
-106 20 -114 5 -8 11 28 15 83 8 107 -7 286 -32 370 -21 73 -63 115 -63 64z"/>
<path d="M10810 6248 c0 -46 162 -463 215 -553 56 -96 54 -34 -5 145 -60 182
-150 373 -194 409 -14 11 -16 11 -16 -1z"/>
<path d="M4400 6243 c0 -14 41 -77 69 -106 30 -34 105 -87 120 -87 31 0 2 46
-75 119 -76 72 -114 97 -114 74z"/>
<path d="M9102 6140 c-18 -77 -35 -278 -29 -332 4 -27 18 -71 33 -99 52 -94
309 -319 417 -364 19 -8 56 -13 83 -13 30 1 82 -10 133 -27 46 -15 100 -28
120 -27 20 0 70 16 113 36 102 48 238 92 323 106 64 10 112 29 191 76 27 15
35 16 48 5 35 -29 113 -287 167 -555 18 -91 21 -130 16 -245 -8 -224 -73 -527
-161 -754 -26 -65 -51 -139 -56 -164 -13 -58 -56 -121 -170 -253 -50 -58 -122
-150 -159 -205 -156 -228 -280 -370 -352 -402 -24 -11 -80 -47 -124 -80 -95
-72 -249 -228 -240 -243 10 -16 53 11 149 97 161 143 190 165 253 195 68 32
164 127 230 228 49 74 72 99 109 115 46 19 94 74 216 243 60 84 139 187 175
229 69 82 104 142 123 213 7 25 47 133 90 240 89 222 127 347 143 472 10 83
10 91 -16 170 -15 46 -34 115 -42 153 -27 130 -86 467 -82 478 1 5 20 -28 41
-74 l39 -84 22 107 c13 59 28 115 33 125 10 16 11 16 20 -7 10 -26 71 -288 92
-393 7 -32 13 -57 15 -55 8 8 -27 338 -44 421 -30 142 -67 227 -91 212 -17
-10 -29 24 -39 114 -18 147 -79 311 -116 311 -26 0 -177 -137 -201 -182 -8
-16 -14 -57 -14 -103 0 -91 12 -101 69 -56 46 37 53 38 49 9 -2 -16 -27 -37
-87 -73 -46 -27 -93 -63 -105 -78 -64 -86 -75 -93 -196 -122 -63 -15 -148 -38
-188 -52 -131 -45 -193 -21 -358 139 -95 91 -134 116 -134 86 0 -18 34 -72 89
-143 75 -97 84 -114 70 -131 -44 -53 -182 72 -275 251 -69 133 -104 185 -125
185 -12 0 -19 -7 -19 -18 0 -11 36 -92 80 -182 97 -198 103 -229 31 -176 -45
34 -75 77 -106 154 -26 65 -85 284 -85 319 -1 46 -18 -19 -30 -112 -7 -55 -16
-106 -20 -114 -9 -16 -56 109 -70 186 -5 29 -12 107 -16 173 -4 66 -10 120
-14 120 -4 0 -12 -22 -18 -50z m1727 -408 c24 -49 49 -150 57 -237 9 -96 -6
-77 -51 65 -56 178 -60 279 -6 172z m-142 -134 c21 -63 140 -608 159 -723 10
-65 17 -165 17 -245 0 -152 -11 -210 -68 -334 -19 -43 -62 -152 -94 -244 -83
-233 -106 -282 -137 -282 -24 0 -16 38 32 149 150 342 208 711 160 1002 -34
205 -96 450 -142 563 -30 75 -30 87 2 126 33 39 56 35 71 -12z m-397 -2216 c0
-10 -12 -29 -26 -43 l-27 -24 7 30 c12 49 46 76 46 37z"/>
<path d="M10066 6181 c-12 -18 45 -151 64 -151 28 0 23 109 -6 141 -18 20 -49
25 -58 10z"/>
<path d="M11285 6060 c-14 -45 28 -435 55 -506 11 -27 12 -28 22 -10 14 24 4
241 -17 381 -20 136 -43 188 -60 135z"/>
<path d="M4397 5941 c3 -10 18 -32 34 -47 49 -47 36 -86 -18 -53 -18 11 -33
16 -33 11 0 -35 95 -205 146 -262 32 -36 33 -38 16 -54 -25 -22 -65 -20 -87 4
-21 24 -45 26 -45 5 0 -26 54 -125 159 -293 90 -144 130 -217 145 -264 7 -22
54 -24 62 -3 8 21 -32 99 -117 230 -82 125 -133 225 -120 238 11 11 57 -8 93
-38 16 -14 34 -25 39 -25 23 0 -26 107 -97 210 -88 129 -116 200 -78 200 9 0
42 -21 75 -47 33 -25 62 -43 66 -40 15 16 -90 145 -170 209 -54 42 -78 49 -70
19z"/>
<path d="M2198 5853 c-20 -46 -49 -183 -41 -193 14 -16 61 103 78 203 10 53
-11 48 -37 -10z"/>
<path d="M2531 5686 c-20 -82 -8 -157 18 -109 16 32 19 153 2 153 -5 0 -14
-20 -20 -44z"/>
<path d="M3950 5701 c-5 -11 -10 -28 -10 -39 0 -21 25 -36 42 -26 14 9 28 52
22 69 -9 21 -41 19 -54 -4z"/>
<path d="M10319 5673 c-31 -26 -38 -28 -128 -28 -91 0 -96 -1 -99 -22 -9 -64
120 -70 237 -11 55 27 66 37 66 58 0 36 -35 37 -76 3z"/>
<path d="M11456 5662 c-20 -33 -37 -478 -17 -456 29 31 60 429 35 454 -8 8
-14 8 -18 2z"/>
<path d="M4900 5641 c0 -46 202 -775 233 -837 13 -28 28 -44 39 -44 22 0 23
23 3 81 -9 23 -47 160 -86 303 -81 302 -113 403 -146 469 -24 49 -43 61 -43
28z"/>
<path d="M9880 5597 c0 -35 109 -121 168 -133 79 -16 12 74 -92 122 -58 27
-76 30 -76 11z"/>
<path d="M11126 5559 c-3 -13 -7 -145 -10 -294 -6 -320 -14 -390 -71 -674 -24
-119 -42 -218 -40 -220 7 -7 67 136 90 216 76 260 110 703 69 901 -17 84 -30
109 -38 71z"/>
<path d="M2513 5315 c0 -134 0 -137 9 -67 7 48 7 97 0 140 -9 62 -9 57 -9 -73z"/>
<path d="M3960 5425 c-10 -12 -8 -21 9 -49 47 -75 97 -45 56 34 -17 32 -45 39
-65 15z"/>
<path d="M9172 5337 c-130 -175 -422 -687 -422 -736 0 -9 -36 -88 -79 -176
-44 -88 -83 -178 -86 -200 l-6 -40 36 40 c24 26 90 147 185 340 158 321 201
399 328 596 95 148 117 191 109 213 -10 27 -25 19 -65 -37z"/>
<path d="M9966 5258 c-8 -13 -17 -52 -21 -88 -9 -80 -36 -169 -83 -278 l-37
-83 -170 6 c-166 6 -225 0 -232 -22 -7 -19 64 -32 207 -39 154 -8 175 -14 165
-51 -11 -44 -36 -72 -74 -83 -20 -5 -99 -10 -176 -11 -147 -1 -186 -7 -193
-27 -6 -19 39 -31 150 -39 116 -9 114 -6 78 -89 l-22 -50 27 -65 c15 -35 30
-78 32 -96 5 -29 1 -35 -43 -63 -72 -45 -147 -38 -156 15 -5 30 -51 42 -82 22
-22 -15 -24 -20 -15 -45 16 -42 37 -60 96 -82 69 -26 86 -25 180 5 43 14 86
25 96 25 33 0 17 -36 -49 -108 -36 -40 -64 -72 -61 -72 3 0 49 9 102 20 131
27 136 26 84 -17 -68 -58 -119 -109 -119 -122 0 -17 37 -13 68 6 15 9 60 45
100 80 80 69 157 113 197 113 30 0 32 -16 5 -50 -29 -37 -25 -43 29 -35 62 8
67 1 73 -113 5 -91 18 -116 44 -90 37 37 26 221 -16 275 -25 32 -18 43 29 43
46 0 65 -18 106 -103 30 -62 59 -83 76 -56 10 17 3 47 -27 121 -13 31 -22 63
-19 70 3 7 22 22 43 33 24 13 38 28 40 44 3 21 1 23 -20 17 -94 -27 -142 -37
-239 -52 -143 -22 -169 -15 -251 69 -82 83 -103 131 -102 227 2 89 31 183 133
430 108 259 136 363 112 409 -15 27 -47 27 -65 -1z m-259 -826 c-10 -94 -24
-114 -45 -67 -19 40 -14 70 14 99 15 14 29 26 32 26 3 0 2 -26 -1 -58z m147
-345 c8 -14 8 -20 -4 -27 -19 -13 -51 -12 -70 0 -13 9 -11 13 9 31 28 23 49
22 65 -4z"/>
<path d="M10935 5216 c-9 -66 -2 -363 8 -373 4 -3 10 -3 15 1 12 12 7 388 -5
411 -9 16 -12 10 -18 -39z"/>
<path d="M11526 5128 c-10 -73 -20 -189 -22 -258 l-4 -125 21 75 c16 58 22
117 26 258 3 100 4 182 2 182 -3 0 -13 -60 -23 -132z"/>
<path d="M5216 5178 c-8 -74 8 -416 29 -638 16 -164 35 -249 60 -270 26 -21
29 15 11 114 -28 154 -35 223 -45 461 -11 238 -27 395 -41 395 -4 0 -11 -28
-14 -62z"/>
<path d="M9575 5192 c-37 -9 -42 -31 -21 -87 23 -58 53 -83 118 -96 65 -13
177 -4 205 16 30 23 2 37 -91 45 -87 8 -106 14 -106 31 0 15 64 39 104 39 40
0 86 15 86 29 0 5 -15 11 -32 15 -57 10 -232 15 -263 8z"/>
<path d="M3870 5176 c0 -8 26 -42 58 -75 43 -46 64 -61 85 -61 41 0 34 31 -17
78 -66 61 -126 88 -126 58z"/>
<path d="M9404 5035 c-28 -42 -73 -164 -98 -261 -28 -110 -63 -174 -110 -203
-58 -36 -143 -137 -181 -215 -42 -83 -49 -148 -21 -190 34 -52 68 -21 59 55
-8 74 43 162 195 333 33 37 71 89 86 115 25 48 106 326 106 369 0 29 -16 28
-36 -3z"/>
<path d="M9513 4959 c-40 -41 1 -59 136 -60 115 0 195 14 188 34 -6 18 -54 26
-187 33 -96 5 -128 3 -137 -7z"/>
<path d="M3944 4910 c3 -14 9 -35 12 -47 8 -30 -4 -29 -47 2 -28 22 -35 23
-37 10 -6 -28 128 -185 158 -185 17 0 11 67 -10 122 -23 60 -87 143 -76 98z"/>
<path d="M5367 4753 c-26 -25 9 -334 58 -523 40 -153 102 -287 154 -334 21
-19 21 -19 21 4 0 12 -27 91 -60 174 -74 187 -86 236 -105 406 -17 148 -42
280 -54 280 -4 0 -11 -3 -14 -7z"/>
<path d="M11477 4645 c-10 -21 -38 -116 -63 -210 -25 -93 -56 -205 -70 -248
-13 -43 -24 -82 -24 -87 0 -18 30 3 49 34 26 42 133 470 129 516 l-3 35 -18
-40z"/>
<path d="M4224 4659 c-19 -32 287 -519 327 -519 18 0 8 34 -31 104 -33 61 -39
81 -39 127 1 77 -51 176 -137 262 -30 30 -45 37 -75 37 -21 0 -41 -5 -45 -11z
m123 -99 c35 -70 38 -80 24 -80 -13 0 -48 58 -66 109 -23 66 4 47 42 -29z"/>
<path d="M3800 4627 c0 -8 22 -49 50 -91 34 -52 61 -81 84 -93 65 -31 85 7 43
81 -17 30 -29 40 -49 40 -15 1 -37 11 -50 22 -13 12 -35 29 -50 39 -24 15 -28
15 -28 2z"/>
<path d="M11518 4408 c-16 -15 -28 -37 -28 -50 0 -13 -45 -134 -100 -270 -91
-226 -121 -318 -107 -318 14 0 86 147 152 309 87 213 118 303 113 333 l-3 23
-27 -27z"/>
<path d="M3710 4312 c0 -25 51 -104 85 -130 36 -29 53 -28 65 4 12 31 -4 68
-26 60 -23 -9 -49 9 -74 49 -23 37 -50 47 -50 17z"/>
<path d="M5604 4217 c-27 -72 94 -424 171 -497 47 -44 35 10 -39 176 -20 45
-48 130 -62 188 -28 113 -56 167 -70 133z"/>
<path d="M10999 4167 c-69 -109 -190 -379 -177 -393 14 -13 164 276 197 379
19 56 9 62 -20 14z"/>
<path d="M3620 4101 c0 -5 18 -33 40 -63 69 -92 170 -156 170 -106 0 21 -166
178 -189 178 -12 0 -21 -4 -21 -9z"/>
<path d="M10405 4037 c-8 -43 9 -87 34 -87 33 0 42 59 15 98 -22 32 -42 27
-49 -11z"/>
<path d="M11474 3933 c-17 -27 -72 -122 -122 -213 -50 -91 -125 -226 -166
-300 -42 -74 -76 -144 -76 -154 0 -19 0 -19 21 0 58 52 160 219 300 491 79
153 105 223 81 223 -4 0 -21 -21 -38 -47z"/>
<path d="M3533 3921 c8 -40 73 -128 154 -209 51 -52 68 -63 90 -60 20 2 30 11
37 31 14 39 -2 61 -50 68 -56 7 -78 25 -139 106 -30 40 -65 77 -76 84 -21 11
-22 10 -16 -20z"/>
<path d="M9924 3856 c-10 -27 70 -156 97 -156 26 0 -2 113 -38 152 -19 22 -52
24 -59 4z"/>
<path d="M2680 3830 c0 -65 60 -240 83 -240 25 0 -26 208 -63 252 l-19 23 -1
-35z"/>
<path d="M2435 3740 c-15 -127 32 -492 86 -670 20 -67 62 -140 79 -140 17 0
11 43 -19 132 -37 109 -57 227 -77 443 -17 193 -34 287 -50 292 -8 3 -14 -18
-19 -57z"/>
<path d="M7115 3756 c-36 -16 -81 -60 -102 -99 -16 -32 -14 -88 4 -94 20 -7
102 82 97 105 -4 14 6 28 35 51 23 18 41 37 41 42 0 13 -40 10 -75 -5z"/>
<path d="M2537 3753 c-21 -21 9 -189 59 -328 31 -86 120 -266 164 -332 49 -72
100 -121 132 -129 17 -3 93 -48 169 -100 141 -95 166 -107 155 -78 -3 9 -6 17
-6 19 0 1 -47 44 -105 94 -57 51 -132 127 -166 169 -96 119 -90 116 -83 43 9
-84 -6 -79 -66 20 -64 105 -127 269 -168 434 -42 171 -61 213 -85 188z"/>
<path d="M4150 3732 c0 -30 74 -125 133 -170 87 -68 261 -126 281 -94 13 22
-8 41 -72 67 -76 30 -143 72 -249 156 -80 63 -93 69 -93 41z"/>
<path d="M3450 3697 c0 -62 161 -258 277 -338 49 -34 68 -36 83 -9 9 17 6 25
-14 45 -14 14 -37 25 -52 25 -35 0 -146 111 -227 228 -31 45 -60 82 -62 82 -3
0 -5 -15 -5 -33z"/>
<path d="M7785 3711 c-62 -18 -105 -37 -105 -48 0 -20 217 30 244 57 16 16
-72 10 -139 -9z"/>
<path d="M7305 3645 c-521 -186 -523 -187 -555 -155 -26 26 -36 25 -56 -5 -13
-21 -15 -31 -6 -50 18 -39 56 -42 142 -12 113 41 203 34 111 -8 -49 -22 -104
-75 -77 -75 24 0 172 63 237 100 67 40 99 69 99 91 0 21 29 39 110 69 85 30
153 64 169 84 22 27 -12 19 -174 -39z"/>
<path d="M2888 3633 c-9 -35 21 -144 66 -238 96 -202 225 -363 331 -411 61
-28 87 -23 83 14 -2 21 -10 28 -41 35 -69 16 -208 164 -280 297 -19 36 -59
119 -88 185 -58 134 -64 144 -71 118z"/>
<path d="M3375 3523 c22 -93 230 -343 284 -343 38 0 43 84 5 86 -66 3 -224
164 -224 229 0 20 -36 55 -56 55 -13 0 -15 -6 -9 -27z"/>
<path d="M9972 3520 c-28 -45 -46 -124 -34 -145 8 -15 11 -14 30 10 26 33 47
128 34 152 -9 15 -13 13 -30 -17z"/>
<path d="M7617 3479 c-118 -18 -188 -48 -158 -68 9 -6 44 -1 100 15 47 13 123
27 169 30 46 4 79 10 75 15 -14 12 -125 18 -186 8z"/>
<path d="M9780 3469 c-20 -36 -6 -110 25 -136 14 -13 31 -21 36 -18 15 10 10
98 -9 134 -21 43 -37 49 -52 20z"/>
<path d="M2190 3464 c0 -32 46 -168 86 -248 34 -72 88 -146 104 -146 26 0
-115 327 -168 390 -21 24 -21 24 -22 4z"/>
<path d="M5907 3410 c-7 -34 8 -129 23 -144 16 -16 32 8 37 56 9 81 -46 161
-60 88z"/>
<path d="M11340 3418 c-12 -13 -59 -77 -106 -144 -115 -165 -314 -411 -433
-537 -105 -110 -128 -142 -111 -152 30 -19 170 119 348 342 189 237 342 462
342 502 0 18 -18 13 -40 -11z"/>
<path d="M3213 3376 c17 -103 208 -320 345 -390 20 -10 50 -16 75 -14 l42 3
-74 39 c-94 51 -218 168 -318 300 -73 96 -76 99 -70 62z"/>
<path d="M9590 3357 c-41 -27 -72 -77 -61 -96 7 -11 21 -10 81 5 82 21 102 44
82 89 -15 32 -57 33 -102 2z"/>
<path d="M6470 3248 c0 -23 83 -88 162 -127 101 -49 138 -59 138 -38 0 20 -47
57 -72 57 -25 0 -67 22 -147 76 -66 46 -81 52 -81 32z"/>
<path d="M7410 3170 c-122 -22 -344 -87 -305 -89 23 -2 433 59 470 70 53 15
60 20 44 30 -21 13 -93 9 -209 -11z"/>
<path d="M5984 3087 c-3 -8 -4 -30 -2 -49 2 -25 8 -34 25 -36 24 -4 38 26 31
69 -4 28 -45 39 -54 16z"/>
<path d="M10707 2763 c-98 -98 -173 -179 -167 -181 35 -12 360 312 348 348 -2
6 -83 -69 -181 -167z"/>
<path d="M9457 2876 c-45 -16 -79 -45 -71 -58 16 -25 234 33 234 62 0 15 -119
11 -163 -4z"/>
<path d="M4984 2845 c-19 -15 -19 -15 5 -36 34 -28 95 -23 99 8 6 38 -66 57
-104 28z"/>
<path d="M7043 2791 c-71 -21 -117 -47 -107 -63 9 -14 134 -5 210 17 66 18 99
39 89 54 -10 17 -123 12 -192 -8z"/>
<path d="M6317 2738 c-58 -21 0 -62 77 -54 27 3 60 13 74 22 24 16 25 17 7 30
-22 16 -117 17 -158 2z"/>
<path d="M6757 2744 c-4 -4 -7 -15 -7 -25 0 -31 118 -54 122 -24 2 21 -99 64
-115 49z"/>
<path d="M5164 2710 c-58 -23 -29 -60 47 -60 55 0 79 7 79 24 0 26 -89 52
-126 36z"/>
<path d="M4606 2695 c-9 -26 22 -45 75 -45 27 0 49 4 49 9 0 14 -68 51 -95 51
-12 0 -25 -7 -29 -15z"/>
<path d="M9135 2691 c-64 -20 -159 -60 -153 -66 5 -5 338 72 346 80 13 13
-139 2 -193 -14z"/>
<path d="M10804 2600 c-76 -59 -129 -90 -142 -85 -20 8 -83 -23 -211 -103 -63
-40 -167 -99 -231 -132 -215 -109 -168 -123 63 -19 115 52 171 66 126 31 -13
-10 -69 -44 -125 -75 -165 -92 -162 -113 8 -54 75 26 114 48 190 105 161 121
378 324 378 353 0 16 -16 10 -56 -21z"/>
<path d="M9298 2531 c-111 -64 -219 -141 -285 -202 -56 -53 -64 -57 -83 -34
-24 29 -65 15 -223 -77 -40 -23 -92 -50 -117 -59 -36 -13 -45 -22 -45 -40 0
-46 45 -36 184 40 70 39 134 71 143 71 9 0 21 -7 28 -15 18 -21 61 0 186 90
57 42 119 82 139 91 62 26 173 144 163 174 -2 6 -42 -12 -90 -39z"/>
<path d="M8920 2519 c-6 -23 -9 -47 -6 -55 7 -19 67 -18 111 3 42 20 45 31 6
25 -23 -3 -34 3 -57 32 -16 20 -32 36 -36 36 -4 0 -12 -18 -18 -41z"/>
<path d="M8420 2521 c-31 -59 -37 -258 -7 -248 28 9 41 62 42 161 0 101 -11
130 -35 87z"/>
<path d="M8686 2432 c-36 -86 -164 -202 -320 -287 -54 -30 -80 -38 -129 -40
-39 -2 -103 -16 -170 -39 -59 -20 -127 -36 -152 -36 -38 0 -46 4 -59 28 -13
25 -12 33 11 87 39 91 45 255 9 255 -17 0 -36 -43 -36 -83 -1 -57 -17 -107
-44 -132 -25 -23 -26 -30 -24 -99 4 -93 -5 -106 -58 -80 -57 29 -74 60 -85
155 -11 96 -22 129 -44 129 -8 0 -17 -10 -19 -22 -17 -94 -21 -101 -45 -103
-15 -1 -38 -17 -58 -40 -18 -21 -35 -36 -38 -33 -3 3 -8 36 -12 74 l-6 69 -24
-50 c-35 -76 -38 -110 -18 -191 25 -99 21 -104 -65 -104 l-70 0 7 60 c3 35 1
84 -7 118 -15 74 -60 166 -82 170 -15 3 -18 -4 -18 -46 0 -28 7 -86 15 -129
19 -100 19 -144 -1 -187 -20 -42 -58 -62 -143 -75 -83 -14 -102 -40 -45 -61
34 -13 126 6 204 42 55 26 83 32 180 38 116 8 147 15 275 65 51 20 98 29 175
35 85 6 120 13 185 40 60 25 98 34 153 36 90 3 120 13 253 80 128 65 246 146
261 180 7 15 20 24 34 24 30 0 36 22 32 122 l-3 78 -19 -48z m-1131 -403 c51
-45 62 -69 39 -86 -10 -7 -35 -13 -56 -13 -66 0 -106 58 -78 111 16 28 54 23
95 -12z"/>
<path d="M3205 2459 c-9 -13 24 -94 93 -234 95 -192 128 -216 126 -89 0 58 -4
68 -31 97 -17 17 -48 66 -68 109 -19 42 -45 88 -56 102 -21 27 -53 34 -64 15z"/>
<path d="M8129 2458 c-1 -7 0 -30 1 -50 1 -20 -6 -63 -15 -95 -22 -77 -17
-138 10 -138 67 0 111 219 54 276 -22 22 -49 25 -50 7z"/>
<path d="M1740 2424 c-208 -31 -542 -98 -626 -126 -38 -12 -82 -36 -107 -58
-23 -20 -51 -40 -62 -45 -11 -4 -148 -11 -305 -16 -293 -7 -392 -19 -525 -60
-76 -23 -131 -63 -103 -74 10 -4 78 5 150 19 191 37 287 46 519 46 244 0 274
7 388 85 105 72 115 73 119 13 3 -44 5 -48 40 -60 49 -17 497 -17 647 0 237
27 366 57 369 87 2 19 -50 16 -175 -10 -155 -33 -438 -45 -599 -25 -102 13
-103 13 -69 27 19 8 37 21 42 29 24 43 226 86 505 108 127 10 166 16 180 29
15 16 15 18 -1 35 -28 28 -188 26 -387 -4z"/>
<path d="M5220 2410 c0 -10 9 -24 19 -30 26 -14 78 -13 87 2 11 18 -34 48 -72
48 -27 0 -34 -4 -34 -20z"/>
<path d="M5884 2355 c-25 -18 -8 -49 31 -53 36 -5 53 12 35 33 -24 29 -46 35
-66 20z"/>
<path d="M4857 2343 c-27 -26 36 -43 161 -43 121 0 125 11 14 35 -76 16 -164
20 -175 8z"/>
<path d="M3788 2258 c-97 -17 -68 -30 56 -26 114 3 144 11 116 28 -19 12 -96
11 -172 -2z"/>
<path d="M5769 2249 c-30 -11 -45 -36 -59 -99 -15 -70 -12 -115 9 -141 24 -29
47 -20 74 32 14 26 17 47 13 93 -8 77 0 86 80 86 75 0 78 -4 89 -104 8 -82 13
-96 31 -96 24 0 34 37 34 124 0 111 -6 116 -145 115 -55 0 -112 -5 -126 -10z"/>
<path d="M6761 2223 c-16 -55 -14 -195 2 -218 13 -16 15 -14 35 27 24 49 31
173 12 209 -17 30 -38 22 -49 -18z"/>
<path d="M10542 2235 c-24 -13 -102 -66 -175 -117 -229 -161 -327 -208 -327
-157 0 18 -4 21 -29 16 -16 -4 -79 -29 -140 -56 -99 -45 -219 -86 -346 -120
-22 -6 -49 -17 -60 -26 -19 -14 -19 -16 -2 -29 12 -10 27 -11 50 -6 18 5 72
19 120 31 81 21 94 22 150 10 34 -7 66 -16 70 -21 5 -4 -4 -17 -20 -28 -63
-44 -710 -358 -720 -349 -2 2 1 16 6 30 6 15 6 29 2 32 -10 6 -307 -83 -400
-119 -67 -27 -101 -51 -101 -71 0 -43 -286 -93 -774 -135 -310 -27 -383 -41
-344 -66 41 -27 514 5 843 57 466 74 722 163 1293 450 184 92 364 178 400 191
62 21 79 35 217 168 83 80 191 180 242 222 126 106 148 152 45 93z m-420 -354
c-63 -58 -172 -107 -119 -54 19 20 138 91 152 92 6 0 -9 -17 -33 -38z m-1105
-522 c-28 -16 -228 -86 -267 -93 -35 -7 -35 -6 10 17 25 14 74 34 110 45 36
12 79 25 95 31 17 5 39 10 50 10 19 0 19 0 2 -10z"/>
<path d="M4624 2180 c4 -41 10 -78 15 -83 4 -4 46 -7 92 -5 l84 3 -45 27 c-25
14 -69 50 -99 80 l-54 53 7 -75z"/>
<path d="M5120 2194 c0 -14 10 -54 22 -89 30 -85 24 -90 -78 -75 -102 15 -168
11 -172 -11 -4 -21 32 -34 130 -47 83 -10 142 -37 117 -53 -8 -5 -44 -9 -81
-9 -83 0 -170 -18 -165 -33 8 -24 82 -30 397 -29 299 0 637 17 740 38 69 14
-3 23 -205 23 -221 1 -317 12 -373 40 -20 10 -73 26 -117 34 -100 21 -125 44
-125 118 0 27 -7 65 -14 84 -13 29 -20 35 -45 35 -27 0 -31 -4 -31 -26z"/>
<path d="M5531 2207 c-16 -16 -13 -83 5 -101 34 -34 80 -13 103 46 12 31 4 38
-61 56 -25 7 -39 7 -47 -1z"/>
<path d="M5333 2193 c-8 -2 -13 -22 -13 -45 0 -68 66 -117 121 -88 26 15 24
43 -7 80 -22 25 -75 62 -86 59 -2 0 -9 -3 -15 -6z"/>
<path d="M6988 2173 c-9 -16 -23 -53 -32 -83 -15 -51 -15 -56 0 -67 51 -37
118 84 88 161 -10 25 -38 19 -56 -11z"/>
<path d="M6265 2178 c-16 -41 -41 -148 -37 -153 13 -13 42 -3 61 21 40 51 40
144 0 144 -11 0 -22 -6 -24 -12z"/>
<path d="M6527 2148 c-52 -69 -74 -146 -47 -163 36 -22 79 45 87 138 7 66 -4
73 -40 25z"/>
<path d="M7961 2156 c-27 -32 39 -81 92 -68 24 6 21 19 -12 53 -32 32 -62 37
-80 15z"/>
<path d="M3480 2135 c0 -33 120 -160 143 -152 17 6 11 56 -10 80 -44 49 -133
97 -133 72z"/>
<path d="M4233 2113 c-7 -2 -13 -13 -13 -23 0 -25 41 -36 183 -50 64 -6 157
-20 206 -31 141 -32 270 -12 154 24 -118 37 -496 94 -530 80z"/>
<path d="M1154 2034 c-121 -20 -235 -60 -301 -104 -141 -95 -150 -122 -21 -65
186 83 222 97 295 115 85 22 202 26 254 8 19 -6 57 -26 85 -44 73 -48 116 -64
176 -64 52 0 143 34 133 49 -2 5 -43 11 -90 15 -94 7 -133 22 -158 59 -10 15
-33 29 -61 36 -59 15 -210 12 -312 -5z"/>
<path d="M2354 1969 c-42 -12 -59 -32 -41 -48 32 -26 184 -40 205 -19 51 51
-61 97 -164 67z"/>
<path d="M7005 1973 c-79 -18 -235 -85 -300 -128 -71 -48 -149 -52 -165 -10
-11 29 -28 31 -115 11 -33 -8 -87 -17 -120 -20 -144 -16 -189 -38 -183 -93 3
-25 7 -28 33 -25 16 2 75 18 131 37 147 48 180 52 208 26 13 -12 38 -26 57
-31 117 -34 512 140 497 218 -3 18 -15 21 -43 15z"/>
<path d="M3725 1860 c-13 -21 38 -110 95 -164 80 -77 140 -87 148 -24 4 32
-59 104 -139 157 -61 41 -92 50 -104 31z"/>
<path d="M5865 1815 c-149 -32 -179 -70 -54 -69 122 1 234 46 188 75 -19 12
-62 10 -134 -6z"/>
<path d="M9290 1636 c-72 -16 -160 -48 -160 -58 0 -13 75 -9 157 8 86 17 153
42 153 55 0 12 -84 9 -150 -5z"/>
<path d="M4220 1558 c0 -33 159 -202 222 -234 31 -16 58 -6 58 21 0 22 31 7
110 -52 150 -111 196 -110 79 1 -96 92 -164 134 -190 118 -33 -21 -54 -13
-123 46 -129 109 -156 126 -156 100z"/>
<path d="M1530 1508 c0 -13 40 -26 280 -88 267 -69 320 -79 320 -57 0 8 -17
22 -38 30 -126 51 -562 139 -562 115z"/>
<path d="M3990 1493 c0 -27 126 -138 201 -178 63 -33 129 -46 129 -26 0 15
-99 98 -193 162 -90 60 -137 74 -137 42z"/>
<path d="M8899 1495 c-12 -12 -133 -35 -224 -44 -105 -9 -155 -25 -155 -48 0
-30 318 5 400 45 46 22 53 52 12 52 -16 0 -31 -2 -33 -5z"/>
<path d="M8012 1320 c-56 -8 -70 -15 -58 -27 13 -13 269 -16 373 -4 206 22
169 40 -82 39 -99 0 -204 -4 -233 -8z"/>
<path d="M3170 1305 c0 -2 33 -27 74 -54 89 -60 118 -98 124 -160 3 -40 0 -52
-33 -100 -63 -91 -79 -153 -55 -215 19 -50 60 -17 60 48 0 13 23 67 50 121 41
80 50 107 50 149 -1 86 -54 171 -127 202 -30 13 -143 20 -143 9z"/>
<path d="M5214 1298 c-15 -23 107 -104 271 -180 44 -21 96 -40 115 -44 l35 -5
-23 20 c-13 11 -81 51 -151 89 -70 38 -147 84 -171 101 -46 33 -65 38 -76 19z"/>
<path d="M7360 1303 c0 -26 155 -93 213 -93 l32 1 -22 18 c-23 19 -182 81
-209 81 -7 0 -14 -3 -14 -7z"/>
<path d="M2823 1274 c-133 -29 -283 -90 -283 -115 0 -5 7 -9 16 -9 8 0 29 -13
45 -29 28 -28 29 -33 29 -120 0 -50 -9 -137 -20 -193 -24 -122 -24 -142 -6
-157 57 -48 106 218 72 389 -10 46 -15 94 -12 107 9 34 51 50 146 58 107 8
140 20 140 50 0 38 -26 42 -127 19z"/>
<path d="M4960 1239 c0 -39 249 -202 358 -234 17 -5 22 -2 22 13 0 26 -23 43
-105 81 -38 18 -111 59 -160 91 -90 59 -115 70 -115 49z"/>
<path d="M4360 1214 c0 -32 129 -125 359 -259 241 -140 414 -211 464 -192 10
4 17 17 17 32 0 14 7 28 16 32 9 3 80 -20 159 -52 80 -33 150 -55 159 -52 10
4 16 18 16 39 0 50 11 61 45 48 16 -6 88 -27 159 -46 201 -54 446 -60 446 -10
0 18 -27 23 -155 31 -128 8 -245 29 -360 65 -132 42 -152 44 -180 26 -16 -11
-25 -26 -25 -43 0 -23 -3 -25 -33 -20 -33 5 -288 109 -422 171 -38 18 -107 60
-152 94 -120 90 -170 112 -144 65 22 -42 248 -212 304 -229 76 -23 127 -47
127 -60 0 -19 -46 -18 -107 2 -91 29 -308 142 -431 223 -68 45 -147 95 -176
111 -48 28 -86 38 -86 24z"/>
<path d="M3540 1180 c-12 -8 -13 -13 -3 -27 41 -58 47 -81 51 -179 5 -134 -12
-198 -74 -264 -80 -86 -200 -133 -584 -230 -225 -57 -398 -105 -435 -122 -13
-6 -29 -24 -34 -40 -19 -54 -198 -122 -569 -219 -186 -48 -257 -52 -321 -20
-49 25 -67 18 -57 -23 22 -89 227 -69 631 60 424 135 545 162 780 174 223 11
376 41 400 80 14 22 -6 23 -118 7 -61 -9 -211 -26 -332 -37 -121 -11 -245 -24
-275 -29 -53 -9 -78 -7 -49 3 70 25 420 124 531 151 246 61 668 115 668 86 0
-6 -12 -11 -27 -11 -35 0 -93 -35 -93 -55 0 -20 -4 -20 157 15 204 43 341 60
598 70 280 12 367 19 385 30 32 20 -34 25 -310 24 -287 0 -457 -12 -584 -39
-38 -8 -72 -13 -75 -10 -2 3 10 22 27 43 76 89 125 222 126 344 1 63 -3 82
-20 105 -12 15 -31 29 -42 31 -34 5 -43 -35 -36 -156 4 -70 2 -122 -5 -150
-14 -52 -61 -106 -113 -133 -36 -19 -216 -64 -224 -57 -2 2 24 41 57 87 80
112 103 189 97 315 -5 90 -19 136 -53 170 -18 18 -52 21 -75 6z"/>
<path d="M7210 1161 c0 -16 82 -50 136 -57 102 -13 62 23 -61 55 -49 13 -75
14 -75 2z"/>
<path d="M6069 1106 c15 -16 50 -32 99 -45 93 -24 349 -64 363 -56 38 24 -28
50 -194 76 -73 11 -160 26 -195 34 -91 21 -100 20 -73 -9z"/>
<path d="M2094 1089 c-115 -10 -337 -43 -629 -93 -243 -42 -389 -58 -469 -51
-73 7 -100 -5 -74 -32 41 -40 213 -33 508 20 255 47 334 57 434 57 122 0 121
3 113 -166 -7 -159 -20 -244 -47 -322 -42 -118 -100 -159 -244 -173 -50 -4
-101 -11 -113 -15 -35 -10 -27 -32 15 -41 48 -10 326 -10 375 0 41 9 49 30 17
49 -25 16 -25 43 0 100 33 75 51 176 59 325 4 78 10 146 14 150 24 24 56 -98
68 -262 6 -77 15 -148 20 -157 16 -30 62 -21 127 22 104 70 255 247 220 259
-6 2 -56 -44 -112 -101 -152 -158 -183 -157 -197 9 -5 54 -19 134 -31 178 -11
44 -23 99 -25 122 -5 39 -2 44 26 61 17 10 70 27 116 37 47 10 84 19 83 20
-10 9 -170 11 -254 4z"/>
<path d="M2985 1038 c-8 -25 -45 -275 -45 -306 0 -18 4 -32 9 -32 25 0 219
166 207 177 -2 3 -30 -7 -62 -21 -31 -14 -58 -26 -61 -26 -2 0 -1 38 3 84 8
102 1 136 -27 136 -11 0 -22 -6 -24 -12z"/>
<path d="M6776 1010 c-43 -5 -102 -17 -130 -27 -44 -15 -87 -17 -321 -15 -148
1 -292 0 -319 -4 -44 -6 -48 -8 -32 -19 10 -8 36 -17 57 -20 22 -4 61 -21 87
-39 26 -18 63 -38 82 -45 43 -16 260 -26 278 -13 11 7 4 19 -30 51 l-43 42
120 -7 c116 -6 121 -5 150 17 29 24 31 24 330 26 329 2 481 8 517 22 l23 9
-30 13 c-37 15 -618 22 -739 9z"/>
<path d="M1455 740 c-95 -7 -135 -16 -135 -30 0 -16 36 -21 227 -30 106 -5
200 -13 210 -18 14 -8 13 -11 -8 -26 -14 -8 -103 -50 -197 -91 -255 -111 -312
-142 -312 -168 0 -24 201 49 405 149 148 72 205 114 205 149 0 39 -37 55 -151
65 -113 10 -112 10 -244 0z"/>
<path d="M1270 313 c-153 -18 -554 -74 -558 -78 -7 -7 9 -6 193 5 250 16 413
42 430 70 6 10 0 10 -65 3z"/>
</g>
</svg>
