<?xml version="1.0" standalone="no"?>
<!DOCTYPE svg PUBLIC "-//W3C//DTD SVG 20010904//EN"
 "http://www.w3.org/TR/2001/REC-SVG-20010904/DTD/svg10.dtd">
<svg version="1.0" xmlns="http://www.w3.org/2000/svg"
 width="1280.000000pt" height="966.000000pt" viewBox="0 0 1280.000000 966.000000"
 preserveAspectRatio="xMidYMid meet">
<metadata>
Created by potrace 1.15, written by Peter Selinger 2001-2017
</metadata>
<g transform="translate(0.000000,966.000000) scale(0.100000,-0.100000)"
fill="white" stroke="none">
<path d="M5 9648 c-3 -7 -4 -2180 -3 -4828 l3 -4815 6395 0 6395 0 0 4825 0
4825 -795 3 c-803 3 -900 0 -900 -32 0 -8 19 -16 50 -20 27 -4 52 -11 55 -17
12 -18 -24 -58 -71 -78 -33 -15 -45 -25 -42 -38 2 -13 11 -17 30 -15 15 2 56
-6 92 -17 36 -11 73 -18 81 -15 28 11 16 -23 -19 -53 -20 -18 -50 -33 -75 -37
-27 -4 -41 -11 -41 -21 0 -13 -3 -13 -20 -3 -16 10 -23 9 -42 -8 -13 -11 -35
-25 -50 -32 -32 -13 -29 -37 5 -46 18 -5 20 -8 7 -16 -20 -13 -87 -13 -126 2
-39 14 -87 -3 -111 -39 -14 -21 -14 -24 8 -42 l23 -18 -60 -23 c-49 -18 -72
-21 -137 -17 -68 5 -78 3 -87 -13 -13 -25 0 -31 41 -20 41 12 40 12 59 0 13
-9 11 -13 -10 -30 l-25 -20 32 0 c24 0 44 10 72 35 36 33 71 46 71 26 0 -5
-10 -16 -22 -24 -20 -14 -21 -16 -5 -16 13 -1 17 -7 15 -23 -2 -18 -12 -24
-43 -30 -49 -8 -319 -8 -360 1 -43 9 -39 34 6 42 21 3 51 18 69 32 17 15 43
27 57 27 21 0 24 3 19 24 -6 23 -3 24 67 30 39 4 80 9 90 12 21 7 23 34 1 34
-9 0 -14 5 -12 11 4 12 75 40 98 38 29 -2 38 1 75 31 22 18 50 30 66 30 36 0
37 17 4 32 -30 13 -29 41 0 46 11 3 24 10 28 18 7 12 12 11 33 -2 23 -16 26
-16 49 6 20 18 32 22 65 17 34 -4 40 -2 40 13 0 16 -10 18 -117 15 -130 -3
-135 -4 -204 -51 -28 -18 -77 -39 -114 -47 -84 -19 -110 -37 -136 -93 -24 -50
-52 -68 -119 -78 -105 -16 -102 -15 -98 -52 5 -40 -9 -46 -18 -8 -5 17 -1 37
10 56 14 23 15 32 5 44 -16 20 11 49 54 58 60 12 119 96 67 96 -28 0 -25 14 5
28 27 13 32 31 13 50 -25 25 -56 12 -109 -43 -41 -43 -59 -55 -83 -55 -17 0
-48 -5 -70 -11 -26 -7 -42 -7 -49 0 -6 6 14 17 64 32 62 18 81 30 119 69 42
44 50 49 120 61 41 7 99 13 129 13 58 1 60 -1 106 -79 10 -17 13 -16 39 9 16
14 35 26 41 26 7 0 23 9 36 19 l24 20 -24 9 c-23 8 -21 10 23 21 56 14 63 10
48 -23 -14 -30 -8 -36 39 -36 47 0 69 8 69 26 0 8 8 17 18 21 9 3 28 16 42 29
14 12 35 24 48 26 12 1 21 8 20 13 -3 12 -43 8 -113 -10 -50 -13 -86 -8 -48 6
24 9 93 75 93 89 0 6 -85 10 -220 10 l-220 0 -52 -37 c-29 -20 -73 -56 -98
-80 -40 -38 -56 -45 -130 -61 -98 -22 -140 -41 -169 -78 -23 -29 -36 -26 -43
10 -4 20 1 27 23 37 38 15 36 25 -6 39 -45 15 -71 6 -117 -38 -40 -38 -59 -39
-36 -2 11 18 11 23 -5 35 -18 13 -17 14 11 29 17 9 69 25 115 36 90 20 137 38
137 51 0 17 -18 17 -70 -1 -56 -19 -78 -14 -67 14 4 9 22 16 48 18 23 2 44 9
47 16 3 9 -27 12 -126 12 -121 0 -130 -1 -135 -20 -7 -26 -37 -26 -37 0 0 20
-5 20 -187 18 l-188 -3 -3 -32 c-2 -24 -9 -33 -30 -38 -39 -10 -62 -34 -62
-66 0 -15 -3 -34 -6 -43 -12 -32 -20 -15 -19 40 0 51 4 59 38 90 20 19 37 39
37 44 0 6 -62 10 -163 10 l-163 0 -77 -95 c-43 -52 -80 -101 -82 -108 -3 -7 1
-21 9 -32 13 -19 16 -18 82 14 74 35 114 66 114 88 0 20 17 16 23 -5 2 -12 18
-22 38 -26 l34 -8 -50 -17 c-28 -9 -66 -26 -85 -38 -38 -23 -98 -82 -87 -84 4
-1 12 -2 17 -3 12 -1 13 -6 4 -29 -3 -10 -4 -20 -2 -23 3 -2 38 11 79 31 52
25 82 34 101 30 23 -5 29 -1 44 27 14 26 19 29 22 15 5 -27 -21 -61 -83 -108
-49 -37 -54 -44 -41 -58 7 -9 17 -27 21 -40 7 -22 10 -19 39 35 28 53 36 61
79 74 27 9 50 23 53 33 7 21 23 22 31 1 3 -9 -5 -26 -19 -42 -14 -15 -28 -35
-31 -45 -5 -12 -13 -16 -25 -13 -21 7 -86 -56 -97 -94 -4 -14 -20 -38 -35 -55
-15 -16 -40 -50 -55 -74 -18 -29 -30 -40 -37 -33 -6 6 2 25 26 57 51 66 48 81
-10 52 -28 -13 -40 -23 -30 -25 20 -4 21 -4 -8 -49 -41 -63 -54 -73 -92 -73
-30 0 -43 -8 -80 -47 -44 -49 -52 -63 -34 -63 9 0 26 16 58 55 17 20 37 15 37
-10 0 -30 19 -28 43 5 33 44 77 63 128 56 31 -4 45 -1 55 10 11 13 9 19 -11
34 -23 18 -24 20 -8 36 15 16 18 16 33 0 23 -22 31 -20 56 14 28 37 68 52 110
40 27 -8 32 -6 36 10 7 28 28 25 41 -5 7 -16 20 -25 33 -25 21 0 21 1 6 18
-10 10 -17 33 -17 50 0 30 -3 32 -34 32 -19 0 -45 -9 -61 -22 l-28 -22 6 24
c4 14 7 40 7 58 0 22 6 34 18 38 9 3 25 10 34 15 26 14 28 12 21 -23 l-6 -32
29 21 c16 11 53 33 83 49 48 26 51 29 30 34 -35 8 -31 35 5 35 22 0 34 -8 53
-37 l23 -38 -24 0 c-13 0 -34 -9 -47 -21 -22 -18 -22 -20 -4 -15 11 3 58 14
105 26 47 11 92 28 100 36 14 15 10 16 -45 10 l-60 -6 24 20 c30 26 55 25 98
-1 37 -23 74 -20 106 8 9 9 20 14 23 10 10 -10 -16 -48 -47 -66 -34 -21 -27
-31 32 -50 36 -12 87 -56 77 -66 -3 -3 -21 3 -39 14 -19 11 -59 25 -89 32 -30
6 -61 16 -67 21 -9 7 -23 6 -45 -3 -22 -9 -73 -14 -148 -14 l-115 0 3 -30 c6
-45 19 -55 76 -55 29 0 86 -13 131 -28 66 -22 81 -31 83 -50 3 -21 1 -22 -37
-16 -40 6 -58 -7 -26 -20 8 -3 15 -17 15 -31 0 -14 2 -25 5 -25 7 0 31 19 61
49 34 34 59 25 168 -65 18 -15 17 -17 -14 -49 -23 -24 -31 -39 -26 -52 6 -15
8 -15 17 -3 8 13 11 12 24 -4 8 -10 24 -24 37 -30 12 -6 25 -22 29 -36 5 -21
7 -23 14 -7 4 9 4 28 1 42 -10 37 2 50 26 28 21 -18 21 -18 14 10 -6 26 6 38
19 17 11 -18 44 -11 56 12 8 14 14 18 17 10 2 -6 10 -12 18 -12 11 0 13 7 8
28 -7 24 -6 26 9 13 41 -33 -1 -73 -116 -111 -33 -10 -38 -15 -32 -34 15 -43
13 -130 -3 -148 -20 -23 -29 -23 -37 2 -3 11 -11 20 -17 20 -5 0 -12 -9 -15
-20 -7 -28 -57 -27 -77 2 -21 29 -7 47 15 20 20 -25 29 -28 29 -9 0 21 -37 50
-55 44 -9 -4 -15 -19 -15 -37 0 -30 -21 -42 -35 -20 -4 6 -21 8 -41 4 -30 -6
-35 -3 -51 25 -21 36 -29 39 -38 11 -8 -24 -18 -25 -51 -3 -21 14 -27 14 -34
3 -9 -15 -94 -15 -133 -1 -12 5 -42 47 -71 101 -28 51 -58 96 -66 98 -13 4
-13 3 -2 -11 8 -9 12 -24 10 -34 -1 -10 7 -28 20 -41 18 -18 20 -26 12 -42 -6
-11 -17 -20 -26 -20 -12 0 -13 -4 -3 -21 l11 -21 -124 6 c-67 4 -158 9 -200
12 l-78 6 0 29 c0 17 6 32 15 35 8 4 15 14 15 24 0 16 18 30 41 30 5 0 9 -7 9
-15 0 -22 31 -18 37 5 7 25 12 25 29 3 7 -10 16 -15 20 -10 4 4 2 13 -4 19 -7
7 -12 21 -12 32 0 18 1 18 19 2 12 -11 21 -13 25 -7 4 5 -2 15 -11 20 -17 10
-16 12 6 31 13 11 34 20 48 20 19 0 24 4 19 16 -3 9 -6 19 -6 24 0 14 -57 -19
-89 -51 -19 -18 -40 -29 -58 -29 -19 0 -36 -9 -54 -32 -29 -34 -57 -34 -66 2
-10 37 -32 26 -90 -43 -28 -33 -38 -34 -68 -2 -25 28 -43 18 -25 -14 5 -11 10
-31 10 -46 0 -49 73 -44 98 8 9 19 21 27 38 27 28 0 39 -19 30 -55 -6 -24 -8
-25 -101 -25 -57 0 -95 4 -95 10 0 13 -37 13 -45 0 -12 -19 -23 -10 -29 24 -6
32 9 86 24 86 4 0 23 11 43 24 25 17 38 21 46 13 13 -13 18 -9 27 27 6 27 5
28 -22 22 -24 -5 -31 -2 -39 16 -14 32 -42 35 -56 5 -8 -18 -8 -30 1 -47 10
-18 9 -24 -1 -31 -25 -15 -39 -9 -39 16 0 32 -14 32 -28 0 -12 -26 -26 -32
-37 -15 -9 15 -42 12 -59 -6 -18 -18 -21 -34 -6 -34 6 0 10 7 10 16 0 8 5 12
10 9 11 -7 13 -52 4 -107 -6 -36 -9 -38 -43 -38 -24 0 -42 7 -54 20 -9 11 -24
20 -32 20 -20 0 -19 16 1 24 13 5 14 9 4 21 -21 25 -42 -1 -38 -49 l3 -41 -50
-3 -50 -3 32 23 c18 13 33 27 33 31 0 17 -32 18 -50 2 -21 -19 -24 -16 -32 30
-3 16 -10 11 -36 -29 -17 -27 -33 -52 -34 -57 -4 -10 -328 -50 -340 -43 -14 9
-1 51 28 93 13 19 24 41 24 48 0 10 6 10 24 1 14 -6 33 -7 43 -3 16 7 15 9 -7
14 -14 4 -29 17 -35 29 -7 17 -15 21 -30 17 -11 -4 -43 -11 -71 -17 -45 -8
-50 -12 -47 -32 3 -16 -6 -32 -36 -59 -23 -20 -48 -37 -56 -37 -8 0 -15 -9
-15 -20 0 -30 32 -25 65 10 32 33 45 38 45 15 0 -24 -33 -85 -46 -85 -6 0 -26
-3 -43 -6 -29 -6 -31 -5 -31 21 l0 28 -22 -20 c-43 -38 -78 -49 -78 -22 0 4
15 16 34 27 30 18 74 78 64 87 -6 6 -190 -122 -186 -131 4 -11 18 -7 39 12 14
13 18 13 28 0 15 -18 -4 -30 -64 -40 -22 -4 -60 -18 -84 -32 -54 -30 -94 -31
-120 -3 -20 22 -55 23 -103 4 -33 -13 -19 24 15 40 17 8 51 25 75 39 23 13 51
26 62 29 19 5 29 37 11 37 -5 0 -37 -13 -72 -29 -35 -16 -79 -32 -98 -35 -32
-6 -33 -5 -26 22 15 60 84 125 200 185 52 28 57 32 34 35 -32 4 -140 -56 -191
-106 -41 -39 -61 -36 -37 6 19 35 106 94 189 128 36 15 75 39 87 53 12 14 29
33 36 42 9 10 39 19 81 24 76 8 123 39 147 97 23 59 61 110 73 98 16 -16 23
-12 30 15 9 34 28 32 24 -2 -2 -19 -12 -32 -30 -41 -25 -12 -68 -57 -68 -71 0
-4 20 -13 44 -20 40 -11 48 -11 76 6 28 16 31 22 26 51 -7 43 8 82 32 82 26 0
32 -9 23 -34 -5 -11 -11 -38 -15 -58 -7 -38 -7 -38 20 -28 32 12 64 4 64 -16
0 -16 26 -19 35 -5 3 5 1 12 -5 16 -34 21 13 127 64 145 16 5 35 18 42 27 9
13 16 15 24 7 8 -8 5 -21 -14 -49 -14 -21 -26 -43 -26 -50 0 -15 -28 -28 -42
-19 -5 3 -2 14 8 25 9 11 14 22 10 27 -9 8 -46 -34 -46 -53 0 -7 7 -18 15 -25
13 -10 19 -10 34 4 15 14 24 15 40 6 15 -7 27 -8 40 0 34 18 52 11 64 -22 l11
-33 6 30 c4 23 15 34 44 48 28 13 36 21 28 29 -8 8 -23 7 -54 -5 -55 -21 -120
-26 -125 -10 -2 7 15 22 39 34 55 27 53 25 34 45 -22 21 -18 24 46 38 28 7 54
18 56 24 6 18 -28 27 -51 12 -18 -11 -23 -10 -40 11 -28 35 -17 80 35 138 40
44 88 151 68 151 -4 0 -22 -29 -40 -65 -31 -62 -115 -154 -128 -140 -4 4 6 17
22 30 26 21 29 29 27 76 -1 28 1 60 5 71 5 18 6 18 19 2 12 -17 15 -16 50 15
20 18 43 30 50 27 7 -2 21 4 31 15 18 20 34 25 34 10 0 -4 -25 -53 -55 -108
-30 -56 -55 -106 -55 -112 0 -6 9 -11 20 -11 21 0 33 21 44 73 11 50 25 28 19
-30 -6 -63 -16 -83 -42 -83 -21 0 -47 -17 -39 -25 12 -12 77 16 98 42 15 20
23 23 33 14 11 -8 19 -5 37 14 27 29 55 32 64 9 8 -21 -11 -44 -35 -44 -12 0
-19 -7 -19 -20 0 -29 37 -26 66 5 33 36 75 33 110 -7 16 -20 34 -32 45 -30 30
5 22 -11 -26 -52 -25 -22 -45 -46 -45 -53 0 -18 29 -17 36 2 10 25 34 17 34
-10 0 -15 -15 -42 -37 -67 l-38 -41 41 5 c84 11 130 54 74 68 -15 4 -23 12
-21 21 2 8 6 26 9 42 4 27 35 57 59 57 18 0 16 -25 -2 -40 -20 -16 -19 -44 1
-61 13 -11 17 -10 25 4 6 9 19 17 29 17 10 0 22 5 25 10 10 16 55 11 62 -7 4
-10 -2 -23 -19 -37 -14 -12 -27 -28 -31 -37 -4 -12 -13 -15 -31 -12 -18 4 -36
-3 -60 -23 -19 -16 -53 -41 -75 -56 -30 -20 -41 -35 -41 -53 0 -14 5 -25 10
-25 6 0 10 5 10 10 0 6 11 10 23 10 25 0 57 28 57 48 0 7 12 12 26 12 23 0 25
3 20 25 -5 19 -2 25 10 25 13 0 15 -8 12 -35 -4 -32 -2 -35 21 -35 14 0 37
-12 52 -26 30 -29 76 -26 65 3 -4 9 -1 30 5 48 7 18 9 40 6 49 -8 21 -37 9
-37 -15 0 -28 -29 -23 -36 6 -9 38 -2 46 59 65 63 20 77 13 56 -26 -16 -32 -2
-45 19 -17 9 12 28 23 41 25 66 9 4 62 -71 62 -33 0 -48 4 -48 13 0 17 47 35
69 28 10 -3 26 2 37 11 18 15 17 15 -18 10 -21 -2 -38 -1 -38 3 0 5 -9 29 -20
54 -19 44 -22 46 -45 35 -20 -9 -31 -8 -50 2 -23 12 -31 11 -71 -8 -56 -28
-58 -27 -50 3 5 20 3 25 -14 25 -11 0 -20 4 -20 9 0 5 43 47 95 93 52 46 95
89 95 96 0 17 -25 15 -41 -4 -11 -14 -15 -13 -31 8 l-18 23 -28 -32 c-19 -22
-37 -33 -55 -33 -20 0 -33 -9 -49 -35 -20 -30 -48 -47 -48 -30 0 15 33 83 54
109 13 17 26 41 30 54 7 21 6 22 -67 22 -67 0 -75 -2 -84 -22 -14 -30 -82
-108 -94 -108 -17 0 -9 24 21 70 16 25 30 48 30 53 0 4 -68 7 -151 7 l-150 0
-14 -32 c-18 -45 -26 -51 -41 -30 -11 16 -13 16 -33 -2 -11 -10 -28 -41 -37
-70 -18 -56 -58 -131 -76 -142 -23 -14 1 55 47 133 50 87 67 143 43 143 -9 0
-29 -29 -47 -69 -24 -52 -38 -71 -54 -73 -14 -2 -28 -17 -40 -40 -9 -21 -20
-38 -23 -38 -3 0 -3 24 0 53 l6 52 -24 -51 c-23 -50 -42 -71 -53 -61 -3 3 3
19 13 36 15 25 16 32 4 46 -12 14 -8 21 31 55 37 32 41 39 27 45 -14 6 -15 11
-7 26 8 16 6 19 -9 19 -12 0 -25 -14 -37 -39 -19 -43 -71 -99 -81 -88 -4 4 2
28 14 54 27 63 21 73 -42 73 -57 0 -70 -12 -96 -93 -6 -21 -17 -36 -23 -34
-19 6 -20 66 -3 92 21 31 20 35 -4 35 -11 0 -23 -8 -26 -17 -17 -52 -59 -142
-62 -133 -2 5 -10 10 -18 10 -18 0 -28 -42 -20 -90 6 -41 -1 -49 -22 -28 -13
13 -16 76 -6 126 4 21 11 29 20 25 22 -8 60 22 72 56 12 35 -1 42 -18 11 -6
-11 -15 -20 -19 -20 -5 0 -7 9 -4 20 8 29 -6 24 -19 -7 l-12 -28 -4 38 -3 37
-112 0 -112 0 -23 -62 c-24 -68 -28 -128 -11 -159 5 -11 7 -29 3 -41 -6 -20
-7 -20 -31 6 -17 19 -30 25 -45 20 -17 -5 -19 -3 -13 18 4 12 16 42 26 65 32
71 20 130 -19 91 -17 -17 -25 -3 -12 21 15 29 5 41 -35 41 -29 0 -34 -4 -40
-29 -14 -66 -72 -77 -96 -20 -17 42 -25 23 -33 -82 -3 -47 -13 -105 -21 -128
l-15 -43 31 7 c29 6 30 6 20 -13 -6 -12 -11 -23 -11 -26 0 -11 36 -6 48 6 9 9
15 8 27 -8 28 -36 27 -60 -4 -123 -24 -47 -36 -61 -54 -61 -24 0 -107 35 -107
45 0 3 20 3 45 -1 43 -6 47 -4 80 31 34 36 45 64 25 67 -5 0 -15 1 -20 2 -6 1
-16 -10 -23 -24 -14 -27 -42 -34 -42 -11 0 20 -24 26 -31 7 -9 -25 -19 -19
-38 22 -18 35 -19 36 -27 15 -8 -21 -39 -33 -39 -15 0 14 21 126 26 142 7 21
31 -23 39 -72 9 -48 22 -56 37 -23 9 20 9 31 0 43 -28 41 -62 106 -62 118 0 7
8 18 19 23 13 7 21 26 25 64 11 82 6 87 -80 87 l-74 0 0 -47 c0 -84 -7 -94
-54 -91 -39 3 -41 4 -49 47 -8 43 -22 45 -29 6 -2 -11 -8 -19 -13 -17 -12 3
-12 59 -1 85 5 11 4 17 -3 17 -7 0 -21 -21 -33 -46 -20 -46 -20 -46 -56 -39
-21 4 -47 7 -59 7 -18 0 -22 7 -25 36 -4 44 -28 56 -28 14 l0 -30 -59 1 c-56
2 -60 3 -65 29 l-5 28 -181 0 c-123 0 -180 -3 -180 -11 0 -6 9 -22 20 -36 20
-25 26 -76 14 -107 -5 -13 -9 -14 -21 -4 -11 9 -16 9 -22 0 -9 -16 -27 20 -37
75 -4 26 -3 35 4 28 5 -5 12 -19 14 -29 1 -11 9 -21 17 -24 11 -4 12 4 7 34
-15 82 31 74 -427 74 -336 0 -409 -2 -409 -13 0 -8 18 -22 40 -32 22 -10 47
-26 56 -36 14 -16 14 -18 -5 -28 -30 -17 -66 2 -97 50 l-26 42 -18 -23 c-20
-27 -40 -19 -40 16 l0 24 -186 0 c-140 0 -185 -3 -182 -12 3 -7 17 -15 33 -20
16 -4 38 -19 50 -34 20 -25 27 -27 103 -28 78 -1 111 12 60 24 -21 5 -21 7 -4
13 24 9 56 -18 56 -47 -1 -12 -6 -31 -14 -44 -11 -21 -14 -22 -26 -7 -9 11
-22 14 -45 9 -19 -3 -35 -1 -39 5 -4 6 -14 11 -22 11 -10 0 -13 -7 -8 -24 7
-28 -13 -36 -93 -36 -46 0 -53 3 -53 19 0 17 5 19 35 14 28 -4 35 -2 35 11 0
16 -10 20 -44 16 -10 -1 -36 6 -58 16 -35 16 -37 19 -23 34 13 15 12 19 -10
38 -14 12 -25 26 -25 32 0 5 -21 10 -46 10 -37 0 -45 -3 -40 -15 4 -12 -3 -14
-39 -12 -52 2 -60 -13 -14 -29 18 -6 37 -21 42 -32 5 -12 22 -24 37 -27 15 -3
36 -15 46 -26 15 -17 16 -23 5 -41 -7 -11 -11 -22 -8 -24 9 -10 214 -34 237
-29 14 4 35 16 47 27 21 19 21 19 27 0 4 -13 25 -24 66 -35 78 -22 77 -22 72
13 -2 17 -1 30 2 30 12 0 51 -25 82 -53 23 -20 40 -28 60 -25 26 3 29 6 26 36
-2 17 1 32 5 32 5 0 29 -20 53 -45 24 -25 48 -45 52 -45 4 0 8 15 8 33 l0 32
23 -39 c24 -43 24 -43 112 -81 33 -14 77 -39 98 -56 34 -28 37 -28 37 -9 0 11
4 20 10 20 19 0 90 -32 90 -41 0 -5 8 -9 17 -9 26 0 -34 59 -82 80 -52 23 -83
58 -90 100 l-5 35 19 -41 c15 -32 27 -43 57 -52 22 -6 66 -33 99 -60 94 -76
255 -187 311 -215 27 -14 56 -33 63 -41 12 -15 15 -15 26 0 10 15 21 12 107
-29 87 -42 97 -50 108 -83 9 -27 9 -39 1 -47 -9 -9 -14 -8 -21 3 -18 28 -20 3
-5 -66 18 -83 18 -84 5 -84 -5 0 -10 7 -10 16 0 13 -5 12 -31 -6 -16 -12 -31
-21 -33 -19 -1 2 -7 16 -14 32 -21 50 -31 28 -12 -28 10 -30 16 -55 12 -55 -4
0 -94 34 -202 76 -117 46 -215 79 -245 81 -27 3 -70 12 -95 21 -53 19 -143 83
-166 117 -26 40 -36 29 -14 -15 11 -21 20 -41 20 -43 0 -2 -53 11 -117 28 -65
18 -130 35 -145 39 -16 3 -28 13 -28 21 0 17 -21 20 -36 5 -7 -7 -39 -4 -99 8
-55 12 -82 21 -71 25 23 9 13 23 -35 47 -21 11 -39 27 -39 36 0 13 9 14 58 9
l57 -7 -22 23 c-25 25 -110 37 -153 21 l-25 -9 33 -7 c32 -8 38 -17 44 -76 2
-19 11 -26 33 -31 63 -14 8 -8 -168 16 -220 31 -229 33 -222 45 4 6 -13 10
-42 10 -53 1 -130 14 -140 24 -4 4 -2 20 4 37 11 27 9 30 -17 44 -22 12 -27
19 -22 42 2 15 14 35 25 44 11 9 17 21 13 27 -10 16 -66 26 -79 13 -15 -15
-44 -14 -54 2 -4 6 -10 35 -13 62 l-5 50 -46 3 c-35 2 -49 -2 -64 -18 -24 -26
-59 -27 -52 -1 8 30 -7 45 -31 32 -11 -6 -34 -11 -50 -11 -18 0 -36 -9 -50
-25 -22 -25 -62 -34 -62 -15 0 6 9 10 20 10 37 0 22 29 -17 32 -35 3 -61 28
-29 28 9 0 16 4 16 9 0 15 -54 23 -84 11 -40 -15 -84 -12 -183 11 -81 19 -173
22 -189 6 -4 -3 14 -27 39 -51 45 -45 46 -46 79 -32 18 7 52 16 76 19 37 4 42
3 42 -14 0 -11 7 -22 15 -25 8 -4 15 -15 15 -25 0 -16 -8 -19 -54 -19 -40 0
-62 -6 -89 -24 -41 -28 -54 -23 -32 11 l16 23 -116 -2 c-63 -1 -118 1 -121 5
-4 3 -4 13 -1 22 5 12 24 15 87 15 64 0 80 3 80 15 0 24 -130 59 -196 51 -30
-3 -79 -9 -109 -12 -34 -4 -55 -3 -55 4 0 11 33 22 73 22 36 0 35 15 -3 29
-16 5 -30 15 -30 21 0 16 60 2 85 -20 11 -10 25 -16 30 -15 6 2 23 6 39 10 25
5 28 10 24 35 -5 35 11 40 30 9 11 -16 21 -20 60 -17 47 3 61 20 22 26 -11 2
-20 8 -20 14 0 7 22 9 66 5 62 -6 68 -5 86 18 17 22 28 25 79 25 46 0 59 3 59
15 0 12 -16 15 -84 15 -94 0 -116 -5 -116 -28 0 -22 -248 -12 -266 12 -10 14
-54 16 -388 16 -362 0 -376 -1 -376 -19 0 -32 -74 -42 -115 -15 -23 15 -25 15
-31 0 -6 -15 -11 -13 -40 9 l-33 25 -1141 0 c-903 0 -1142 -3 -1145 -12z
m3055 -49 c0 -7 -126 -29 -169 -29 -16 0 -32 4 -35 9 -7 11 46 31 83 31 14 0
35 7 45 15 17 13 22 12 47 -2 16 -10 29 -20 29 -24z m6640 25 c0 -8 -15 -28
-32 -45 -29 -26 -30 -29 -12 -29 12 0 42 6 67 14 26 8 47 10 47 6 0 -4 -25
-33 -56 -64 -36 -36 -65 -56 -79 -56 -32 0 -38 13 -20 46 8 16 15 35 15 42 0
19 -24 14 -37 -7 -10 -16 -20 -19 -50 -14 -21 3 -42 9 -46 13 -15 13 46 49 74
43 30 -5 75 15 103 46 23 25 26 26 26 5z m-7026 -29 c9 -13 16 -27 16 -31 0
-3 -24 -3 -53 0 -45 6 -57 4 -79 -13 -22 -18 -27 -19 -32 -6 -14 36 36 73 100
74 23 1 36 -6 48 -24z m2744 -20 c9 -61 12 -67 28 -54 9 8 13 21 10 35 -8 30
3 35 42 19 34 -15 43 -35 16 -35 -13 0 -15 -9 -11 -47 2 -27 8 -58 12 -70 6
-20 4 -23 -20 -23 -24 0 -26 3 -20 29 4 20 1 34 -10 45 -17 17 -65 22 -65 7 0
-23 25 -78 43 -94 23 -20 15 -37 -11 -21 -27 17 -81 212 -63 229 12 13 46 -1
49 -20z m286 -10 c11 -25 28 -41 61 -57 l47 -23 -5 -55 c-3 -30 -8 -64 -12
-76 -5 -17 1 -24 34 -39 22 -10 43 -26 46 -36 10 -30 82 -87 125 -99 63 -17
69 -7 16 29 -38 27 -45 35 -35 47 6 8 20 14 31 14 17 0 18 3 8 15 -6 8 -9 23
-6 33 4 11 -5 38 -21 68 -25 43 -28 46 -31 25 -2 -13 -12 -26 -22 -28 -11 -3
-20 -15 -22 -27 -4 -26 -58 -35 -77 -12 -16 20 -4 39 20 33 31 -8 34 15 5 36
-25 18 -26 20 -9 32 15 11 19 10 28 -9 6 -11 19 -21 30 -21 18 0 20 6 17 50
-3 56 -4 57 56 -30 32 -45 35 -47 71 -42 37 5 39 3 59 -39 12 -24 26 -44 31
-44 16 0 24 21 12 33 -6 6 -11 39 -11 74 0 50 -5 69 -25 99 -27 40 -35 85 -12
65 8 -6 22 -26 32 -46 16 -29 24 -34 50 -32 30 2 30 2 33 -57 l3 -58 -25 28
-25 29 -1 -33 c0 -18 5 -41 12 -51 9 -15 9 -25 0 -46 -17 -38 -16 -43 22 -59
19 -8 39 -23 45 -34 16 -30 41 -53 52 -46 13 7 -7 42 -46 79 -29 27 -55 98
-42 111 2 3 22 -12 43 -33 36 -36 40 -46 65 -166 17 -83 23 -127 15 -124 -11
4 -20 27 -31 80 -4 18 -12 27 -25 27 -30 0 -32 -15 -5 -40 14 -13 25 -27 25
-32 0 -17 -30 -20 -46 -4 -18 18 -35 17 -42 -2 -2 -7 10 -17 27 -23 36 -13 44
-44 9 -34 -41 13 -86 45 -91 65 -3 12 -14 20 -26 20 -14 0 -19 -5 -15 -15 7
-18 9 -18 -55 1 -32 9 -69 30 -94 53 -23 21 -56 45 -73 54 -34 18 -104 90
-104 110 0 6 -5 4 -11 -5 -15 -26 -26 -22 -38 14 -9 24 -8 33 1 40 19 11 -12
62 -40 66 -18 3 -22 -2 -23 -25 l0 -28 -16 23 c-8 12 -26 22 -39 22 -29 0 -40
33 -25 73 14 37 39 45 57 19 7 -11 34 -32 59 -45 42 -24 45 -24 45 -6 0 11
-16 29 -40 44 -22 14 -40 29 -40 34 0 5 -3 23 -6 40 -9 41 2 39 20 -4z m594
-84 c4 -26 1 -37 -13 -47 -11 -8 -22 -14 -27 -14 -10 0 -10 70 -1 125 l6 40
15 -35 c8 -19 17 -50 20 -69z m1557 42 c-4 -16 -7 -40 -6 -55 0 -20 -9 -34
-32 -50 -45 -31 -54 -46 -60 -96 -3 -24 -12 -51 -20 -59 -14 -14 -15 -10 -12
44 2 53 8 65 52 125 28 36 53 77 57 92 3 14 11 26 17 26 7 0 9 -10 4 -27z
m-4067 -103 c6 -16 17 -30 24 -31 7 0 29 -1 48 -2 28 -2 36 -7 38 -24 4 -28
-32 -47 -146 -76 -76 -20 -87 -26 -90 -46 -3 -21 -1 -22 30 -16 18 4 63 21
100 37 75 34 114 33 83 -2 -15 -16 -16 -23 -6 -33 9 -9 14 -9 21 3 5 8 10 22
10 31 0 9 10 24 21 35 12 10 25 27 28 38 6 14 20 20 57 23 27 2 74 10 105 18
105 27 172 14 155 -31 -5 -14 -17 -16 -76 -10 -43 5 -70 3 -70 -2 0 -13 25
-22 56 -22 14 0 34 -5 45 -11 15 -7 24 -7 34 1 15 13 55 -3 55 -21 0 -7 10 -9
25 -5 20 5 25 3 25 -12 0 -10 -6 -26 -12 -35 -12 -16 -16 -16 -63 -1 -49 16
-52 16 -103 -6 -52 -23 -65 -43 -40 -68 8 -8 20 -4 49 18 36 29 59 38 59 22 0
-4 -9 -13 -20 -20 -11 -7 -20 -19 -20 -28 0 -21 54 -10 81 17 23 23 62 25 79
4 7 -8 21 -15 31 -15 20 0 24 -16 10 -38 -7 -11 -38 -12 -172 -3 -90 6 -195
11 -234 12 -38 0 -64 3 -57 6 25 10 12 33 -18 33 -23 0 -30 -4 -30 -20 0 -33
-36 -25 -49 11 -12 35 -33 34 -41 -2 -5 -22 -11 -24 -70 -27 -36 -1 -96 1
-135 5 l-70 8 48 33 c43 30 47 37 47 72 0 37 3 41 45 61 25 12 48 25 51 30 7
12 51 11 59 -1 4 -7 13 -7 26 0 22 13 25 30 4 30 -21 0 -85 59 -85 79 0 43 42
29 58 -19z m-1438 18 c66 -4 144 -34 138 -53 -4 -12 -11 -11 -63 9 -27 10 -77
15 -150 16 -60 0 -117 5 -125 10 -11 7 -1 10 36 10 34 0 56 5 64 15 8 10 17
12 24 6 6 -5 40 -10 76 -13z m7428 -15 c-3 -24 -7 -28 -32 -25 -22 2 -35 -3
-47 -19 -15 -20 -19 -21 -33 -10 -9 7 -16 20 -16 27 0 21 60 54 98 54 30 0 33
-2 30 -27z m-6971 -6 c19 -14 8 -24 -35 -31 -58 -9 -70 -29 -38 -61 25 -25 56
-34 56 -16 0 5 -9 13 -20 16 -37 12 -21 25 31 25 62 0 134 -17 150 -36 14 -17
-2 -18 -68 -5 -24 5 -43 5 -43 1 0 -13 116 -60 164 -66 36 -5 46 -11 44 -23
-5 -25 -60 -25 -99 -2 -43 26 -69 26 -103 0 -33 -26 -82 -40 -113 -33 -38 10
-27 32 20 39 23 4 56 15 72 23 l30 16 -45 6 c-30 4 -66 20 -107 48 -84 57 -83
75 6 105 44 14 75 13 98 -6z m351 -7 c80 -6 147 -12 150 -15 2 -2 2 -12 -2
-21 -5 -13 -15 -15 -59 -10 -89 12 -92 12 -92 -4 0 -28 58 -47 117 -39 29 4
75 8 101 8 41 1 48 -2 45 -16 -3 -12 -12 -17 -28 -15 -25 3 -90 -51 -90 -75 0
-19 17 -16 32 5 34 47 118 72 118 36 0 -12 -6 -15 -25 -10 -36 9 -61 -8 -75
-49 -18 -54 -8 -63 30 -27 18 18 41 32 51 32 11 0 19 7 19 15 0 8 5 15 10 15
18 0 10 -26 -15 -50 -18 -17 -22 -27 -14 -36 8 -10 16 -7 35 14 23 26 25 26
38 9 26 -34 10 -44 -84 -51 -74 -5 -94 -4 -114 9 -21 14 -46 16 -173 10 -138
-7 -152 -6 -206 15 -42 16 -56 25 -48 33 7 7 22 7 48 -1 50 -14 278 -4 315 14
23 12 48 41 48 57 0 2 -18 7 -41 11 -56 9 -94 30 -121 67 -25 34 -66 59 -96
59 -10 0 -27 7 -38 16 -18 15 -18 15 0 10 10 -4 84 -11 164 -16z m4310 -53
c-6 -71 -39 -157 -61 -157 -19 0 -34 -18 -42 -53 -11 -44 23 -34 95 28 45 39
67 52 74 44 12 -11 3 -20 -55 -52 -23 -13 -29 -21 -21 -29 8 -8 18 -5 38 11
37 29 70 26 105 -8 35 -36 39 -81 8 -112 -11 -11 -23 -18 -27 -15 -3 4 0 12 6
18 19 19 15 40 -7 33 -29 -9 -38 16 -13 33 27 18 29 42 2 42 -30 0 -49 -39
-56 -118 -4 -40 -13 -80 -20 -90 -12 -15 -13 -10 -14 38 l0 55 -66 -73 c-70
-77 -89 -91 -141 -103 -57 -12 -47 10 16 39 33 15 60 30 61 33 1 28 -94 3
-122 -32 -10 -12 -18 -38 -18 -59 0 -31 -19 -70 -35 -70 -1 0 -2 29 -1 65 2
57 6 68 31 95 25 26 30 39 28 76 -1 37 1 44 18 44 22 0 26 25 5 33 -8 3 -24 3
-37 0 -21 -6 -20 -3 11 41 44 61 46 62 54 26 10 -52 56 -31 56 25 0 17 7 41
16 53 8 12 12 27 8 33 -3 6 0 15 7 20 23 14 31 10 24 -11 -4 -14 -2 -20 8 -20
9 0 18 20 26 53 31 140 47 166 39 64z m-629 -52 c1 -26 -8 -39 -37 -54 -12 -7
-20 -16 -17 -20 2 -5 -2 -14 -10 -21 -13 -10 -15 -9 -16 11 0 13 -6 39 -13 58
l-12 34 -36 -31 c-40 -35 -48 -33 -48 14 0 33 39 95 40 62 0 -9 13 -21 30 -27
17 -5 33 -17 36 -26 15 -38 53 -2 55 52 l1 28 13 -30 c8 -16 14 -39 14 -50z
m506 30 c-44 -25 -57 -47 -52 -82 7 -42 -1 -72 -14 -51 -5 7 -9 23 -9 36 0 36
-17 17 -24 -27 -10 -64 -30 -64 -21 0 11 83 29 118 64 125 17 4 38 15 48 26
17 19 18 19 22 2 2 -10 -5 -23 -14 -29z m-4995 -2 l63 -6 -34 -18 c-45 -24
-87 -23 -126 1 -18 11 -33 22 -33 25 0 7 55 6 130 -2z m175 -13 c3 -5 20 -13
38 -18 38 -10 42 -33 7 -43 -39 -11 -110 -10 -110 1 0 6 7 10 15 10 17 0 20
25 5 35 -5 3 -10 10 -10 16 0 12 47 12 55 -1z m990 -2 c21 -9 25 -18 25 -55
l0 -45 -26 31 c-14 17 -32 31 -39 31 -17 0 -38 27 -30 40 8 13 38 13 70 -2z
m6795 -72 c0 -2 -29 -14 -64 -26 -46 -15 -83 -20 -132 -18 -77 3 -95 21 -37
36 37 10 233 16 233 8z m-3549 -86 c24 0 29 -4 29 -25 0 -16 6 -25 16 -25 11
0 14 5 9 18 -13 33 -10 37 25 37 31 0 35 3 38 28 4 30 10 33 36 14 17 -12 17
-14 2 -20 -25 -10 -19 -27 10 -27 22 0 25 -2 14 -15 -7 -9 -29 -15 -51 -15
-29 0 -39 -4 -39 -15 0 -9 -7 -29 -15 -45 -21 -40 -6 -38 32 5 25 28 39 35 67
35 37 0 57 17 35 31 -7 4 -10 11 -7 15 4 3 23 -4 44 -16 50 -31 113 -32 153
-2 l31 23 0 -47 c0 -29 -7 -59 -20 -79 -18 -30 -19 -35 -5 -48 18 -19 20 -38
3 -32 -7 3 -35 1 -63 -3 -35 -5 -51 -12 -53 -24 -3 -14 3 -16 35 -11 75 12 71
16 58 -59 -5 -32 -10 -38 -30 -38 -33 0 -55 -10 -55 -25 0 -19 28 -26 50 -13
57 36 19 -59 -59 -144 -53 -58 -59 -85 -9 -43 16 14 36 25 44 25 25 0 15 -28
-21 -56 -36 -27 -48 -59 -19 -47 12 4 15 0 12 -18 -3 -21 -9 -24 -46 -27 -33
-2 -42 0 -36 9 5 9 2 10 -12 4 -10 -4 -31 -10 -46 -13 -30 -5 -35 6 -18 39 15
27 -7 25 -65 -6 -46 -24 -48 -24 -117 -9 -97 20 -207 54 -214 66 -3 5 -3 12 1
16 3 3 10 0 15 -8 5 -8 12 -11 16 -7 14 13 -29 121 -59 149 -16 15 -27 33 -25
39 2 6 25 -12 50 -40 58 -64 71 -66 63 -7 -5 28 -3 46 4 51 16 9 42 75 35 86
-3 6 -14 7 -25 4 -25 -8 -24 9 1 45 l19 27 -25 11 c-13 7 -29 23 -34 37 -5 14
-16 25 -25 25 -10 0 -15 10 -15 29 0 28 -30 66 -37 46 -8 -24 -22 -37 -31 -31
-6 4 -2 21 11 46 24 44 33 49 41 22 9 -27 116 -129 116 -111 0 20 28 46 55 51
31 5 18 23 -17 23 -36 0 -50 24 -19 32 27 7 27 23 1 30 -22 6 -27 28 -8 39 6
4 22 -6 37 -25 18 -22 32 -30 43 -26 14 5 15 10 6 25 -9 14 -7 26 8 56 l19 39
3 -37 c3 -35 6 -38 33 -38z m-4585 24 c25 -15 58 -27 73 -29 16 -1 41 -12 57
-24 37 -29 109 -27 109 4 0 29 31 30 65 1 17 -14 37 -23 45 -19 22 8 106 -7
100 -18 -4 -5 -27 -9 -53 -10 -26 0 -56 -4 -67 -9 -19 -7 -18 -8 5 -14 14 -3
42 -7 63 -8 20 -2 37 -7 37 -13 0 -18 -69 -16 -143 4 -82 23 -107 26 -107 11
0 -5 12 -10 26 -10 14 0 23 -4 19 -10 -9 -15 -51 -12 -65 5 -10 12 -14 12 -25
1 -23 -23 -265 30 -250 54 3 5 14 10 24 10 25 0 91 28 91 39 0 5 -11 12 -25
15 -13 3 -37 11 -52 17 -22 8 -24 12 -13 19 23 15 38 12 86 -16z m8142 -11 c3
-22 -51 -93 -63 -82 -14 14 -17 79 -5 94 19 23 64 15 68 -12z m1287 -53 l30
-15 -46 -3 c-57 -4 -84 -29 -81 -74 l3 -31 -68 7 c-38 4 -74 13 -82 21 -13 13
-12 18 9 40 20 21 22 29 13 44 -7 11 -10 21 -8 23 11 11 203 0 230 -12z m-656
-10 c24 -11 54 -20 66 -20 13 0 25 -6 27 -12 3 -8 18 -12 39 -10 41 4 86 -27
91 -61 5 -37 32 -26 39 16 3 20 8 39 10 41 14 13 93 45 100 40 16 -10 9 -22
-20 -34 -26 -11 -28 -14 -18 -32 10 -16 9 -22 -8 -33 -60 -42 -56 -51 25 -60
61 -7 69 -12 48 -33 -20 -20 -5 -20 71 0 46 12 80 27 89 39 17 24 29 24 88 -2
57 -24 58 -24 49 -39 -5 -8 -13 -6 -26 6 -15 13 -29 15 -74 9 -69 -8 -89 -26
-80 -72 4 -21 2 -40 -5 -48 -10 -12 -18 -10 -51 12 -48 32 -73 26 -64 -17 6
-29 -6 -42 -20 -20 -9 15 -35 12 -35 -4 0 -40 81 -59 136 -32 37 19 125 25
131 10 2 -7 -12 -13 -34 -16 -61 -9 -136 -61 -149 -106 -10 -33 -14 -37 -45
-37 -42 0 -43 -13 -6 -44 l28 -24 41 19 c22 10 52 27 65 37 23 18 23 20 8 38
-29 31 -7 41 31 13 40 -31 42 -41 12 -53 -13 -5 -31 -19 -40 -30 -10 -12 -27
-21 -37 -21 -32 0 -33 -17 -2 -28 24 -8 37 -7 67 9 21 10 38 18 39 16 1 -1 5
-21 9 -44 l6 -41 -88 20 c-160 37 -242 34 -242 -8 0 -13 8 -14 43 -9 23 4 46
8 52 9 5 0 11 -9 13 -22 2 -16 12 -25 33 -29 16 -3 29 -12 29 -19 0 -14 -21
-21 -75 -26 -20 -2 -31 -9 -33 -21 -3 -16 1 -18 26 -12 27 5 31 3 40 -24 9
-25 17 -31 40 -31 35 0 82 -34 82 -60 0 -17 -1 -17 -37 1 -21 10 -45 19 -54
19 -9 0 -22 7 -29 15 -9 11 -29 15 -65 14 -63 -2 -86 8 -61 27 34 24 8 37 -63
31 -36 -4 -72 -3 -80 2 -22 14 -5 38 31 46 58 11 98 26 98 36 0 6 -15 7 -35 3
-28 -5 -35 -3 -35 9 0 9 8 21 18 26 15 9 15 10 -4 11 -11 0 -61 -20 -111 -44
-57 -28 -99 -42 -112 -39 -11 3 -18 9 -15 14 3 5 -13 9 -35 9 -28 0 -46 6 -61
22 -11 12 -20 25 -20 28 0 4 25 14 55 23 50 14 60 14 101 0 48 -16 111 -12
153 11 20 11 21 14 6 20 -12 4 -15 13 -11 31 5 21 3 25 -18 25 -13 0 -30 -7
-37 -16 -10 -13 -23 -15 -59 -9 -25 4 -67 8 -94 9 -39 1 -50 5 -56 21 -12 33
-1 45 33 39 30 -5 31 -5 13 10 -25 21 -45 20 -68 -1 -11 -10 -41 -23 -66 -30
-70 -18 -75 -17 -68 13 8 30 -8 54 -36 54 -19 0 -19 2 -6 22 19 28 63 43 192
62 69 10 134 13 186 9 87 -6 170 15 170 43 0 27 -28 26 -75 -2 l-47 -27 -40
41 c-45 48 -39 45 -72 31 -20 -10 -31 -8 -61 11 -40 25 -78 21 -95 -9 -6 -12
-17 -17 -29 -14 -11 3 -28 -4 -40 -16 -12 -12 -31 -21 -44 -21 -13 0 -34 -11
-46 -24 -12 -13 -43 -29 -67 -35 -52 -13 -61 -29 -44 -72 15 -35 46 -59 77
-59 17 0 23 -6 23 -21 0 -21 3 -22 81 -15 113 9 101 -12 -22 -41 -116 -27
-173 -27 -269 -4 l-75 19 48 1 c26 1 47 3 47 6 0 3 -9 19 -21 34 -17 23 -19
36 -14 62 l8 34 9 -27 c11 -32 24 -35 50 -11 17 15 18 15 18 -5 0 -26 14 -36
29 -19 7 10 5 24 -10 55 l-21 42 -83 0 c-67 0 -87 -4 -108 -20 -21 -17 -26
-18 -31 -5 -8 23 -34 18 -52 -10 -12 -18 -15 -36 -10 -65 5 -32 3 -42 -9 -46
-25 -10 -26 -1 -14 73 15 89 26 104 89 114 28 4 80 23 116 41 62 31 64 33 35
36 -16 2 -39 -2 -50 -8 -16 -8 -22 -7 -31 10 -9 17 -7 22 17 31 15 6 44 19 64
29 20 10 77 23 130 29 52 6 109 13 126 17 25 5 34 2 45 -15 15 -25 28 -27 28
-6 0 8 6 15 13 16 6 1 21 2 32 3 14 1 20 8 19 24 0 16 5 22 22 22 14 0 21 6
20 16 0 9 11 25 26 37 26 19 28 19 53 3 25 -17 28 -17 46 0 10 9 19 23 19 30
0 15 -89 64 -115 64 -8 0 -15 5 -15 10 0 15 31 11 79 -10z m-814 -64 c11 -17
22 -22 40 -18 20 3 25 -1 31 -22 9 -37 3 -39 -37 -12 -48 32 -69 38 -69 21 0
-17 -2 -17 -24 -9 -23 9 -20 30 6 48 30 21 35 20 53 -8z m-7635 -46 c19 -5 21
-9 10 -14 -34 -14 -64 -11 -68 7 -4 18 14 21 58 7z m-132 -37 c-2 -13 -17 -20
-48 -24 -25 -4 -63 -12 -85 -18 -22 -6 -57 -11 -78 -11 -35 0 -37 -2 -31 -25
3 -14 2 -25 -4 -25 -18 0 -40 46 -35 73 5 26 7 26 62 21 34 -3 79 0 116 9 84
21 107 21 103 0z m279 -139 c-3 -3 -12 -4 -19 -1 -8 3 -5 6 6 6 11 1 17 -2 13
-5z m9125 -28 l17 -23 -66 -6 c-42 -4 -71 -3 -80 4 -13 12 -8 33 6 24 5 -2 28
2 52 9 24 8 46 14 49 15 3 0 13 -10 22 -23z m-9332 -26 c22 -14 10 -16 -55
-11 -46 3 -54 6 -35 12 36 10 73 10 90 -1z m6273 -6 c-3 -8 4 -28 16 -44 43
-58 16 -83 -32 -29 -29 34 -34 58 -15 77 17 17 39 15 31 -4z m-6433 -32 c0
-24 -110 -58 -122 -39 -5 9 -15 9 -39 0 -18 -7 -35 -11 -37 -8 -6 5 2 8 98 39
93 30 100 30 100 8z m4915 -102 c3 -5 -1 -10 -9 -10 -8 0 -29 -28 -47 -65 -17
-36 -38 -70 -47 -77 -30 -26 -1 56 40 110 41 53 52 60 63 42z m4728 -137 c31
-5 36 -9 31 -25 -8 -26 11 -46 57 -58 55 -15 49 -29 -8 -19 -52 10 -165 40
-172 46 -3 2 5 11 18 19 22 16 22 17 4 37 -18 20 -18 20 7 13 14 -4 42 -10 63
-13z m-4588 -13 c-3 -5 -11 -10 -16 -10 -6 0 -7 5 -4 10 3 6 11 10 16 10 6 0
7 -4 4 -10z m4473 -121 c27 -32 168 -99 223 -106 30 -4 48 -10 46 -17 -5 -16
-62 -19 -87 -6 -32 17 -36 5 -6 -21 14 -12 23 -26 20 -31 -12 -19 -43 -6 -72
31 -17 22 -68 66 -112 99 -43 33 -77 62 -73 66 13 13 44 5 61 -15z m-221 -106
c48 -31 91 -62 95 -67 11 -16 10 -36 -3 -36 -10 0 -189 147 -189 156 0 9 12 2
97 -53z m-222 -34 c11 -17 0 -20 -21 -4 -17 13 -17 14 -2 15 9 0 20 -5 23 -11z
m765 -535 c0 -10 -7 -14 -22 -12 -32 5 -35 28 -4 28 17 0 26 -5 26 -16z m25
-89 c41 -35 34 -48 -11 -19 -25 17 -51 54 -37 54 4 0 26 -16 48 -35z m-5204
-746 c97 -62 161 -156 224 -332 24 -66 26 -80 14 -88 -24 -15 -54 -10 -67 11
-11 18 -9 21 13 30 27 10 30 17 16 39 -15 23 -83 -7 -91 -39 -5 -20 -12 -25
-35 -25 -27 0 -30 3 -27 31 5 44 -18 60 -51 34 -30 -23 -47 -26 -47 -6 0 8 16
24 34 36 19 11 37 29 40 38 2 9 3 62 1 117 l-3 100 -68 -3 c-95 -4 -109 7 -64
53 18 19 41 35 49 35 8 0 36 -14 62 -31z m-4 -104 c3 -9 -2 -24 -12 -35 -9
-10 -14 -24 -10 -30 4 -7 -2 -14 -15 -17 -17 -5 -21 -11 -17 -32 7 -38 -6 -55
-69 -91 -31 -17 -86 -62 -123 -99 -36 -37 -77 -73 -90 -80 -17 -9 -20 -16 -12
-24 18 -18 13 -24 -30 -30 -22 -3 -43 -7 -45 -10 -7 -7 7 -37 17 -37 28 0 80
32 89 55 9 22 15 25 63 25 44 0 62 6 95 30 23 17 42 35 42 40 0 6 15 19 33 30
38 24 87 27 87 5 0 -8 -12 -17 -27 -21 -16 -3 -32 -7 -38 -8 -5 -2 7 -13 28
-26 20 -12 37 -25 37 -28 -1 -15 -20 -36 -35 -38 -10 -1 -28 -13 -41 -25 -14
-13 -56 -41 -94 -64 -40 -23 -79 -55 -92 -75 -13 -19 -46 -47 -73 -62 -28 -15
-57 -35 -65 -46 -29 -35 -225 -58 -257 -30 -10 8 -46 34 -80 56 -34 23 -64 51
-68 62 -4 13 -21 24 -51 31 -47 12 -53 22 -28 50 18 20 12 53 -9 47 -6 -3 -18
-17 -25 -31 -12 -25 -40 -36 -55 -21 -7 8 80 157 99 167 8 4 14 15 14 22 0 15
68 142 95 179 13 18 16 18 55 2 50 -20 128 -20 200 -1 71 19 70 19 70 -10 0
-34 10 -32 55 15 22 23 65 57 95 78 30 20 65 45 77 55 19 17 73 27 186 36 10
0 20 -6 24 -14z m270 -349 c1 0 11 -24 22 -53 l20 -52 -57 -6 c-51 -6 -158
-30 -219 -50 -17 -5 -23 -3 -23 8 0 8 23 24 53 37 54 23 87 47 87 62 0 5 -9 6
-20 3 -14 -4 -22 -1 -26 10 -8 20 -4 24 43 41 30 11 107 11 120 0z m-5759
-104 c-6 -57 -28 -107 -48 -107 -20 0 -15 55 10 113 26 58 44 55 38 -6z m5841
-113 c6 -18 11 -34 11 -35 0 -8 -54 -3 -142 12 -62 11 -119 14 -170 10 -48 -3
-78 -2 -78 4 0 6 6 10 13 11 6 0 73 6 147 13 213 21 206 21 219 -15z m-1338
-41 c25 -31 24 -38 -10 -38 -37 0 -46 13 -29 40 16 25 16 25 39 -2z m1034 -28
c12 -38 -5 -81 -41 -102 -35 -21 -41 -32 -24 -43 15 -9 12 -36 -6 -57 -14 -14
-14 -20 -4 -33 11 -13 15 -11 29 17 20 42 86 75 175 90 50 8 69 8 80 -1 23
-20 10 -36 -65 -77 -39 -21 -75 -46 -80 -56 -5 -10 -19 -18 -29 -18 -12 0 -25
-11 -32 -29 -16 -37 -94 -121 -112 -121 -9 0 -21 -22 -30 -54 -9 -30 -21 -58
-27 -61 -7 -5 -6 -11 2 -21 16 -19 22 -18 60 15 18 16 53 35 76 42 23 6 48 18
54 25 6 8 17 14 25 14 28 0 24 -23 -10 -67 -21 -28 -36 -57 -35 -72 0 -14 3
-20 6 -13 10 26 23 -1 17 -39 -7 -39 -6 -40 20 -33 24 6 26 4 26 -26 0 -41
-23 -90 -60 -125 -26 -25 -31 -26 -62 -16 -27 9 -45 8 -84 -4 -61 -18 -101
-19 -134 0 -19 10 -55 12 -160 8 -135 -5 -135 -5 -175 22 -52 36 -148 50 -251
36 -41 -6 -80 -11 -85 -11 -14 0 -11 27 6 60 19 37 11 38 -20 3 -22 -26 -25
-27 -41 -11 -15 15 -16 23 -3 93 7 42 18 80 24 84 5 5 76 11 157 13 135 5 149
3 164 -13 13 -15 31 -19 83 -19 41 0 101 -10 160 -26 72 -21 98 -24 112 -16
13 8 20 8 29 -2 8 -11 18 -12 43 -3 18 5 38 12 45 13 24 7 2 23 -49 38 -27 8
-55 18 -62 23 -17 11 -37 15 -77 18 -19 1 -52 5 -74 10 -30 6 -41 4 -47 -7
-10 -18 -46 -16 -192 8 -167 27 -198 76 -70 108 44 11 48 15 51 44 5 49 -18
49 -88 2 -35 -24 -79 -44 -99 -47 -35 -5 -39 -3 -51 27 -7 17 -34 49 -61 72
-38 32 -54 56 -78 116 -17 43 -31 80 -31 85 0 4 11 7 24 7 13 0 36 6 50 14 48
25 98 -4 74 -43 -18 -29 -1 -38 23 -12 17 18 27 21 48 16 14 -4 91 -10 171
-14 116 -5 150 -10 171 -24 26 -17 30 -17 124 2 69 14 112 29 144 50 25 17 72
44 104 59 33 16 63 39 70 53 7 13 23 25 37 27 14 2 29 8 35 13 14 14 23 11 30
-11z m115 -10 c0 -6 -7 -13 -15 -16 -23 -9 -18 -26 6 -19 11 4 56 4 100 0 66
-6 79 -10 79 -25 0 -32 -27 -46 -63 -31 -53 22 -76 24 -108 10 -28 -11 -32
-10 -42 6 -9 17 -12 17 -33 -11 -13 -16 -24 -23 -24 -16 0 24 29 70 57 91 31
23 43 26 43 11z m244 -71 c16 -45 25 -84 20 -88 -16 -14 -118 -30 -128 -20 -6
5 2 21 21 41 45 49 47 63 13 102 -33 37 -30 46 14 46 30 0 33 -3 60 -81z
m-6151 -211 c-4 -74 -10 -102 -30 -135 -24 -44 -44 -57 -38 -25 2 9 11 62 21
117 9 55 20 110 25 123 17 45 26 11 22 -80z m4645 -11 c61 -82 83 -129 44 -94
-10 10 -40 24 -67 34 -45 15 -49 15 -60 -1 -14 -18 -60 -22 -71 -4 -4 6 -1 16
7 22 8 6 15 18 17 26 4 18 55 100 62 100 3 0 33 -38 68 -83z m1562 68 c0 -10
-10 -15 -29 -15 -16 0 -48 -7 -72 -16 -24 -8 -56 -13 -71 -10 -18 4 -28 1 -28
-7 -1 -15 -85 -107 -99 -107 -35 0 -9 76 47 133 l36 37 108 0 c89 0 108 -3
108 -15z m-1476 -264 c7 -11 -20 -116 -40 -149 -15 -26 -15 -25 -10 28 10 98
32 151 50 121z m6327 -33 c12 -24 41 -71 65 -106 24 -35 44 -69 44 -77 0 -22
-26 -18 -49 6 -27 29 -87 147 -96 187 -10 46 10 41 36 -10z m-10251 -51 c7
-48 8 -86 0 -125 -19 -107 -30 -83 -30 68 0 154 11 175 30 57z m3640 49 c0
-37 -19 -49 -58 -35 -27 10 -19 43 8 34 13 -4 20 1 25 15 10 32 25 24 25 -14z
m1840 -84 c0 -24 -56 -86 -69 -77 -8 4 -8 12 -1 25 16 29 12 34 -15 16 -27
-18 -55 -21 -55 -7 0 16 83 61 113 61 19 0 27 -5 27 -18z m-5148 -35 c0 -23
-58 -217 -66 -217 -5 0 -6 27 -3 65 6 67 43 168 59 163 5 -2 10 -7 10 -11z
m5218 9 c0 -2 3 -11 6 -20 5 -13 -1 -16 -25 -16 -29 0 -41 16 -24 33 7 8 43
10 43 3z m-5895 -140 c10 -80 3 -151 -15 -151 -12 0 -16 18 -20 85 -3 47 -9
91 -13 97 -4 7 -3 22 4 35 11 20 12 21 25 4 7 -10 16 -41 19 -70z m831 55 l39
-19 -43 -17 c-41 -17 -72 -55 -72 -89 0 -8 -9 -21 -20 -29 -12 -8 -34 -36 -51
-62 -25 -39 -32 -45 -44 -35 -25 21 -17 38 28 66 55 34 67 51 67 92 0 32 36
112 50 112 4 0 24 -9 46 -19z m9809 -71 c20 -39 17 -130 -4 -130 -7 0 -31 111
-31 144 0 26 18 19 35 -14z m-6740 -60 c14 -13 25 -29 25 -37 0 -8 12 -13 29
-13 16 0 46 -6 67 -14 22 -7 71 -19 109 -26 59 -11 76 -19 109 -51 35 -35 38
-36 32 -14 -5 20 -3 25 13 25 10 0 24 -7 31 -15 7 -8 19 -15 27 -15 7 0 16 7
19 15 10 24 23 17 42 -22 13 -29 23 -37 40 -36 29 3 53 -34 63 -99 6 -38 17
-61 43 -87 18 -20 37 -47 41 -60 l7 -24 -30 22 c-17 11 -39 21 -50 21 -11 0
-25 7 -32 15 -7 9 -32 20 -55 26 -49 12 -92 52 -104 95 -6 22 -13 28 -29 27
-17 -2 -22 3 -22 20 0 26 -19 57 -26 42 -19 -44 -33 -60 -52 -63 -14 -2 -22
-10 -22 -22 0 -15 -9 -19 -42 -22 -32 -2 -44 -8 -46 -21 -4 -18 3 -18 97 -12
l100 8 36 -36 c19 -19 35 -43 35 -52 0 -14 -6 -16 -37 -10 -21 4 -47 14 -58
24 -11 10 -38 23 -60 29 -54 16 -67 2 -68 -75 0 -66 6 -83 31 -83 10 0 42 -16
72 -36 44 -28 62 -34 90 -30 132 18 140 19 165 2 34 -22 57 -71 53 -113 -3
-40 16 -57 27 -24 3 12 11 21 16 21 5 0 3 -13 -6 -30 -22 -43 -19 -64 20 -110
43 -51 45 -69 6 -41 -37 27 -39 26 -33 -6 5 -25 3 -26 -27 -20 -27 6 -31 4
-31 -14 0 -23 42 -69 64 -69 8 0 51 -19 96 -42 65 -34 93 -43 138 -45 31 -1
68 -4 82 -8 20 -5 40 3 88 35 34 23 60 46 56 51 -10 17 -42 9 -73 -17 -31 -26
-61 -29 -68 -7 -2 6 5 14 15 17 11 4 22 16 25 27 5 17 11 19 40 14 40 -8 73 0
80 18 3 9 -9 13 -40 15 -25 1 -59 8 -76 17 -40 20 -49 19 -71 -6 -16 -19 -19
-20 -33 -6 -15 14 -15 18 0 41 22 33 22 34 -14 43 l-31 8 42 24 c48 27 110 44
110 30 0 -5 -4 -9 -10 -9 -5 0 -10 -3 -10 -7 0 -5 23 -8 51 -8 48 0 54 4 86
40 19 22 41 52 49 68 13 24 13 27 -1 27 -8 0 -23 -9 -32 -19 -9 -11 -20 -18
-25 -15 -9 6 -10 59 -2 92 9 31 87 82 128 82 40 0 117 63 145 119 11 20 28 45
40 55 l21 19 -21 23 c-18 19 -20 26 -9 39 14 17 57 20 95 5 18 -7 36 -6 63 5
20 8 44 13 52 12 29 -4 23 18 -11 36 -33 17 -34 17 -52 -4 -28 -34 -44 -10
-21 30 16 27 23 31 58 28 39 -2 41 0 54 38 17 51 39 75 71 76 41 1 94 23 105
44 22 40 56 57 56 29 0 -14 8 -15 58 -10 31 4 64 9 73 12 13 3 23 -13 44 -73
85 -240 212 -401 383 -487 66 -33 196 -78 319 -111 60 -17 61 -18 57 -49 -6
-41 42 -112 74 -109 26 3 62 -59 62 -108 0 -39 20 -109 32 -109 4 0 8 5 8 10
0 6 6 10 14 10 9 0 18 -22 26 -66 8 -40 20 -73 31 -83 63 -54 61 -52 55 -93
-6 -35 -1 -48 49 -129 58 -93 66 -130 38 -161 -27 -30 -38 -22 -35 26 3 35 -1
49 -18 66 -26 26 -36 20 -20 -11 13 -23 9 -144 -5 -157 -4 -4 -13 1 -20 12 -8
10 -18 15 -24 11 -17 -10 -13 -41 9 -82 14 -27 17 -40 8 -50 -20 -24 -38 -15
-32 16 7 33 -17 85 -45 101 -40 21 -42 5 -5 -39 l25 -30 -24 -58 c-14 -32 -29
-69 -35 -83 -6 -14 -11 -19 -11 -12 -1 6 -5 12 -11 12 -6 0 -10 -29 -10 -67 0
-46 -7 -82 -20 -112 -19 -40 -18 -80 1 -50 16 26 20 1 5 -34 -13 -32 -19 -36
-58 -39 l-43 -3 -11 -60 c-6 -33 -19 -73 -28 -90 -18 -34 -21 -81 -6 -90 30
-18 -7 -65 -51 -65 -26 0 -32 -7 -55 -55 -15 -30 -30 -55 -35 -55 -5 0 -9 21
-9 48 -1 54 -14 41 -25 -24 -4 -28 -1 -53 9 -79 9 -21 16 -46 16 -57 0 -10 5
-16 10 -13 6 3 10 17 10 30 0 13 4 26 9 29 15 10 23 -69 16 -144 -5 -45 -3
-82 5 -106 12 -34 11 -38 -10 -54 -27 -20 -21 -50 9 -50 20 0 56 38 66 71 8
25 25 24 25 -2 0 -16 4 -19 21 -14 14 5 19 3 15 -3 -7 -11 -125 -92 -134 -92
-15 0 -42 36 -42 56 0 13 -7 24 -17 26 -13 2 -17 15 -18 53 -1 64 -26 105 -66
105 -32 0 -34 -3 -44 -48 l-7 -32 37 21 c31 18 38 20 46 8 16 -26 11 -41 -10
-30 -26 15 -38 -3 -47 -68 -7 -50 -5 -54 26 -82 28 -26 32 -35 27 -66 -4 -23
-16 -45 -33 -58 -17 -14 -24 -26 -19 -34 5 -9 10 -10 18 -2 16 16 57 13 95 -7
l33 -18 -26 -14 c-29 -15 -58 -65 -70 -118 -8 -36 -21 -42 -30 -12 -7 22 -34
27 -52 9 -6 -6 -9 -25 -7 -43 4 -23 -3 -42 -25 -76 l-31 -45 23 -5 c29 -8 35
-45 8 -59 -10 -6 -22 -24 -26 -40 -3 -16 -13 -35 -21 -42 -11 -9 -14 -7 -14
14 0 40 -18 41 -34 2 -14 -33 -40 -54 -52 -42 -3 2 7 22 21 43 25 37 26 48 10
101 -6 17 -1 25 24 37 35 19 37 25 15 68 -22 43 -11 76 31 94 19 8 43 14 54
14 27 0 37 30 12 37 -16 4 -18 9 -10 30 13 34 12 36 -17 29 -14 -4 -42 -2 -61
5 -33 11 -34 13 -28 46 5 30 4 34 -12 31 -13 -2 -17 -11 -15 -29 2 -19 -4 -31
-23 -43 -25 -17 -26 -19 -11 -41 28 -43 16 -86 -14 -50 -12 14 -40 21 -40 10
0 -3 7 -17 16 -30 15 -24 15 -26 -21 -67 -29 -35 -33 -44 -20 -46 9 -2 30 9
46 24 33 31 55 27 70 -14 10 -26 -19 -62 -48 -62 -13 0 -14 3 -5 12 20 20 14
28 -19 28 -21 0 -40 -10 -62 -31 -30 -30 -117 -66 -117 -48 0 4 18 18 39 31
42 24 59 45 72 90 6 22 4 30 -7 35 -20 8 -42 -13 -49 -48 -5 -24 -11 -29 -23
-23 -45 19 -82 15 -161 -19 -44 -20 -93 -45 -107 -56 -17 -13 -41 -21 -65 -21
-28 0 -42 -6 -51 -20 -9 -14 -24 -20 -48 -20 -19 0 -67 -7 -107 -17 l-72 -16
27 -39 c36 -51 58 -57 90 -24 26 25 26 26 5 26 -12 0 -25 5 -28 10 -10 16 58
11 79 -5 11 -8 34 -15 50 -15 24 0 27 -3 16 -10 -8 -5 -32 -10 -52 -10 -25 0
-40 -6 -46 -17 -22 -43 17 -57 62 -22 20 16 26 17 26 6 0 -19 -22 -36 -57 -46
-17 -5 -27 -14 -25 -23 1 -8 -5 -21 -13 -28 -8 -7 -15 -16 -15 -21 0 -17 34
-9 59 15 15 13 40 28 56 34 17 5 38 13 48 17 13 5 17 2 17 -14 0 -15 -6 -21
-24 -21 -35 0 -86 -20 -86 -34 0 -7 9 -21 20 -31 15 -13 17 -22 10 -29 -8 -8
-13 -8 -18 0 -6 10 -68 21 -134 24 -24 2 -23 12 2 28 29 18 25 30 -12 34 -23
2 -32 8 -33 23 -1 11 -6 28 -12 38 -9 17 -12 16 -36 -13 -15 -17 -27 -42 -27
-54 0 -12 -6 -28 -12 -35 -11 -10 -8 -16 11 -32 13 -10 35 -19 49 -19 16 0 22
-4 16 -9 -14 -14 -102 -17 -115 -4 -8 8 -18 8 -35 1 -27 -13 -32 -49 -9 -68
24 -20 18 -37 -16 -49 -44 -15 -51 -14 -38 7 9 14 8 25 -5 50 -20 40 -21 39 9
46 29 7 25 26 -5 26 -13 0 -20 8 -22 28 l-3 27 -18 -32 c-24 -45 -47 -43 -47
3 0 28 9 46 35 75 33 37 44 60 28 58 -5 0 -28 -10 -53 -22 -38 -19 -46 -28
-50 -57 -4 -27 -13 -39 -44 -57 -22 -12 -47 -32 -57 -44 -9 -13 -21 -19 -28
-14 -9 5 -8 11 3 24 19 21 31 76 19 84 -5 3 -31 -9 -58 -28 -63 -45 -62 -43
-31 -54 21 -9 26 -17 26 -47 0 -29 -7 -44 -36 -70 -19 -19 -39 -34 -44 -34 -5
0 -10 -10 -12 -22 -4 -33 -32 -29 -36 4 -2 19 4 35 21 50 45 42 62 94 28 83
-15 -5 -21 0 -26 25 -8 37 -18 37 -57 5 -29 -25 -88 -35 -88 -15 0 6 4 10 9
10 5 0 25 17 45 37 25 26 36 47 36 68 0 16 4 37 10 45 12 19 -6 40 -36 40 -31
0 -36 -11 -21 -50 11 -30 10 -34 -12 -49 -40 -27 -110 -103 -137 -148 -14 -24
-27 -43 -28 -43 -1 0 -3 15 -3 32 -1 18 -4 47 -8 63 -5 24 -2 35 19 54 30 28
33 46 9 55 -11 5 -23 0 -33 -12 -8 -11 -25 -23 -37 -27 -13 -3 -38 -25 -57
-48 -26 -32 -33 -49 -29 -68 8 -41 -13 -43 -36 -4 -22 39 -32 42 -51 20 -18
-21 -33 -19 -60 10 -30 32 -44 32 -36 1 4 -15 0 -32 -12 -46 l-18 -22 -62 31
c-34 17 -69 43 -79 57 -16 25 -17 25 -30 8 -14 -18 -16 -17 -44 14 -32 36 -36
59 -14 88 15 19 16 18 36 -8 11 -16 27 -28 35 -28 8 0 38 -25 67 -56 46 -47
55 -53 66 -40 10 12 9 15 -7 20 -23 8 -65 63 -57 76 9 15 51 12 65 -4 12 -15
77 -31 167 -40 l52 -5 35 49 c19 26 45 51 57 55 22 7 22 8 -6 23 -24 12 -30
12 -34 1 -2 -7 -14 -23 -27 -36 -26 -26 -61 -29 -130 -12 -36 9 -44 15 -44 35
0 18 -7 25 -27 29 -16 4 -43 13 -61 21 -29 12 -31 16 -21 35 9 17 8 25 -4 36
-19 20 -37 9 -37 -23 0 -34 -26 -30 -39 6 -10 30 -30 41 -32 18 -1 -7 -2 -17
-3 -23 0 -5 -13 -22 -28 -37 l-28 -27 -30 37 -31 37 31 3 c29 3 56 32 43 46
-3 3 -17 6 -30 6 -20 0 -23 4 -17 26 6 23 4 25 -14 20 -13 -4 -24 -2 -29 7 -7
12 -13 11 -36 -3 l-28 -18 25 -6 c36 -9 36 -57 0 -85 -31 -25 -47 -26 -64 -7
-6 8 -21 16 -33 18 -24 3 -59 58 -41 65 6 2 19 10 29 17 17 12 17 14 -6 45
-19 26 -28 31 -51 26 -20 -5 -35 -1 -54 14 -19 15 -34 19 -53 15 -42 -11 -42
-13 -7 -49 30 -29 39 -33 69 -28 38 6 60 -12 27 -22 -24 -8 -25 -18 -3 -51 16
-25 16 -25 -10 -19 -20 5 -29 2 -39 -14 -16 -27 -32 -27 -25 0 4 15 -1 23 -20
30 -14 5 -40 21 -56 35 -30 25 -31 25 -45 7 -13 -17 -15 -16 -38 12 -13 17
-27 38 -30 48 -6 20 -20 22 -31 5 -8 -13 -9 -18 -12 -38 -1 -12 -41 -34 -48
-26 -10 10 70 102 114 129 33 21 55 28 79 25 19 -2 34 -1 34 2 0 3 -9 25 -21
49 -16 34 -23 40 -34 31 -11 -9 -16 -7 -24 8 -14 27 -37 34 -65 21 -39 -18
-52 -53 -37 -96 12 -33 12 -38 -5 -49 -11 -7 -29 -23 -40 -35 l-22 -21 -17 25
c-10 16 -14 34 -10 46 5 16 3 20 -9 15 -9 -3 -16 -10 -16 -15 0 -21 -16 -6
-31 30 -17 41 -61 77 -79 66 -12 -7 -14 -45 -2 -45 30 0 107 -119 88 -137 -10
-10 -46 29 -46 48 0 21 -31 43 -74 53 -36 9 -102 -12 -87 -27 13 -13 15 -37 4
-37 -5 0 -18 18 -30 39 -29 50 -22 98 15 112 23 9 24 11 8 28 -22 24 -20 34 4
26 29 -9 25 2 -15 39 -19 19 -35 42 -35 53 0 11 -3 22 -6 26 -5 4 -43 -7 -62
-19 -2 -1 3 -12 10 -23 11 -18 11 -23 -2 -31 -9 -5 -19 -5 -27 2 -16 13 -18
11 -27 -18 -4 -14 -1 -28 9 -38 22 -21 32 -20 40 5 5 14 14 19 28 17 25 -4 37
-38 13 -38 -20 0 -21 -26 -1 -34 21 -8 19 -23 -5 -36 -16 -8 -28 -5 -59 14
-22 14 -42 30 -46 36 -8 13 -68 13 -82 -1 -7 -7 -9 -3 -6 15 3 14 11 31 19 37
8 6 14 19 14 29 0 10 7 23 15 30 25 20 17 42 -26 80 -32 28 -42 44 -46 78 -7
56 10 54 31 -3 15 -39 62 -92 73 -82 2 3 -10 46 -27 97 -17 50 -38 126 -46
168 -13 70 -34 112 -56 112 -17 0 -7 -39 12 -45 20 -6 27 -29 12 -39 -5 -3
-18 -2 -30 1 -41 10 -26 105 24 159 37 39 40 50 22 89 -14 31 -1 47 17 21 24
-33 36 -9 30 62 -4 46 -2 61 4 47 5 -11 10 -39 10 -62 1 -44 17 -65 32 -42 14
22 11 57 -7 85 -15 22 -15 31 -4 80 10 42 11 60 1 80 l-12 27 -18 -37 c-10
-20 -22 -47 -25 -60 -5 -22 -8 -23 -30 -13 -20 10 -24 17 -19 41 5 24 3 28
-10 23 -13 -5 -16 9 -19 98 -3 99 -4 104 -36 144 -24 30 -35 55 -39 92 -4 38
-14 59 -35 81 -22 23 -28 38 -28 73 0 46 -26 125 -41 125 -4 0 -12 -8 -18 -17
-8 -14 -12 -15 -25 -4 -23 19 -21 44 3 36 14 -4 20 0 25 19 7 30 -2 56 -20 56
-8 0 -14 16 -16 47 -2 39 -7 48 -25 53 -17 4 -20 9 -13 20 12 19 13 77 1 85
-5 3 -17 -5 -25 -17 -23 -32 -25 -20 -10 52 7 36 14 87 14 113 0 38 5 53 22
66 25 21 17 41 -18 41 -30 0 -32 25 -4 40 12 6 38 48 59 93 21 45 52 99 70
121 41 51 41 78 1 41 -23 -20 -35 -4 -43 53 l-5 43 29 -6 c25 -6 29 -4 29 15
0 11 7 32 16 45 12 19 22 23 40 19 22 -6 24 -3 24 30 0 43 32 78 84 96 19 6
38 21 45 36 6 14 24 33 41 42 22 12 30 24 30 45 0 21 8 33 35 48 41 24 42 29
14 52 -11 10 -19 26 -17 35 3 14 21 18 113 24 378 26 536 86 708 269 l77 81
65 -4 c50 -3 70 -9 90 -28z m888 -65 c33 -7 68 -22 79 -32 19 -17 20 -17 38 5
23 28 41 28 85 0 68 -44 27 -88 -82 -88 -48 0 -67 -4 -82 -19 -18 -18 -19 -18
-29 4 -6 13 -27 44 -46 70 -34 44 -46 75 -28 75 4 -1 33 -7 65 -15z m-3356
-66 c44 -12 45 -12 22 -25 -13 -7 -34 -13 -45 -14 -32 0 -74 -38 -94 -86 -19
-43 -53 -65 -72 -46 -8 8 -1 21 21 43 18 17 47 56 66 85 19 30 40 54 45 54 6
0 32 -5 57 -11z m-221 -56 c-15 -40 -141 -254 -144 -244 -4 12 130 261 142
261 4 0 5 -8 2 -17z m394 -44 c0 -21 0 -21 48 -2 19 8 14 -10 -14 -40 -18 -22
-31 -28 -48 -23 -17 4 -50 -11 -126 -56 -114 -68 -139 -102 -140 -185 0 -51
19 -57 45 -15 10 15 42 54 70 87 29 33 62 75 72 93 l20 33 6 -36 c10 -63 -11
-105 -75 -147 -31 -20 -82 -67 -114 -103 -56 -63 -91 -84 -80 -47 24 81 55
225 51 232 -12 20 -25 8 -76 -70 -29 -44 -58 -80 -66 -80 -16 0 -16 0 2 43 12
29 12 42 4 61 -10 22 -8 30 15 61 30 38 51 46 41 15 -4 -14 -1 -22 10 -27 20
-7 35 12 35 44 0 26 37 72 79 96 31 18 31 18 40 -5 8 -20 10 -21 16 -5 4 10
18 17 32 17 13 0 50 18 80 40 64 46 73 48 73 19z m196 -13 c5 -33 20 -40 59
-29 29 9 35 9 35 -3 0 -18 -102 -124 -119 -124 -18 0 1 28 35 51 23 15 25 19
10 19 -32 0 -103 -48 -125 -84 -27 -43 -26 -50 3 -64 21 -9 29 -7 52 13 16 13
30 22 33 19 7 -7 -59 -72 -107 -106 -29 -20 -45 -39 -49 -59 -6 -33 -14 -40
-63 -54 -22 -7 -42 -23 -55 -43 -11 -18 -37 -54 -57 -80 -21 -26 -53 -66 -70
-89 -18 -23 -36 -42 -40 -43 -14 0 -8 37 6 50 8 6 27 43 42 82 16 39 40 83 55
99 27 29 28 42 3 32 -20 -7 -17 4 11 53 29 50 54 67 76 53 24 -15 55 -10 77
14 32 34 54 95 47 128 -5 23 0 41 23 77 16 26 35 62 42 80 11 29 17 33 43 30
21 -2 31 -9 33 -22z m138 -12 c18 -7 12 -24 -10 -24 -8 0 -14 7 -14 15 0 17 2
18 24 9z m2946 -37 c0 -37 -46 -108 -65 -101 -7 3 -16 15 -19 27 -18 68 9 119
58 110 21 -4 26 -11 26 -36z m-2080 -41 c0 -11 -19 -15 -25 -6 -3 5 1 10 9 10
9 0 16 -2 16 -4z m-800 -140 c0 -2 -18 -15 -40 -30 -21 -14 -71 -53 -111 -87
-74 -65 -165 -129 -180 -129 -19 0 -8 20 19 34 15 8 59 42 97 76 99 88 130
110 172 126 44 15 43 15 43 10z m35 -197 c4 -5 -1 -19 -11 -30 -10 -11 -20
-39 -23 -62 l-6 -42 -47 3 c-32 2 -58 -3 -88 -18 -55 -28 -71 -14 -35 29 24
28 178 131 196 131 5 0 11 -5 14 -11z m5443 -166 c50 -57 38 -70 -19 -19 -31
28 -66 49 -92 55 -40 10 -39 10 18 6 54 -4 63 -9 93 -42z m411 -10 c17 -21 31
-43 31 -51 0 -19 -43 12 -75 54 -24 32 -25 34 -6 34 11 0 33 -17 50 -37z
m-149 -109 c44 -97 36 -119 -23 -71 -27 22 -32 40 -29 105 3 49 20 39 52 -34z
m-5740 -77 c-32 -11 -35 -16 -33 -49 2 -32 -1 -37 -29 -47 -17 -6 -40 -11 -51
-11 -20 0 -20 -1 -2 -20 26 -29 6 -49 -24 -23 -12 10 -43 23 -69 28 l-47 10
40 24 c22 13 56 39 75 56 43 40 52 43 120 44 l55 0 -35 -12z m5643 -94 c70
-123 70 -123 53 -123 -16 0 -118 179 -110 192 8 13 11 10 57 -69z m-316 -3
c22 -16 58 -55 78 -85 31 -45 44 -55 67 -55 21 0 31 -6 38 -26 6 -14 10 -27
10 -30 0 -2 -26 -4 -59 -4 -44 0 -65 5 -85 21 -21 17 -29 19 -41 9 -37 -30 6
-71 72 -68 41 1 63 -6 63 -23 0 -5 -6 -9 -14 -9 -7 0 -19 -7 -26 -15 -10 -12
-9 -20 4 -40 12 -19 14 -30 7 -44 -13 -23 -3 -32 57 -56 23 -10 42 -21 42 -26
0 -18 -54 -9 -77 12 -18 18 -25 20 -38 9 -32 -27 -4 -70 46 -70 16 0 29 -4 29
-10 0 -5 -20 -10 -44 -10 -24 0 -51 -3 -60 -6 -13 -5 -16 1 -16 29 0 49 -15
84 -39 92 -18 5 -21 15 -21 58 0 63 -24 221 -45 297 -8 30 -15 61 -15 68 0 20
24 14 67 -18z m196 -70 c63 -39 68 -45 65 -74 -3 -35 -30 -43 -36 -11 -6 30
-42 65 -87 85 -46 20 -70 44 -60 60 5 8 13 7 28 -3 12 -8 53 -33 90 -57z
m-5638 -35 c0 -17 -6 -20 -42 -17 -34 3 -43 0 -43 -12 0 -22 38 -43 93 -51 26
-4 50 -11 53 -16 8 -14 -26 -23 -39 -10 -15 15 -40 14 -80 -5 -26 -12 -43 -14
-78 -7 -38 8 -44 12 -41 31 2 16 -4 25 -20 31 -22 9 -22 10 10 17 19 4 36 13
39 21 9 24 57 43 103 40 38 -2 45 -5 45 -22z m6691 -80 c8 -27 14 -68 13 -90
l0 -40 -21 40 c-15 28 -22 63 -25 115 -4 82 5 75 33 -25z m-7146 -10 c0 -9
-70 -69 -96 -83 -12 -6 -25 -9 -28 -4 -9 14 24 72 46 82 25 10 78 13 78 5z
m304 -80 c-5 -20 -1 -26 21 -35 14 -5 40 -9 57 -7 49 3 43 -18 -15 -51 -29
-17 -61 -42 -70 -56 -10 -14 -23 -26 -29 -26 -7 0 -34 -21 -60 -47 -37 -37
-48 -54 -48 -79 0 -32 -13 -44 -51 -44 -10 0 -25 -13 -34 -30 -18 -34 -26 -36
-60 -14 -16 10 -34 14 -50 10 -19 -5 -25 -2 -25 9 0 25 19 55 35 55 7 0 17 5
21 11 4 7 0 9 -12 6 -11 -3 -40 -8 -66 -12 -33 -4 -48 -11 -48 -21 0 -20 -27
-29 -53 -16 -12 6 -35 13 -50 17 -40 8 -27 20 48 44 36 12 95 37 131 56 73 39
109 43 156 19 31 -16 32 -16 57 13 14 16 39 38 55 47 37 24 20 36 -51 36 -40
0 -53 4 -53 15 0 18 -2 17 116 15 51 -1 94 3 98 8 3 5 -33 18 -79 28 -47 10
-85 23 -85 29 0 13 83 43 123 44 24 1 27 -2 21 -24z m5872 -1 c107 -73 123
-109 26 -60 -64 32 -97 60 -88 74 10 17 19 15 62 -14z m382 -148 c5 -36 4 -38
-16 -27 -11 6 -38 11 -59 11 -36 0 -103 31 -103 48 0 4 15 6 34 4 28 -3 41 2
73 32 l38 35 14 -32 c7 -18 16 -49 19 -71z m-6498 51 c0 -19 -59 -58 -168
-112 -75 -37 -96 -44 -108 -34 -20 16 -18 29 5 29 10 0 49 9 85 20 52 16 72
29 97 60 17 21 39 41 48 43 31 9 41 7 41 -6z m6628 -132 c36 -30 42 -31 42 -4
0 31 18 13 26 -26 7 -40 39 -85 60 -85 9 0 14 -11 14 -31 0 -29 -2 -31 -26
-25 -24 6 -26 5 -20 -19 10 -41 -21 -31 -39 13 -9 20 -29 51 -45 67 -16 17
-34 43 -39 58 -6 15 -17 27 -23 26 -43 -5 -53 21 -15 39 31 15 32 15 65 -13z
m-291 -21 c22 -17 42 -24 55 -21 30 8 54 -8 61 -40 3 -17 27 -46 61 -76 57
-49 73 -80 36 -70 -15 4 -20 0 -20 -14 0 -25 -8 -33 -26 -26 -8 3 -14 20 -14
42 0 69 -39 105 -170 157 -111 43 -104 39 -97 59 10 25 75 19 114 -11z m-331
-79 c7 -28 25 -32 44 -10 17 21 33 19 76 -10 20 -14 47 -25 59 -25 12 0 28 -6
34 -14 20 -24 -20 -39 -67 -26 -31 8 -39 7 -49 -7 -22 -29 3 -45 64 -41 42 2
54 0 58 -13 3 -9 17 -21 31 -28 16 -7 24 -18 22 -29 -4 -21 -37 -18 -92 8 -43
21 -56 19 -56 -9 0 -22 96 -51 242 -74 75 -12 91 -18 115 -44 29 -31 69 -50
81 -38 4 4 -9 20 -28 37 l-35 30 30 -8 c17 -4 42 -6 57 -5 42 2 66 -52 27 -62
-11 -3 -19 -11 -18 -19 6 -48 -4 -48 -72 -2 -47 32 -58 35 -96 29 -32 -5 -54
-1 -89 14 -74 33 -154 24 -193 -23 -22 -27 -2 -38 29 -16 34 24 32 24 78 3 26
-11 67 -17 137 -17 l100 -1 3 -29 c3 -26 2 -28 -12 -17 -26 21 -61 10 -64 -21
-4 -33 -17 -36 -32 -8 -15 28 -46 26 -54 -4 -12 -47 11 -106 29 -76 10 15 38
11 63 -9 29 -25 28 -29 -5 -33 -23 -2 -28 -7 -25 -28 4 -38 29 -68 69 -85 19
-8 66 -38 103 -65 70 -52 126 -80 159 -80 18 0 56 -39 46 -48 -12 -12 -169 65
-230 114 -37 30 -72 51 -76 47 -5 -5 3 -31 16 -57 14 -27 25 -57 25 -66 0 -9
7 -25 15 -36 22 -29 18 -47 -15 -79 -33 -32 -31 -48 6 -39 33 8 30 -3 -11 -43
l-34 -33 -7 35 c-6 35 -4 47 18 77 10 14 8 21 -10 41 -17 18 -22 34 -20 62 2
24 -2 40 -9 42 -9 3 -13 -9 -13 -41 0 -25 -4 -46 -8 -46 -19 0 -52 43 -52 67
0 15 -8 35 -17 46 -17 18 -17 19 2 33 50 34 50 35 12 71 -45 41 -80 45 -71 8
5 -20 2 -25 -20 -31 -26 -6 -33 -27 -17 -53 7 -10 17 -5 43 24 23 25 39 35 48
30 9 -5 -2 -21 -40 -56 -43 -40 -52 -53 -48 -74 3 -15 0 -32 -9 -41 -20 -20
-30 -18 -37 9 -6 22 -7 22 -21 3 -22 -29 -18 -70 8 -103 13 -15 26 -36 30 -45
10 -27 27 -21 28 10 1 27 1 27 8 3 9 -32 27 -38 34 -11 9 36 29 23 21 -15 -5
-31 -3 -36 21 -45 28 -11 60 0 67 22 3 8 9 4 17 -10 10 -18 10 -27 0 -38 -13
-16 -62 -19 -89 -4 -41 22 -66 -53 -39 -114 7 -13 25 -30 41 -37 20 -8 26 -15
19 -22 -6 -6 -11 -23 -11 -38 0 -36 -10 -60 -21 -53 -5 3 -9 20 -9 38 0 18 -3
36 -7 39 -10 11 -33 -14 -33 -36 0 -20 -1 -20 -17 -4 -17 17 -17 19 0 48 21
38 22 63 2 79 -13 11 -20 11 -39 0 -31 -16 -46 -6 -46 31 0 39 -17 37 -28 -3
-7 -27 -16 -35 -57 -50 -55 -19 -67 -13 -63 32 2 18 8 24 21 22 14 -2 17 5 17
39 0 34 2 39 14 30 20 -16 26 15 26 129 -1 88 -2 93 -16 75 -12 -15 -14 -34
-10 -76 5 -48 2 -59 -14 -74 -11 -10 -20 -28 -20 -40 0 -11 -7 -30 -16 -41
-15 -18 -15 -17 -9 16 6 38 -23 190 -36 190 -5 0 -9 -7 -9 -16 0 -23 -18 -7
-38 34 -25 52 -45 82 -54 82 -12 0 -9 -33 6 -60 10 -17 11 -30 5 -43 -14 -26
1 -45 18 -22 18 25 17 11 -3 -26 -8 -17 -13 -37 -10 -45 3 -8 3 -14 0 -14 -3
0 -10 14 -16 30 -10 29 -36 37 -30 10 2 -8 10 -39 18 -69 10 -38 13 -77 9
-122 -6 -57 -4 -67 11 -73 16 -6 15 -8 -4 -29 -14 -15 -19 -30 -15 -45 3 -14
-1 -30 -12 -42 -10 -11 -13 -20 -7 -20 6 0 12 -10 14 -22 4 -28 28 -36 28 -9
0 11 7 46 15 78 12 44 14 77 8 138 -9 90 -7 135 7 149 7 7 10 -1 10 -21 0 -22
6 -33 19 -38 13 -4 20 -19 25 -51 3 -25 14 -59 23 -75 15 -25 16 -32 4 -51
-12 -19 -11 -23 4 -34 19 -14 12 -34 -11 -34 -25 0 -39 45 -24 80 15 37 6 50
-17 27 -12 -12 -17 -31 -15 -61 1 -29 -4 -48 -13 -56 -8 -7 -15 -19 -15 -26 0
-16 26 -19 35 -4 3 6 12 10 18 10 9 0 11 -23 9 -81 -3 -76 -5 -80 -21 -65 -17
15 -21 13 -66 -35 -44 -47 -47 -54 -42 -90 5 -37 2 -43 -43 -89 l-49 -50 -3
28 -3 27 -14 -25 c-8 -14 -17 -40 -20 -59 -4 -19 -12 -36 -19 -39 -20 -6 -14
42 13 92 14 26 25 53 25 61 0 23 -24 23 -38 1 -11 -19 -12 -18 -10 14 2 26 8
36 23 39 11 2 30 14 42 27 12 13 29 24 38 24 8 0 15 6 15 14 0 9 -8 12 -27 8
l-26 -5 22 36 c18 30 20 39 9 56 -11 17 -8 26 22 68 33 46 35 53 40 153 5 83
3 109 -8 122 -9 11 -16 45 -18 90 -2 62 -6 76 -25 91 -21 17 -24 17 -35 3 -16
-23 -24 -9 -24 44 0 30 -6 52 -15 60 -12 10 -15 10 -15 -1 -1 -8 -8 -1 -17 15
-14 26 -16 27 -25 12 -8 -14 -5 -25 11 -47 17 -23 19 -33 11 -48 -21 -40 0
-147 27 -137 7 3 13 -1 13 -8 0 -7 9 -21 20 -31 21 -19 27 -55 10 -55 -5 0
-14 9 -20 20 -15 28 -32 25 -24 -5 3 -14 4 -25 1 -25 -11 0 -47 128 -67 235
-12 61 -25 122 -29 136 -8 25 -7 26 27 24 26 -2 38 -8 44 -24 11 -32 21 -25
14 10 -6 31 7 69 24 69 5 0 16 -15 24 -32 15 -34 49 -78 60 -78 14 0 4 57 -14
88 -23 37 -24 42 -9 42 6 0 18 7 27 16 15 15 18 14 39 -12 13 -16 26 -40 29
-54 3 -14 8 -32 10 -42 3 -9 20 -28 39 -43 l35 -26 0 23 c0 13 -9 37 -20 53
-23 34 -26 83 -7 109 12 16 16 13 45 -32 36 -57 38 -62 17 -62 -8 0 -15 6 -15
14 0 17 -28 41 -37 32 -8 -8 8 -39 51 -98 19 -26 36 -53 38 -60 4 -10 8 -10
21 1 23 19 21 58 -3 71 -20 11 -20 11 2 40 l21 29 -26 40 c-28 42 -26 54 8 45
17 -4 24 0 28 15 6 25 42 28 55 5 8 -15 16 -14 71 11 33 15 61 32 61 37 0 5
-9 6 -20 3 -20 -6 -28 9 -10 20 17 11 11 25 -11 25 -12 0 -36 -16 -54 -36
l-33 -36 -11 38 c-16 58 -14 69 8 43 15 -18 22 -21 31 -12 25 24 -38 93 -85
93 -18 0 -20 -33 -4 -62 13 -25 13 -26 -40 -34 -42 -7 -44 -6 -38 15 4 18 0
24 -22 32 -29 10 -51 45 -51 79 0 15 7 20 25 20 14 0 25 -4 25 -10 0 -5 -4
-10 -10 -10 -23 0 -8 -30 26 -50 49 -31 60 -18 57 72 -3 79 3 98 22 71 21 -29
29 -7 15 39 -7 24 -14 49 -16 56 -2 6 -13 12 -24 12 -23 0 -26 10 -8 28 9 9 9
15 -1 25 -10 10 -15 8 -27 -7 -19 -26 -30 -12 -16 19 15 33 15 35 -3 35 -9 0
-20 10 -25 23 l-9 22 -7 -22 c-3 -13 -10 -23 -15 -23 -12 0 -11 47 1 71 13 23
3 25 -22 2 -10 -9 -18 -30 -18 -49 0 -25 -7 -38 -25 -50 -35 -23 -42 -12 -16
24 25 36 26 45 6 62 -8 7 -15 27 -15 44 0 17 -5 38 -10 46 -11 17 22 26 102
29 43 1 48 -1 54 -24z m652 -112 c10 -29 175 -203 192 -203 6 0 10 -4 10 -10
0 -45 -180 111 -222 193 -33 63 -34 71 -9 58 10 -6 23 -23 29 -38z m-278 -28
c31 -28 69 -50 102 -60 54 -16 91 -42 82 -57 -3 -5 -13 -3 -22 6 -10 8 -29 18
-44 21 -24 6 -28 4 -28 -14 0 -28 -11 -27 -41 5 -13 14 -52 46 -86 71 -62 44
-70 53 -56 66 16 16 46 4 93 -38z m-5734 -265 c-29 -39 -75 -115 -102 -168
-27 -53 -50 -99 -52 -101 -1 -3 -14 7 -28 21 l-26 26 15 77 c9 43 19 80 22 83
11 12 25 -23 19 -48 -10 -42 -9 -44 6 -47 10 -2 23 13 37 44 26 58 128 183
148 183 8 0 -7 -27 -39 -70z m-545 40 c14 0 19 -7 19 -30 0 -33 3 -35 30 -20
10 5 26 7 35 4 14 -6 14 -8 -2 -20 -17 -13 -17 -15 1 -29 26 -20 46 -19 76 5
31 25 40 25 40 2 0 -22 -37 -133 -48 -144 -4 -4 -20 -4 -36 0 l-28 8 21 18
c12 11 21 31 21 48 0 25 -3 28 -37 30 -58 3 -66 2 -90 -6 -18 -6 -22 -4 -17 7
3 10 -5 18 -26 25 -28 10 -53 47 -43 65 2 4 13 7 25 7 16 0 19 5 15 21 -4 15
-2 19 10 15 8 -3 23 -6 34 -6z m-831 -69 c0 -3 -20 -17 -45 -30 -44 -23 -92
-70 -127 -121 -11 -17 -19 -22 -26 -15 -10 9 38 102 77 149 23 27 121 41 121
17z m6116 -16 c-5 -18 -20 -32 -49 -45 -40 -18 -42 -18 -45 -1 -2 9 2 29 7 44
9 23 15 26 39 21 18 -4 32 -1 37 6 11 18 18 3 11 -25z m-5456 -94 c5 -11 10
-46 10 -79 0 -74 12 -87 76 -79 l46 5 -7 -32 c-3 -17 -9 -48 -12 -69 l-6 -39
41 21 c49 25 48 25 56 5 4 -9 -1 -28 -10 -41 -13 -20 -21 -24 -45 -19 -16 3
-36 3 -44 0 -19 -8 -19 -30 0 -38 8 -3 15 -17 15 -31 0 -32 18 -32 30 1 10 27
48 31 42 4 -5 -22 -6 -64 -1 -79 2 -7 -1 -15 -8 -18 -7 -2 -13 7 -15 24 -4 38
-22 35 -26 -4 -2 -18 -7 -33 -11 -33 -5 0 -21 19 -37 42 l-29 41 -6 -45 c-8
-55 -27 -94 -40 -81 -5 5 -3 28 7 56 13 38 14 50 4 62 -10 12 -16 13 -27 4
-22 -19 -24 -6 -6 61 12 49 14 73 6 102 -8 30 -7 40 4 50 11 9 6 14 -29 29
-24 9 -55 20 -70 23 -43 10 -33 26 15 26 l43 0 -7 68 c-4 37 -5 70 -2 75 8 14
32 7 43 -12z m-559 -65 c-22 -23 -32 -41 -29 -57 2 -19 -3 -24 -27 -30 -16 -3
-36 -8 -44 -10 -35 -10 -16 26 45 86 46 45 71 62 78 55 7 -7 0 -21 -23 -44z
m136 -22 c2 -6 -18 -28 -44 -47 -26 -20 -61 -46 -77 -59 -39 -29 -24 -6 39 65
47 53 74 66 82 41z m1323 -26 c0 -5 -16 -24 -36 -42 -34 -31 -36 -36 -29 -75
5 -33 3 -46 -11 -62 -27 -30 -36 -23 -20 16 15 34 14 35 -8 35 -32 0 -44 -18
-48 -69 -2 -25 -9 -46 -16 -49 -13 -4 -11 27 9 136 10 49 23 66 31 41 8 -23
48 11 74 63 25 48 27 51 40 33 8 -10 14 -23 14 -27z m-288 -35 c-27 -51 -52
-139 -52 -179 0 -20 10 -44 26 -63 19 -23 25 -39 21 -59 -6 -28 -58 -205 -62
-210 -1 -2 -18 12 -36 30 -27 27 -34 30 -37 16 -4 -19 30 -149 53 -205 15 -34
16 -35 30 -17 15 21 24 15 43 -28 11 -26 0 -50 -13 -28 -3 5 -21 10 -39 10
-39 0 -53 13 -58 54 -1 16 -9 32 -17 34 -10 4 -12 -2 -7 -22 9 -38 -20 -47
-45 -15 -16 20 -20 22 -29 9 -27 -39 -56 80 -30 120 9 13 10 13 11 0 1 -8 0
-25 -1 -37 -1 -17 4 -23 18 -23 11 0 27 -10 36 -22 l16 -23 -6 28 c-4 17 0 36
10 52 13 19 14 30 6 45 -6 11 -14 46 -18 78 l-7 57 -37 -3 c-20 -2 -46 2 -58
8 -17 9 -26 8 -45 -4 -35 -23 -38 -47 -20 -136 9 -44 13 -85 9 -91 -9 -15 -9
-122 0 -137 4 -6 2 -21 -4 -32 -9 -17 -14 -19 -26 -10 -8 7 -21 9 -31 5 -55
-24 -331 -47 -319 -27 3 6 29 13 56 17 58 8 69 19 45 45 -9 10 -14 24 -10 30
4 6 -1 17 -11 24 -16 12 -12 15 37 34 30 11 56 18 58 17 2 -2 -6 -16 -18 -31
-23 -30 -28 -73 -9 -92 20 -20 28 -14 28 20 0 34 15 29 22 -7 4 -21 2 -21 103
-7 43 6 50 10 47 27 -12 73 -13 126 -4 158 6 22 7 50 2 70 -4 17 -11 55 -14
84 -6 51 -6 52 21 55 22 2 33 13 51 48 12 24 22 61 22 81 0 47 15 87 43 117
16 17 18 25 9 34 -7 7 -12 8 -12 4 0 -5 -6 -3 -14 3 -10 8 -12 21 -7 39 6 21
14 28 39 30 19 2 38 12 45 23 8 13 23 19 46 19 33 0 33 0 26 -37 -8 -49 -51
-143 -64 -143 -6 0 -1 21 10 46 15 35 17 50 8 60 -15 19 -29 8 -29 -22 0 -32
-15 -61 -52 -101 -24 -25 -29 -37 -24 -57 8 -33 38 -34 59 -3 16 22 16 21 16
-15 1 -36 15 -52 23 -26 3 7 19 13 36 14 29 2 32 -1 32 -27 0 -31 1 -32 24
-23 21 8 20 27 -5 75 l-20 41 20 -7 c16 -5 19 -3 15 8 -10 26 15 129 47 197
17 36 33 60 36 53 2 -6 -5 -29 -15 -50z m-292 42 c0 -3 -7 -35 -16 -70 l-16
-65 -26 20 c-13 11 -38 20 -53 20 -34 0 -33 -2 -12 40 l16 33 22 -28 c27 -32
39 -28 55 20 6 19 16 35 21 35 5 0 9 -2 9 -5z m5362 -24 c2 -19 14 -31 41 -44
45 -22 48 -37 7 -37 -21 0 -42 12 -75 43 -25 24 -45 48 -45 53 0 5 16 9 35 10
29 0 34 -3 37 -25z m-5957 -82 c28 -28 76 -66 108 -86 58 -36 71 -53 40 -53
-30 0 -198 139 -206 171 -8 30 5 23 58 -32z m984 -63 c-7 -36 -16 -66 -21 -66
-4 0 -8 5 -8 10 0 19 -21 10 -30 -12 -8 -20 -9 -19 -9 12 -1 39 16 107 27 114
4 3 6 -11 4 -30 -3 -21 0 -34 7 -34 6 0 11 9 11 21 0 23 19 63 26 56 3 -3 -1
-34 -7 -71z m238 27 c4 -9 -4 -65 -16 -124 -16 -77 -20 -122 -15 -160 6 -43 4
-54 -11 -65 -15 -11 -15 -17 -5 -50 8 -23 10 -60 6 -99 -7 -70 16 -216 40
-253 9 -13 29 -28 45 -34 35 -12 41 -41 6 -33 -21 6 -22 4 -18 -42 l3 -47 -28
33 c-24 29 -29 31 -39 17 -18 -24 -27 -19 -21 12 2 15 8 48 11 75 6 42 4 47
-13 47 -28 0 -46 27 -47 69 -1 20 -5 61 -9 91 -6 51 -6 53 9 36 22 -29 18 -3
-11 65 -27 66 -26 89 5 89 19 0 19 2 6 35 -14 32 -14 35 5 45 16 9 18 15 10
30 -12 23 -13 43 -1 36 14 -9 18 13 16 89 -2 53 3 81 18 113 21 44 43 54 54
25z m-669 -48 c7 -14 12 -33 12 -42 0 -22 -62 -143 -73 -143 -9 0 -7 24 10
163 6 54 32 65 51 22z m902 6 c0 -5 -16 -32 -35 -61 -45 -67 -51 -93 -35 -149
7 -25 12 -57 11 -70 -1 -32 -21 -55 -34 -42 -7 7 -6 15 3 26 10 12 10 21 1 41
-6 14 -11 36 -11 49 0 29 -10 55 -21 55 -4 0 -13 -19 -19 -41 -9 -31 -14 -39
-23 -30 -21 21 -14 88 13 116 l25 27 5 -29 5 -28 24 40 c42 71 91 123 91 96z
m5284 -182 c-9 -15 -19 -10 -29 13 -6 13 -28 27 -57 36 -27 8 -48 21 -48 28 0
17 32 18 47 3 18 -18 35 0 28 30 -3 14 -8 35 -10 46 -3 11 13 -18 35 -64 22
-45 37 -87 34 -92z m-857 141 c-5 -21 15 -45 28 -32 7 6 5 -5 -11 -58 -5 -17
-2 -20 27 -21 32 0 32 -1 10 -10 l-23 -9 26 -26 c14 -15 26 -36 26 -47 0 -11
7 -47 16 -79 13 -44 21 -58 35 -58 22 0 24 -12 8 -42 -18 -33 1 -35 27 -3 17
21 27 26 34 19 8 -8 6 -15 -5 -24 -9 -8 -15 -29 -15 -59 0 -25 -3 -70 -6 -98
l-7 -53 -44 0 c-28 0 -46 -5 -49 -14 -3 -8 -13 -12 -25 -9 -17 5 -18 1 -13
-25 8 -38 -2 -82 -18 -82 -6 0 -22 10 -34 21 -22 21 -24 21 -50 4 -19 -12 -29
-14 -37 -6 -8 8 -8 11 1 11 19 0 52 61 52 97 0 21 7 37 22 47 25 18 38 13 38
-14 0 -37 18 -28 73 40 62 76 67 86 38 70 -11 -5 -29 -10 -41 -10 -16 0 -19 5
-15 23 4 12 1 36 -6 52 l-13 30 -4 -25 c-6 -37 -22 -49 -22 -17 0 17 -5 27
-15 27 -9 0 -15 -9 -15 -25 0 -14 -5 -25 -11 -25 -7 0 -9 12 -4 36 4 26 2 39
-7 45 -21 14 -28 10 -28 -13 0 -29 -76 -126 -102 -130 -12 -2 -23 -9 -26 -16
-3 -9 3 -11 22 -6 36 9 45 -19 17 -56 -11 -16 -18 -35 -15 -44 3 -8 -2 -28
-10 -45 -18 -35 -20 -51 -6 -51 6 0 10 7 10 15 0 8 20 28 45 45 49 34 50 34
35 -4 -6 -17 -17 -26 -30 -26 -17 0 -20 -4 -15 -20 9 -27 -3 -44 -20 -30 -10
8 -17 6 -27 -8 -7 -11 -24 -19 -37 -18 -27 1 -65 -51 -59 -81 3 -14 10 -11 43
19 47 42 80 55 88 34 7 -18 -1 -26 -28 -26 -11 0 -26 -5 -33 -12 -8 -8 -5 -14
14 -24 22 -12 27 -11 44 6 11 11 29 20 39 20 11 0 27 3 37 7 14 5 16 2 10 -23
-12 -50 -54 -80 -125 -87 -78 -8 -98 -19 -106 -57 -4 -16 -11 -30 -16 -30 -18
0 -20 26 -4 63 8 20 15 51 15 68 0 26 -3 31 -20 26 -29 -8 -34 9 -11 40 16 22
22 50 27 131 7 97 8 103 28 100 13 -2 28 -18 40 -41 25 -51 41 -35 26 25 -10
39 -15 45 -32 40 -19 -5 -21 -2 -15 34 3 21 10 67 16 102 12 76 2 151 -34 251
-18 50 -23 77 -16 84 7 7 12 5 17 -6 3 -9 16 -17 28 -17 20 -1 20 -2 4 -14
-22 -17 -23 -28 -2 -24 12 2 17 -6 19 -27 1 -17 10 -46 20 -64 14 -29 15 -40
5 -76 -6 -23 -10 -53 -8 -66 3 -22 6 -20 26 18 12 23 22 58 22 77 0 27 3 34
15 30 11 -5 15 2 15 27 l1 34 14 -34 c15 -32 14 -36 -35 -134 -27 -56 -47
-103 -45 -105 9 -10 35 9 35 25 0 10 11 36 25 58 22 37 24 38 25 15 l1 -25 14
25 c8 14 14 42 15 62 0 50 9 68 31 68 20 0 26 -15 9 -25 -17 -10 -12 -38 5
-31 9 3 18 -1 22 -10 5 -14 7 -14 14 -2 10 19 -5 75 -27 99 -14 15 -15 30 -10
81 12 116 18 148 28 148 6 0 8 -9 5 -20z m-143 -12 c2 -7 8 -28 14 -45 14 -44
-1 -51 -28 -13 -30 42 -42 37 -25 -11 19 -52 20 -122 3 -117 -8 3 -12 18 -10
39 2 19 -4 54 -13 78 -18 53 -18 46 1 65 19 19 53 21 58 4z m-4284 -208 c0
-10 6 -31 12 -46 10 -21 10 -28 1 -31 -9 -3 -11 -21 -6 -63 3 -32 2 -79 -1
-104 -6 -41 -10 -47 -29 -44 -29 4 -34 34 -7 41 15 4 20 13 20 40 0 46 -12 52
-41 21 -21 -23 -24 -23 -30 -7 -13 31 -10 53 9 60 41 14 52 35 52 95 0 32 4
58 10 58 6 0 10 -9 10 -20z m-1010 -5 c40 -21 45 -46 19 -104 -22 -52 -49 -85
-49 -61 0 7 -19 30 -42 51 -23 21 -39 41 -35 45 3 4 14 1 22 -6 22 -18 35 -2
42 49 3 22 8 41 10 41 2 0 17 -7 33 -15z m6521 -83 c4 -18 18 -47 33 -66 32
-43 33 -54 2 -62 -56 -14 -76 16 -76 117 0 59 29 67 41 11z m-400 -114 c11
-16 11 -20 0 -37 -8 -12 -14 -12 -40 -1 -17 7 -39 9 -48 5 -17 -6 -17 -7 0
-20 15 -10 17 -21 12 -44 -7 -33 5 -41 25 -16 16 19 41 20 34 1 -4 -9 7 -17
33 -23 46 -11 53 -38 9 -38 -38 0 -45 -22 -12 -35 27 -10 27 -40 -1 -40 -38 0
-51 18 -45 66 3 34 2 45 -7 40 -6 -4 -11 -23 -11 -43 0 -27 -3 -34 -15 -29
-10 4 -15 -1 -15 -15 0 -28 -19 -61 -31 -54 -5 4 -9 15 -9 26 0 13 -4 18 -11
13 -8 -5 -10 -30 -6 -76 5 -62 4 -68 -10 -57 -12 10 -14 25 -9 65 3 29 3 60
-1 69 -5 16 -8 15 -23 -5 -17 -22 -17 -22 -24 35 -7 66 2 85 45 85 19 0 30 -6
34 -20 12 -37 26 -20 23 28 -2 38 -6 46 -20 44 -14 -2 -18 4 -18 25 0 15 -4
35 -9 43 -6 8 -7 18 -4 23 8 13 145 0 154 -15z m-4943 -150 c16 -16 15 -28 -2
-28 -17 0 -38 24 -29 33 9 10 17 9 31 -5z m-958 -41 c19 -12 43 -38 54 -57
l20 -35 -42 38 c-37 33 -47 37 -76 31 -36 -6 -52 6 -42 31 8 22 48 18 86 -8z
m6061 -53 c7 -8 29 -14 54 -14 53 0 75 -8 75 -26 0 -20 -61 -18 -105 3 -29 14
-40 15 -55 5 -28 -17 -31 -2 -12 51 16 44 17 45 24 21 4 -14 12 -32 19 -40z
m-701 29 c-1 -32 -33 -149 -53 -195 -26 -59 -35 -66 -54 -47 -8 8 -16 2 -29
-20 -19 -33 -40 -46 -49 -31 -11 18 56 100 81 100 21 0 23 5 22 43 -2 99 6
129 38 142 35 16 44 17 44 8z m523 -190 c4 -22 0 -33 -21 -50 l-27 -21 24 -26
24 -25 -28 -11 c-18 -7 -25 -15 -21 -25 3 -8 1 -15 -3 -15 -11 0 -21 25 -21
51 0 10 -5 19 -12 19 -6 0 -2 10 10 23 14 15 22 36 22 58 0 40 6 49 31 49 10
0 19 -10 22 -27z m-1733 -28 c17 -21 -4 -79 -38 -104 -22 -16 -24 -20 -9 -21
10 0 31 7 47 15 32 16 33 15 30 -25 -1 -23 2 -21 48 24 42 41 55 48 76 42 36
-9 33 -23 -9 -40 -19 -8 -66 -33 -105 -56 -77 -45 -107 -49 -102 -11 3 19 0
22 -17 16 -15 -4 -23 -1 -28 10 -3 10 -2 20 3 24 16 10 46 62 40 68 -3 3 -21
-5 -40 -17 -20 -12 -42 -19 -49 -17 -7 4 -4 8 10 12 12 4 24 18 27 31 5 17 13
24 30 24 12 0 31 9 41 20 22 24 29 25 45 5z m581 -24 c-7 -5 -10 -14 -6 -21 5
-8 12 -7 25 5 25 22 54 15 58 -13 3 -21 1 -23 -31 -17 -32 6 -35 4 -42 -22
l-7 -28 -14 34 c-19 45 -18 69 4 73 23 6 30 -1 13 -11z m516 -113 c-9 -13 -32
-41 -51 -63 -42 -47 -56 -40 -47 25 6 44 7 45 48 51 24 3 46 8 49 12 16 15 16
-4 1 -25z m-399 6 c25 -18 28 -41 6 -69 -12 -17 -16 -17 -24 -6 -6 11 -12 12
-22 4 -18 -15 -78 -27 -78 -16 0 5 21 19 46 31 43 21 45 24 30 41 -28 31 3 42
42 15z m872 1 c50 -1 73 -11 67 -28 -5 -15 -107 -16 -139 0 -28 14 -42 5 -33
-19 3 -8 -1 -21 -10 -28 -13 -11 -15 -7 -15 28 0 47 20 66 60 55 14 -3 45 -7
70 -8z m-320 -91 c0 -8 7 -14 15 -14 18 0 39 -36 25 -45 -5 -3 -21 -3 -35 1
-16 4 -34 0 -49 -9 l-24 -16 10 42 c9 42 33 71 49 61 5 -3 9 -12 9 -20z
m-3576 -63 c10 -11 33 -27 52 -36 19 -9 32 -20 29 -26 -11 -16 -35 -10 -61 16
-32 32 -41 32 -49 -5 -9 -39 -22 -46 -46 -24 -24 21 -25 36 -1 32 11 -2 22 8
31 30 17 37 22 39 45 13z m2174 -26 c-3 -14 1 -30 9 -37 11 -9 21 -4 48 22 21
20 40 30 49 27 30 -12 16 -35 -30 -53 -69 -26 -120 0 -100 52 9 24 29 16 24
-11z m132 -62 c0 -12 -59 -73 -70 -73 -21 0 -60 24 -60 37 0 19 30 29 40 13 6
-10 15 -9 42 8 36 22 48 26 48 15z m2135 -50 c42 -22 165 -95 165 -98 0 -6
-115 32 -164 53 -27 12 -50 22 -52 22 -2 0 -4 -12 -4 -27 0 -25 -2 -24 -29 19
-16 25 -34 49 -40 52 -6 4 -11 11 -11 16 0 10 91 -15 135 -37z m-2945 -19 c0
-8 -15 -30 -32 -49 -18 -18 -45 -48 -60 -67 l-27 -33 0 35 c-1 20 8 46 19 60
11 14 20 30 20 37 0 29 80 46 80 17z m-995 -134 c18 -20 17 -20 -15 -20 -18 0
-41 -7 -51 -16 -19 -17 -69 -13 -69 6 0 10 77 48 101 49 9 1 24 -8 34 -19z
m-1109 -275 c8 -34 -3 -90 -28 -140 -20 -38 -21 -39 -31 -18 -7 17 -4 30 13
58 17 27 21 46 17 75 -3 21 -2 41 1 44 12 12 22 5 28 -19z m326 -70 c10 11 24
29 32 40 15 20 15 20 16 -1 0 -12 -10 -53 -21 -90 -12 -38 -24 -89 -28 -113
-3 -24 -12 -46 -18 -48 -10 -4 -11 10 -7 56 4 34 4 61 1 61 -4 0 -18 -18 -32
-40 -27 -43 -51 -45 -41 -4 7 28 -11 33 -29 7 -11 -15 -13 -15 -19 5 -6 17
-13 21 -30 16 -31 -7 -38 21 -24 92 9 48 12 52 24 37 12 -17 14 -17 37 5 27
26 31 23 42 -25 9 -43 21 -42 36 5 20 64 33 72 39 21 5 -43 5 -43 22 -24z
m128 26 c0 -11 -11 -33 -25 -49 -24 -29 -32 -52 -18 -52 4 0 24 19 45 43 43
49 45 43 14 -78 -15 -63 -27 -91 -38 -93 -10 -2 -19 6 -23 18 -4 12 -18 25
-31 30 -13 5 -24 14 -24 21 0 6 17 48 37 95 36 79 63 108 63 65z m166 -11 c8
-8 7 -33 -3 -83 -8 -40 -15 -106 -16 -147 -2 -79 -20 -103 -25 -35 -4 52 -17
65 -62 65 l-37 0 22 97 c22 98 38 123 53 82 l9 -22 19 26 c21 30 26 31 40 17z
m127 -56 l-2 -59 25 55 c14 30 28 57 30 60 12 11 24 -30 24 -83 0 -64 14 -69
25 -10 9 51 31 73 71 73 54 0 64 -8 64 -54 1 -35 2 -38 12 -21 36 66 84 82
132 44 21 -17 30 -19 41 -9 8 7 45 15 81 18 72 5 83 -1 84 -48 0 -20 2 -22 10
-10 5 8 10 25 10 37 0 12 4 25 10 28 16 10 252 -16 290 -31 51 -22 69 -42 86
-101 21 -74 35 -77 28 -5 -10 94 -2 102 107 102 82 0 92 -2 114 -25 14 -13 25
-32 25 -43 0 -10 7 -27 15 -38 14 -19 14 -19 15 1 0 11 -4 34 -9 51 -12 44 -3
52 54 50 l50 -1 1 -70 c1 -90 2 -97 14 -90 6 3 10 39 10 79 0 40 3 75 6 79 4
3 19 0 34 -8 32 -17 50 -60 50 -121 0 -34 5 -47 27 -63 14 -12 28 -20 29 -18
2 2 -5 35 -16 73 -33 116 -24 147 37 127 24 -8 29 -17 34 -54 5 -43 5 -43 13
-14 16 64 24 75 56 75 41 0 67 -29 75 -84 10 -66 25 -67 25 -3 0 41 4 56 16
61 38 14 84 -39 84 -97 0 -42 -25 -62 -45 -34 -10 14 -12 13 -24 -4 -6 -11
-28 -30 -47 -41 -31 -18 -35 -25 -30 -50 5 -25 3 -28 -19 -28 -30 0 -31 14 -5
65 18 36 19 40 3 57 -25 28 -33 22 -33 -28 0 -51 -14 -84 -35 -84 -7 0 -17 9
-20 21 l-7 21 -22 -21 c-28 -26 -43 -27 -51 -1 -7 22 -20 26 -30 10 -4 -6 -16
-8 -27 -5 -12 4 -27 0 -38 -10 -27 -25 -44 -14 -71 44 -12 28 -26 51 -30 51
-5 0 -14 -18 -20 -40 -15 -49 -41 -78 -77 -86 -23 -5 -47 -14 -84 -32 -18 -8
-6 24 12 36 27 17 25 28 -7 44 -19 9 -29 22 -31 41 -5 38 -17 34 -30 -11 -6
-20 -18 -46 -27 -57 -13 -18 -16 -18 -27 -4 -7 8 -42 30 -77 48 -109 55 -211
45 -211 -20 0 -26 -31 -32 -60 -11 -17 13 -36 18 -56 15 -27 -4 -34 0 -52 31
-17 29 -27 36 -51 36 -20 0 -34 -7 -41 -20 -11 -20 -11 -20 -38 0 -45 33 -81
34 -134 6 l-47 -25 -3 22 c-2 17 -11 23 -35 25 -28 3 -33 -1 -44 -32 -13 -36
-29 -48 -29 -22 0 8 -9 24 -19 37 -19 23 -20 23 -40 5 -12 -11 -27 -16 -37
-12 -13 5 -15 1 -12 -19 6 -27 -3 -31 -33 -15 -15 9 -17 15 -9 30 15 29 12 65
-8 83 -10 10 -22 14 -25 10 -4 -3 -7 -38 -7 -76 l0 -70 -25 23 c-20 19 -24 30
-20 51 4 19 1 34 -12 47 -10 10 -24 27 -31 38 -11 17 -12 16 -9 -13 4 -36 -8
-45 -18 -13 -7 21 32 180 44 180 4 0 12 -5 18 -11 8 -8 14 -5 23 11 20 38 35
17 33 -46z m2590 -18 c4 -9 14 -12 25 -9 48 12 38 -53 -13 -93 -29 -22 -38
-24 -50 -14 -23 19 -19 57 6 63 18 5 20 11 14 36 -7 31 8 44 18 17z m-460 -22
c79 -40 78 -39 56 -87 -10 -23 -19 -52 -19 -64 0 -13 -5 -23 -11 -23 -7 0 -9
12 -5 35 4 19 5 35 2 35 -5 0 -50 -40 -99 -87 l-28 -27 25 -13 c14 -8 26 -20
26 -27 0 -22 -31 -28 -55 -12 -21 14 -25 14 -36 0 -12 -15 -81 -16 -95 -1 -14
13 20 37 52 37 18 0 36 5 39 10 3 6 -1 10 -10 10 -27 0 -86 166 -72 204 6 14
10 14 43 0 34 -14 38 -14 58 5 25 24 36 19 36 -16 0 -12 5 -23 11 -23 7 0 9
12 5 35 -9 44 4 45 77 9z m1703 -50 c17 -4 41 -1 53 5 19 10 21 9 21 -12 0
-14 9 -36 21 -51 11 -14 15 -26 9 -26 -15 0 -69 29 -105 56 -17 13 -42 28 -55
34 l-25 11 25 -6 c14 -3 39 -8 56 -11z m-2442 -281 c-12 -35 -65 -44 -95 -17
-22 20 -25 34 -5 34 7 0 19 7 26 15 7 9 21 13 31 10 12 -4 19 -1 19 6 0 9 5 8
17 -4 13 -13 15 -23 7 -44z"/>
<path d="M4113 9253 c-19 -27 -20 -27 -79 -14 -32 7 -67 15 -76 17 -30 9 -21
-30 13 -55 23 -17 39 -21 63 -17 39 7 116 56 116 73 0 24 -17 22 -37 -4z"/>
<path d="M10995 8912 c-70 -24 -67 -46 7 -50 91 -5 163 46 87 62 -40 8 -35 8
-94 -12z"/>
<path d="M10492 8799 c-48 -24 -75 -59 -45 -59 29 0 223 44 223 51 0 9 -73 29
-106 29 -16 0 -48 -10 -72 -21z"/>
<path d="M11197 8731 c-26 -4 -55 -15 -64 -24 -16 -16 -14 -17 32 -16 56 1
117 19 123 37 4 13 -14 13 -91 3z"/>
<path d="M10920 8672 c0 -11 159 -82 183 -82 27 0 20 24 -10 37 -16 7 -44 21
-63 33 -34 20 -110 28 -110 12z"/>
<path d="M5207 5007 c-17 -45 5 -185 31 -195 8 -3 22 5 32 18 23 31 50 21 50
-20 0 -33 11 -38 30 -15 8 9 10 28 6 50 -6 29 -12 37 -37 42 -34 7 -59 37 -59
71 0 15 -7 26 -19 29 -11 3 -21 12 -23 22 -3 14 -4 14 -11 -2z"/>
<path d="M7282 4937 c-6 -6 -13 -24 -17 -39 -6 -23 -3 -27 27 -33 18 -4 43
-13 56 -21 19 -13 22 -13 22 0 0 9 -9 20 -21 26 -11 7 -27 27 -35 46 -16 38
-17 39 -32 21z"/>
<path d="M4716 4853 c-11 -28 30 -60 95 -72 32 -7 64 -9 69 -6 16 10 12 48 -4
42 -9 -4 -16 4 -20 24 -5 28 -7 29 -70 29 -50 0 -65 -4 -70 -17z"/>
<path d="M7467 4829 c-16 -16 -35 -29 -43 -29 -22 0 -16 -16 17 -44 32 -27 49
-27 49 1 0 13 3 13 15 3 8 -7 15 -21 15 -31 0 -27 18 -32 30 -9 13 24 30 18
30 -11 0 -17 3 -18 23 -8 12 6 24 13 26 15 2 2 -7 19 -19 39 -17 28 -21 44
-15 72 6 33 5 35 -9 24 -9 -8 -16 -21 -16 -31 0 -25 -25 -43 -49 -35 -14 4
-21 16 -23 39 l-3 33 -28 -28z"/>
<path d="M5512 4815 c-9 -19 -9 -32 -1 -46 13 -26 3 -60 -17 -52 -8 3 -14 -1
-14 -11 0 -9 -4 -16 -10 -16 -5 0 -10 13 -10 29 0 28 -33 81 -50 81 -5 0 -8
-12 -7 -27 2 -25 -1 -27 -33 -28 -33 0 -98 -38 -99 -57 -1 -14 52 -21 70 -9
24 14 66 14 75 -1 4 -6 8 -30 8 -52 l1 -41 54 0 54 0 12 53 c13 58 43 97 82
107 16 4 23 12 21 23 -2 13 -12 16 -39 14 -31 -3 -40 2 -61 28 l-24 31 -12
-26z"/>
<path d="M7219 4757 l23 -26 -21 -34 c-23 -38 -26 -72 -11 -113 6 -15 13 -90
15 -167 5 -163 -1 -184 -71 -287 -36 -54 -52 -69 -66 -64 -10 3 -26 -3 -40
-17 -26 -24 -78 -49 -104 -49 -9 0 -47 -29 -84 -63 -37 -35 -94 -79 -126 -97
-72 -42 -216 -147 -227 -167 -5 -8 -13 -28 -18 -45 -7 -26 -5 -31 12 -35 17
-5 20 -11 15 -36 -7 -37 -21 -47 -62 -47 -43 0 -54 17 -66 102 -11 86 -25 121
-63 166 -32 39 -153 123 -211 147 -21 9 -60 34 -85 55 -26 22 -60 45 -76 51
-15 6 -56 25 -90 42 -52 25 -63 34 -63 55 0 20 -2 22 -15 12 -12 -10 -16 -8
-25 15 -5 14 -10 31 -10 36 0 6 -18 28 -40 50 -39 39 -52 80 -30 94 16 10 11
36 -10 53 -11 10 -28 40 -38 67 -10 29 -24 50 -32 50 -21 0 -25 -44 -6 -51 9
-3 16 -17 16 -30 0 -14 7 -35 15 -48 15 -22 14 -24 -5 -29 -12 -3 -20 -13 -20
-26 0 -25 -1 -25 -47 -6 -19 8 -46 15 -59 15 -23 0 -70 42 -106 93 -13 19 -28
25 -78 30 -33 4 -68 3 -78 -3 -9 -5 -52 -12 -95 -15 -83 -7 -107 -23 -71 -50
11 -7 16 -17 12 -21 -4 -4 -13 -2 -20 4 -17 13 -128 27 -128 16 0 -5 15 -18
33 -28 45 -27 11 -34 -40 -8 -94 47 -155 52 -168 11 -5 -16 -12 -19 -35 -14
-20 4 -29 2 -33 -9 -4 -9 -13 -16 -21 -16 -8 0 -23 -11 -33 -25 -17 -23 -21
-24 -83 -15 -36 5 -75 12 -87 16 -39 11 -27 -14 31 -67 33 -30 57 -61 61 -79
4 -17 13 -30 21 -30 33 0 4 -48 -38 -63 -11 -4 -18 -17 -18 -32 0 -22 4 -25
20 -20 31 10 26 -33 -10 -86 -30 -44 -36 -77 -20 -114 7 -18 8 -17 15 10 17
66 22 68 60 26 19 -21 35 -44 35 -52 0 -10 3 -10 12 -1 21 21 28 13 28 -28 0
-29 -5 -42 -20 -50 -26 -14 -40 -5 -40 26 0 27 -12 31 -30 9 -7 -8 -28 -15
-47 -15 -30 0 -34 -3 -28 -17 18 -45 16 -51 -30 -82 -25 -17 -50 -31 -56 -31
-15 0 -10 -17 7 -24 30 -12 61 -6 80 15 l19 21 17 -41 c12 -29 27 -44 53 -55
35 -15 37 -17 30 -55 -7 -43 8 -66 51 -77 27 -7 31 -26 9 -44 -25 -21 -18 -40
15 -40 24 0 30 -4 30 -21 0 -19 4 -20 54 -14 53 7 55 6 98 -33 23 -22 53 -43
66 -47 16 -5 22 -13 20 -28 -3 -20 3 -23 54 -28 63 -7 82 -18 103 -60 8 -15
28 -32 45 -37 16 -6 30 -16 30 -21 0 -12 29 -14 55 -5 14 6 13 10 -12 30 l-28
24 31 -6 c21 -4 34 -1 43 10 12 14 16 14 34 1 12 -8 42 -15 67 -15 68 0 92 -9
85 -31 -5 -14 2 -20 34 -29 48 -13 59 -26 31 -35 -34 -11 -17 -30 31 -36 62
-8 127 -28 135 -41 4 -6 0 -16 -9 -23 -28 -20 -19 -28 24 -21 40 6 43 5 91
-45 48 -48 50 -53 45 -95 -2 -24 -1 -47 4 -50 20 -12 67 36 77 79 13 51 65
127 87 127 9 0 27 -8 41 -17 21 -13 30 -14 45 -5 10 7 37 12 60 12 39 0 40 1
37 32 -3 29 0 33 30 39 18 4 42 15 53 24 20 19 49 102 49 140 0 12 11 43 25
69 l25 48 -19 44 -20 44 32 13 c31 13 31 14 11 25 -20 11 -21 15 -12 52 11 44
66 100 98 100 42 0 51 -67 21 -152 -10 -29 -22 -65 -25 -79 -6 -29 10 -89 25
-89 4 0 13 -9 19 -21 9 -16 8 -26 -5 -45 -10 -15 -15 -40 -13 -62 2 -30 -1
-37 -17 -40 -33 -6 -40 -20 -20 -42 11 -12 31 -20 50 -20 27 0 34 -5 39 -25 8
-30 78 -69 113 -62 32 6 65 -35 61 -77 -3 -27 3 -34 47 -63 27 -18 53 -33 57
-33 5 0 8 21 8 47 0 52 37 117 72 129 12 4 18 13 16 27 -3 20 1 22 44 19 26
-2 78 4 116 14 75 19 106 15 149 -18 25 -21 39 -23 133 -23 103 0 105 0 103
23 -3 29 20 29 39 0 9 -14 20 -19 31 -15 15 6 15 8 -1 37 -17 30 -16 31 6 50
45 37 167 62 200 41 10 -6 7 -12 -13 -25 -38 -25 -19 -41 32 -27 22 6 54 8 70
5 22 -4 32 -2 36 10 5 12 0 16 -24 16 -33 0 -31 15 4 31 93 43 142 76 145 97
3 18 -1 22 -21 22 -14 0 -30 6 -36 14 -10 12 -4 18 35 35 25 12 56 21 68 21
35 1 103 37 122 65 16 25 16 27 -7 51 -20 21 -21 27 -9 34 8 5 22 10 31 10 20
0 48 40 52 72 2 20 -3 23 -33 23 -28 0 -35 4 -35 20 0 16 8 21 38 23 47 4 57
25 27 57 l-23 24 33 27 c28 24 31 32 27 61 -6 33 28 142 58 189 12 19 12 21
-11 16 -20 -3 -24 0 -24 18 0 52 31 91 97 121 65 29 87 57 36 45 -82 -18 -90
-18 -141 8 -43 22 -65 26 -135 26 -106 0 -153 22 -200 95 -30 47 -35 50 -81
55 -57 6 -68 22 -32 46 31 19 33 39 7 53 -14 8 -22 7 -29 -2 -11 -13 -141 -15
-180 -3 -24 8 -40 -11 -18 -20 9 -3 16 -11 16 -16 0 -10 -19 -8 -66 7 -14 4
-30 -1 -51 -19 -30 -25 -53 -25 -32 1 9 10 7 13 -9 13 -12 0 -26 -9 -32 -20
-13 -25 -30 -17 -30 14 0 13 -7 29 -15 36 -9 8 -14 29 -13 61 1 46 -4 57 -47
115 -6 9 -4 25 8 49 23 49 22 75 -3 75 -21 0 -24 5 -34 50 -4 20 0 28 17 35
12 6 22 19 22 30 0 16 -9 22 -40 27 -22 4 -53 10 -70 14 l-30 7 24 -26z m519
-958 c-2 -6 -22 -17 -43 -25 -22 -7 -50 -26 -62 -41 l-23 -28 0 32 c0 24 7 36
33 52 34 22 101 29 95 10z m-483 -268 c-20 -39 -84 -91 -112 -91 -24 0 -31 14
-13 25 18 11 10 25 -14 25 -15 0 -33 -12 -50 -35 -35 -46 -82 -71 -102 -54
-20 16 -17 40 5 46 11 3 22 15 25 28 6 23 46 47 99 60 21 6 27 4 27 -9 0 -22
16 -20 34 5 11 16 21 20 43 15 15 -3 35 -2 43 4 26 17 31 11 15 -19z m-371
-164 c14 -10 15 -18 7 -37 -5 -14 -12 -37 -15 -51 -4 -20 -19 -32 -67 -54 -53
-23 -71 -27 -122 -22 -62 6 -105 27 -54 27 15 0 27 5 27 10 0 6 -9 10 -19 10
-10 0 -29 8 -41 18 l-22 18 56 14 c54 13 70 30 44 47 -24 14 65 22 104 8 33
-11 39 -10 54 6 20 22 25 23 48 6z"/>
<path d="M7666 4725 c-11 -30 3 -35 99 -35 72 0 97 4 109 16 9 8 16 16 16 17
0 1 -26 3 -57 3 -32 1 -81 5 -109 9 -43 6 -52 5 -58 -10z"/>
<path d="M8677 3781 c-13 -35 -22 -38 -36 -13 -9 15 -10 15 -11 -5 0 -40 43
-66 68 -41 9 9 12 7 12 -12 1 -22 2 -23 11 -8 11 20 -4 93 -22 103 -5 4 -15
-7 -22 -24z"/>
<path d="M4258 3579 c-39 -20 -46 -42 -32 -96 11 -40 31 -27 30 19 -1 42 -1
42 43 50 46 8 74 25 65 39 -9 15 -67 9 -106 -12z"/>
<path d="M8356 3143 c3 -10 8 -54 12 -98 4 -48 11 -78 17 -75 14 7 11 121 -4
159 -14 33 -32 43 -25 14z"/>
<path d="M8306 2923 c-10 -43 -23 -86 -28 -95 -10 -21 1 -23 26 -5 20 14 38
74 40 131 2 68 -19 50 -38 -31z"/>
<path d="M4481 2459 c-16 -16 -22 -30 -19 -50 3 -20 0 -29 -9 -29 -16 0 -11
-40 19 -140 24 -78 38 -98 31 -41 -4 27 -2 41 6 41 6 0 11 -13 11 -28 0 -39 8
-44 41 -26 l29 14 -37 48 c-36 48 -55 85 -67 134 -4 20 0 34 19 56 22 26 24
42 5 42 -3 0 -17 -10 -29 -21z"/>
<path d="M4679 2255 c0 -5 0 -27 1 -48 1 -27 -6 -50 -24 -78 l-26 -39 20 -22
c11 -12 20 -25 20 -30 0 -4 14 -15 31 -23 l30 -16 -7 37 c-6 35 -6 36 16 24
18 -10 25 -9 37 3 14 14 12 17 -15 31 -17 9 -40 16 -51 16 -32 0 -32 13 -1 61
20 30 26 45 17 48 -6 2 -20 13 -29 25 -10 11 -18 17 -19 11z"/>
<path d="M7489 2047 c-23 -18 -39 -52 -39 -84 0 -15 -7 -37 -15 -47 -14 -18
-12 -36 4 -36 11 0 48 71 56 107 3 18 18 42 32 53 l26 20 -24 0 c-13 0 -31 -6
-40 -13z"/>
<path d="M4857 2013 c-20 -32 50 -153 89 -153 21 0 17 9 -21 52 -24 26 -34 45
-30 57 6 19 -29 59 -38 44z"/>
<path d="M9305 2770 c-10 -11 -26 -18 -35 -15 -13 4 -15 -2 -15 -31 2 -36 16
-54 47 -54 9 0 20 -4 23 -10 8 -12 35 -13 35 -1 0 5 -15 23 -32 40 l-33 32 25
19 c18 14 22 22 14 30 -7 7 -16 5 -29 -10z"/>
<path d="M3770 9652 c0 -4 7 -18 16 -30 25 -36 9 -45 -62 -38 -80 8 -85 -7 -9
-29 41 -12 63 -14 91 -6 33 9 40 7 66 -14 25 -21 36 -24 73 -18 36 4 46 2 51
-11 8 -22 59 -21 82 2 16 16 25 17 75 8 45 -8 57 -14 57 -29 0 -16 7 -17 53
-14 37 3 53 9 55 20 4 22 -33 57 -60 57 -33 0 -119 42 -160 79 -24 20 -46 31
-67 31 -31 0 -42 -14 -18 -23 21 -9 -14 -26 -69 -33 -40 -5 -62 -2 -97 14 -24
11 -48 25 -51 31 -8 13 -26 15 -26 3z"/>
<path d="M4130 9650 c0 -5 18 -10 41 -10 50 0 79 -15 79 -40 0 -11 7 -20 15
-20 9 0 15 9 15 21 0 14 5 19 18 17 12 -2 17 -13 17 -34 0 -20 11 -43 33 -68
28 -32 37 -37 60 -31 26 6 26 7 8 21 -20 14 -20 14 0 14 22 0 64 -37 107 -93
15 -21 34 -37 42 -37 20 0 19 6 -6 47 -20 31 -20 35 -5 52 9 10 16 20 16 23 0
9 -117 68 -133 68 -25 0 -70 41 -58 53 8 8 14 8 23 -1 19 -19 30 -14 18 8 -10
19 -21 20 -150 20 -87 0 -140 -4 -140 -10z"/>
<path d="M4325 9450 c-3 -5 -1 -19 5 -30 8 -15 17 -19 36 -14 20 5 26 2 31
-15 3 -12 13 -21 25 -21 30 0 20 51 -12 66 -40 19 -78 25 -85 14z"/>
<path d="M4917 9389 c-5 -19 -10 -21 -47 -15 -48 8 -66 0 -49 -20 9 -11 7 -14
-9 -14 -15 0 -22 7 -24 28 l-3 27 -92 3 c-78 2 -93 0 -93 -13 0 -18 7 -19 49
-4 40 14 111 -3 111 -26 0 -17 -18 -19 -54 -5 -17 6 -27 6 -32 -1 -12 -20 12
-29 96 -36 82 -8 85 -9 85 -33 0 -23 -4 -25 -45 -25 -37 0 -47 -4 -55 -22 -11
-27 -27 -29 -45 -8 -10 12 -10 18 1 31 10 13 10 17 -2 25 -22 14 -59 11 -59
-5 0 -8 6 -16 12 -18 9 -3 8 -12 -6 -32 -16 -25 -16 -30 -3 -43 13 -13 17 -13
39 1 13 8 39 16 58 16 19 0 46 1 59 2 19 3 26 -4 37 -34 7 -21 9 -40 4 -43 -4
-3 -25 2 -46 11 -32 13 -45 14 -71 5 -18 -7 -37 -9 -43 -6 -5 3 -15 3 -21 -1
-21 -13 15 -24 58 -18 29 4 60 0 102 -15 60 -21 101 -27 101 -15 0 3 -11 15
-24 25 -16 12 -27 34 -31 62 -3 23 -9 50 -12 61 -4 16 -1 17 38 11 24 -4 65
-18 92 -31 50 -26 182 -58 198 -48 16 9 -1 24 -27 24 -13 0 -60 18 -104 40
-46 23 -99 42 -126 44 -48 5 -64 17 -64 49 0 15 11 17 90 17 81 0 90 -2 90
-18 0 -28 11 -34 32 -15 17 15 23 15 88 -8 60 -20 72 -22 80 -9 12 19 4 29
-19 23 -10 -3 -30 2 -42 10 -13 8 -46 18 -74 22 -27 4 -58 13 -69 20 -11 8
-31 12 -48 8 -21 -4 -35 0 -52 16 l-23 22 -6 -22z"/>
<path d="M4475 9331 c-3 -5 5 -11 17 -13 30 -4 36 -28 6 -28 -24 0 -48 -16
-48 -32 0 -5 18 -5 40 -2 32 5 40 3 40 -9 0 -8 -7 -18 -16 -21 -28 -11 -4 -26
42 -26 41 0 44 2 34 19 -15 29 -12 39 11 46 17 6 12 12 -37 41 -58 35 -79 41
-89 25z"/>
<path d="M5320 9317 c0 -8 32 -24 75 -38 75 -24 90 -40 58 -58 -14 -8 -11 -12
21 -25 28 -12 42 -13 51 -6 7 6 25 8 40 4 25 -6 26 -5 16 14 -15 29 -63 56
-164 91 -102 36 -97 35 -97 18z"/>
<path d="M8654 9292 c-17 -15 -39 -31 -48 -37 -14 -8 -16 -15 -7 -37 14 -37
29 -35 71 10 19 21 46 45 59 54 13 9 20 21 16 27 -12 20 -59 11 -91 -17z"/>
<path d="M8658 9171 c-51 -7 -88 -34 -88 -63 0 -29 58 -25 70 6 7 19 14 22 35
19 25 -5 65 19 65 39 0 9 -11 9 -82 -1z"/>
<path d="M5547 9142 c-16 -17 -15 -20 8 -52 l25 -34 -21 -11 c-21 -12 -21 -12
5 -42 14 -17 37 -33 51 -35 32 -6 32 2 0 32 -29 28 -32 42 -7 39 34 -3 35 1
10 29 -15 15 -28 40 -30 56 -4 36 -19 43 -41 18z"/>
<path d="M5850 9141 c0 -18 45 -63 100 -101 32 -22 68 -53 80 -70 12 -17 30
-30 42 -30 11 0 36 -10 55 -21 19 -12 36 -19 39 -16 8 8 -108 117 -118 111
-11 -7 -106 58 -149 102 -33 34 -49 42 -49 25z"/>
<path d="M5800 9065 c0 -25 29 -88 53 -114 12 -13 60 -48 105 -78 75 -49 83
-57 78 -79 -5 -18 -2 -24 10 -24 13 0 15 6 10 32 -8 41 -23 57 -71 78 -23 10
-69 45 -104 78 -58 55 -63 62 -56 91 5 24 3 31 -9 31 -9 0 -16 -7 -16 -15z"/>
<path d="M5433 9049 c3 -13 9 -43 13 -66 6 -40 24 -61 24 -28 0 8 7 15 15 15
23 0 18 16 -10 28 -20 9 -25 18 -23 38 2 16 -3 29 -11 32 -10 3 -12 -2 -8 -19z"/>
<path d="M8668 9063 c0 -5 -1 -15 -2 -23 -1 -8 -23 -20 -56 -30 -57 -17 -52
-30 12 -30 32 0 88 47 88 74 0 16 -38 23 -42 9z"/>
<path d="M7807 9028 c-21 -11 -25 -112 -4 -106 6 3 13 17 15 31 3 23 8 27 35
27 56 0 61 14 14 37 -31 15 -48 18 -60 11z"/>
<path d="M7958 9029 c-16 -9 -17 -12 -2 -34 9 -13 13 -29 9 -35 -4 -6 -1 -34
5 -61 l12 -50 25 23 24 23 -20 14 c-27 18 -27 37 2 45 41 11 56 7 59 -16 2
-19 9 -23 33 -20 53 4 77 12 72 25 -4 12 -12 12 -59 1 -21 -5 -28 -3 -28 9 0
8 -12 24 -27 35 -23 17 -25 22 -14 36 12 14 11 16 -8 16 -17 0 -21 -6 -21 -30
0 -16 -4 -30 -10 -30 -5 0 -10 6 -10 13 0 27 -24 47 -42 36z"/>
<path d="M8452 9029 c-38 -7 -108 -46 -100 -55 2 -2 28 5 58 16 30 11 78 26
105 34 47 13 48 14 15 14 -19 0 -54 -4 -78 -9z"/>
<path d="M9405 9020 c-13 -20 12 -36 35 -22 16 10 26 10 48 -1 36 -19 82 -29
82 -19 0 29 -149 68 -165 42z"/>
<path d="M8478 8894 c-15 -33 -1 -58 36 -62 14 -2 26 -8 26 -13 0 -19 31 -8
42 16 15 34 5 41 -39 27 -41 -13 -66 -1 -45 20 7 7 12 18 12 25 0 22 -20 14
-32 -13z"/>
</g>
</svg>
