<?xml version="1.0" standalone="no"?>
<!DOCTYPE svg PUBLIC "-//W3C//DTD SVG 20010904//EN"
 "http://www.w3.org/TR/2001/REC-SVG-20010904/DTD/svg10.dtd">
<svg version="1.0" xmlns="http://www.w3.org/2000/svg"
 width="1280.000000pt" height="921.000000pt" viewBox="0 0 1280.000000 921.000000"
 preserveAspectRatio="xMidYMid meet">
<metadata>
Created by potrace 1.15, written by Peter Selinger 2001-2017
</metadata>
<g transform="translate(0.000000,921.000000) scale(0.100000,-0.100000)"
fill="white" stroke="none">
<path d="M3647 9199 c-156 -23 -347 -84 -502 -161 -218 -108 -340 -261 -435
-544 -21 -63 -40 -110 -42 -103 -6 19 -183 -107 -248 -179 -143 -155 -221
-353 -255 -642 -63 -534 81 -1329 420 -2330 42 -124 84 -231 93 -238 13 -10 9
-12 -29 -12 -66 0 -214 -34 -305 -69 -161 -62 -298 -157 -473 -326 -445 -431
-872 -1233 -1236 -2320 -85 -252 -235 -761 -235 -795 0 -21 73 -60 113 -60 25
0 45 -15 29 -22 -12 -5 -105 -400 -117 -500 -15 -117 13 -197 85 -246 31 -21
44 -23 115 -20 148 6 210 69 313 313 183 434 582 1099 1172 1950 476 686 515
731 650 729 88 -1 142 -34 335 -208 381 -345 375 -336 509 -756 112 -353 260
-730 441 -1125 107 -233 366 -748 437 -869 68 -116 150 -204 225 -241 53 -27
67 -30 158 -30 120 0 182 23 243 89 62 67 82 134 92 315 12 203 12 193 -2 185
-7 -4 0 7 17 25 l30 32 -27 77 c-15 42 -21 69 -14 60 11 -15 14 6 19 140 10
278 53 362 185 362 70 0 125 -22 407 -162 974 -482 1899 -746 2955 -845 265
-24 949 -24 1215 0 577 54 967 127 1586 295 141 39 303 78 360 87 203 32 257
44 308 66 28 12 49 24 46 27 -3 3 20 19 52 34 32 16 79 43 105 61 41 28 48 37
49 67 3 96 -2 113 -79 300 -39 95 -94 193 -183 326 -221 329 -570 638 -1044
921 -191 115 -275 148 -1375 540 -316 113 -586 209 -600 214 -20 7 -46 50
-124 206 l-98 197 71 -67 c74 -69 94 -79 105 -50 28 73 -280 720 -777 1633
-366 672 -654 1155 -758 1273 -132 151 -486 180 -969 80 -266 -54 -224 -30
-605 -358 -185 -159 -332 -291 -326 -293 6 -2 -9 -27 -32 -55 -56 -69 -84
-115 -122 -204 -29 -67 -57 -116 -39 -69 5 14 4 17 -5 12 -7 -5 -11 -17 -8
-27 29 -112 -181 333 -327 694 -232 569 -535 1465 -690 2037 -116 428 -433
641 -859 579z m2949 -3424 c134 -24 188 -41 309 -101 170 -83 301 -187 532
-420 246 -248 430 -451 644 -712 525 -637 590 -703 655 -673 20 9 24 18 24 58
0 63 -18 110 -105 283 -86 173 -202 374 -407 708 -83 136 -157 258 -164 272
-7 14 -52 73 -99 133 -47 59 -83 107 -81 107 9 0 236 -280 313 -385 228 -313
959 -1402 948 -1413 -4 -5 -199 70 -533 202 -755 301 -1320 595 -1808 942
-210 150 -417 378 -566 624 -66 110 -123 240 -134 307 l-6 40 53 16 c81 24 85
25 215 26 70 1 159 -6 210 -14z"/>
</g>
</svg>
