<?xml version="1.0" standalone="no"?>
<!DOCTYPE svg PUBLIC "-//W3C//DTD SVG 20010904//EN"
 "http://www.w3.org/TR/2001/REC-SVG-20010904/DTD/svg10.dtd">
<svg version="1.0" xmlns="http://www.w3.org/2000/svg"
 width="1280.000000pt" height="589.000000pt" viewBox="0 0 1280.000000 589.000000"
 preserveAspectRatio="xMidYMid meet">
<metadata>
Created by potrace 1.15, written by Peter Selinger 2001-2017
</metadata>
<g transform="translate(0.000000,589.000000) scale(0.100000,-0.100000)"
fill="#000000" stroke="none">
<path d="M7415 5589 c-50 -14 -110 -73 -149 -148 -38 -73 -75 -198 -77 -260
-1 -26 -6 -11 -19 49 -34 163 -87 266 -168 327 -76 58 -172 41 -212 -37 -51
-101 -8 -267 113 -429 l40 -55 -39 32 c-193 154 -429 189 -497 73 -25 -43 -22
-111 7 -153 l24 -35 -32 16 c-76 39 -248 8 -381 -70 l-66 -39 47 53 c26 28 64
78 85 110 116 179 89 360 -54 360 -53 0 -95 -22 -147 -76 -47 -48 -113 -176
-133 -256 l-14 -55 -7 80 c-17 192 -76 313 -174 356 -80 36 -150 -4 -178 -99
-26 -90 -3 -201 69 -337 l33 -63 -65 54 c-36 30 -100 71 -140 91 -67 33 -83
37 -151 37 -67 0 -81 -3 -111 -26 -19 -14 -52 -29 -74 -33 -63 -12 -129 -54
-196 -123 -34 -35 -58 -56 -54 -46 45 107 58 233 31 297 -17 41 -61 76 -95 76
-90 0 -163 -149 -147 -300 l6 -55 -37 70 c-87 162 -211 227 -285 148 -18 -20
-23 -35 -22 -76 1 -61 24 -112 83 -178 47 -54 41 -61 -42 -46 -49 9 -56 13
-51 29 10 33 -16 116 -43 138 -76 60 -159 -16 -183 -166 -6 -38 -12 -69 -13
-71 -1 -1 -15 23 -31 52 -15 30 -48 73 -72 95 -37 34 -50 40 -88 40 -36 0 -48
-5 -65 -26 -40 -51 -17 -148 55 -233 14 -18 25 -34 22 -36 -2 -2 -22 2 -43 10
-85 30 -208 13 -233 -32 -8 -14 -12 -12 -28 12 -48 74 -138 104 -204 70 -30
-15 -70 -79 -70 -111 0 -15 -3 -15 -22 3 -13 12 -39 28 -58 36 -22 10 -28 16
-17 16 29 1 74 32 85 56 8 17 7 28 -4 44 -19 26 -53 27 -103 1 l-38 -19 18 37
c33 63 21 112 -26 112 -26 0 -49 -23 -68 -68 l-14 -33 -18 41 c-20 43 -40 60
-74 60 -32 0 -41 -65 -17 -122 7 -16 5 -16 -32 -1 -53 20 -90 11 -98 -24 -6
-22 -1 -32 25 -55 17 -15 41 -28 54 -28 18 -1 16 -4 -13 -19 -52 -28 -74 -56
-66 -85 8 -34 46 -43 95 -24 l38 15 -13 -45 c-12 -39 -12 -48 1 -69 28 -42 77
-24 106 40 13 30 19 36 19 20 0 -31 47 -83 75 -83 12 0 28 7 35 15 12 15 10
75 -4 107 -7 16 -5 16 33 1 32 -13 47 -14 66 -5 23 11 25 9 30 -26 14 -82 52
-182 101 -262 l28 -44 -50 47 c-187 181 -398 220 -466 86 l-18 -34 -82 3 c-60
2 -102 -3 -151 -16 l-69 -20 39 31 c100 82 153 163 153 236 0 55 -14 79 -56
97 -79 33 -180 -34 -259 -171 l-30 -52 0 111 c0 119 -10 152 -63 208 -52 56
-125 41 -163 -35 -33 -63 -29 -181 8 -285 4 -9 -22 13 -56 50 -106 115 -220
151 -282 89 -70 -70 -8 -193 141 -283 l56 -33 -106 0 c-90 0 -112 -3 -153 -24
-90 -44 -112 -118 -53 -177 l34 -34 -237 -2 -236 -3 -5 -100 c-6 -106 -19
-145 -69 -198 -48 -53 -97 -71 -206 -77 l-100 -5 -3 -1456 -2 -1456 92 -5
c144 -8 215 -49 264 -153 20 -41 24 -66 24 -142 l0 -93 5240 0 5240 0 0 86 c0
111 14 155 67 214 55 61 105 81 220 88 l93 5 -3 1456 -2 1456 -100 5 c-114 6
-161 25 -214 86 -46 52 -54 76 -60 189 l-6 100 -305 3 -305 2 4 51 c2 42 -1
55 -20 75 -47 50 -118 16 -158 -76 -12 -27 -27 -50 -34 -50 -7 0 -20 20 -30
45 -22 52 -78 105 -111 105 -13 0 -34 -9 -47 -19 -20 -16 -24 -28 -24 -75 l0
-56 -97 0 -98 0 0 25 c0 14 -7 41 -15 61 l-14 35 22 -16 c12 -8 41 -15 64 -15
82 0 77 74 -8 108 l-40 15 33 14 c45 19 68 42 68 68 0 47 -49 59 -112 26 l-37
-18 19 38 c23 44 26 79 8 97 -31 31 -89 -3 -104 -62 l-7 -28 -26 48 c-22 41
-31 49 -59 52 -51 5 -60 -38 -27 -122 8 -17 6 -17 -23 -2 -87 45 -153 -18 -81
-78 17 -14 40 -26 52 -26 17 -1 12 -6 -18 -21 -64 -31 -82 -70 -49 -103 20
-21 52 -20 95 2 l36 18 -16 -30 c-9 -17 -17 -33 -18 -35 -2 -2 -9 2 -18 9 -10
8 -30 11 -56 7 -38 -5 -42 -2 -85 43 -51 55 -156 113 -259 145 l-70 22 71 2
c86 1 212 32 269 66 182 106 135 295 -74 295 -79 0 -207 -42 -293 -97 -53 -33
-55 -29 -9 20 157 164 209 350 124 439 -53 55 -138 47 -214 -21 -58 -51 -105
-130 -139 -236 l-27 -87 -7 68 c-16 156 -55 261 -118 321 -80 76 -169 69 -218
-19 -48 -85 -34 -204 42 -359 l43 -87 -41 38 c-71 65 -152 113 -252 148 -122
42 -144 47 -181 34 -26 -9 -32 -7 -66 28 l-38 39 44 -16 c65 -22 161 -14 194
17 36 34 34 81 -5 114 -38 31 -88 46 -160 46 l-55 0 40 21 c74 39 135 111 135
159 0 30 -44 70 -77 70 -44 -1 -104 -33 -154 -83 l-46 -46 12 37 c39 112 23
208 -37 233 -26 10 -35 10 -57 -2 -43 -23 -71 -92 -71 -174 l-1 -70 -22 41
c-47 87 -102 134 -157 134 -98 0 -94 -126 6 -227 l42 -41 -40 14 c-22 8 -64
14 -92 14 -50 1 -51 2 -71 42 -58 122 -250 108 -457 -32 l-88 -59 40 50 c58
73 119 203 131 279 18 105 -15 186 -87 216 -37 16 -46 16 -89 3z m659 -689
l61 0 -37 -20 c-34 -18 -40 -18 -72 -5 -116 49 -198 -43 -150 -168 3 -9 -17
-3 -60 18 -35 18 -99 41 -143 50 -43 10 -89 21 -103 25 -24 8 -24 8 6 9 84 2
255 65 322 119 23 18 25 18 70 -5 33 -16 62 -23 106 -23z m-1475 -49 c26 -11
84 -27 127 -36 86 -18 103 -25 58 -25 -39 0 -137 -25 -199 -51 -71 -30 -141
-84 -169 -131 l-24 -40 6 68 c4 56 9 72 28 86 56 44 85 152 52 187 -7 7 6 2
30 -13 23 -14 64 -35 91 -45z m-1319 -132 l55 -17 -75 -8 c-81 -10 -79 -11
-94 49 l-7 28 33 -17 c18 -10 58 -25 88 -35z m1108 -198 c0 -22 3 -44 6 -50 4
-6 4 -16 0 -22 -5 -8 -13 -4 -24 11 -16 21 -16 26 -1 61 9 21 17 39 18 39 1 0
2 -18 1 -39z m1652 -8 c0 -8 -50 22 -54 33 -3 9 7 5 24 -8 17 -12 30 -23 30
-25z m-535 -16 c6 -4 -1 -4 -14 1 -14 5 -32 20 -40 33 l-15 24 29 -25 c17 -14
35 -28 40 -33z m-596 16 c-40 -47 -42 -49 -34 -33 5 9 4 12 -1 7 -5 -5 -9 -16
-9 -25 0 -9 -6 -16 -13 -14 -8 1 -11 -2 -7 -7 3 -6 -8 -37 -25 -71 -27 -53
-33 -59 -50 -50 -10 5 -32 10 -49 10 -28 0 -29 2 -22 28 4 15 6 32 4 38 -2 6
20 21 49 35 28 13 79 43 112 66 34 24 63 43 65 43 3 0 -6 -12 -20 -27z m-3399
-51 c-5 -2 -10 -13 -10 -24 0 -29 -6 -20 -13 19 -6 31 -5 32 13 20 11 -6 16
-13 10 -15z m5175 8 c18 -20 17 -20 -16 -19 -24 1 -28 3 -11 6 19 4 21 7 11
19 -18 22 -5 17 16 -6z m-1494 -141 c-4 -11 -7 9 -8 48 0 67 0 67 8 20 4 -27
4 -58 0 -68z m-3684 -6 c-2 -16 -4 -3 -4 27 0 30 2 43 4 28 2 -16 2 -40 0 -55z
m5453 16 c20 -6 16 -7 -21 -8 -33 -1 -49 3 -53 14 -6 16 6 15 74 -6z m-1062
-46 c-10 -2 -26 -2 -35 0 -10 3 -2 5 17 5 19 0 27 -2 18 -5z m47 -19 c-28 -15
-66 -40 -86 -55 l-36 -29 -19 21 c-10 11 -14 19 -9 18 6 -2 20 2 33 9 12 7 28
12 35 11 6 -2 29 6 50 16 32 16 35 20 20 26 -12 5 -5 8 22 8 l40 1 -50 -26z
m-1306 -114 c11 -23 11 -24 -3 -6 -9 11 -16 24 -16 30 0 5 -2 7 -5 4 -3 -2 1
-26 9 -51 8 -26 11 -47 8 -47 -3 0 7 -14 24 -32 l29 -32 -38 32 c-50 42 -80
57 -179 87 -47 14 -66 23 -43 20 23 -3 35 -2 27 3 -8 5 4 12 35 20 27 7 66 23
88 35 l40 23 6 -31 c3 -16 11 -41 18 -55z m-3726 -112 c23 -12 71 -32 107 -44
l65 -24 -258 0 -258 0 -50 29 -51 29 88 -1 c109 -1 165 14 212 58 l37 33 33
-29 c18 -16 52 -39 75 -51z m5199 7 l-25 -75 -60 0 -60 0 55 39 c30 22 67 56
82 75 15 20 28 36 30 36 1 0 -9 -34 -22 -75z m-349 27 c-3 -25 1 -50 11 -70
l17 -32 -80 0 c-65 0 -88 4 -125 24 -41 22 -44 25 -29 38 14 11 15 11 9 0 -6
-10 -2 -13 16 -10 14 1 31 -2 39 -8 46 -36 94 -8 87 50 -3 30 -2 32 27 28 23
-3 27 -1 15 7 -13 9 -13 11 2 11 13 0 15 -7 11 -38z m600 -12 c3 -11 1 -23 -4
-26 -5 -3 -9 6 -9 20 0 31 6 34 13 6z m657 -35 c-43 -44 -65 -61 -40 -30 10
12 10 15 -1 15 -12 0 66 57 81 59 2 1 -16 -19 -40 -44z m1290 -51 c0 -2 -13
-4 -29 -4 l-28 0 16 33 16 34 13 -30 c6 -16 12 -31 12 -33z m-1919 35 c7 -13
7 -19 1 -15 -6 3 -13 2 -16 -3 -4 -5 4 -12 16 -14 17 -3 15 -5 -9 -6 -25 -1
-31 3 -28 14 3 8 7 22 10 30 6 20 12 19 26 -6z m1195 -37 c-8 -7 -25 8 -37 31
-11 21 -10 21 15 -2 14 -14 24 -26 22 -29z m-7651 8 c-3 -5 -16 -10 -28 -9
-20 1 -20 2 3 9 14 4 26 8 28 9 2 1 0 -3 -3 -9z"/>
<path d="M8060 4880 c0 -5 7 -7 15 -4 8 4 15 8 15 10 0 2 -7 4 -15 4 -8 0 -15
-4 -15 -10z"/>
<path d="M6586 4217 c-16 -12 -16 -13 3 -13 12 0 21 6 21 13 0 7 -1 13 -3 13
-2 0 -11 -6 -21 -13z"/>
</g>
</svg>
