<?xml version="1.0" standalone="no"?>
<!DOCTYPE svg PUBLIC "-//W3C//DTD SVG 20010904//EN"
 "http://www.w3.org/TR/2001/REC-SVG-20010904/DTD/svg10.dtd">
<svg version="1.0" xmlns="http://www.w3.org/2000/svg"
 width="1280.000000pt" height="1081.000000pt" viewBox="0 0 1280.000000 1081.000000"
 preserveAspectRatio="xMidYMid meet">
<metadata>
Created by potrace 1.15, written by Peter Selinger 2001-2017
</metadata>
<g transform="translate(0.000000,1081.000000) scale(0.100000,-0.100000)"
fill="#000000" stroke="none">
<path d="M9134 10779 c-16 -17 -91 -62 -166 -100 l-138 -69 -103 0 -102 0
-103 -103 c-91 -91 -102 -106 -102 -138 0 -27 -8 -42 -32 -66 -48 -45 -156
-97 -198 -94 -32 1 -44 -7 -141 -106 -93 -94 -119 -129 -203 -271 -70 -117
-107 -191 -132 -264 l-34 -102 0 -204 0 -205 39 -71 c23 -40 67 -97 101 -131
51 -49 74 -84 131 -197 44 -88 69 -150 69 -171 0 -42 41 -83 127 -126 52 -26
74 -31 132 -31 64 0 73 -3 106 -31 l35 -31 0 -207 0 -207 68 -67 c60 -60 72
-67 107 -67 21 0 112 -14 202 -32 l163 -32 0 -68 0 -68 -68 0 c-64 0 -70 -2
-100 -33 -29 -30 -32 -38 -32 -98 0 -62 -2 -67 -38 -102 -36 -35 -41 -37 -103
-37 -48 0 -92 -9 -168 -35 -89 -30 -130 -52 -300 -164 -161 -107 -214 -149
-300 -235 l-104 -105 -34 -233 c-24 -171 -51 -304 -99 -498 l-67 -265 -102
-205 c-56 -113 -117 -249 -134 -303 -29 -90 -31 -108 -31 -240 0 -132 2 -149
31 -237 38 -115 56 -135 199 -230 l106 -70 270 0 270 0 34 35 c24 25 43 35 65
35 28 0 34 -6 63 -65 18 -36 32 -81 32 -100 l0 -35 -63 0 c-60 0 -65 -2 -100
-38 -26 -26 -37 -47 -37 -67 0 -26 -43 -73 -317 -346 -218 -217 -366 -354
-470 -438 l-152 -122 -708 -368 -709 -369 -297 -66 -297 -66 -721 0 -721 0
-364 99 -364 100 -101 66 c-167 109 -359 200 -498 235 -66 16 -139 30 -163 30
-43 0 -45 2 -215 172 l-171 173 -101 202 -101 203 0 160 0 160 139 278 c95
189 150 287 173 308 53 50 230 160 369 230 l129 64 169 0 170 0 378 -136 c309
-111 414 -155 575 -235 224 -112 247 -117 295 -66 34 35 103 166 103 194 0 10
-16 99 -35 197 -34 170 -39 184 -105 315 -77 155 -209 341 -324 459 -70 73
-74 75 -408 243 l-338 169 -243 0 -243 0 -64 -65 -64 -65 -68 0 -68 0 0 343 0
342 -34 130 c-60 235 -154 380 -408 631 l-173 171 -263 97 -263 96 -107 0
c-189 -1 -456 -85 -536 -169 l-30 -31 34 -35 c32 -33 38 -35 100 -35 l65 0
107 -107 c98 -100 111 -117 168 -232 l61 -124 -35 -36 c-48 -49 -48 -85 -1
-131 l35 -34 0 -171 0 -170 -104 -310 c-102 -305 -108 -320 -369 -874 l-265
-564 -68 -68 -67 -68 -33 -228 c-30 -207 -33 -250 -34 -469 l0 -242 236 -703
237 -704 160 -225 c193 -272 227 -310 277 -310 33 0 52 -16 268 -233 215 -215
232 -235 232 -267 0 -31 10 -45 72 -106 l73 -71 235 -95 c129 -53 462 -188
740 -301 l505 -206 975 -166 c536 -91 1065 -182 1175 -201 255 -43 262 -43
305 1 l34 35 101 0 101 0 34 -35 34 -35 200 0 200 0 36 34 c34 33 41 35 222
65 173 29 205 31 429 31 l243 0 615 137 616 136 1215 639 1215 639 98 97 c87
86 97 100 97 132 0 49 51 100 101 100 31 0 51 17 237 203 l202 202 135 472
135 473 0 432 0 432 -34 36 c-28 30 -38 53 -65 162 -40 165 -41 205 -1 243 28
27 30 34 30 100 0 67 -2 73 -33 103 -24 24 -42 32 -68 32 -29 0 -44 10 -97 63
-34 34 -62 67 -62 72 0 5 12 22 27 37 38 40 95 39 138 -2 l32 -31 268 0 268 0
32 31 c23 22 85 52 209 101 152 59 185 69 239 69 58 0 66 3 95 33 l32 33 0
335 0 334 -126 125 c-69 69 -206 221 -305 337 -152 181 -179 218 -179 245 0
30 -27 60 -277 309 -308 307 -360 347 -591 463 l-132 66 -103 0 c-102 0 -103
0 -133 -31 -16 -17 -59 -46 -96 -65 -64 -32 -72 -34 -176 -34 l-108 0 -67 68
c-55 55 -67 73 -67 100 l0 32 138 0 138 0 67 68 67 68 0 65 c0 61 -2 67 -35
99 -27 26 -35 42 -35 69 0 20 30 125 66 233 l66 198 32 0 c42 0 102 61 145
147 25 50 31 75 31 125 l0 63 -138 138 c-123 123 -141 137 -172 137 -33 0 -37
4 -67 65 -33 63 -33 66 -33 203 l0 139 -64 61 -64 62 31 0 c21 0 41 -10 64
-32 l33 -32 35 34 35 34 0 136 0 136 -36 35 c-46 44 -97 143 -100 196 -2 33
-17 62 -71 140 -62 91 -86 114 -266 264 l-198 164 -237 102 -237 103 -236 0
-235 0 -30 -31z m126 -274 c-26 -27 -42 -35 -69 -35 -32 0 -47 -11 -133 -97
-88 -87 -98 -101 -98 -133 0 -28 8 -44 34 -69 l34 -33 72 37 c40 20 160 95
266 166 l194 129 139 0 c199 0 214 -8 436 -230 156 -156 173 -170 205 -170 52
0 96 -51 169 -197 34 -68 61 -127 61 -131 0 -14 -98 4 -180 32 -65 23 -85 36
-147 98 -58 58 -73 79 -73 102 0 44 -53 96 -99 96 -50 0 -101 50 -101 99 0 50
-50 101 -100 101 -31 0 -45 -9 -107 -72 -59 -61 -82 -94 -132 -195 -42 -84
-61 -134 -61 -160 0 -52 -49 -103 -100 -103 -33 0 -52 -17 -281 -247 -297
-299 -499 -542 -499 -599 0 -52 -65 -169 -173 -309 -86 -112 -95 -120 -130
-123 -37 -3 -37 -3 -37 36 0 50 -41 92 -90 92 -48 0 -110 60 -110 107 0 44
-128 298 -169 337 l-31 30 0 236 0 236 34 100 c42 124 158 358 199 402 29 30
35 32 101 32 l69 0 136 101 c184 137 201 154 201 199 0 34 3 37 68 69 37 19
123 49 192 67 102 26 145 32 234 33 l110 1 -34 -35z m1082 -1002 l167 -168 67
-235 67 -235 66 -67 c57 -59 70 -68 101 -68 28 0 44 -8 70 -35 l34 -35 -34
-35 c-32 -33 -37 -35 -104 -35 l-70 0 -63 -62 c-77 -76 -83 -111 -31 -165 l32
-33 -34 -35 c-25 -25 -43 -35 -66 -35 -25 0 -41 -10 -75 -47 -24 -27 -55 -72
-68 -101 l-25 -52 34 -35 c32 -33 37 -35 102 -35 l68 0 30 -60 c18 -37 30 -75
30 -100 0 -47 25 -40 -259 -80 -181 -25 -245 -30 -415 -30 l-202 0 -34 35
c-45 46 -82 47 -127 3 -43 -41 -45 -92 -7 -137 24 -29 31 -31 90 -31 51 0 369
-45 462 -65 20 -5 22 -11 22 -73 0 -63 -2 -71 -30 -97 -28 -27 -30 -33 -30
-105 0 -72 2 -78 30 -105 l30 -29 68 67 68 67 69 0 c64 0 71 -2 102 -32 l33
-32 0 -136 0 -136 -33 -32 c-23 -23 -63 -42 -137 -67 l-104 -35 -336 0 -336 0
-35 36 c-47 49 -276 164 -327 164 -48 0 -96 47 -142 139 l-32 63 33 34 33 34
36 -35 c48 -47 82 -47 131 1 l37 36 -34 101 c-25 75 -43 111 -69 137 l-35 36
0 94 c0 89 2 100 35 164 19 38 62 155 96 260 33 105 83 259 109 341 27 83 119
371 205 640 86 270 173 525 192 568 l36 77 171 0 171 0 167 -167z m-806 -62
c-31 -32 -39 -52 -70 -178 -20 -78 -36 -154 -36 -170 0 -17 -12 -39 -32 -60
l-32 -33 -105 0 c-100 0 -106 1 -133 27 -15 15 -28 31 -28 35 0 15 121 192
158 231 29 29 44 37 72 37 32 0 46 11 135 100 94 94 100 99 103 74 3 -19 -6
-36 -32 -63z m-168 -711 l3 -65 -76 -38 -75 -37 -162 0 -162 0 -33 32 c-46 45
-46 98 -1 145 l32 33 236 -2 235 -3 3 -65z m-577 -305 l39 -35 230 0 c127 0
230 -2 230 -5 0 -19 -73 -145 -97 -166 -16 -15 -73 -41 -135 -62 -141 -48
-189 -48 -330 -1 l-108 36 0 64 c0 54 6 76 35 134 32 64 38 70 66 70 22 0 44
-11 70 -35z m337 -470 c-23 -23 -61 -42 -128 -64 -122 -40 -162 -40 -245 1
-60 30 -65 35 -65 65 l0 33 203 0 203 0 30 31 29 31 3 -33 c3 -26 -3 -39 -30
-64z m-8146 -542 c45 -47 138 -232 189 -377 l39 -109 0 -440 0 -441 -34 -36
c-31 -32 -36 -47 -65 -195 -23 -120 -31 -187 -31 -270 l0 -109 32 -33 32 -33
33 32 c31 30 33 36 33 100 0 57 5 79 31 131 17 34 48 80 69 102 l37 40 32 220
c29 207 31 237 31 513 l0 293 -30 120 c-24 93 -48 154 -104 267 -41 81 -88
160 -105 176 -20 20 -31 39 -31 58 0 26 3 28 37 28 33 0 46 -8 105 -67 58 -58
68 -72 68 -103 0 -62 59 -221 96 -260 l34 -36 0 -674 0 -675 -31 -95 c-23 -70
-41 -105 -67 -132 l-36 -38 34 -35 c47 -48 84 -48 133 3 34 35 42 56 102 265
l65 226 0 514 0 513 -31 30 c-17 16 -46 59 -65 96 -32 63 -34 74 -34 168 l0
100 33 0 c25 0 42 -9 69 -37 56 -59 92 -185 133 -464 33 -222 35 -248 35 -504
l0 -270 -34 -134 c-30 -118 -39 -138 -70 -170 l-36 -37 0 -130 0 -130 35 -34
35 -34 35 34 c26 25 35 42 35 67 0 24 18 60 67 134 l67 101 131 66 c157 78
343 131 464 132 l75 0 -34 -35 -34 -35 -136 0 -136 0 -29 -30 -29 -30 34 -35
34 -35 471 0 471 0 30 -31 c38 -40 155 -99 197 -99 25 0 42 -9 67 -35 l34 -35
-100 0 -100 0 -34 35 -34 35 -400 0 -401 0 -134 -35 -134 -34 -69 -68 -68 -68
34 -34 34 -34 134 33 c115 28 138 37 168 66 l36 34 405 0 405 0 100 -34 c54
-18 129 -48 167 -67 64 -32 67 -35 67 -68 0 -50 50 -101 99 -101 30 0 45 -10
103 -67 52 -51 68 -74 68 -95 0 -16 -4 -28 -8 -28 -4 0 -34 27 -67 61 -49 50
-85 73 -195 129 -114 57 -172 78 -367 134 -279 79 -300 81 -583 35 -189 -31
-196 -33 -230 -65 l-34 -34 34 -35 c30 -30 40 -35 84 -36 42 -1 23 -7 -104
-33 -85 -18 -200 -47 -255 -66 l-99 -33 -203 -200 c-194 -192 -203 -202 -203
-239 0 -60 -58 -163 -134 -238 l-66 -64 0 -333 0 -333 66 -133 66 -132 236
-237 c210 -211 240 -238 269 -238 18 0 89 -27 170 -66 122 -57 146 -73 210
-136 68 -67 81 -75 220 -135 l148 -63 -51 0 c-44 0 -54 -4 -84 -35 l-34 -35
64 -66 c61 -62 82 -74 334 -201 148 -74 315 -166 372 -204 122 -81 150 -87
201 -37 27 26 33 40 33 74 0 35 -5 47 -31 68 -17 14 -28 26 -24 26 3 0 60 -14
125 -30 l119 -30 751 0 751 0 62 31 c34 17 79 47 99 67 l38 36 -32 33 c-30 31
-36 33 -103 33 -68 0 -72 -1 -105 -35 l-34 -35 -636 0 -636 0 -34 35 -34 35
470 0 470 0 34 35 c32 33 38 35 99 35 61 0 67 -2 102 -36 l36 -35 140 35 c77
20 162 45 189 56 l49 21 -23 -23 -22 -24 33 -32 c46 -45 91 -44 137 3 32 33
33 35 16 54 -10 11 -31 26 -47 33 l-29 15 83 31 c55 21 94 43 117 67 25 26 42
35 67 35 31 0 33 -2 33 -37 0 -28 8 -45 31 -69 l32 -33 131 66 c72 36 148 81
168 101 l38 36 -32 33 -32 33 65 0 65 0 64 65 c35 36 68 65 72 65 4 0 8 -14 8
-32 0 -22 9 -42 31 -64 l32 -33 140 70 c256 129 249 120 -48 -65 -251 -155
-295 -191 -295 -238 0 -48 52 -98 101 -98 32 0 47 9 111 69 58 54 100 82 203
133 72 36 175 80 230 98 91 30 113 43 235 136 74 56 164 132 200 168 l64 66
-29 30 c-23 24 -37 30 -70 30 -37 0 -46 -6 -105 -66 -84 -85 -181 -136 -248
-132 l-47 3 88 34 c79 31 93 41 147 101 l59 67 -32 31 c-23 23 -43 32 -65 32
-30 0 -32 2 -32 35 0 34 5 38 100 100 132 85 232 135 272 135 47 0 98 52 98
100 0 28 8 44 35 70 l35 34 0 -70 c0 -66 -2 -72 -32 -101 -44 -41 -169 -103
-210 -103 -23 0 -42 -9 -65 -32 l-33 -32 32 -33 c24 -25 40 -33 68 -33 l36 0
32 -98 c18 -54 32 -113 32 -132 0 -25 9 -43 32 -67 18 -18 36 -33 40 -33 5 0
66 43 136 96 70 53 204 141 297 196 202 120 235 147 235 198 0 32 11 46 108
142 76 76 125 115 170 137 l62 31 0 -34 c0 -31 -19 -53 -236 -268 -198 -196
-240 -233 -268 -236 -26 -2 -56 -27 -166 -137 l-134 -134 29 -31 c22 -23 37
-30 68 -30 35 0 64 20 330 225 217 168 328 262 435 367 l142 142 65 -64 c36
-36 65 -68 65 -71 0 -4 -150 -127 -334 -273 -287 -228 -339 -266 -368 -266
-29 0 -49 -15 -166 -133 l-132 -133 33 -32 c43 -42 87 -42 170 -1 103 52 377
277 572 469 211 209 259 240 370 240 l65 0 0 -35 c0 -48 -98 -195 -198 -298
-62 -62 -82 -77 -107 -77 -26 -1 -69 -38 -300 -264 l-270 -264 34 -36 c44 -46
80 -47 164 -5 83 42 137 94 137 133 0 25 18 48 102 133 84 85 108 103 132 103
42 0 106 63 106 104 0 44 53 96 99 96 50 0 101 50 101 100 0 34 3 37 65 68 36
18 80 32 98 32 40 0 104 60 109 103 3 27 4 27 68 -38 l64 -65 -35 0 c-32 0
-53 -19 -290 -258 -164 -165 -296 -308 -369 -400 l-113 -143 34 -35 c56 -57
78 -50 197 62 93 87 102 99 102 132 0 32 9 46 67 104 57 57 73 68 101 68 28 0
46 11 103 67 60 58 69 71 69 103 0 45 34 79 208 210 l124 92 34 -33 34 -33
-167 -168 -167 -168 34 -35 c32 -33 38 -35 99 -35 l65 0 68 67 c59 58 68 72
68 103 0 31 9 45 68 102 43 43 92 79 139 102 68 34 78 36 170 36 l98 0 -106
-107 c-59 -60 -150 -166 -203 -238 l-97 -129 34 -34 34 -34 64 32 c90 45 139
94 139 139 0 30 10 45 67 103 58 58 73 68 102 68 48 0 101 51 101 97 0 31 5
35 70 68 69 35 74 36 168 33 l97 -3 3 -28 c3 -22 -13 -54 -67 -135 -60 -90
-113 -149 -341 -377 -304 -304 -302 -300 -235 -365 l35 -34 138 137 c125 124
140 137 173 137 47 0 89 42 89 91 0 30 29 66 271 336 l270 303 104 0 105 0 0
-95 0 -95 -66 -133 c-76 -152 -121 -207 -171 -207 -49 0 -103 -51 -103 -98 0
-50 -50 -102 -98 -102 -27 0 -93 -42 -375 -239 -280 -196 -358 -256 -432 -331
-77 -79 -134 -121 -401 -300 l-311 -208 -409 -170 -409 -170 -570 -147 c-313
-80 -601 -155 -640 -165 -38 -10 -194 -50 -346 -89 l-275 -71 -1154 0 -1154 0
-385 70 c-366 66 -400 74 -671 158 -157 49 -399 124 -537 168 l-253 78 0 31
c0 64 -50 95 -547 344 -342 171 -472 231 -498 231 -61 0 -215 114 -407 302
l-168 163 -267 435 c-220 358 -274 452 -301 530 -20 57 -61 232 -103 440 l-69
344 0 170 0 170 59 200 c33 111 107 365 166 566 104 355 111 374 242 670 135
304 136 305 204 375 l69 70 65 354 65 354 0 189 c0 177 -2 196 -31 316 l-32
127 -103 105 c-81 82 -104 111 -104 133 0 25 3 27 38 27 31 0 45 -7 74 -37z
m10203 -230 c173 -57 212 -75 300 -131 55 -35 130 -94 168 -130 57 -57 67 -71
67 -102 0 -32 14 -49 167 -202 154 -154 171 -168 203 -168 32 0 46 -11 141
-107 59 -60 150 -166 203 -237 l96 -129 0 -268 0 -269 -71 -35 c-54 -28 -111
-44 -242 -71 -166 -33 -179 -34 -367 -32 l-195 3 -132 230 c-73 127 -133 232
-133 235 0 3 152 4 338 2 l338 -3 64 -64 c55 -55 70 -65 99 -65 26 0 44 8 68
32 l33 32 0 100 0 100 -67 68 -67 68 -236 0 -236 0 -36 38 c-20 20 -50 65 -67
99 -26 53 -31 74 -31 135 0 67 2 74 32 105 l32 33 -29 59 c-18 39 -54 85 -101
132 l-74 73 -30 -29 c-22 -21 -30 -38 -30 -62 0 -40 -6 -41 -42 -6 -27 26 -28
30 -28 127 l0 100 -37 38 c-48 49 -84 51 -130 6 l-33 -32 0 -141 0 -140 56
-85 c31 -47 91 -121 134 -165 72 -75 79 -86 108 -175 42 -125 42 -164 0 -207
-22 -23 -41 -33 -62 -33 -17 0 -77 -15 -134 -34 -80 -26 -112 -42 -141 -70
-34 -34 -41 -36 -99 -36 -74 0 -48 -34 -252 335 -78 143 -159 277 -179 298
-57 61 -142 101 -231 107 l-75 5 100 32 100 32 132 133 c106 108 138 147 167
205 30 60 36 83 36 136 0 57 -3 66 -30 92 -16 16 -30 32 -30 37 0 4 26 21 58
37 48 25 69 30 132 31 66 0 98 -8 275 -67z m-2425 -101 c0 -40 108 -146 236
-232 137 -93 482 -264 617 -307 106 -33 111 -34 257 -31 83 2 150 1 150 -2 0
-3 -27 -19 -60 -35 -53 -27 -80 -54 -254 -258 -107 -125 -198 -232 -201 -237
-8 -13 -75 -350 -75 -379 0 -15 -13 -39 -32 -58 -30 -31 -36 -33 -100 -33
l-68 0 0 100 0 100 -96 193 -96 192 -140 142 -141 141 -91 -60 c-50 -33 -126
-95 -168 -136 l-78 -77 0 -70 c0 -38 -14 -171 -31 -295 l-32 -225 -138 -141
c-160 -162 -164 -172 -102 -236 48 -49 87 -51 129 -7 46 49 158 99 299 136
116 29 175 37 541 68 l411 35 101 103 102 102 0 99 c0 85 5 114 32 198 l32 97
203 203 c179 179 203 200 203 175 0 -38 71 -175 109 -211 30 -29 31 -31 31
-126 0 -83 -5 -110 -34 -196 -66 -196 -138 -304 -202 -304 -43 0 -205 -109
-304 -206 l-75 -72 -500 -233 -500 -232 -195 -33 c-192 -33 -200 -34 -508 -34
l-313 0 -62 31 c-133 67 -172 142 -106 205 59 56 99 154 135 337 19 92 59 245
88 340 30 95 103 325 162 512 59 187 125 410 147 495 54 213 37 198 403 360
159 70 295 129 302 129 7 1 12 -11 12 -27z m-6740 -769 l0 -333 -39 -78 c-21
-42 -51 -88 -65 -101 l-26 -24 0 69 c0 65 2 72 30 99 l30 29 0 370 0 370 35
-34 35 -34 0 -333z m8620 -529 l0 -203 31 -36 31 -35 142 0 142 0 64 65 64 65
103 0 103 0 0 -35 c0 -45 52 -149 98 -197 l36 -38 -34 -35 -34 -35 -368 0
-369 0 -92 61 c-51 34 -113 82 -139 107 -46 44 -48 49 -48 100 0 48 27 155
121 474 l19 66 65 -60 65 -61 0 -203z m-1839 218 c19 -20 62 -80 96 -132 68
-104 136 -278 131 -333 l-3 -31 -160 -33 c-120 -24 -187 -32 -270 -33 l-109 0
36 38 c34 35 38 46 67 191 18 91 31 186 31 230 0 71 2 77 32 108 26 27 40 33
74 33 36 0 47 -5 75 -38z m1614 -802 c97 -97 103 -100 189 -130 78 -26 104
-30 200 -30 l110 0 33 32 c18 17 35 30 37 27 2 -2 47 -90 99 -195 102 -203
167 -374 167 -436 0 -36 -2 -38 -33 -38 -24 0 -42 9 -66 34 l-33 34 -101 -34
-102 -34 -102 -102 -103 -103 0 -64 c0 -60 3 -68 32 -98 44 -45 89 -45 135 -1
23 22 33 41 33 62 0 44 63 106 107 106 l33 0 -31 -62 c-17 -35 -47 -80 -67
-100 l-36 -38 34 -35 34 -35 133 0 133 0 0 -200 c0 -199 0 -200 -22 -205 -13
-2 -119 -18 -237 -35 -180 -25 -245 -30 -414 -30 l-200 0 -441 135 -441 135
-75 74 c-97 95 -247 196 -292 196 -48 0 -98 52 -98 101 0 31 -6 43 -37 68 -25
21 -49 31 -70 31 l-33 0 0 133 0 132 103 103 c91 91 106 102 138 102 19 0 80
15 135 34 91 31 130 54 499 299 l400 265 75 1 75 1 100 -100z m-7199 -134
c176 -36 328 -83 428 -132 53 -26 61 -35 92 -96 l34 -68 -37 0 c-29 0 -45 8
-73 34 -25 25 -96 61 -260 132 l-225 97 -250 33 -250 32 186 1 c174 1 196 -1
355 -33z m8193 -440 c11 -77 19 -141 17 -143 -2 -2 -11 29 -20 70 -13 59 -23
80 -51 107 -33 32 -35 37 -35 104 l0 71 34 -35 c31 -33 34 -43 55 -174z
m-2789 -87 c0 -53 70 -309 101 -373 25 -50 78 -108 302 -333 l271 -272 336
-135 c318 -129 345 -138 510 -171 l173 -35 297 0 297 0 174 35 174 35 70 69
c42 42 95 81 133 100 l62 31 0 -35 c0 -45 -58 -160 -102 -202 -23 -22 -61 -41
-129 -62 l-96 -31 -684 0 -685 0 -231 99 c-214 92 -246 110 -430 232 -109 72
-227 159 -262 193 -41 40 -111 132 -203 269 -116 174 -145 225 -174 305 -26
75 -34 113 -34 167 0 66 1 71 37 107 25 26 46 38 65 38 25 0 28 -4 28 -31z
m2870 -444 l31 -199 -36 -35 -35 -36 0 239 c0 132 2 237 5 235 2 -3 18 -94 35
-204z m-3137 -67 c-56 -56 -73 -68 -100 -68 l-33 0 67 100 66 101 34 -33 33
-32 -67 -68z m36 -305 c-25 -25 -41 -33 -68 -33 -33 0 -50 -14 -203 -167 -166
-166 -168 -167 -168 -133 0 32 18 53 233 268 l232 232 3 -66 c3 -64 1 -69 -29
-101z m-379 -36 c0 -2 -13 -16 -30 -32 l-30 -29 0 32 c0 29 3 32 30 32 17 0
30 -1 30 -3z m310 -232 c-217 -217 -237 -235 -270 -235 -34 0 -30 4 200 235
217 217 237 235 270 235 34 0 30 -4 -200 -235z m-380 -302 c0 -4 -28 -36 -62
-70 -51 -52 -68 -63 -95 -63 -31 0 -33 2 -33 35 0 33 4 37 68 69 62 32 122 46
122 29z m-930 -413 c-8 -5 -19 -10 -25 -10 -5 0 -3 5 5 10 8 5 20 10 25 10 6
0 3 -5 -5 -10z m-4000 -380 c25 -10 231 -60 458 -111 l413 -94 -124 -3 -124
-3 -31 -32 -32 -33 30 -29 c16 -16 30 -32 30 -37 0 -4 -27 -8 -60 -8 -55 0
-73 7 -202 71 -168 84 -324 187 -393 259 -29 31 -42 50 -30 45 11 -4 40 -15
65 -25z m2597 -86 c-3 -3 -12 -4 -19 -1 -8 3 -5 6 6 6 11 1 17 -2 13 -5z"/>
<path d="M10085 9152 c-103 -54 -235 -141 -282 -185 -46 -43 -46 -91 0 -135
24 -24 42 -32 68 -32 30 0 46 12 134 100 86 86 104 100 132 100 18 0 33 -3 33
-7 0 -5 -15 -35 -33 -68 -29 -54 -35 -60 -68 -63 -30 -3 -51 -18 -134 -102
l-99 -100 34 -35 c57 -59 77 -52 197 67 l103 103 0 -35 c0 -25 -9 -43 -32 -67
l-32 -33 32 -32 32 -32 33 32 c25 24 42 32 70 32 35 0 37 -2 37 -33 0 -24 9
-42 33 -65 46 -44 91 -44 135 1 32 33 32 34 32 133 0 82 -6 125 -35 234 l-34
134 -68 68 -67 68 -66 0 c-58 -1 -75 -6 -155 -48z"/>
<path d="M1922 5267 c-42 -43 -43 -89 -5 -129 15 -15 32 -28 38 -28 6 0 39 28
73 63 l62 63 -33 32 c-46 44 -91 44 -135 -1z"/>
<path d="M1242 3857 c-32 -33 -32 -34 -32 -133 l0 -100 35 -34 c27 -26 43 -58
70 -139 19 -58 35 -120 35 -137 0 -21 10 -40 33 -62 l33 -32 32 33 c30 31 32
37 32 107 0 45 -14 140 -34 238 l-33 164 -64 64 c-35 35 -66 64 -69 64 -3 0
-20 -15 -38 -33z"/>
<path d="M1042 3457 c-30 -31 -32 -38 -32 -102 1 -103 59 -328 96 -366 34 -36
41 -36 76 -2 l28 27 0 138 c0 138 0 139 -34 206 -19 37 -49 82 -68 100 l-34
32 -32 -33z"/>
<path d="M1647 3122 c-20 -21 -27 -38 -27 -68 0 -37 7 -46 163 -201 92 -92
236 -221 332 -297 155 -124 173 -136 211 -136 32 0 46 6 69 30 l29 30 -34 35
c-24 24 -43 35 -63 35 -24 0 -54 24 -169 135 -121 117 -144 135 -172 135 -43
0 -96 53 -96 96 0 24 -18 48 -103 132 -56 56 -105 102 -108 102 -3 0 -17 -13
-32 -28z"/>
<path d="M1382 2987 l-32 -33 283 -280 c192 -191 331 -321 436 -404 l153 -122
35 34 34 34 -68 100 c-63 93 -89 119 -328 328 -211 185 -371 310 -471 369 -6
3 -25 -8 -42 -26z"/>
<path d="M7445 2584 l-230 -165 -414 -205 c-270 -133 -425 -204 -445 -204 -26
0 -47 -16 -129 -98 l-97 -98 33 -32 c44 -43 87 -43 175 2 48 25 93 61 162 130
l94 96 306 101 c270 90 309 106 343 137 28 27 37 44 37 69 0 31 5 35 70 68 57
29 80 35 132 35 l63 0 102 102 c119 119 127 141 70 196 -18 18 -35 32 -37 32
-3 0 -108 -75 -235 -166z"/>
<path d="M1443 2513 c-43 -47 -42 -78 3 -126 l36 -39 34 33 c47 45 47 92 1
137 -18 18 -35 32 -37 32 -3 0 -20 -17 -37 -37z"/>
<path d="M9300 2285 l-134 -135 33 -34 34 -35 66 34 c48 24 93 61 166 134 l99
101 -34 35 c-60 62 -75 55 -230 -100z"/>
<path d="M1652 2317 c-23 -24 -32 -42 -32 -68 0 -31 15 -49 173 -205 120 -121
200 -190 265 -233 l92 -62 35 27 c30 23 35 32 35 68 0 39 -5 46 -102 142 -57
56 -170 154 -253 219 -82 65 -157 124 -166 131 -13 12 -20 9 -47 -19z"/>
<path d="M7845 2314 c-92 -31 -105 -39 -165 -99 -61 -60 -72 -67 -170 -100
-57 -19 -119 -35 -137 -35 -22 0 -99 -33 -231 -100 -164 -83 -209 -110 -267
-164 l-70 -64 34 -36 c45 -46 75 -47 207 -2 71 24 204 90 468 235 288 157 378
201 406 201 28 0 43 8 68 33 45 46 43 82 -5 129 l-38 36 -100 -34z"/>
<path d="M6060 2180 c-41 -21 -88 -52 -105 -70 l-30 -31 37 -35 c22 -20 48
-34 63 -34 36 0 174 72 209 109 l30 31 -34 35 c-44 46 -74 45 -170 -5z"/>
<path d="M2530 2115 l-34 -35 34 -35 c27 -28 42 -35 72 -35 58 0 144 -49 218
-125 90 -92 153 -121 440 -204 l243 -69 101 -101 101 -101 66 0 c62 0 67 2
102 38 47 48 48 80 5 127 -28 29 -114 69 -528 245 -272 116 -546 238 -608 271
-136 71 -164 74 -212 24z"/>
<path d="M8251 1915 l-168 -165 -62 0 c-86 0 -182 -49 -276 -140 l-70 -68
-469 -200 c-356 -153 -477 -209 -502 -233 l-34 -33 32 -33 32 -33 108 0 c98 0
118 3 206 34 53 19 216 93 362 164 253 124 268 133 330 197 73 75 177 135 234
135 55 0 351 182 444 273 68 66 132 164 132 200 0 28 -55 67 -94 67 -35 0 -48
-10 -205 -165z"/>
<path d="M2529 1844 l-33 -34 64 -65 c47 -48 109 -92 231 -165 167 -99 168
-100 233 -100 63 0 73 -4 268 -101 l203 -100 105 -104 c98 -97 114 -108 239
-170 l134 -66 33 32 c26 26 34 41 34 69 0 32 -9 45 -72 107 -77 74 -181 133
-235 133 -18 0 -139 53 -299 131 -259 125 -272 133 -344 203 -71 69 -83 77
-220 134 -80 33 -182 76 -226 95 l-82 35 -33 -34z"/>
<path d="M5420 1845 l-34 -35 -471 0 -471 0 -32 -33 -32 -33 33 -32 33 -32
504 0 505 0 165 31 c157 30 167 34 202 68 l38 35 -32 33 -32 33 -171 0 -171 0
-34 -35z"/>
<path d="M5621 1646 c-29 -30 -49 -38 -177 -70 l-144 -36 -368 0 -368 0 -89
-30 c-65 -22 -100 -40 -126 -66 l-37 -36 38 -34 37 -34 194 0 c179 1 237 6
737 69 l543 68 34 33 c48 47 47 84 -3 133 l-38 37 -100 0 -100 0 -33 -34z"/>
<path d="M8565 1484 c-151 -101 -213 -149 -301 -235 l-110 -108 36 -36 c46
-45 71 -45 163 1 140 71 248 152 394 297 l143 141 -32 33 c-56 58 -76 51 -293
-93z"/>
<path d="M6060 1274 c-95 -97 -156 -124 -377 -168 l-182 -36 -563 0 -564 0
-32 -33 -32 -33 68 -67 68 -67 291 0 c254 0 341 5 675 35 348 32 392 38 478
66 95 31 95 31 203 137 124 123 132 144 74 200 -18 18 -35 32 -38 32 -2 0 -34
-30 -69 -66z"/>
</g>
</svg>
