<?xml version="1.0" standalone="no"?>
<!DOCTYPE svg PUBLIC "-//W3C//DTD SVG 20010904//EN"
 "http://www.w3.org/TR/2001/REC-SVG-20010904/DTD/svg10.dtd">
<svg version="1.0" xmlns="http://www.w3.org/2000/svg"
 width="1015.000000pt" height="1280.000000pt" viewBox="0 0 1015.000000 1280.000000"
 preserveAspectRatio="xMidYMid meet">
<metadata>
Created by potrace 1.15, written by Peter Selinger 2001-2017
</metadata>
<g transform="translate(0.000000,1280.000000) scale(0.100000,-0.100000)"
fill="#000000" stroke="none">
<path d="M4420 12665 c-7 -8 -19 -15 -27 -15 -22 0 -212 -114 -213 -127 0 -7
-7 -13 -15 -13 -8 0 -15 -7 -15 -15 0 -9 -7 -18 -15 -21 -8 -4 -15 -11 -15
-16 0 -6 -21 -35 -47 -65 -80 -92 -113 -153 -113 -209 0 -19 -5 -34 -11 -34
-11 0 -9 -28 6 -62 10 -25 -13 -23 -42 4 -21 19 -23 20 -23 4 0 -10 -14 -35
-30 -56 -17 -21 -33 -53 -36 -72 -4 -18 -12 -44 -19 -58 -7 -14 -25 -70 -40
-125 -16 -55 -32 -104 -37 -110 -4 -5 -8 -27 -8 -50 0 -22 -7 -80 -15 -130
-16 -92 -20 -114 -58 -370 -12 -82 -25 -154 -28 -160 -4 -5 -10 -111 -13 -235
-5 -142 -13 -249 -23 -290 -8 -36 -13 -85 -10 -110 3 -25 1 -70 -5 -101 -9
-51 -1 -175 18 -294 3 -16 7 -79 9 -140 2 -60 7 -141 10 -180 11 -122 -32
-431 -101 -722 -19 -78 -34 -154 -34 -168 0 -14 -4 -34 -10 -44 -5 -10 -16
-50 -24 -89 -8 -39 -22 -86 -30 -104 -8 -18 -18 -58 -22 -88 -3 -30 -11 -66
-17 -80 -5 -14 -13 -56 -18 -95 -4 -38 -17 -137 -28 -219 -22 -160 -42 -345
-42 -386 0 -14 -7 -63 -17 -110 -14 -68 -17 -137 -16 -342 l0 -258 -22 0 c-22
0 -149 61 -168 81 -6 5 -17 9 -25 9 -8 0 -44 17 -80 39 -36 21 -110 53 -164
71 -54 18 -94 36 -90 40 4 4 37 15 73 24 111 31 176 56 228 91 28 18 67 37 88
42 32 7 39 14 47 43 14 53 2 121 -38 212 -19 45 -35 94 -35 110 0 15 -5 28
-11 28 -6 0 -8 9 -4 21 4 12 2 24 -4 28 -6 4 -12 27 -14 52 -1 24 -5 46 -8 49
-7 6 -24 97 -43 226 -7 49 -16 99 -19 110 -4 10 -9 53 -12 94 -5 71 11 154 36
185 4 6 13 33 19 60 6 27 17 56 24 65 7 8 23 37 36 63 12 27 40 65 61 84 51
47 51 65 2 61 -37 -3 -38 -4 -35 -39 2 -31 -3 -41 -38 -73 -22 -20 -40 -41
-40 -46 0 -6 -4 -18 -9 -28 -5 -9 -19 -40 -30 -69 -22 -54 -80 -121 -90 -105
-12 19 -74 50 -89 44 -12 -4 -14 0 -10 16 7 24 -9 31 -18 8 -6 -16 -4 -18 46
-76 16 -19 30 -41 30 -48 0 -8 7 -26 15 -40 14 -26 36 -126 59 -267 6 -38 14
-75 18 -80 8 -12 49 -213 55 -270 2 -22 8 -49 14 -60 5 -11 15 -58 23 -105 9
-47 18 -97 22 -112 7 -32 -37 -98 -67 -98 -11 0 -27 -4 -37 -9 -9 -6 -42 -17
-72 -26 -30 -9 -71 -22 -90 -30 -19 -7 -62 -21 -95 -30 -33 -9 -68 -21 -78
-26 -25 -13 -67 0 -67 21 0 41 -39 47 -157 24 -39 -7 -46 12 -10 25 13 5 36
24 51 43 16 18 54 60 85 93 32 33 66 74 77 90 10 17 45 61 76 99 32 38 58 72
58 76 0 17 -74 60 -135 80 -22 7 -45 16 -50 21 -11 8 -28 13 -180 50 -132 33
-158 39 -200 46 -22 3 -42 9 -45 13 -8 10 -376 41 -538 45 l-143 3 -37 39
c-22 22 -55 44 -79 51 -54 16 -99 54 -113 96 -11 34 -70 76 -106 76 -20 0
-124 -51 -124 -61 0 -4 21 -9 46 -13 25 -3 58 -15 74 -26 15 -11 41 -20 57
-20 34 0 60 -24 65 -59 2 -20 12 -27 48 -35 38 -9 48 -17 63 -50 10 -22 28
-47 39 -56 20 -16 20 -17 -37 -68 -48 -42 -55 -53 -41 -58 12 -4 28 3 49 22
81 74 78 73 253 68 88 -3 170 -9 184 -14 14 -5 111 -14 215 -20 219 -14 264
-24 433 -101 24 -11 72 -25 106 -30 33 -6 64 -13 68 -18 5 -4 -10 -25 -32 -46
-22 -21 -40 -43 -40 -47 0 -13 -251 -272 -425 -440 -48 -46 -52 -48 -78 -36
-21 10 -26 18 -22 33 4 11 9 31 12 45 2 14 9 35 16 48 8 18 7 25 -6 35 -9 6
-23 28 -31 47 -8 20 -36 56 -63 81 -44 42 -55 46 -113 52 -79 9 -119 -5 -149
-49 -18 -26 -22 -43 -19 -81 2 -26 6 -55 9 -63 3 -12 -4 -14 -31 -13 -75 6
-91 20 -145 130 -32 65 -46 77 -69 60 -17 -13 -17 -16 0 -65 10 -29 24 -52 31
-52 6 0 14 -8 18 -19 3 -10 14 -26 25 -36 11 -10 20 -26 20 -36 0 -23 -45 -76
-80 -94 -38 -20 -69 -86 -63 -133 4 -29 0 -41 -16 -56 -29 -26 -27 -33 16 -53
55 -26 54 -47 -4 -77 -64 -34 -83 -50 -83 -70 0 -18 15 -22 25 -6 4 6 25 22
47 36 l40 25 34 -26 c36 -28 42 -46 21 -64 -8 -6 -19 -35 -26 -64 -15 -69 -5
-96 60 -159 42 -41 56 -48 87 -48 100 1 121 6 151 34 17 16 30 32 29 35 -2 19
4 32 24 50 18 17 20 25 11 43 -15 30 -24 108 -13 108 23 0 60 -21 60 -35 0 -8
7 -15 15 -15 11 0 15 -11 15 -36 0 -29 8 -44 38 -74 64 -65 90 -139 97 -285 2
-49 7 -145 10 -212 l6 -122 -25 -7 c-15 -4 -33 0 -47 10 -30 21 -59 5 -59 -34
0 -26 -5 -30 -54 -44 -30 -9 -67 -16 -83 -16 -16 0 -33 -4 -38 -9 -6 -5 -35
-14 -65 -19 -50 -10 -114 -25 -225 -54 -67 -17 -163 -17 -170 0 -4 10 -15 13
-38 9 -168 -27 -213 -28 -229 -3 -5 7 -16 5 -37 -7 -16 -9 -39 -17 -50 -17
-30 0 -26 -16 7 -26 23 -6 24 -8 7 -12 -11 -2 -27 -10 -36 -18 -10 -9 -46 -16
-92 -18 -52 -3 -97 -13 -144 -32 -95 -38 -145 -42 -172 -15 -26 26 -52 27 -81
3 -17 -14 -21 -24 -15 -41 4 -15 10 -19 18 -13 24 19 73 24 86 8 19 -22 90
-54 139 -62 31 -5 47 -3 60 9 9 8 46 27 81 41 35 14 83 44 107 66 24 22 47 40
51 40 5 0 14 -9 21 -20 11 -19 19 -20 75 -14 34 3 85 12 112 19 28 8 75 17
105 21 30 3 68 13 83 21 15 7 32 11 36 8 5 -3 48 4 95 15 47 11 120 22 161 25
77 6 105 11 225 40 36 8 85 19 109 24 24 5 48 16 53 24 4 9 29 19 53 23 34 5
45 11 45 25 0 10 -5 21 -11 25 -8 5 -10 45 -7 133 3 70 2 149 -2 175 -4 27 -5
57 -2 68 6 24 37 23 69 -2 14 -11 33 -20 43 -20 25 0 60 -43 60 -74 0 -15 11
-46 24 -69 14 -23 41 -77 60 -119 l35 -78 -21 -20 c-17 -15 -19 -23 -10 -32 9
-9 13 -7 18 5 11 29 31 19 48 -23 9 -22 16 -46 16 -54 0 -27 -42 -66 -83 -76
-23 -6 -58 -18 -77 -27 -19 -8 -48 -19 -65 -24 -16 -4 -70 -22 -120 -39 -107
-37 -211 -65 -280 -75 -27 -4 -74 -13 -103 -21 -29 -7 -65 -11 -80 -8 -35 6
-124 -18 -130 -35 -4 -11 1 -12 19 -7 61 19 69 19 69 0 0 -45 -49 -119 -134
-204 -82 -83 -95 -108 -39 -77 26 15 133 115 133 126 0 4 15 22 34 40 19 19
40 46 46 62 16 37 61 57 183 79 56 10 127 26 157 36 30 9 66 17 80 18 13 0 34
10 46 21 23 21 177 85 205 85 9 0 28 9 42 20 22 18 29 19 47 8 11 -7 20 -16
20 -20 0 -5 9 -8 21 -8 16 0 19 4 14 20 -4 14 -2 20 8 20 13 0 120 59 135 75
3 2 -2 13 -10 22 -23 26 -198 360 -198 378 0 29 262 -41 318 -85 13 -11 32
-20 41 -20 10 0 35 -13 57 -29 22 -16 53 -33 69 -37 31 -8 90 -37 90 -45 0
-18 -80 -133 -133 -192 -35 -38 -71 -86 -82 -106 -10 -20 -33 -49 -50 -66 -39
-37 -113 -133 -135 -175 -9 -17 -37 -63 -63 -101 -26 -39 -56 -85 -66 -102
-11 -18 -34 -51 -53 -74 -18 -23 -33 -44 -33 -48 0 -4 -15 -30 -34 -58 -45
-69 -178 -303 -256 -452 -34 -66 -85 -163 -112 -215 -28 -52 -69 -120 -91
-150 -44 -58 -59 -85 -127 -220 -23 -47 -48 -92 -55 -100 -7 -8 -23 -44 -36
-80 -21 -59 -36 -77 -155 -196 -72 -72 -139 -147 -148 -166 -16 -33 -62 -89
-199 -243 -57 -64 -127 -159 -127 -173 0 -5 -9 -17 -20 -27 -11 -10 -20 -24
-20 -30 0 -7 -27 -42 -60 -78 -33 -36 -60 -69 -60 -73 0 -5 -11 -20 -25 -34
-14 -14 -49 -61 -77 -105 -28 -44 -71 -100 -95 -125 -23 -25 -43 -49 -43 -55
0 -20 -63 -135 -98 -178 -12 -16 -22 -37 -22 -47 0 -9 -7 -23 -15 -30 -8 -6
-17 -22 -20 -33 -14 -47 -71 -157 -82 -157 -6 0 -9 -9 -6 -20 7 -25 -15 -81
-39 -98 -10 -7 -18 -20 -18 -28 0 -8 -4 -22 -9 -32 -15 -30 -28 -66 -41 -112
-7 -25 -16 -54 -21 -65 -13 -31 -49 -190 -49 -216 0 -48 -34 -234 -44 -241 -6
-4 -10 -51 -10 -116 0 -92 4 -116 23 -155 24 -50 63 -87 90 -87 9 0 32 -10 51
-23 89 -59 302 -78 425 -38 39 12 78 22 88 22 21 0 22 12 1 30 -14 11 -13 15
7 30 20 15 27 15 49 4 21 -11 32 -11 63 0 39 13 130 67 234 139 165 113 602
513 664 607 21 33 94 134 195 272 20 27 34 50 32 51 -2 1 -23 9 -47 17 -47 16
-74 48 -30 35 78 -24 88 -24 94 -5 4 11 10 19 14 19 13 0 54 69 79 129 16 39
19 57 11 67 -8 9 -5 15 11 24 29 16 64 74 100 171 40 106 82 199 90 199 3 0 6
17 6 39 1 22 16 70 37 112 56 114 109 260 103 283 -3 12 2 29 12 41 26 29 55
101 107 268 26 82 48 156 51 165 2 9 10 45 19 78 8 34 22 74 30 90 8 16 15 37
15 46 0 9 4 19 9 22 5 4 12 30 16 59 3 28 17 90 31 137 14 47 30 102 37 124 6
21 16 44 22 50 5 6 11 27 13 46 1 19 9 55 17 80 8 25 24 86 36 135 12 50 27
101 34 115 6 14 18 48 24 75 7 28 17 59 21 70 8 20 13 39 50 181 10 39 22 80
28 90 5 11 13 39 17 64 10 62 35 122 49 117 6 -2 10 -13 9 -23 -1 -10 -4 -41
-7 -69 -6 -68 -43 -266 -63 -340 -9 -33 -19 -107 -23 -165 -4 -58 -17 -152
-29 -210 -12 -58 -30 -159 -41 -225 -10 -66 -26 -151 -34 -190 -9 -38 -21 -96
-28 -127 -7 -32 -16 -58 -20 -58 -4 0 -8 -16 -8 -35 0 -19 -4 -35 -10 -35 -5
0 -7 -12 -4 -27 5 -29 -25 -234 -69 -473 -17 -89 -56 -197 -95 -260 -30 -48
-42 -79 -62 -150 -7 -25 -23 -69 -36 -98 -13 -29 -24 -55 -24 -58 0 -5 -38
-97 -70 -169 -5 -11 -12 -36 -16 -55 -3 -19 -10 -40 -15 -46 -5 -6 -13 -35
-19 -65 -5 -30 -14 -63 -19 -74 -5 -11 -22 -56 -37 -100 -15 -44 -31 -84 -34
-90 -4 -5 -15 -39 -24 -75 -9 -36 -25 -90 -37 -120 -11 -30 -25 -99 -30 -154
-5 -54 -13 -106 -18 -115 -10 -19 -3 -44 10 -35 5 3 9 -10 9 -29 0 -31 -2 -34
-24 -30 -24 5 -25 3 -23 -43 2 -42 5 -49 22 -49 15 0 19 -6 18 -22 -2 -19 2
-23 23 -23 19 0 25 -4 22 -17 -2 -10 6 -26 17 -35 20 -17 19 -17 -17 -18 -27
0 -38 4 -38 15 0 9 -9 15 -23 15 -13 0 -28 5 -35 12 -9 9 -12 8 -16 -3 -12
-40 -26 -112 -36 -179 -6 -41 -17 -106 -25 -145 -31 -151 -33 -171 -16 -249 9
-41 19 -78 24 -82 4 -4 7 -14 7 -22 0 -21 98 -248 127 -294 29 -48 93 -91 168
-113 33 -10 87 -26 119 -37 59 -18 60 -18 125 4 36 12 70 28 74 35 4 7 21 20
37 28 23 12 34 13 55 3 29 -13 52 -3 134 60 25 18 52 31 60 29 43 -12 45 -12
47 13 1 13 9 29 19 35 82 47 186 160 270 294 6 9 22 34 36 56 14 22 39 65 54
95 16 30 41 73 56 95 42 64 67 118 113 248 24 67 53 144 65 170 12 27 21 64
21 83 0 19 6 47 14 62 7 15 25 90 40 167 15 77 31 156 36 175 4 19 14 62 20
95 6 33 18 87 27 120 18 73 62 358 73 475 13 142 32 681 27 776 -8 147 -75
603 -100 674 -18 54 -39 171 -63 350 -25 198 -28 216 -54 355 -7 33 -12 67
-12 75 0 8 -4 24 -9 35 -5 11 -13 45 -19 75 -19 107 -34 170 -41 170 -4 0 -9
-13 -12 -29 l-6 -29 -60 32 c-33 17 -66 42 -73 55 -19 35 -15 107 7 131 30 33
45 9 45 -71 0 -65 10 -93 26 -67 4 6 6 34 5 61 -3 63 16 60 37 -6 16 -52 48
-68 38 -20 -3 16 -8 51 -12 78 -3 28 -15 72 -27 98 -29 69 -13 78 54 34 30
-19 81 -58 114 -85 33 -28 92 -76 131 -106 38 -30 116 -97 171 -150 55 -53
106 -96 113 -96 6 0 47 -34 90 -75 43 -41 84 -75 90 -75 6 0 58 -46 116 -102
74 -72 104 -108 104 -125 0 -28 49 -128 83 -169 13 -16 29 -39 36 -52 6 -12
16 -22 21 -22 16 0 11 50 -5 56 -19 8 -81 131 -71 141 4 4 18 -7 32 -25 14
-18 32 -32 40 -32 16 0 19 16 4 25 -5 3 -10 15 -10 25 0 10 -4 20 -8 22 -12 5
-68 92 -74 116 -4 12 -2 22 3 22 5 0 8 10 8 23 -1 16 -2 18 -6 5 -6 -23 -24
-23 -44 0 -20 22 -194 182 -235 216 -18 14 -37 26 -43 26 -6 0 -11 4 -11 9 0
11 -114 81 -132 81 -26 0 -60 41 -54 64 5 19 -1 24 -39 35 -53 16 -73 35 -56
55 14 17 -2 33 -41 40 -43 7 -88 36 -98 61 -6 15 -27 33 -53 45 -54 25 -95 66
-81 80 5 5 34 13 64 18 l55 8 -55 21 c-30 11 -81 24 -112 27 -32 4 -58 10 -58
14 0 4 -18 16 -41 26 -35 17 -42 18 -49 5 -5 -7 -7 -22 -4 -31 9 -30 -13 -20
-43 19 -19 25 -24 38 -15 41 14 4 7 67 -9 88 -6 7 -3 16 6 24 11 9 14 22 9 43
-5 22 -3 28 7 25 15 -5 27 -59 28 -120 1 -25 6 -38 15 -38 17 0 27 46 16 74
-4 12 -16 64 -25 116 -9 52 -23 114 -31 138 -16 48 -9 126 10 115 6 -4 31 -10
56 -14 25 -3 53 -10 63 -14 12 -5 17 -3 17 9 0 21 12 20 63 -3 23 -10 58 -24
77 -32 49 -20 311 -152 395 -199 107 -60 131 -66 164 -42 l28 20 59 -30 c32
-17 73 -40 89 -52 30 -21 69 -44 115 -67 14 -7 41 -26 61 -41 20 -15 40 -28
43 -28 4 0 40 -24 79 -54 40 -29 84 -59 97 -66 14 -7 34 -20 45 -30 11 -10 47
-32 80 -49 32 -18 66 -38 75 -45 8 -7 85 -56 170 -109 85 -53 172 -112 194
-132 21 -19 46 -35 56 -35 10 0 23 -7 30 -15 7 -8 17 -15 22 -15 5 0 42 -26
81 -58 103 -83 165 -120 225 -133 29 -6 61 -18 70 -28 129 -128 584 -421 712
-459 81 -24 145 -51 156 -67 7 -9 15 -16 18 -16 3 1 7 1 9 0 1 0 12 -2 24 -3
13 -2 31 -10 40 -19 10 -8 29 -20 43 -26 14 -6 50 -29 80 -52 206 -152 462
-293 526 -291 18 1 39 -4 46 -11 20 -20 139 -77 159 -77 10 0 21 -5 24 -10 9
-14 150 -84 200 -99 35 -11 133 -55 217 -98 14 -7 31 -13 38 -13 6 0 32 -9 57
-21 30 -14 71 -22 122 -24 91 -3 149 -13 176 -31 11 -7 49 -22 85 -34 36 -12
90 -32 120 -45 127 -53 217 -88 245 -96 17 -4 48 -14 70 -23 22 -8 59 -15 81
-16 30 0 51 -8 79 -30 20 -16 41 -27 46 -25 4 3 10 1 14 -5 3 -5 23 -10 43
-11 20 -1 48 -4 62 -8 22 -6 101 3 250 27 32 6 59 6 65 1 22 -21 144 2 153 29
2 7 -2 12 -9 12 -18 0 -123 51 -131 64 -9 14 53 52 101 61 20 3 59 20 88 37
l52 32 -32 31 c-38 36 -126 70 -162 61 -28 -7 -79 16 -158 70 -27 19 -55 34
-62 34 -7 0 -23 8 -36 19 -13 10 -55 28 -94 41 -71 23 -90 28 -225 54 -41 8
-136 26 -210 41 -74 15 -162 31 -195 36 -71 10 -325 75 -375 96 -19 8 -44 18
-55 23 -100 41 -134 53 -182 60 -32 5 -61 17 -68 26 -7 10 -14 13 -18 7 -4 -7
-33 -4 -84 8 -43 10 -112 23 -153 30 -41 7 -106 20 -144 29 -61 15 -71 21 -85
50 -12 25 -35 43 -90 72 -40 21 -79 38 -85 38 -6 0 -23 6 -38 14 -15 8 -40 17
-57 21 -17 4 -33 10 -36 15 -3 4 -24 18 -47 30 -23 12 -58 35 -77 51 -20 16
-43 29 -53 29 -9 0 -20 5 -23 10 -3 6 -13 10 -21 10 -14 0 -71 26 -159 74 -27
14 -71 51 -98 81 -38 43 -68 64 -145 101 -190 90 -322 158 -322 166 0 4 -6 8
-12 8 -7 0 -44 23 -83 50 -38 27 -86 58 -105 69 -19 11 -62 43 -95 71 -33 28
-73 58 -90 67 -48 25 -74 54 -81 90 -4 21 -12 33 -23 33 -9 0 -40 15 -70 33
-29 17 -70 41 -90 52 -20 11 -54 32 -76 47 -23 14 -68 40 -100 57 -146 78
-168 91 -198 113 -18 14 -39 28 -47 31 -40 19 -75 46 -72 57 5 21 -16 36 -126
90 -59 30 -119 62 -134 72 -14 10 -31 18 -38 18 -12 0 -111 43 -150 65 -14 8
-41 22 -60 30 -45 21 -226 110 -265 132 -16 9 -37 19 -45 23 -8 4 -17 15 -18
25 -5 24 -68 78 -106 90 -62 21 -161 70 -187 91 -8 8 -24 14 -33 14 -20 0 -41
9 -193 81 -55 26 -108 58 -117 71 -21 29 -20 58 1 73 17 12 17 14 -1 34 -23
26 -12 42 48 72 69 34 89 47 98 63 10 18 40 21 68 6 13 -7 26 -5 47 5 32 17
135 20 163 5 14 -8 21 -6 28 5 7 14 21 15 108 6 98 -10 164 -26 164 -40 0 -4
-6 -13 -12 -19 -10 -10 -6 -12 19 -10 24 2 37 -4 53 -24 43 -55 76 -67 178
-62 79 4 92 2 92 -12 0 -11 8 -14 32 -12 29 3 54 28 28 28 -24 0 -145 63 -130
68 8 3 18 10 22 16 6 8 8 8 8 -1 0 -6 13 -14 29 -18 16 -3 73 -28 126 -56 54
-27 100 -47 103 -44 3 3 -3 14 -14 26 l-19 21 34 -7 c29 -6 33 -5 28 9 -9 24
2 25 87 10 60 -10 94 -23 144 -54 36 -23 71 -39 79 -36 21 8 7 23 -27 31 -31
7 -40 29 -17 38 21 8 70 -5 90 -23 19 -18 60 -30 102 -30 18 0 22 4 18 20 -3
11 -3 20 0 20 14 0 57 -24 57 -32 0 -4 11 -8 24 -8 16 0 23 5 22 17 0 10 9 20
24 24 l25 7 -22 7 c-25 8 -30 27 -10 42 6 5 39 20 72 32 33 12 76 31 96 41 39
21 151 42 174 34 12 -5 95 60 95 75 0 11 -59 4 -73 -8 -7 -5 -32 -13 -55 -17
-23 -4 -45 -11 -48 -15 -3 -5 -29 -9 -58 -9 -36 0 -58 -5 -67 -16 -17 -20 -61
-43 -119 -60 -26 -8 -53 -21 -60 -29 -7 -8 -29 -15 -49 -15 -20 0 -42 -5 -48
-11 -9 -9 -23 -9 -55 -1 -46 13 -162 30 -243 38 -91 8 -318 35 -467 55 -143
19 -204 38 -215 65 -4 11 -52 13 -249 12 -134 -1 -247 2 -251 6 -8 8 102 117
196 196 54 45 146 137 237 239 64 72 241 246 328 324 104 93 259 241 361 343
99 100 259 243 324 288 22 16 43 38 46 47 4 10 15 21 25 24 11 4 36 34 56 68
20 34 48 74 62 88 43 41 63 69 57 79 -11 18 -26 10 -37 -20 -5 -17 -19 -35
-29 -41 -17 -9 -19 -6 -19 29 0 27 9 50 30 78 33 44 36 54 16 54 -7 0 -21 11
-30 25 -16 24 -16 25 7 25 29 0 63 -37 71 -80 5 -25 36 -41 36 -18 0 6 23 35
50 64 28 29 50 57 50 63 0 12 57 98 70 106 5 3 30 44 55 90 25 46 57 94 70
107 14 13 25 31 25 41 0 24 68 157 80 157 6 0 10 8 10 17 0 21 85 215 117 265
12 20 27 58 33 84 6 25 17 53 25 61 8 8 15 25 15 37 0 22 25 93 56 161 16 35
54 184 54 213 0 11 7 22 15 26 8 3 15 14 15 25 0 11 11 55 24 98 13 43 27 95
30 115 4 20 11 38 17 40 5 2 12 24 14 48 2 25 9 61 15 80 6 19 13 107 16 195
3 91 10 165 16 172 7 9 7 17 -3 29 -10 12 -10 22 -1 48 9 24 11 88 7 217 -8
275 -10 297 -39 382 -14 42 -26 84 -26 92 0 14 -20 66 -46 118 -8 16 -14 35
-14 43 0 7 -18 51 -39 96 -21 46 -42 93 -45 104 -4 12 -15 29 -26 39 -20 18
-26 40 -12 48 4 2 1 2 -6 1 -7 -2 -27 17 -44 41 -18 25 -36 45 -41 45 -5 0
-39 25 -75 55 -67 55 -116 76 -212 90 -60 9 -209 -11 -230 -30 -9 -8 -24 -15
-33 -15 -23 0 -85 -57 -102 -94 -8 -17 -19 -38 -23 -46 -5 -8 -21 -40 -35 -70
-38 -85 -95 -200 -126 -256 -16 -30 -33 -84 -41 -130 -7 -44 -16 -83 -20 -89
-4 -5 -11 -32 -14 -58 -4 -26 -14 -63 -22 -82 -8 -19 -14 -45 -14 -59 0 -13
-6 -26 -14 -29 -7 -3 -16 -16 -19 -29 -3 -13 -13 -48 -22 -78 -9 -30 -20 -86
-25 -125 -5 -38 -14 -97 -19 -130 -6 -33 -15 -105 -21 -160 -6 -55 -16 -125
-23 -155 -6 -30 -12 -65 -13 -76 -1 -20 -12 -69 -44 -204 -18 -73 -27 -103
-40 -135 -7 -16 -12 -42 -11 -58 2 -15 -6 -58 -17 -95 -40 -137 -94 -329 -107
-382 -7 -30 -18 -73 -24 -95 -6 -22 -11 -57 -11 -78 0 -21 -11 -59 -24 -85
-13 -26 -27 -70 -32 -97 -8 -58 -39 -119 -87 -176 -19 -22 -43 -64 -52 -92 -9
-29 -26 -61 -36 -73 -23 -25 -79 -130 -79 -148 0 -7 -9 -21 -20 -31 -11 -10
-20 -24 -20 -32 0 -8 -8 -26 -18 -41 -36 -52 -69 -107 -93 -154 -26 -53 -45
-63 -35 -20 3 15 9 43 12 62 4 19 16 46 28 60 26 30 51 82 61 130 4 19 13 42
20 50 7 8 15 26 18 40 9 39 102 304 122 346 9 20 20 55 23 78 3 23 11 46 17
51 12 9 31 66 55 163 6 24 18 46 26 49 16 6 19 30 4 35 -5 2 0 23 10 47 11 24
20 49 20 57 0 8 3 14 8 14 4 0 8 19 8 43 2 45 27 228 44 317 6 30 15 82 20
115 5 33 16 96 25 140 9 44 24 136 35 205 11 69 24 143 29 165 10 40 36 347
47 565 5 89 3 127 -9 166 -10 34 -14 74 -10 116 2 37 -2 102 -12 154 -9 49
-21 118 -26 154 -6 36 -17 79 -25 97 -8 17 -14 39 -14 49 0 9 -11 40 -24 68
-13 28 -32 71 -42 96 -9 25 -28 69 -41 99 -14 29 -31 71 -38 91 -8 21 -30 62
-49 90 -20 29 -36 56 -36 62 0 21 -92 148 -133 184 -40 35 -134 81 -179 88
-10 1 -21 5 -24 9 -14 13 -91 7 -104 -8z"/>
<path d="M1220 7760 c-10 -18 -8 -20 20 -20 34 0 39 14 10 30 -15 8 -21 6 -30
-10z"/>
<path d="M5200 6421 c30 -25 40 -26 40 -6 0 8 -6 15 -14 15 -8 0 -23 3 -33 6
-13 4 -11 0 7 -15z"/>
<path d="M9990 3100 c0 -5 5 -10 10 -10 6 0 10 5 10 10 0 6 -4 10 -10 10 -5 0
-10 -4 -10 -10z"/>
<path d="M2180 1329 c0 -5 5 -7 10 -4 6 3 10 8 10 11 0 2 -4 4 -10 4 -5 0 -10
-5 -10 -11z"/>
<path d="M2215 1330 c3 -5 8 -10 11 -10 2 0 4 5 4 10 0 6 -5 10 -11 10 -5 0
-7 -4 -4 -10z"/>
</g>
</svg>
