<?xml version="1.0" standalone="no"?>
<!DOCTYPE svg PUBLIC "-//W3C//DTD SVG 20010904//EN"
 "http://www.w3.org/TR/2001/REC-SVG-20010904/DTD/svg10.dtd">
<svg version="1.0" xmlns="http://www.w3.org/2000/svg"
 width="1280.000000pt" height="1238.000000pt" viewBox="0 0 1280.000000 1238.000000"
 preserveAspectRatio="xMidYMid meet">
<metadata>
Created by potrace 1.15, written by Peter Selinger 2001-2017
</metadata>
<g transform="translate(0.000000,1238.000000) scale(0.100000,-0.100000)"
fill="#000000" stroke="none">
<path d="M9890 12359 c-41 -11 -118 -28 -172 -39 -53 -10 -109 -25 -125 -33
-33 -18 -161 -51 -257 -68 -38 -6 -92 -20 -120 -31 -28 -10 -93 -25 -143 -33
-51 -8 -135 -29 -187 -45 -52 -17 -166 -44 -253 -60 -87 -16 -275 -51 -419
-79 -511 -98 -839 -131 -1097 -112 -75 6 -155 15 -179 20 -24 6 -110 15 -192
21 -81 6 -152 13 -157 16 -5 3 -112 5 -237 4 -125 0 -251 4 -280 10 -30 5
-102 12 -160 14 -146 6 -337 34 -394 57 -25 10 -53 17 -60 14 -15 -6 -73 52
-173 174 -109 133 -117 141 -140 147 -27 7 -113 -28 -121 -50 -5 -12 -10 -13
-39 0 -36 15 -152 19 -172 6 -6 -4 -13 -21 -15 -37 -3 -29 -6 -30 -60 -36 -91
-10 -148 -62 -152 -137 -1 -46 -14 -50 -161 -51 -146 -2 -286 -17 -296 -32 -5
-9 -11 -10 -21 -2 -13 10 -159 35 -178 30 -6 -1 -21 23 -34 54 -34 85 -62 124
-101 145 -36 19 -36 19 -72 -2 -42 -24 -65 -82 -61 -149 3 -38 2 -40 -27 -40
-26 0 -33 6 -56 54 -34 71 -59 91 -118 91 -37 0 -52 -5 -68 -22 -34 -38 -53
-73 -55 -102 -2 -19 -10 -31 -26 -37 -37 -14 -42 -12 -61 34 -22 50 -52 67
-119 67 -56 0 -83 -17 -117 -71 -25 -38 -26 -38 -77 -34 -222 19 -944 10
-1178 -14 -157 -17 -357 -30 -505 -35 -102 -3 -196 -14 -345 -40 -113 -20
-230 -36 -261 -36 -31 0 -82 -9 -115 -21 -38 -13 -73 -19 -98 -15 -21 2 -50 0
-65 -6 -14 -5 -82 -15 -151 -23 -168 -18 -180 -23 -180 -78 0 -24 -5 -48 -10
-53 -18 -18 28 -63 103 -101 l71 -35 -27 -24 c-16 -13 -35 -24 -43 -24 -11 0
-14 -9 -12 -32 3 -30 10 -36 67 -65 l64 -31 -82 -86 c-98 -102 -104 -128 -32
-136 25 -3 46 -10 48 -16 2 -7 -19 -29 -46 -51 -85 -68 -121 -122 -121 -180 0
-15 -6 -42 -12 -61 -11 -30 -11 -35 7 -48 30 -22 73 -16 165 22 155 65 267
103 351 119 46 9 120 27 164 40 93 27 164 39 370 61 82 8 152 17 156 20 11 6
276 36 399 44 63 4 187 17 275 28 138 19 332 44 560 72 33 4 91 15 129 24 38
8 105 18 150 21 45 3 142 9 216 15 284 20 455 23 468 7 7 -8 23 -57 36 -110
14 -53 34 -117 45 -143 13 -28 21 -68 21 -100 0 -29 5 -65 10 -80 10 -24 7
-31 -21 -60 -43 -44 -137 -84 -223 -95 -39 -5 -111 -21 -159 -36 l-88 -26 -90
96 c-139 147 -225 197 -377 216 -66 8 -86 8 -109 -4 -15 -8 -35 -15 -43 -15
-31 0 -82 -57 -123 -135 l-42 -80 -47 -3 c-26 -2 -56 2 -66 7 -14 8 -44 4
-113 -15 -110 -30 -147 -59 -168 -131 -8 -27 -31 -102 -52 -168 -20 -66 -40
-136 -44 -155 -4 -19 -30 -86 -56 -149 -27 -63 -56 -142 -65 -175 -22 -83 -75
-217 -145 -362 -33 -67 -59 -125 -59 -129 0 -4 -21 -41 -46 -81 -27 -44 -47
-87 -48 -106 l-1 -33 45 3 c28 2 62 15 90 32 25 15 83 47 130 70 l85 42 0 42
c0 34 8 53 48 105 38 51 47 70 42 91 -5 21 1 31 31 55 75 61 74 59 74 140 0
62 4 79 20 95 11 11 20 33 20 50 0 16 13 51 30 77 54 84 36 113 -68 113 -92 0
-94 8 -48 149 21 64 47 139 57 166 10 28 23 69 29 92 10 39 14 43 79 68 56 22
81 27 130 23 34 -2 65 -9 70 -14 10 -9 -4 -94 -80 -489 -53 -279 -96 -462
-119 -505 -32 -62 -58 -163 -47 -187 21 -47 53 -37 169 52 38 29 81 70 95 91
15 22 34 44 43 51 11 8 15 22 13 40 -3 21 4 38 30 68 45 52 53 80 33 110 -20
31 -20 69 -1 85 9 7 15 29 15 54 0 23 7 51 15 62 19 25 19 74 0 101 -17 24
-15 36 17 143 l19 65 -26 23 c-17 14 -39 22 -64 22 -42 0 -51 11 -51 60 0 23
24 96 35 108 2 2 45 -29 95 -68 51 -39 127 -90 171 -111 85 -44 126 -90 116
-132 -36 -144 -39 -166 -34 -322 3 -152 5 -163 31 -213 16 -29 32 -55 37 -58
5 -3 9 -23 9 -46 0 -22 12 -73 26 -114 l27 -74 -12 -163 c-6 -89 -18 -193 -27
-232 -9 -38 -18 -83 -21 -100 -3 -16 -17 -45 -31 -64 -13 -18 -33 -55 -43 -82
-32 -84 -21 -286 18 -324 18 -18 62 -19 128 -1 47 12 53 11 97 -10 70 -35 235
-99 304 -119 l61 -17 115 31 c63 17 129 31 147 31 51 0 151 29 201 58 25 14
63 36 85 47 22 12 67 38 99 58 33 20 63 37 67 37 13 0 42 -104 45 -163 2 -32
-3 -75 -11 -98 -17 -48 -20 -211 -5 -240 15 -27 83 -59 128 -59 48 0 114 42
139 87 20 38 213 170 343 235 87 44 85 44 268 -13 68 -22 130 -39 137 -39 20
0 19 -7 -5 -40 -29 -41 -70 -133 -86 -193 -30 -112 -8 -204 66 -278 27 -27 61
-54 75 -59 36 -14 32 -25 -22 -61 -161 -110 -355 -293 -450 -425 -178 -247
-251 -369 -303 -504 -11 -30 -28 -69 -36 -85 -16 -30 -16 -32 25 -90 22 -32
41 -63 40 -69 0 -10 -126 -107 -148 -114 -6 -2 -11 -14 -11 -26 0 -12 -18 -76
-40 -142 -40 -119 -115 -409 -144 -558 -19 -93 -20 -136 -5 -186 10 -33 9 -41
-14 -76 -19 -30 -26 -57 -30 -119 -3 -44 -20 -152 -37 -240 -26 -129 -33 -193
-37 -332 l-4 -171 35 -29 c20 -15 36 -33 36 -40 0 -7 -11 -29 -25 -49 -32 -47
-33 -116 -5 -272 12 -62 20 -137 18 -168 l-3 -55 -350 -118 c-498 -169 -716
-246 -756 -267 -19 -10 -39 -19 -45 -19 -6 0 -22 -5 -35 -11 -53 -25 -166 -73
-189 -80 -14 -4 -77 -8 -141 -8 -113 -1 -117 -2 -193 -39 -89 -44 -127 -91
-147 -181 -11 -49 -9 -56 15 -108 34 -71 94 -140 143 -162 26 -11 43 -28 51
-49 8 -18 16 -37 20 -43 45 -70 89 -134 107 -154 13 -14 64 -92 115 -175 51
-82 112 -177 135 -210 23 -33 47 -76 54 -95 13 -42 46 -92 122 -186 31 -38 77
-110 103 -161 25 -50 50 -94 56 -98 6 -4 23 -35 39 -70 16 -35 43 -84 60 -109
56 -81 141 -267 148 -323 5 -45 2 -58 -22 -100 -51 -89 -97 -144 -154 -185
-31 -23 -81 -65 -112 -93 -31 -28 -74 -60 -95 -69 -22 -10 -52 -31 -69 -46
-56 -52 -159 -116 -320 -197 -321 -162 -540 -253 -608 -253 -39 0 -97 -26 -97
-44 0 -25 12 -46 31 -56 27 -15 114 -31 191 -35 37 -3 118 -12 180 -21 169
-24 265 -4 293 63 l14 33 83 0 c91 0 102 4 112 38 11 33 51 49 146 55 47 3 92
8 101 11 9 4 22 28 30 54 13 44 17 47 54 54 22 4 68 7 103 7 107 1 149 32 144
106 -1 25 14 35 58 35 19 0 52 5 72 10 35 10 38 14 44 60 7 54 16 60 91 60 58
0 73 32 49 106 -5 16 0 23 19 32 14 7 34 12 44 12 21 0 66 46 80 82 6 15 15
56 21 91 11 58 10 67 -9 98 -12 19 -21 45 -21 60 0 23 -170 307 -280 469 -25
36 -66 108 -92 160 -26 52 -79 138 -119 190 -41 55 -80 118 -91 150 -11 30
-34 71 -52 90 -18 19 -52 69 -76 110 -23 41 -82 129 -130 195 -48 66 -97 139
-108 161 -12 23 -62 97 -112 164 -109 146 -111 150 -74 150 16 0 63 7 104 15
41 8 179 19 305 26 127 6 284 19 350 30 119 20 173 27 397 54 84 10 154 27
250 59 73 25 160 48 194 51 58 7 62 6 82 -20 41 -51 266 -248 302 -263 19 -8
47 -23 62 -34 15 -10 56 -34 90 -51 35 -18 97 -52 138 -75 68 -37 99 -46 300
-87 257 -53 394 -64 547 -46 134 17 308 50 349 67 19 8 94 30 167 50 144 38
280 95 370 156 32 22 73 42 92 45 34 5 34 5 68 -63 65 -132 157 -296 182 -326
14 -17 35 -48 45 -68 11 -21 46 -71 78 -112 33 -41 72 -94 88 -119 15 -24 37
-54 48 -67 16 -18 20 -37 21 -90 0 -116 42 -153 189 -162 93 -6 92 -6 136 -69
9 -13 25 -21 43 -21 58 0 110 -31 300 -183 143 -112 337 -238 495 -319 142
-74 237 -143 253 -186 19 -49 -59 -267 -156 -436 -26 -45 -90 -145 -142 -223
-87 -132 -107 -154 -266 -303 -95 -88 -196 -178 -226 -200 l-53 -40 38 0 c22
0 66 -7 99 -15 122 -29 278 -16 375 33 43 21 56 33 62 58 6 22 22 39 59 62 27
18 57 32 64 32 19 0 56 41 54 60 -5 54 0 59 91 105 50 25 93 51 96 59 3 7 1
31 -4 54 -8 36 -7 43 12 60 11 11 31 23 43 26 12 4 33 20 46 36 19 22 23 37
20 68 -3 35 0 43 29 67 18 15 42 32 55 38 27 12 37 51 24 94 -8 29 -6 35 18
56 16 13 42 29 60 36 17 8 31 18 31 23 0 5 -18 26 -40 45 -22 20 -40 41 -40
46 0 6 19 34 41 63 69 90 85 164 50 232 -33 64 -100 116 -196 152 -106 39
-119 45 -165 72 -25 15 -66 36 -92 48 -26 11 -96 53 -155 94 -60 40 -129 81
-156 91 -26 10 -47 22 -47 26 0 5 -27 22 -60 39 -33 17 -60 34 -60 39 0 5 -62
43 -138 85 -75 42 -162 95 -192 118 -30 22 -78 52 -107 64 l-53 24 0 52 c0 72
-16 100 -68 116 -24 8 -50 25 -60 40 -35 50 -166 393 -188 490 -15 68 -90 321
-125 423 -23 69 -23 66 1 72 13 3 30 27 46 64 14 32 33 66 41 75 10 12 18 45
21 92 4 63 1 80 -16 110 -20 34 -20 37 -5 78 21 55 31 68 53 68 32 0 130 255
130 340 0 12 8 54 17 92 14 60 15 81 5 151 -8 52 -17 84 -27 90 -8 4 -22 22
-31 38 -8 17 -23 38 -34 49 -18 18 -16 20 40 83 65 74 84 119 77 180 -3 23 2
128 10 232 25 325 9 429 -85 527 -55 58 -55 58 -36 79 26 29 32 169 11 236
-34 103 -61 228 -92 413 -24 143 -111 370 -142 370 -11 0 -88 41 -142 77 -2 1
6 17 18 36 22 36 28 93 11 99 -5 2 -26 59 -46 127 -40 140 -60 186 -108 239
-18 20 -45 60 -61 87 -46 81 -102 142 -218 237 -164 134 -264 196 -339 213
-16 3 -28 11 -28 17 0 6 17 46 37 87 36 72 38 81 38 176 0 94 -2 105 -33 168
-25 49 -48 79 -90 113 -31 26 -64 49 -72 52 -8 3 -44 18 -78 33 l-64 29 21 26
c12 15 21 31 21 37 0 6 17 33 39 61 47 63 76 120 86 166 3 19 18 69 32 110 21
64 26 107 36 287 11 212 11 213 -11 243 -12 16 -22 32 -22 34 0 3 -20 35 -45
71 -53 78 -57 57 63 305 43 91 84 182 91 202 7 20 23 43 36 52 28 18 105 167
105 202 0 14 -14 51 -30 84 -16 33 -30 72 -30 88 0 29 -129 230 -228 354 -28
36 -82 115 -120 175 -37 60 -84 132 -105 160 -40 55 -45 68 -22 60 8 -4 17 -1
21 4 8 13 80 4 127 -16 18 -7 64 -16 102 -18 39 -3 104 -14 145 -25 41 -11
129 -30 195 -42 66 -12 143 -30 170 -40 28 -10 100 -34 160 -53 281 -91 412
-142 585 -227 212 -106 294 -154 533 -316 32 -21 73 -48 91 -59 31 -19 183
-206 459 -568 60 -78 149 -205 198 -282 49 -77 123 -187 163 -245 138 -196
271 -395 277 -415 4 -11 23 -45 44 -75 20 -30 50 -83 66 -118 15 -35 40 -77
54 -93 13 -17 32 -55 41 -85 8 -30 34 -94 57 -142 42 -91 199 -535 292 -827
29 -93 83 -262 119 -375 35 -113 81 -268 102 -345 20 -77 59 -212 86 -300 27
-88 67 -234 89 -325 21 -91 50 -201 64 -245 14 -44 43 -168 65 -276 21 -107
53 -235 69 -285 17 -49 44 -147 60 -219 16 -71 50 -213 75 -315 60 -250 110
-472 136 -605 11 -60 32 -150 45 -200 13 -49 31 -141 40 -204 20 -140 65 -342
99 -437 14 -38 50 -164 82 -280 31 -115 64 -220 74 -234 33 -47 63 -115 111
-249 27 -74 65 -159 85 -190 l37 -55 13 27 c8 14 16 39 18 54 5 43 33 103 52
110 10 4 23 -4 38 -22 l23 -28 23 23 c20 20 22 29 16 76 -3 30 -3 54 0 54 4 0
29 -20 55 -45 26 -25 52 -45 57 -45 4 0 6 29 4 65 -4 53 -1 66 12 71 10 4 25
-1 36 -11 23 -21 21 -22 37 24 11 30 10 37 -13 66 -13 18 -41 70 -60 116 -20
46 -42 91 -49 99 -7 8 -15 28 -19 43 -4 15 -22 60 -40 100 -18 40 -52 135 -75
212 -23 77 -49 157 -57 178 -8 20 -14 59 -14 85 0 26 -15 99 -34 162 -56 188
-145 558 -165 687 -6 40 -20 96 -31 125 -10 29 -33 123 -50 208 -17 85 -33
157 -36 161 -2 4 -13 67 -24 139 -12 73 -27 144 -34 159 -8 14 -17 46 -21 70
-4 25 -16 69 -26 100 -11 30 -19 65 -19 78 0 13 -4 31 -9 41 -9 16 -51 159
-71 242 -33 133 -42 169 -54 200 -8 19 -19 62 -26 95 -7 33 -25 94 -40 135
-16 41 -31 92 -34 112 -4 20 -22 86 -41 145 -29 92 -141 557 -159 663 -3 19
-6 78 -7 130 -3 159 27 196 153 188 35 -3 107 -17 160 -33 95 -28 97 -29 121
-74 14 -25 46 -116 72 -201 25 -85 50 -159 55 -165 4 -5 28 -49 52 -96 47 -89
140 -224 238 -344 116 -142 262 -301 296 -321 20 -12 47 -33 62 -47 15 -14 64
-44 109 -66 45 -22 84 -45 88 -51 4 -6 33 -24 66 -40 32 -17 106 -62 165 -100
58 -39 111 -70 118 -70 6 0 52 -26 101 -58 50 -32 111 -66 138 -76 104 -39
280 -204 336 -313 30 -61 60 -89 85 -80 31 12 110 212 95 238 -4 8 -2 49 4 92
10 70 9 84 -7 125 -10 26 -22 92 -26 147 -4 59 -21 150 -40 220 -18 66 -45
167 -61 225 -15 58 -28 118 -29 133 0 16 -15 56 -34 90 -19 34 -51 103 -71
152 -49 119 -108 235 -137 271 -14 16 -37 52 -53 79 -45 79 -177 200 -358 329
-92 66 -194 142 -227 171 -32 28 -114 80 -182 115 l-123 64 -190 4 c-218 4
-286 -6 -415 -62 -118 -51 -161 -40 -302 76 -42 35 -100 79 -128 98 -64 44
-164 124 -207 168 -128 129 -487 632 -598 838 -44 82 -129 230 -189 329 -431
715 -483 806 -605 1055 -28 58 -67 134 -86 170 -52 98 -164 401 -191 520 l-24
105 22 44 c41 80 104 139 197 185 47 23 138 72 203 109 143 84 506 247 611
276 43 12 181 61 305 110 125 49 238 92 252 96 14 4 70 28 125 52 55 24 140
60 188 79 49 18 93 37 98 40 22 13 -15 32 -74 39 -34 4 -68 12 -76 19 -8 6
-41 13 -75 16 -51 4 -63 9 -71 28 -9 21 -15 22 -60 18 -106 -12 -178 -11 -182
1 -2 6 6 21 18 32 l23 21 -25 -1 c-13 0 -58 -9 -99 -20z m-5302 -1041 c9 -9
106 -12 370 -13 252 -1 375 -5 417 -14 33 -7 80 -16 105 -20 39 -5 50 -13 102
-76 33 -38 91 -116 130 -175 39 -58 94 -132 122 -164 106 -123 266 -332 272
-353 4 -13 -2 -40 -14 -65 -12 -24 -26 -79 -32 -123 -15 -116 -27 -152 -64
-193 -18 -20 -50 -69 -70 -108 -20 -39 -47 -77 -60 -84 -21 -11 -31 -8 -91 29
-117 70 -145 76 -360 76 -304 -1 -407 -23 -623 -136 l-134 -69 7 60 c4 32 7
132 7 222 1 352 -77 555 -277 726 -124 106 -222 136 -445 136 -74 0 -144 -2
-155 -5 -18 -4 -21 3 -26 66 -4 39 -12 90 -19 114 -6 25 -15 66 -19 92 l-8 48
51 11 c33 8 179 11 413 11 232 -1 364 3 368 9 8 13 18 13 33 -2z m-1926 -497
c46 -21 88 -52 156 -119 54 -53 92 -98 92 -109 0 -11 -31 -56 -70 -99 -38 -43
-70 -82 -70 -86 0 -14 -19 -8 -62 20 -24 16 -63 36 -88 46 -68 27 -72 30 -174
113 -53 42 -96 84 -96 93 0 8 16 37 35 64 19 27 35 55 35 62 0 19 70 43 127
43 36 1 70 -8 115 -28z m1654 -2114 l37 -128 -54 -55 c-29 -30 -56 -54 -60
-54 -5 0 -15 45 -53 240 l-14 74 46 70 47 69 7 -44 c4 -24 24 -102 44 -172z"/>
</g>
</svg>
